<svg width="30" height="29" viewBox="0 0 30 29" fill="none" xmlns="http://www.w3.org/2000/svg">
<path d="M16.4425 15.8873L12.0699 12.2851C11.5036 11.8196 10.6956 11.9362 10.2641 12.5466C9.83272 13.1572 9.94112 14.0295 10.5065 14.4955L14.1764 17.5184L12.226 22.1694C12.1506 22.3493 12.0307 23.092 12.0283 23.2777C12.6303 23.4447 13.0875 23.7144 13.6989 24C13.7147 23.9634 13.9918 23.3344 14.008 23.2954L16.9145 17.7278C17.0518 17.3261 17.1021 16.4733 16.4425 15.8873Z" fill="#5572BC"/>
<path d="M15.996 25.4463C15.9135 25.9256 15.5753 26.1381 15.2695 25.9051L13.1003 24.3277C12.7945 24.0946 13.2739 22.5857 13.3957 22C13.3957 22 13.541 22.334 13.7495 22.5876C14.0305 22.9292 14.4434 23.2781 14.6724 23.4286C14.7932 23.5082 14.796 22.8867 14.8602 22.9356C14.8602 22.9356 15.1595 23.7453 15.4792 24.3728C15.7393 24.8833 16.0381 25.2012 15.996 25.4463Z" fill="#D2D3D6"/>
<path d="M5.50002 18.0745C3.01047 18.0745 0.984966 20.2842 0.984966 23.0002C0.984966 25.7161 3.01047 27.9256 5.50002 27.9256C7.98958 27.9256 10.015 25.7161 10.015 23.0002C10.015 20.2842 7.98958 18.0745 5.50002 18.0745ZM5.50002 29C2.46723 29 0 26.3085 0 23.0002C0 19.6916 2.46723 17 5.50002 17C8.53281 17 11 19.6916 11 23.0002C11 26.3085 8.53281 29 5.50002 29Z" fill="#C1C1C1"/>
<path d="M17 22.5C17 23.3285 16.3284 24 15.5 24C14.6716 24 14 23.3285 14 22.5C14 21.6716 14.6716 21 15.5 21C16.3284 21 17 21.6716 17 22.5Z" fill="#523F70"/>
<path d="M24.0001 18.0745C21.2842 18.0745 19.0745 20.2842 19.0745 23.0002C19.0745 25.7161 21.2842 27.9256 24.0001 27.9256C26.716 27.9256 28.9255 25.7161 28.9255 23.0002C28.9255 20.2842 26.716 18.0745 24.0001 18.0745ZM24.0001 29C20.6915 29 18 26.3085 18 23.0002C18 19.6916 20.6915 17 24.0001 17C27.3084 17 30 19.6916 30 23.0002C30 26.3085 27.3084 29 24.0001 29Z" fill="#C1C1C1"/>
<path d="M7.23428 22.7139L10.332 16.266L21.6634 15.3932C21.7255 15.3932 21.7828 15.377 21.8384 15.3582L23.6899 22.7139H7.23428ZM24.7545 22.865L22.1143 12.3748C22.0474 12.1098 21.7772 11.9486 21.5104 12.0149C21.2434 12.0812 21.0813 12.3497 21.148 12.6147L21.5733 14.305L10.3505 15.551C10.0172 15.4981 9.71163 15.684 9.6151 15.8851L6.03967 23.3273C5.94305 23.5284 6.02901 23.7691 6.23138 23.8651C6.3023 23.8988 6.90484 24 7.0722 24H24.3526C24.7101 24 25 23.7122 25 23.357C25 23.1553 24.9008 22.9828 24.7545 22.865Z" fill="#E83F4C"/>
<path d="M14 15C14 15.5523 13.4929 16 12.8674 16H9.13251C8.50706 16 8 15.5523 8 15C8 14.4477 8.50706 14 9.13251 14H12.8674C13.4929 14 14 14.4477 14 15Z" fill="#6A4897"/>
<path d="M4 22.5C4 22.7762 3.55229 23 3 23C2.44771 23 2 22.7762 2 22.5C2 22.2239 2.44771 22 3 22C3.55229 22 4 22.2239 4 22.5Z" fill="#FEC80F"/>
<path d="M15.2354 24C15.8138 23.7373 16.3412 23.6366 17 23.4499C16.9899 23.4147 16.8209 22.806 16.8099 22.7688L15.6698 17.0781L11.3283 12.4257C10.8417 11.9054 10.0018 11.8549 9.45077 12.3136C8.89976 12.7723 8.84643 13.5657 9.33203 14.0862L13.2739 18.3099L14.7085 23.1101C14.7598 23.2818 15.1228 23.8703 15.2354 24Z" fill="#6D89E2"/>
<path d="M13.3636 13.2067C13.0684 13.5447 13.1155 14.2634 12.0435 13.9C11.6922 13.7808 10.0765 13.3356 9.73917 13.1782C8.78746 12.7343 8.82913 12.4444 9.44246 11.5605L13.1155 6.51859C13.7288 5.63467 15.556 4.55095 16.3975 5.19505C17.2391 5.83925 17.1246 8.24954 16.5113 9.13346L13.3636 13.2067Z" fill="#F2B814"/>
<path d="M19.972 2.77495C20.1673 4.14664 19.3149 5.85392 18.2731 5.98799C17.2313 6.12205 16.2284 5.11875 16.0332 3.74707C15.8379 2.3753 16.5242 1.15467 17.566 1.02052C18.6078 0.886364 19.7767 1.40318 19.972 2.77495Z" fill="#F7B078"/>
<path d="M21.915 13C21.7918 13 21.6668 12.979 21.5442 12.9346L17.7291 11.552L15.1907 7.75066C14.8482 7.23817 14.9797 6.54104 15.484 6.19338C15.9889 5.84582 16.6745 5.97964 17.0167 6.49146L19.1249 9.97206L22.067 11.0984C22.6412 11.3064 23.1592 11.672 22.9544 12.2553C22.7933 12.714 22.3684 13 21.915 13Z" fill="#F7B078"/>
<path d="M15.004 2.52874C15.004 2.52874 15.0838 4.14013 15.4758 4.64974C15.6869 4.92436 16.1144 5 16.1144 5C16.1144 5 15.8295 3.3106 16.2851 3.35231C16.6054 3.38169 16.5644 4.14648 16.7386 4.10695C17.1743 4.00809 17.2325 2.43661 17.2325 2.43661C17.2325 2.43661 18.5365 2.43812 19.3782 1.8723C20.22 1.30658 20.0479 0.409552 19.781 0.331158C19.514 0.252669 19.2078 0.556481 19.2078 0.556481C19.2078 0.556481 18.5487 0.575439 17.4302 0.101C16.9163 -0.11693 16.1068 0.0484834 15.7176 0.306226C15.2598 0.609469 14.9618 1.82993 15.004 2.52874Z" fill="#3A3F57"/>
<path d="M7 23C7 23.5523 6.32838 24 5.5 24C4.67162 24 4 23.5523 4 23C4 22.4477 4.67162 22 5.5 22C6.32838 22 7 22.4477 7 23Z" fill="#6A4897"/>
<path d="M25 23C25 23.5523 24.5523 24 24 24C23.4477 24 23 23.5523 23 23C23 22.4477 23.4477 22 24 22C24.5523 22 25 22.4477 25 23Z" fill="#6A4897"/>
<path d="M19.9587 23.479C20.1133 23.9112 19.8186 24.4461 19.3266 24.6296L15.8776 25.9855C15.3858 26.1691 15.1637 24.5586 15 24.0067C15 24.0067 15.3521 24.077 15.7375 24.0186C16.2572 23.9398 16.9394 23.716 17.295 23.5617C17.4827 23.4803 17.1567 23.0386 17.26 23C17.26 23 18.0497 23.2307 18.7673 23.3097C19.3512 23.3739 19.8796 23.2581 19.9587 23.479Z" fill="#E3F6FF"/>
<path d="M19.9603 24.3961C20.0768 24.7157 19.928 25.0752 19.6281 25.1992L17.7936 25.9577C17.4937 26.0819 17.1561 25.9234 17.0397 25.6038C16.9232 25.2844 17.072 24.9248 17.3719 24.8007L19.2064 24.0422C19.5063 23.9182 19.8439 24.0766 19.9603 24.3961Z" fill="#6A4897"/>
<path d="M22 12.5C22 12.7762 21.7761 13 21.5 13C21.2238 13 21 12.7762 21 12.5C21 12.2239 21.2238 12 21.5 12C21.7761 12 22 12.2239 22 12.5Z" fill="#383E56"/>
<path d="M14.9634 25.6605C14.8719 25.9536 14.6372 26.0815 14.4393 25.9458L13.2292 25.1162C13.0312 24.9806 12.945 24.6329 13.0366 24.3396C13.1281 24.0464 13.3627 23.9185 13.5606 24.0542L14.7708 24.8837C14.9687 25.0194 15.055 25.3671 14.9634 25.6605Z" fill="#523F70"/>
</svg>
