<svg width="30" height="27" viewBox="0 0 30 27" fill="none" xmlns="http://www.w3.org/2000/svg">
<path d="M10.3946 23.8283C6.10574 23.8283 2.62888 24.26 2.62888 24.7926C2.62888 25.3252 6.10574 25.7571 10.3946 25.7571C14.6837 25.7571 18.1606 25.3252 18.1606 24.7926C18.1606 24.26 14.6837 23.8283 10.3946 23.8283Z" fill="#7A8DB0"/>
<path d="M24.6898 24.892C22.1625 24.892 20.1138 25.1209 20.1138 25.4032C20.1138 25.6855 22.1625 25.9143 24.6898 25.9143C27.2167 25.9143 29.2654 25.6855 29.2654 25.4032C29.2654 25.1209 27.2167 24.892 24.6898 24.892Z" fill="#7A8DB0"/>
<path d="M26.1299 9.20494C25.523 8.48026 25.1218 7.60605 24.9682 6.67352L24.8286 5.82732C24.5371 4.05996 23.3695 2.56065 21.7271 1.84502L18.6183 0.490711C17.1848 -0.133919 15.5487 -0.0912552 14.1497 0.607353L3.57928 5.88502C1.37058 6.98763 0.220599 9.47328 0.809942 11.8706L1.88449 16.242C2.47704 18.6524 4.66813 20.3248 7.14939 20.2607L12.0373 20.1343C12.2309 20.1293 12.4247 20.135 12.6177 20.1513L21.608 20.9099C23.4629 21.0666 25.2631 20.235 26.3464 18.7213L27.5377 17.0572C28.9396 15.0986 28.8385 12.4395 27.2921 10.5928L26.1299 9.20494Z" fill="#0D5537"/>
<path d="M25.3888 5.18041C25.3899 5.17018 25.3899 5.15995 25.3899 5.14949C25.3899 4.8623 25.2725 4.60046 25.0832 4.41095C24.8937 4.22143 24.6319 4.10423 24.3447 4.10423H22.3716C21.7968 4.10423 21.3263 4.57442 21.3263 5.14949H19.9465C19.3691 5.14949 18.8796 5.60596 18.8735 6.18358C18.8703 6.47588 18.9882 6.74144 19.1802 6.93352C19.3698 7.12234 19.6314 7.24023 19.9188 7.24023H26.2603C26.4745 7.24023 26.6482 7.06653 26.6482 6.85236V6.71795V6.71726C26.6482 5.96081 26.1045 5.32505 25.3888 5.18041Z" fill="#B5CAE8"/>
<path d="M19.2926 6.43255H18.3579C18.3228 6.43255 18.2941 6.46129 18.2941 6.49641V6.68102C18.2941 6.71614 18.3228 6.74487 18.3579 6.74487H19.2926C19.3276 6.74487 19.3563 6.71614 19.3563 6.68102V6.49641C19.3563 6.46129 19.3276 6.43255 19.2926 6.43255Z" fill="#F2B814"/>
<path d="M25.4652 5.87378H26.6679V5.80747H25.4652V5.87378Z" fill="#F2B814"/>
<path d="M22.8642 6.74122C22.8642 6.9643 23.2105 6.96408 23.2105 6.74122C23.2105 6.51793 22.8642 6.51835 22.8642 6.74122Z" fill="#F2B814"/>
<path d="M17.4508 2.44407H8.921C7.74045 2.44407 6.7747 3.40997 6.7747 4.59032V23.9069C6.7747 25.0872 7.74045 26.053 8.921 26.053H17.4508C18.6313 26.053 19.597 25.0872 19.597 23.9069V4.59032C19.597 3.40997 18.6313 2.44407 17.4508 2.44407Z" fill="#3D5891"/>
<path d="M17.3645 2.621H9.00694C7.82648 2.621 6.86073 3.58666 6.86073 4.76712V23.6538C6.86073 24.8342 7.82648 25.8 9.00694 25.8H17.3645C18.545 25.8 19.5108 24.8342 19.5108 23.6538V4.76712C19.5108 3.58666 18.545 2.621 17.3645 2.621Z" fill="#5681BF"/>
<path d="M18.3199 3.78128C18.2629 3.7365 18.2026 3.69559 18.1393 3.65802C17.947 3.5442 17.7286 3.46518 17.494 3.43094C17.4075 3.41835 17.3189 3.4115 17.2286 3.4115H16.2286H10.475H9.14432C8.2184 3.4115 7.46107 4.10331 7.46107 4.94892V22.7036C7.46107 23.1834 7.70518 23.6138 8.08551 23.8959C8.13363 23.9317 8.18378 23.965 8.23598 23.9958C8.49823 24.1506 8.81063 24.2405 9.14432 24.2405H17.2286C18.1543 24.2405 18.9118 23.549 18.9118 22.7036V4.94892C18.9118 4.4829 18.6818 4.06352 18.3199 3.78128Z" fill="#F2B814"/>
<path d="M16.2287 3.41131H10.475H9.14422C8.21843 3.41131 7.46107 4.10288 7.46107 4.9486V22.5385C7.54732 22.5515 7.63603 22.5581 7.72634 22.5581H15.8107C16.7365 22.5581 17.4938 21.8661 17.4938 21.0212V3.43054C17.4074 3.41784 17.3189 3.41131 17.2284 3.41131H16.2287Z" fill="#F2B814"/>
<path d="M16.2556 23.4895L8.23568 23.9958C8.49793 24.1506 8.81015 24.2405 9.14384 24.2405H17.228C18.1539 24.2405 18.9113 23.5488 18.9113 22.7034V19.0695L18.4989 21.4736C18.3083 22.5839 17.38 23.4183 16.2556 23.4895Z" fill="#F2B814"/>
<path d="M6.77868 14.8609C6.77603 14.8932 6.7747 14.918 6.7747 14.9346L6.77868 14.8609Z" fill="#F2B814"/>
<path d="M9.85612 5.60138H8.61334C8.58249 5.60138 8.55747 5.62655 8.55747 5.65725V5.85233C8.55747 5.88303 8.58249 5.9082 8.61334 5.9082H9.85612C9.88697 5.9082 9.91199 5.88303 9.91199 5.85233V5.65725C9.91199 5.62655 9.88697 5.60138 9.85612 5.60138Z" fill="#F2B814"/>
<path d="M9.8561 6.13155H8.61336C8.58256 6.13155 8.55747 6.15664 8.55747 6.18743V6.38259C8.55747 6.41324 8.58256 6.43848 8.61336 6.43848H9.8561C9.8869 6.43848 9.91199 6.41324 9.91199 6.38259V6.18743C9.91199 6.15664 9.8869 6.13155 9.8561 6.13155Z" fill="#F2B814"/>
<path d="M9.85623 6.66136H8.61347C8.58261 6.66136 8.55747 6.68649 8.55747 6.71721V6.91241C8.55747 6.94313 8.58261 6.96826 8.61347 6.96826H9.85623C9.88695 6.96826 9.91223 6.94313 9.91223 6.91241V6.71721C9.91223 6.68649 9.88695 6.66136 9.85623 6.66136Z" fill="#F2B814"/>
<path d="M17.814 5.47786C17.4773 5.47786 17.2043 5.7508 17.2043 6.08766C17.2043 6.42433 17.4773 6.69727 17.814 6.69727C18.1508 6.69727 18.4237 6.42433 18.4237 6.08766C18.4237 5.7508 18.1508 5.47786 17.814 5.47786Z" fill="#F2B814"/>
<path d="M18.0871 6.20501H18.0552V6.02194C18.0552 5.90542 17.9739 5.80712 17.8653 5.78042C17.868 5.77321 17.8696 5.76563 17.8696 5.75751C17.8696 5.72162 17.8406 5.69258 17.8047 5.69258C17.7688 5.69258 17.7398 5.72162 17.7398 5.75751C17.7398 5.76581 17.7414 5.77375 17.7443 5.78114C17.6371 5.80892 17.5572 5.90632 17.5572 6.02194V6.20501H17.5406C17.5089 6.20501 17.4829 6.23081 17.4829 6.26273C17.4829 6.29466 17.5089 6.32045 17.5406 6.32045H17.7165C17.7129 6.33055 17.7109 6.3412 17.7109 6.35256C17.7109 6.40451 17.7527 6.44653 17.8047 6.44653C17.8566 6.44653 17.8985 6.40451 17.8985 6.35256C17.8985 6.3412 17.8965 6.33055 17.8927 6.32045H18.0871C18.1191 6.32045 18.1449 6.29466 18.1449 6.26273C18.1449 6.23081 18.1191 6.20501 18.0871 6.20501Z" fill="#2F4171"/>
<path d="M8.97825 8.4138C8.95668 8.4138 8.94151 8.41352 8.92926 8.41143V8.25262H8.97296C9.03657 8.25262 9.08737 8.27531 9.08737 8.33182C9.08737 8.39125 9.03629 8.4138 8.97825 8.4138ZM8.92926 8.02965C8.9397 8.02742 8.95543 8.02575 8.9834 8.02575C9.04116 8.02575 9.07373 8.0483 9.07373 8.09131C9.07373 8.1332 9.03838 8.16132 8.97074 8.16132H8.92926V8.02965ZM9.10923 8.19834V8.19611C9.17297 8.17259 9.20206 8.12569 9.20206 8.076C9.20206 8.02408 9.17422 7.98553 9.1347 7.96451C9.0935 7.94057 9.04548 7.93278 8.96754 7.93278C8.90351 7.93278 8.83629 7.93849 8.8026 7.94503V8.49995C8.83128 8.50413 8.87776 8.5083 8.94067 8.5083C9.05327 8.5083 9.12147 8.49021 9.16295 8.45694C9.19802 8.42897 9.22182 8.3886 9.22182 8.33683C9.22182 8.26445 9.17367 8.21518 9.10923 8.19834Z" fill="#F2B814"/>
<path d="M9.45574 8.26198L9.48969 8.14203C9.4986 8.10933 9.50709 8.06633 9.51544 8.03307H9.51724C9.52601 8.06619 9.53589 8.10849 9.54563 8.14203L9.58084 8.26198H9.45574ZM9.43765 7.93719L9.26523 8.50244H9.39743L9.43723 8.3573H9.5999L9.64332 8.50244H9.78095L9.60491 7.93719H9.43765Z" fill="#F2B814"/>
<path d="M9.98397 7.93719H9.85622V8.50244H10.2088V8.39529H9.98397V7.93719Z" fill="#F2B814"/>
<path d="M10.4397 8.26222L10.4735 8.14227C10.4826 8.10957 10.4911 8.06657 10.4993 8.03331H10.5011C10.5099 8.06643 10.5197 8.10873 10.5295 8.14227L10.5648 8.26222H10.4397ZM10.4216 7.93743L10.2491 8.50269H10.3813L10.4211 8.35755H10.5837L10.6272 8.50269H10.7648L10.5889 7.93743H10.4216Z" fill="#F2B814"/>
<path d="M11.1908 8.10195C11.1908 8.18739 11.1932 8.26337 11.2011 8.3381L11.1989 8.33852C11.1734 8.2745 11.1405 8.20381 11.1065 8.14453L10.9892 7.93719H10.8403V8.50244H10.9576V8.33253C10.9576 8.24027 10.9561 8.16026 10.9522 8.08525L10.955 8.08511C10.9822 8.15135 11.0194 8.22371 11.0531 8.2848L11.1743 8.50244H11.3082V7.93719H11.1908V8.10195Z" fill="#F2B814"/>
<path d="M11.3925 8.22784C11.3925 8.38881 11.4934 8.51123 11.6891 8.51123C11.7572 8.51123 11.8108 8.4982 11.8336 8.48686L11.8145 8.38654C11.7893 8.39717 11.7469 8.40482 11.7078 8.40482C11.5939 8.40482 11.5271 8.33369 11.5271 8.22033C11.5271 8.09479 11.6062 8.0333 11.7069 8.0333C11.7526 8.0333 11.789 8.04336 11.8143 8.05441L11.8404 7.95338C11.8182 7.9412 11.7677 7.92845 11.7013 7.92845C11.5307 7.92845 11.3925 8.035 11.3925 8.22784Z" fill="#F2B814"/>
<path d="M12.0458 8.26335H12.2537V8.15968H12.0458V8.04187H12.2661V7.93719H11.918V8.50244H12.2782V8.39777H12.0458V8.26335Z" fill="#F2B814"/>
<path d="M9.19757 9.72672C9.03484 9.66657 8.96808 9.62519 8.96808 9.5628C8.96808 9.50926 9.00866 9.4544 9.13213 9.4544C9.26975 9.4544 9.35872 9.49868 9.4075 9.52063L9.46461 9.30383C9.40009 9.27369 9.31351 9.24566 9.18686 9.24116V9.07195H8.99835V9.25412C8.79279 9.29365 8.67434 9.42597 8.67434 9.59585C8.67434 9.78092 8.81407 9.87703 9.01924 9.94643C9.16174 9.99429 9.22322 10.0392 9.22322 10.1126C9.22322 10.1882 9.14813 10.2314 9.03893 10.2314C8.91454 10.2314 8.80151 10.1907 8.72021 10.1474L8.6631 10.3713C8.73488 10.4126 8.86073 10.4484 8.98857 10.4538V10.6362H9.17695V10.4394C9.39719 10.4012 9.51682 10.257 9.51682 10.0864C9.51682 9.91259 9.42587 9.80696 9.19757 9.72672Z" fill="#243354"/>
<path d="M10.5149 9.49629L10.7206 9.25209L10.553 9.15647L10.4433 9.45051H10.4389L10.3323 9.15674L10.1621 9.25317L10.3642 9.49588L10.3631 9.50008L10.0652 9.43927V9.63268L10.3662 9.57877L10.3674 9.58243L10.162 9.8223L10.3265 9.9209L10.4368 9.62618L10.4406 9.62469L10.5508 9.92049L10.7206 9.82203L10.5122 9.58514L10.513 9.58067L10.8213 9.63268V9.43927L10.5153 9.50049L10.5149 9.49629Z" fill="#2F4171"/>
<path d="M11.3846 9.49631L11.5904 9.2522L11.4226 9.15647L11.3128 9.45056H11.3086L11.202 9.15675L11.0317 9.25319L11.2338 9.49589L11.2327 9.50011L10.9348 9.43929V9.63272L11.2358 9.57881L11.237 9.58247L11.0317 9.82235L11.1962 9.9209L11.3063 9.62611L11.3103 9.6247L11.4203 9.92062L11.5903 9.82193L11.3819 9.58514L11.3826 9.58064L11.6909 9.63272V9.43929L11.3849 9.50053L11.3846 9.49631Z" fill="#2F4171"/>
<path d="M11.7504 10.6973L11.9451 10.6803C12.037 10.5306 12.1236 10.3288 12.1865 10.1336L11.8901 10.1528C11.8627 10.3275 11.811 10.527 11.7504 10.6973Z" fill="#2F4171"/>
<path d="M12.7527 9.49636L12.9585 9.25216L12.7909 9.15639L12.6811 9.45041H12.6769L12.5702 9.15669L12.3999 9.25321L12.6022 9.49591L12.6008 9.50009L12.3031 9.43922V9.6327L12.6041 9.5787L12.6051 9.58243L12.3997 9.8223L12.5644 9.9209L12.6747 9.62614L12.6784 9.62464L12.7886 9.92045L12.9585 9.822L12.7501 9.58511L12.7509 9.58064L13.0591 9.6327V9.43922L12.7531 9.50053L12.7527 9.49636Z" fill="#2F4171"/>
<path d="M13.6231 9.49631L13.8289 9.25218L13.6611 9.15639L13.5514 9.45057H13.5471L13.4407 9.15685L13.2702 9.25327L13.4725 9.49584L13.4712 9.50017L13.1735 9.43929V9.63274L13.4745 9.57882L13.4756 9.58237L13.2702 9.82232L13.4348 9.9209L13.5449 9.6261L13.5488 9.6247L13.6591 9.92059L13.8288 9.82201L13.6205 9.58515L13.6213 9.58067L13.9295 9.63274V9.43929L13.6234 9.50063L13.6231 9.49631Z" fill="#2F4171"/>
<path d="M14.4927 9.49635L14.6986 9.2521L14.5307 9.15651L14.4209 9.45047H14.4168L14.3102 9.15683L14.1398 9.25322L14.342 9.49603L14.341 9.50018L14.0431 9.43928V9.6327L14.344 9.57883L14.3453 9.5825L14.1398 9.82227L14.3044 9.9209L14.4145 9.62614L14.4185 9.6247L14.5285 9.92058L14.6984 9.82195L14.4901 9.58522L14.4909 9.58075L14.7991 9.6327V9.43928L14.4932 9.50066L14.4927 9.49635Z" fill="#2F4171"/>
<path d="M15.1237 10.1356C15.0229 10.1356 14.9514 10.2091 14.9514 10.313C14.951 10.4156 15.0219 10.4897 15.1231 10.4897C15.2265 10.4897 15.2952 10.4156 15.2952 10.313C15.2941 10.2071 15.225 10.1356 15.1237 10.1356Z" fill="#2F4171"/>
<path d="M15.861 9.49619L16.0668 9.2519L15.8992 9.15618L15.7894 9.45026H15.7852L15.6785 9.15651L15.5082 9.25308L15.7105 9.49568L15.7093 9.49989L15.4113 9.43915V9.63246L15.7125 9.57862L15.7135 9.58216L15.5081 9.82207L15.6728 9.92065L15.783 9.6259L15.7867 9.62455L15.8969 9.92032L16.0668 9.82173L15.8585 9.58502L15.8593 9.58048L16.1674 9.63246V9.43915L15.8615 9.50039L15.861 9.49619Z" fill="#2F4171"/>
<path d="M16.7311 9.49626L16.9369 9.25204L16.7691 9.15622L16.6594 9.45043H16.655L16.5485 9.15657L16.3782 9.2529L16.5804 9.49574L16.5792 9.4999L16.2813 9.43915V9.63252L16.5823 9.57853L16.5835 9.58235L16.378 9.82224L16.5427 9.92065L16.6529 9.62609L16.6568 9.62453L16.7668 9.92048L16.9367 9.82189L16.7284 9.58496L16.7291 9.58044L17.0374 9.63252V9.43915L16.7314 9.50042L16.7311 9.49626Z" fill="#2F4171"/>
<path d="M17.9858 11.8784H8.37626C8.30309 11.8784 8.24326 11.9382 8.24326 12.0112V13.8935C8.24326 13.9666 8.30309 14.0264 8.37626 14.0264H17.9858C18.059 14.0264 18.1188 13.9666 18.1188 13.8935V12.0112C18.1188 11.9382 18.059 11.8784 17.9858 11.8784Z" fill="#B5CAE8"/>
<path d="M9.71578 13.7315C9.28432 13.7315 8.93332 13.3803 8.93332 12.949C8.93332 12.5175 9.28432 12.1665 9.71578 12.1665C10.1472 12.1665 10.4982 12.5175 10.4982 12.949C10.4982 13.3803 10.1472 13.7315 9.71578 13.7315ZM9.71578 12.1C9.24764 12.1 8.86678 12.4809 8.86678 12.949C8.86678 13.417 9.24764 13.7979 9.71578 13.7979C10.1839 13.7979 10.5646 13.417 10.5646 12.949C10.5646 12.4809 10.1839 12.1 9.71578 12.1Z" fill="#5681BF"/>
<path d="M9.71733 13.2642C9.68448 13.2642 9.66209 13.2642 9.64324 13.2616V13.0197H9.70843C9.80399 13.0197 9.88044 13.0541 9.88044 13.1406C9.88044 13.2311 9.80399 13.2642 9.71733 13.2642ZM9.64324 12.681C9.65947 12.6785 9.6833 12.6759 9.72479 12.6759C9.81145 12.6759 9.86041 12.7102 9.86041 12.7753C9.86041 12.839 9.80635 12.8809 9.70607 12.8809H9.64324V12.681ZM9.91317 12.9368V12.9344C10.0086 12.8987 10.0526 12.8274 10.0526 12.7512C10.0526 12.6734 10.0099 12.6146 9.95087 12.5828C9.91605 12.562 9.87795 12.5493 9.8303 12.5422V12.4115H9.74103V12.5352C9.72833 12.5346 9.71485 12.5345 9.70097 12.5345C9.68029 12.5345 9.65947 12.5349 9.63905 12.5356V12.4115H9.54977V12.5404C9.5105 12.5436 9.4766 12.5477 9.45356 12.5525V13.3953C9.47725 13.3989 9.50959 13.4024 9.54977 13.4049V13.5171H9.63905V13.408C9.64612 13.4082 9.65332 13.4082 9.66078 13.4082C9.68945 13.4082 9.71615 13.4074 9.74103 13.4057V13.5171H9.8303V13.3955C9.90348 13.3828 9.95623 13.3607 9.99354 13.3304C10.0464 13.2872 10.0814 13.2261 10.0814 13.1483C10.0814 13.0376 10.0099 12.9636 9.91317 12.9368Z" fill="#5681BF"/>
<path d="M14.1277 12.3474H11.1152C11.0773 12.3474 11.0462 12.3785 11.0462 12.4164V12.6575C11.0462 12.6955 11.0773 12.7266 11.1152 12.7266H14.1277C14.1657 12.7266 14.1968 12.6955 14.1968 12.6575V12.4164C14.1968 12.3785 14.1657 12.3474 14.1277 12.3474Z" fill="#F2B814"/>
<path d="M14.7363 12.9316H11.0904C11.0765 12.9316 11.0652 12.9429 11.0652 12.9568V13.0451C11.0652 13.059 11.0765 13.0703 11.0904 13.0703H14.7363C14.7502 13.0703 14.7615 13.059 14.7615 13.0451V12.9568C14.7615 12.9429 14.7502 12.9316 14.7363 12.9316Z" fill="#F2B814"/>
<path d="M14.7363 13.275H11.0904C11.0765 13.275 11.0652 13.2865 11.0652 13.3004V13.3887C11.0652 13.4026 11.0765 13.4141 11.0904 13.4141H14.7363C14.7502 13.4141 14.7615 13.4026 14.7615 13.3887V13.3004C14.7615 13.2865 14.7502 13.275 14.7363 13.275Z" fill="#F2B814"/>
<path d="M17.9858 17.7979H8.37626C8.30309 17.7979 8.24326 17.8577 8.24326 17.9308V19.8131C8.24326 19.8862 8.30309 19.946 8.37626 19.946H17.9858C18.059 19.946 18.1188 19.8862 18.1188 19.8131V17.9308C18.1188 17.8577 18.059 17.7979 17.9858 17.7979Z" fill="#B5CAE8"/>
<path d="M9.71578 19.6508C9.28432 19.6508 8.93332 19.2998 8.93332 18.8683C8.93332 18.4369 9.28432 18.0859 9.71578 18.0859C10.1472 18.0859 10.4982 18.4369 10.4982 18.8683C10.4982 19.2998 10.1472 19.6508 9.71578 19.6508ZM9.71578 18.0195C9.24764 18.0195 8.86678 18.4003 8.86678 18.8683C8.86678 19.3365 9.24764 19.7173 9.71578 19.7173C10.1839 19.7173 10.5646 19.3365 10.5646 18.8683C10.5646 18.4003 10.1839 18.0195 9.71578 18.0195Z" fill="#5681BF"/>
<path d="M9.71733 19.1837C9.68448 19.1837 9.66209 19.1837 9.64324 19.1811V18.9391H9.70843C9.80399 18.9391 9.88044 18.9736 9.88044 19.0601C9.88044 19.1506 9.80399 19.1837 9.71733 19.1837ZM9.64324 18.6004C9.65947 18.5979 9.6833 18.5953 9.72479 18.5953C9.81145 18.5953 9.86041 18.6297 9.86041 18.6947C9.86041 18.7584 9.80635 18.8004 9.70607 18.8004H9.64324V18.6004ZM9.91317 18.8564V18.8538C10.0086 18.8182 10.0526 18.7469 10.0526 18.6705C10.0526 18.5928 10.0099 18.5342 9.95087 18.5024C9.91605 18.4815 9.87795 18.4687 9.8303 18.4617V18.331H9.74103V18.4546C9.72833 18.4542 9.71485 18.454 9.70097 18.454C9.68029 18.454 9.65947 18.4544 9.63905 18.455V18.331H9.54977V18.46C9.5105 18.4631 9.4766 18.4672 9.45356 18.4718V19.3148C9.47725 19.3183 9.50959 19.3219 9.54977 19.3243V19.4365H9.63905V19.3274C9.64612 19.3275 9.65332 19.3275 9.66078 19.3275C9.68945 19.3275 9.71615 19.3268 9.74103 19.3251V19.4365H9.8303V19.315C9.90348 19.3022 9.95623 19.28 9.99354 19.2499C10.0464 19.2066 10.0814 19.1455 10.0814 19.0678C10.0814 18.9571 10.0099 18.8831 9.91317 18.8564Z" fill="#5681BF"/>
<path d="M14.1277 18.2671H11.1152C11.0773 18.2671 11.0462 18.2983 11.0462 18.3362V18.5773C11.0462 18.6152 11.0773 18.6462 11.1152 18.6462H14.1277C14.1657 18.6462 14.1968 18.6152 14.1968 18.5773V18.3362C14.1968 18.2983 14.1657 18.2671 14.1277 18.2671Z" fill="#F2B814"/>
<path d="M14.7363 18.8513H11.0904C11.0765 18.8513 11.0652 18.8627 11.0652 18.8767V18.9649C11.0652 18.9788 11.0765 18.9902 11.0904 18.9902H14.7363C14.7502 18.9902 14.7615 18.9788 14.7615 18.9649V18.8767C14.7615 18.8627 14.7502 18.8513 14.7363 18.8513Z" fill="#F2B814"/>
<path d="M14.7363 19.1952H11.0904C11.0765 19.1952 11.0652 19.2065 11.0652 19.2205V19.3087C11.0652 19.3226 11.0765 19.334 11.0904 19.334H14.7363C14.7502 19.334 14.7615 19.3226 14.7615 19.3087V19.2205C14.7615 19.2065 14.7502 19.1952 14.7363 19.1952Z" fill="#F2B814"/>
<path d="M17.9858 20.737H8.37626C8.30309 20.737 8.24326 20.7968 8.24326 20.8699V22.7521C8.24326 22.8252 8.30309 22.885 8.37626 22.885H17.9858C18.059 22.885 18.1188 22.8252 18.1188 22.7521V20.8699C18.1188 20.7968 18.059 20.737 17.9858 20.737Z" fill="#B5CAE8"/>
<path d="M9.71578 22.59C9.28432 22.59 8.93332 22.2391 8.93332 21.8076C8.93332 21.3761 9.28432 21.0251 9.71578 21.0251C10.1472 21.0251 10.4982 21.3761 10.4982 21.8076C10.4982 22.2391 10.1472 22.59 9.71578 22.59ZM9.71578 20.9586C9.24764 20.9586 8.86678 21.3395 8.86678 21.8076C8.86678 22.2756 9.24764 22.6565 9.71578 22.6565C10.1839 22.6565 10.5646 22.2756 10.5646 21.8076C10.5646 21.3395 10.1839 20.9586 9.71578 20.9586Z" fill="#5681BF"/>
<path d="M9.71733 22.1229C9.68448 22.1229 9.66209 22.1229 9.64324 22.1202V21.8783H9.70843C9.80399 21.8783 9.88044 21.9127 9.88044 21.9993C9.88044 22.0897 9.80399 22.1229 9.71733 22.1229ZM9.64324 21.5396C9.65947 21.5371 9.6833 21.5345 9.72479 21.5345C9.81145 21.5345 9.86041 21.5689 9.86041 21.6339C9.86041 21.6976 9.80635 21.7395 9.70607 21.7395H9.64324V21.5396ZM9.91317 21.7955V21.793C10.0086 21.7574 10.0526 21.6861 10.0526 21.6097C10.0526 21.532 10.0099 21.4733 9.95087 21.4416C9.91605 21.4207 9.87795 21.408 9.8303 21.4009V21.2702H9.74103V21.3938C9.72833 21.3934 9.71498 21.3932 9.70097 21.3932C9.68029 21.3932 9.65947 21.3936 9.63905 21.3942V21.2702H9.54977V21.3991C9.5105 21.4022 9.4766 21.4064 9.45356 21.4111V22.254C9.47725 22.2576 9.50959 22.2611 9.54977 22.2635V22.3757H9.63905V22.2666C9.64612 22.2668 9.65332 22.2668 9.66078 22.2668C9.68945 22.2668 9.71615 22.266 9.74103 22.2643V22.3757H9.8303V22.2541C9.90348 22.2414 9.95623 22.2192 9.99354 22.1891C10.0464 22.1458 10.0814 22.0847 10.0814 22.007C10.0814 21.8962 10.0099 21.8223 9.91317 21.7955Z" fill="#5681BF"/>
<path d="M14.1277 21.2059H11.1152C11.0773 21.2059 11.0462 21.237 11.0462 21.275V21.516C11.0462 21.5539 11.0773 21.585 11.1152 21.585H14.1277C14.1657 21.585 14.1968 21.5539 14.1968 21.516V21.275C14.1968 21.237 14.1657 21.2059 14.1277 21.2059Z" fill="#F2B814"/>
<path d="M14.7363 21.7902H11.0904C11.0765 21.7902 11.0652 21.8016 11.0652 21.8154V21.9037C11.0652 21.9177 11.0765 21.929 11.0904 21.929H14.7363C14.7502 21.929 14.7615 21.9177 14.7615 21.9037V21.8154C14.7615 21.8016 14.7502 21.7902 14.7363 21.7902Z" fill="#F2B814"/>
<path d="M14.7363 22.1339H11.0904C11.0765 22.1339 11.0652 22.1452 11.0652 22.1592V22.2473C11.0652 22.2613 11.0765 22.2727 11.0904 22.2727H14.7363C14.7502 22.2727 14.7615 22.2613 14.7615 22.2473V22.1592C14.7615 22.1452 14.7502 22.1339 14.7363 22.1339Z" fill="#F2B814"/>
<path d="M17.9858 14.8431H8.37626C8.30309 14.8431 8.24326 14.9029 8.24326 14.976V16.8583C8.24326 16.9314 8.30309 16.9912 8.37626 16.9912H17.9858C18.059 16.9912 18.1188 16.9314 18.1188 16.8583V14.976C18.1188 14.9029 18.059 14.8431 17.9858 14.8431Z" fill="#B5CAE8"/>
<path d="M9.71578 16.6962C9.28432 16.6962 8.93332 16.3452 8.93332 15.9137C8.93332 15.4822 9.28432 15.1314 9.71578 15.1314C10.1472 15.1314 10.4982 15.4822 10.4982 15.9137C10.4982 16.3452 10.1472 16.6962 9.71578 16.6962ZM9.71578 15.0648C9.24764 15.0648 8.86678 15.4457 8.86678 15.9137C8.86678 16.3818 9.24764 16.7627 9.71578 16.7627C10.1839 16.7627 10.5646 16.3818 10.5646 15.9137C10.5646 15.4457 10.1839 15.0648 9.71578 15.0648Z" fill="#5681BF"/>
<path d="M9.81478 15.8363C9.71089 15.797 9.66821 15.7716 9.66821 15.7314C9.66821 15.6972 9.69379 15.663 9.77315 15.663C9.86098 15.663 9.91711 15.6911 9.94921 15.7045L9.98445 15.5665C9.94412 15.5471 9.88905 15.53 9.80747 15.5262V15.4188H9.68779V15.535C9.55727 15.5605 9.48131 15.6446 9.48131 15.752C9.48131 15.8705 9.57058 15.9316 9.70123 15.9756C9.79168 16.0061 9.83044 16.0354 9.83057 16.0816C9.83044 16.1306 9.78307 16.1574 9.71337 16.1574C9.63415 16.1574 9.5621 16.1318 9.51068 16.1038L9.47426 16.2465C9.5206 16.2733 9.59982 16.2952 9.68165 16.299V16.415H9.80134L9.80121 16.2903C9.94164 16.266 10.0185 16.1732 10.0184 16.0646C10.0184 15.955 9.96005 15.8877 9.81478 15.8363Z" fill="#5681BF"/>
<path d="M14.1277 15.3123H11.1152C11.0773 15.3123 11.0462 15.3433 11.0462 15.3813V15.6223C11.0462 15.6603 11.0773 15.6914 11.1152 15.6914H14.1277C14.1657 15.6914 14.1968 15.6603 14.1968 15.6223V15.3813C14.1968 15.3433 14.1657 15.3123 14.1277 15.3123Z" fill="#F2B814"/>
<path d="M14.7363 15.8964H11.0904C11.0765 15.8964 11.0652 15.9077 11.0652 15.9216V16.0099C11.0652 16.0237 11.0765 16.0352 11.0904 16.0352H14.7363C14.7502 16.0352 14.7615 16.0237 14.7615 16.0099V15.9216C14.7615 15.9077 14.7502 15.8964 14.7363 15.8964Z" fill="#F2B814"/>
<path d="M14.7363 16.2401H11.0904C11.0765 16.2401 11.0652 16.2515 11.0652 16.2654V16.3537C11.0652 16.3675 11.0765 16.3789 11.0904 16.3789H14.7363C14.7502 16.3789 14.7615 16.3675 14.7615 16.3537V16.2654C14.7615 16.2515 14.7502 16.2401 14.7363 16.2401Z" fill="#F2B814"/>
<path d="M8.08374 23.8958C7.70349 23.6137 7.45929 23.1833 7.45929 22.7035V4.94884C7.45929 4.10321 8.21678 3.41148 9.14253 3.41148H9.14404C8.21845 3.41148 7.46095 4.10321 7.46095 4.94884V22.5387V22.7035C7.46095 23.1828 7.7045 23.6128 8.08424 23.895L8.08374 23.8958Z" fill="#89A7D2"/>
<path d="M8.0843 23.8945C7.70456 23.6123 7.46107 23.1824 7.46107 22.703V22.5382C7.54725 22.5512 7.63597 22.5578 7.72633 22.5578H8.24396V22.7515C8.24396 22.8246 8.30383 22.8844 8.37695 22.8844H8.59812L8.0843 23.8945ZM17.4938 5.40103V3.43048C17.7279 3.46495 17.9456 3.54388 18.1375 3.65746C18.2009 3.69483 18.2611 3.73583 18.3183 3.78065L17.4938 5.40103Z" fill="#F2B814"/>
<path d="M7.46018 10.041V4.94871C7.46018 4.10308 8.21767 3.41135 9.14326 3.41135H10.4725H10.4741C10.4741 3.41135 8.36006 4.14631 8.10901 5.78115C7.93441 6.91773 7.69103 8.50533 7.46018 10.041Z" fill="#F2B814"/>
<path d="M9.85612 5.9082H8.61334C8.58249 5.9082 8.55747 5.88303 8.55747 5.85233V5.65725C8.55747 5.62655 8.58249 5.60138 8.61334 5.60138H9.85612C9.88697 5.60138 9.91199 5.62655 9.91199 5.65725V5.85233C9.91199 5.88303 9.88697 5.9082 9.85612 5.9082Z" fill="#F2B814"/>
<path d="M9.8561 6.43848H8.61336C8.58256 6.43848 8.55747 6.41324 8.55747 6.38259V6.18743C8.55747 6.15664 8.58256 6.13155 8.61336 6.13155H9.8561C9.8869 6.13155 9.91199 6.15664 9.91199 6.18743V6.38259C9.91199 6.41324 9.8869 6.43848 9.8561 6.43848Z" fill="#F2B814"/>
<path d="M9.85623 6.96826H8.61347C8.58261 6.96826 8.55747 6.94313 8.55747 6.91241V6.71721C8.55747 6.68649 8.58261 6.66136 8.61347 6.66136H9.85623C9.88695 6.66136 9.91223 6.68649 9.91223 6.71721V6.91241C9.91223 6.94313 9.88695 6.96826 9.85623 6.96826Z" fill="#F2B814"/>
<path d="M17.2244 5.9292C17.2467 5.84605 17.2862 5.77009 17.3386 5.70483L17.2244 5.9292Z" fill="#F2B814"/>
<path d="M8.94067 8.5083C8.87776 8.5083 8.83128 8.50413 8.8026 8.49995V7.94503C8.83629 7.93849 8.90351 7.93278 8.96754 7.93278C9.04548 7.93278 9.0935 7.94057 9.1347 7.96451C9.17422 7.98553 9.20206 8.02408 9.20206 8.076C9.20206 8.12569 9.17297 8.17259 9.10923 8.19611V8.19834C9.17367 8.21518 9.22182 8.26445 9.22182 8.33683C9.22182 8.3886 9.19802 8.42897 9.16295 8.45694C9.12147 8.49021 9.05327 8.5083 8.94067 8.5083ZM8.92926 8.25262V8.41143C8.94151 8.41352 8.95668 8.4138 8.97825 8.4138C9.03629 8.4138 9.08737 8.39125 9.08737 8.33182C9.08737 8.27531 9.03657 8.25262 8.97296 8.25262H8.92926ZM8.9834 8.02575C8.95543 8.02575 8.9397 8.02742 8.92926 8.02965V8.16132H8.97074C9.03838 8.16132 9.07373 8.1332 9.07373 8.09131C9.07373 8.0483 9.04116 8.02575 8.9834 8.02575Z" fill="#F2B814"/>
<path d="M9.78095 8.50244H9.64332L9.5999 8.3573H9.43723L9.39743 8.50244H9.26523L9.43765 7.93719H9.60491L9.78095 8.50244ZM9.51544 8.03307C9.50709 8.06633 9.4986 8.10933 9.48969 8.14203L9.45574 8.26198H9.58084L9.54563 8.14203C9.53589 8.10849 9.52601 8.06619 9.51724 8.03307H9.51544Z" fill="#F2B814"/>
<path d="M10.2088 8.50244H9.85622V7.93719H9.98397V8.39529H10.2088V8.50244Z" fill="#F2B814"/>
<path d="M10.7648 8.50269H10.6272L10.5837 8.35755H10.4211L10.3813 8.50269H10.2491L10.4216 7.93743H10.5889L10.7648 8.50269ZM10.4993 8.03331C10.4911 8.06657 10.4826 8.10957 10.4735 8.14227L10.4397 8.26222H10.5648L10.5295 8.14227C10.5197 8.10873 10.5099 8.06643 10.5011 8.03331H10.4993Z" fill="#F2B814"/>
<path d="M11.3082 8.50244H11.1743L11.0531 8.2848C11.0194 8.22371 10.9822 8.15135 10.955 8.08511L10.9522 8.08525C10.9561 8.16026 10.9576 8.24027 10.9576 8.33253V8.50244H10.8403V7.93719H10.9892L11.1065 8.14453C11.1405 8.20381 11.1734 8.2745 11.1989 8.33852L11.2011 8.3381C11.1932 8.26337 11.1908 8.18739 11.1908 8.10195V7.93719H11.3082V8.50244Z" fill="#F2B814"/>
<path d="M11.6891 8.51123C11.4934 8.51123 11.3925 8.38881 11.3925 8.22784C11.3925 8.035 11.5307 7.92845 11.7013 7.92845C11.7677 7.92845 11.8182 7.9412 11.8404 7.95338L11.8143 8.05441C11.789 8.04336 11.7526 8.0333 11.7069 8.0333C11.6062 8.0333 11.5271 8.09479 11.5271 8.22033C11.5271 8.33369 11.5939 8.40482 11.7078 8.40482C11.7469 8.40482 11.7893 8.39717 11.8145 8.38654L11.8336 8.48686C11.8108 8.4982 11.7572 8.51123 11.6891 8.51123Z" fill="#F2B814"/>
<path d="M12.2782 8.50244H11.918V7.93719H12.2661V8.04187H12.0458V8.15968H12.2537V8.26335H12.0458V8.39777H12.2782V8.50244Z" fill="#F2B814"/>
<path d="M9.17695 10.6362H8.98857V10.4538C8.86073 10.4484 8.73488 10.4126 8.6631 10.3713L8.72021 10.1474C8.80151 10.1907 8.91454 10.2314 9.03893 10.2314C9.14813 10.2314 9.22322 10.1882 9.22322 10.1126C9.22322 10.0392 9.16174 9.99429 9.01924 9.94643C8.81407 9.87703 8.67434 9.78092 8.67434 9.59585C8.67434 9.42597 8.79279 9.29365 8.99835 9.25412V9.07195H9.18686V9.24116C9.31351 9.24566 9.40009 9.27369 9.46461 9.30383L9.4075 9.52063C9.35872 9.49868 9.26975 9.4544 9.13213 9.4544C9.00866 9.4544 8.96808 9.50926 8.96808 9.5628C8.96808 9.62519 9.03484 9.66657 9.19757 9.72672C9.42587 9.80696 9.51682 9.91259 9.51682 10.0864C9.51682 10.257 9.39719 10.4012 9.17695 10.4394V10.6362Z" fill="#667188"/>
<path d="M10.3265 9.9209L10.162 9.8223L10.3674 9.58243L10.3662 9.57877L10.0652 9.63268V9.43927L10.3631 9.50008L10.3642 9.49588L10.1621 9.25317L10.3323 9.15674L10.4389 9.45051H10.4433L10.553 9.15647L10.7206 9.25209L10.5149 9.49629L10.5153 9.50049L10.8213 9.43927V9.63268L10.513 9.58067L10.5122 9.58514L10.7206 9.82203L10.5508 9.92049L10.4406 9.62469L10.4368 9.62618L10.3265 9.9209Z" fill="#6E7A9C"/>
<path d="M11.1962 9.9209L11.0317 9.82235L11.237 9.58247L11.2358 9.57881L10.9348 9.63272V9.43929L11.2327 9.50011L11.2338 9.49589L11.0317 9.25319L11.202 9.15675L11.3086 9.45056H11.3128L11.4226 9.15647L11.5904 9.2522L11.3846 9.49631L11.3849 9.50053L11.6909 9.43929V9.63272L11.3826 9.58064L11.3819 9.58514L11.5903 9.82193L11.4203 9.92062L11.3103 9.6247L11.3063 9.62611L11.1962 9.9209Z" fill="#6E7A9C"/>
<path d="M11.7504 10.6973C11.811 10.527 11.8627 10.3275 11.8901 10.1528L12.1865 10.1336C12.1236 10.3288 12.037 10.5306 11.9451 10.6803L11.7504 10.6973Z" fill="#6E7A9C"/>
<path d="M12.5644 9.9209L12.3997 9.8223L12.6051 9.58243L12.6041 9.5787L12.3031 9.6327V9.43922L12.6008 9.50009L12.6022 9.49591L12.3999 9.25321L12.5702 9.15669L12.6769 9.45041H12.6811L12.7909 9.15639L12.9585 9.25216L12.7527 9.49636L12.7531 9.50053L13.0591 9.43922V9.6327L12.7509 9.58064L12.7501 9.58511L12.9585 9.822L12.7886 9.92045L12.6784 9.62464L12.6747 9.62614L12.5644 9.9209Z" fill="#6E7A9C"/>
<path d="M13.4348 9.9209L13.2702 9.82232L13.4756 9.58237L13.4745 9.57882L13.1735 9.63274V9.43929L13.4712 9.50017L13.4725 9.49584L13.2702 9.25327L13.4407 9.15685L13.5471 9.45057H13.5514L13.6611 9.15639L13.8289 9.25218L13.6231 9.49631L13.6234 9.50063L13.9295 9.43929V9.63274L13.6213 9.58067L13.6205 9.58515L13.8288 9.82201L13.6591 9.92059L13.5488 9.6247L13.5449 9.6261L13.4348 9.9209Z" fill="#6E7A9C"/>
<path d="M14.3044 9.9209L14.1398 9.82227L14.3453 9.5825L14.344 9.57883L14.0431 9.6327V9.43928L14.341 9.50018L14.342 9.49603L14.1398 9.25322L14.3102 9.15683L14.4168 9.45047H14.4209L14.5307 9.15651L14.6986 9.2521L14.4927 9.49635L14.4932 9.50066L14.7991 9.43928V9.6327L14.4909 9.58075L14.4901 9.58522L14.6984 9.82195L14.5285 9.92058L14.4185 9.6247L14.4145 9.62614L14.3044 9.9209Z" fill="#6E7A9C"/>
<path d="M14.9616 10.3779C14.9548 10.3582 14.9512 10.3366 14.9514 10.3135C14.9514 10.2244 15.0039 10.1575 15.0824 10.1402L14.9616 10.3779Z" fill="#6E7A9C"/>
<path d="M15.4113 9.49365V9.43907L15.4365 9.44416L15.4113 9.49365ZM15.524 9.27202L15.508 9.25295L15.5442 9.23239L15.524 9.27202Z" fill="#6E7A9C"/>
<path d="M13.1055 14.0264H8.37704C8.30396 14.0264 8.24415 13.9666 8.24415 13.8935V12.0113C8.24415 11.9382 8.30396 11.8784 8.37704 11.8784H14.1985L13.9599 12.3475H11.1161C11.0783 12.3475 11.0472 12.3787 11.0472 12.4165V12.6576C11.0472 12.6957 11.0783 12.7267 11.1161 12.7267H13.7668L13.6625 12.9317H11.0909C11.077 12.9317 11.0656 12.9431 11.0656 12.957V13.0452C11.0656 13.0591 11.077 13.0705 11.0909 13.0705H13.5919L13.4876 13.2756H11.0909C11.077 13.2756 11.0656 13.287 11.0656 13.3009V13.3891C11.0656 13.403 11.077 13.4144 11.0909 13.4144H13.417L13.1055 14.0264ZM9.71641 12.1C9.24825 12.1 8.86738 12.4809 8.86738 12.949C8.86738 13.417 9.24825 13.7979 9.71641 13.7979C10.1844 13.7979 10.5653 13.417 10.5653 12.949C10.5653 12.4809 10.1844 12.1 9.71641 12.1ZM9.71641 13.7315C9.28495 13.7315 8.9339 13.3803 8.9339 12.949C8.9339 12.5176 9.28495 12.1665 9.71641 12.1665C10.1477 12.1665 10.4988 12.5176 10.4988 12.949C10.4988 13.3803 10.1477 13.7315 9.71641 13.7315ZM9.74186 13.4058V13.5171H9.83119V13.3956C9.90427 13.3828 9.95705 13.3607 9.99437 13.3305C10.0472 13.2873 10.0821 13.2261 10.0821 13.1483C10.0821 13.0376 10.0108 12.9637 9.91395 12.9369V12.9345C10.0094 12.8987 10.0534 12.8274 10.0534 12.7512C10.0534 12.6734 10.0108 12.6147 9.95174 12.583C9.91692 12.5621 9.87882 12.5494 9.83119 12.5422V12.4115H9.74186V12.5352C9.72906 12.5347 9.71579 12.5346 9.70173 12.5346C9.68112 12.5346 9.66035 12.5351 9.63989 12.5357V12.4115H9.55057V12.5405C9.51138 12.5436 9.47749 12.5479 9.45438 12.5525V13.3955C9.47811 13.3989 9.51044 13.4025 9.55057 13.405V13.5171H9.63989V13.4081C9.64692 13.4081 9.6541 13.4081 9.6616 13.4081C9.69018 13.4081 9.71688 13.4074 9.74186 13.4058ZM9.71813 13.2643C9.68534 13.2643 9.66285 13.2643 9.64411 13.2617V13.0198H9.70923C9.8048 13.0198 9.88132 13.0541 9.88132 13.1406C9.88132 13.2311 9.8048 13.2643 9.71813 13.2643ZM9.70689 12.8809H9.64411V12.6811C9.66035 12.6786 9.68409 12.6759 9.72563 12.6759C9.81229 12.6759 9.86133 12.7103 9.86133 12.7754C9.86133 12.8389 9.80714 12.8809 9.70689 12.8809Z" fill="#CBDAEF"/>
<path d="M9.71578 13.7979C9.24764 13.7979 8.86678 13.417 8.86678 12.949C8.86678 12.4809 9.24764 12.1 9.71578 12.1C10.1839 12.1 10.5646 12.4809 10.5646 12.949C10.5646 13.417 10.1839 13.7979 9.71578 13.7979ZM9.71578 12.1665C9.28432 12.1665 8.93332 12.5175 8.93332 12.949C8.93332 13.3803 9.28432 13.7315 9.71578 13.7315C10.1472 13.7315 10.4982 13.3803 10.4982 12.949C10.4982 12.5175 10.1472 12.1665 9.71578 12.1665Z" fill="#89A7D2"/>
<path d="M9.8303 13.5171H9.74103V13.4057C9.71615 13.4074 9.68945 13.4082 9.66078 13.4082C9.65332 13.4082 9.64612 13.4082 9.63905 13.408V13.5171H9.54977V13.4049C9.50959 13.4024 9.47725 13.3989 9.45356 13.3953V12.5525C9.4766 12.5477 9.5105 12.5436 9.54977 12.5404V12.4115H9.63905V12.5356C9.65947 12.5349 9.68029 12.5345 9.70097 12.5345C9.71485 12.5345 9.72833 12.5346 9.74103 12.5352V12.4115H9.8303V12.5422C9.87795 12.5493 9.91605 12.562 9.95087 12.5828C10.0099 12.6146 10.0526 12.6734 10.0526 12.7512C10.0526 12.8274 10.0086 12.8987 9.91317 12.9344V12.9368C10.0099 12.9636 10.0814 13.0376 10.0814 13.1483C10.0814 13.2261 10.0464 13.2872 9.99354 13.3304C9.95623 13.3607 9.90348 13.3828 9.8303 13.3955V13.5171ZM9.64324 13.0197V13.2616C9.66209 13.2642 9.68448 13.2642 9.71733 13.2642C9.80399 13.2642 9.88044 13.2311 9.88044 13.1406C9.88044 13.0541 9.80399 13.0197 9.70843 13.0197H9.64324ZM9.72479 12.6759C9.6833 12.6759 9.65947 12.6785 9.64324 12.681V12.8809H9.70607C9.80635 12.8809 9.86041 12.839 9.86041 12.7753C9.86041 12.7102 9.81145 12.6759 9.72479 12.6759Z" fill="#89A7D2"/>
<path d="M13.7669 12.7266H11.1161C11.0784 12.7266 11.0471 12.6955 11.0471 12.6576V12.4164C11.0471 12.3785 11.0784 12.3474 11.1161 12.3474H13.9598L13.7669 12.7266Z" fill="#F2B814"/>
<path d="M13.5915 13.0703H11.0906C11.0767 13.0703 11.0652 13.059 11.0652 13.0449V12.9567C11.0652 12.9428 11.0767 12.9315 11.0906 12.9315H13.6621L13.5915 13.0703Z" fill="#F2B814"/>
<path d="M13.4167 13.4141H11.0905C11.0767 13.4141 11.0652 13.4027 11.0652 13.3887V13.3005C11.0652 13.2866 11.0767 13.2752 11.0905 13.2752H13.4873L13.4167 13.4141Z" fill="#F2B814"/>
<path d="M10.0927 19.946H8.37612C8.30301 19.946 8.24326 19.8862 8.24326 19.8131V17.9308C8.24326 17.8577 8.30301 17.7979 8.37612 17.7979H11.1856L10.542 19.063C10.5567 19.0005 10.5644 18.9354 10.5644 18.8685C10.5644 18.4004 10.1836 18.0197 9.7156 18.0197C9.24736 18.0197 8.86653 18.4004 8.86653 18.8685C8.86653 19.3367 9.24736 19.7174 9.7156 19.7174C9.9732 19.7174 10.2044 19.602 10.3601 19.4203L10.0927 19.946ZM9.7156 19.651C9.28398 19.651 8.93303 19.3 8.93303 18.8685C8.93303 18.4371 9.28398 18.0861 9.7156 18.0861C10.147 18.0861 10.4979 18.4371 10.4979 18.8685C10.4979 19.3 10.147 19.651 9.7156 19.651ZM9.74108 19.3252V19.4367H9.83029V19.3152C9.90354 19.3023 9.95627 19.2802 9.99358 19.25C10.0463 19.2067 10.0814 19.1456 10.0814 19.068C10.0814 18.9572 10.01 18.8832 9.91318 18.8565V18.854C10.0086 18.8183 10.0525 18.747 10.0525 18.6707C10.0525 18.5929 10.01 18.5343 9.9509 18.5026C9.91607 18.4816 9.87793 18.4689 9.83029 18.4618V18.3311H9.74108V18.4547C9.72827 18.4544 9.71492 18.4541 9.70087 18.4541C9.68036 18.4541 9.65943 18.4546 9.63906 18.4552V18.3311H9.5497V18.4601C9.5106 18.4632 9.47659 18.4673 9.4536 18.472V19.3149C9.47728 19.3185 9.5095 19.322 9.5497 19.3245V19.4367H9.63906V19.3276C9.64608 19.3277 9.65324 19.3277 9.66067 19.3277C9.68945 19.3277 9.71616 19.3269 9.74108 19.3252ZM9.71726 19.1838C9.68449 19.1838 9.66205 19.1838 9.64319 19.1813V18.9393H9.70845C9.80386 18.9393 9.88041 18.9737 9.88041 19.0602C9.88041 19.1507 9.80386 19.1838 9.71726 19.1838ZM9.70597 18.8005H9.64319V18.6006C9.65943 18.598 9.68325 18.5955 9.72469 18.5955C9.81143 18.5955 9.86044 18.6298 9.86044 18.6948C9.86044 18.7585 9.80634 18.8005 9.70597 18.8005Z" fill="#CBDAEF"/>
<path d="M9.71578 19.7173C9.24764 19.7173 8.86678 19.3365 8.86678 18.8683C8.86678 18.4003 9.24764 18.0195 9.71578 18.0195C10.1839 18.0195 10.5646 18.4003 10.5646 18.8683C10.5646 18.9352 10.5569 19.0004 10.5423 19.0628L10.3604 19.4201C10.2045 19.6019 9.97347 19.7173 9.71578 19.7173ZM9.71578 18.0859C9.28432 18.0859 8.93332 18.4369 8.93332 18.8683C8.93332 19.2998 9.28432 19.6508 9.71578 19.6508C10.1472 19.6508 10.4982 19.2998 10.4982 18.8683C10.4982 18.4369 10.1472 18.0859 9.71578 18.0859Z" fill="#89A7D2"/>
<path d="M9.8303 19.4365H9.74103V19.3251C9.71615 19.3268 9.68945 19.3275 9.66078 19.3275C9.65332 19.3275 9.64612 19.3275 9.63905 19.3274V19.4365H9.54977V19.3243C9.50959 19.3219 9.47725 19.3183 9.45356 19.3148V18.4718C9.4766 18.4672 9.5105 18.4631 9.54977 18.46V18.331H9.63905V18.455C9.65947 18.4544 9.68029 18.454 9.70097 18.454C9.71485 18.454 9.72833 18.4542 9.74103 18.4546V18.331H9.8303V18.4617C9.87795 18.4687 9.91605 18.4815 9.95087 18.5024C10.0099 18.5342 10.0526 18.5928 10.0526 18.6705C10.0526 18.7469 10.0086 18.8182 9.91317 18.8538V18.8564C10.0099 18.8831 10.0814 18.9571 10.0814 19.0678C10.0814 19.1455 10.0464 19.2066 9.99354 19.2499C9.95623 19.28 9.90348 19.3022 9.8303 19.315V19.4365ZM9.64324 18.9391V19.1811C9.66209 19.1837 9.68448 19.1837 9.71733 19.1837C9.80399 19.1837 9.88044 19.1506 9.88044 19.0601C9.88044 18.9736 9.80399 18.9391 9.70843 18.9391H9.64324ZM9.72479 18.5953C9.6833 18.5953 9.65947 18.5979 9.64324 18.6004V18.8004H9.70607C9.80635 18.8004 9.86041 18.7584 9.86041 18.6947C9.86041 18.6297 9.81145 18.5953 9.72479 18.5953Z" fill="#89A7D2"/>
<path d="M8.59729 22.885H8.37613C8.30301 22.885 8.24326 22.8252 8.24326 22.7521V22.5584V20.8699C8.24326 20.7968 8.30301 20.737 8.37613 20.737H9.69036L9.57124 20.9709C9.17158 21.0396 8.86651 21.3886 8.86651 21.8076C8.86651 21.9425 8.89825 22.0701 8.95441 22.1834L8.59729 22.885ZM8.99283 22.1077C8.95428 22.0152 8.93308 21.9139 8.93308 21.8076C8.93308 21.4391 9.18919 21.1292 9.53281 21.0467L8.99283 22.1077Z" fill="#CBDAEF"/>
<path d="M8.95457 22.1831C8.89834 22.0698 8.86678 21.9422 8.86678 21.8073C8.86678 21.3883 9.17178 21.0393 9.57147 20.9707L9.53288 21.0464C9.18942 21.1289 8.93323 21.4388 8.93323 21.8073C8.93323 21.9136 8.95444 22.015 8.99303 22.1075L8.95457 22.1831Z" fill="#89A7D2"/>
<path d="M11.596 16.9912H8.37606C8.30305 16.9912 8.24326 16.9314 8.24326 16.8583V14.9759C8.24326 14.9029 8.30305 14.8431 8.37606 14.8431H12.689L12.4502 15.3124H11.1152C11.0773 15.3124 11.0463 15.3433 11.0463 15.3814V15.6223C11.0463 15.6604 11.0773 15.6915 11.1152 15.6915H12.2574L12.1531 15.8964H11.0899C11.0761 15.8964 11.0647 15.9077 11.0647 15.9217V16.01C11.0647 16.0239 11.0761 16.0353 11.0899 16.0353H12.0824L11.9781 16.2403H11.0899C11.0761 16.2403 11.0647 16.2517 11.0647 16.2655V16.3538C11.0647 16.3677 11.0761 16.3791 11.0899 16.3791H11.9074L11.596 16.9912ZM9.71552 15.0648C9.24734 15.0648 8.86657 15.4456 8.86657 15.9136C8.86657 16.3818 9.24734 16.7626 9.71552 16.7626C10.1835 16.7626 10.5643 16.3818 10.5643 15.9136C10.5643 15.4456 10.1835 15.0648 9.71552 15.0648ZM9.71552 16.6962C9.28406 16.6962 8.93297 16.3452 8.93297 15.9136C8.93297 15.4823 9.28406 15.1312 9.71552 15.1312C10.147 15.1312 10.4979 15.4823 10.4979 15.9136C10.4979 16.3452 10.147 16.6962 9.71552 16.6962ZM9.51029 16.1039L9.47386 16.2467C9.52013 16.2735 9.59946 16.2955 9.68129 16.2992V16.4152H9.80086L9.80072 16.2905C9.94116 16.2661 10.0181 16.1734 10.018 16.0647C10.018 15.9551 9.95967 15.8879 9.81423 15.8365C9.71052 15.7973 9.66777 15.7719 9.66777 15.7316C9.66777 15.6974 9.69333 15.6632 9.77251 15.6632C9.77251 15.6632 9.77251 15.6632 9.77266 15.6632C9.86065 15.6632 9.91662 15.6912 9.9488 15.7047L9.98405 15.5668C9.94365 15.5472 9.88857 15.5301 9.80703 15.5264V15.419H9.68731V15.5351C9.55686 15.5608 9.48091 15.6448 9.48091 15.7522C9.48091 15.8707 9.57023 15.9317 9.70082 15.9757C9.79132 16.0063 9.8301 16.0355 9.8301 16.0818C9.8301 16.1309 9.78265 16.1576 9.71302 16.1576C9.63369 16.1576 9.56171 16.132 9.51029 16.1039Z" fill="#CBDAEF"/>
<path d="M9.71578 16.7627C9.24764 16.7627 8.86678 16.3818 8.86678 15.9137C8.86678 15.4457 9.24764 15.0648 9.71578 15.0648C10.1839 15.0648 10.5646 15.4457 10.5646 15.9137C10.5646 16.3818 10.1839 16.7627 9.71578 16.7627ZM9.71578 15.1314C9.28432 15.1314 8.93332 15.4822 8.93332 15.9137C8.93332 16.3452 9.28432 16.6962 9.71578 16.6962C10.1472 16.6962 10.4982 16.3452 10.4982 15.9137C10.4982 15.4822 10.1472 15.1314 9.71578 15.1314Z" fill="#89A7D2"/>
<path d="M9.80134 16.415H9.68165V16.299C9.59982 16.2952 9.5206 16.2733 9.47426 16.2465L9.51068 16.1038C9.5621 16.1318 9.63415 16.1574 9.71337 16.1574C9.78307 16.1574 9.83044 16.1306 9.83057 16.0816C9.83044 16.0354 9.79168 16.0061 9.70123 15.9756C9.57058 15.9316 9.48131 15.8705 9.48131 15.752C9.48131 15.6446 9.55727 15.5605 9.68779 15.535V15.4188H9.80747V15.5262C9.88905 15.53 9.94412 15.5471 9.98445 15.5665L9.94921 15.7045C9.91711 15.6911 9.86098 15.663 9.77315 15.663C9.77302 15.663 9.77302 15.663 9.77302 15.663C9.69379 15.663 9.66821 15.6972 9.66821 15.7314C9.66821 15.7716 9.71089 15.797 9.81478 15.8363C9.96005 15.8877 10.0184 15.955 10.0184 16.0646C10.0185 16.1732 9.94164 16.266 9.80121 16.2903L9.80134 16.415Z" fill="#89A7D2"/>
<path d="M12.2573 15.6914H11.1152C11.0773 15.6914 11.0462 15.6603 11.0462 15.6223V15.3813C11.0462 15.3432 11.0773 15.3122 11.1152 15.3122H12.4503L12.2573 15.6914Z" fill="#F2B814"/>
<path d="M12.083 16.0352H11.0905C11.0767 16.0352 11.0652 16.0238 11.0652 16.0099V15.9217C11.0652 15.9078 11.0767 15.8964 11.0905 15.8964H12.1535L12.083 16.0352Z" fill="#F2B814"/>
<path d="M11.9079 16.3789H11.0904C11.0766 16.3789 11.0652 16.3675 11.0652 16.3536V16.2654C11.0652 16.2515 11.0766 16.2401 11.0904 16.2401H11.9786L11.9079 16.3789Z" fill="#F2B814"/>
<path d="M10.3959 24.2174C9.96951 24.8012 11.2276 25.8054 11.2276 25.8054L12.6786 25.4519L12.3474 24.0512C12.3474 24.0512 10.5398 24.0203 10.3959 24.2174Z" fill="#F5B0A6"/>
<path d="M11.1755 25.7958C10.9506 25.5154 10.7892 25.1584 10.8899 24.6648C10.8899 24.6648 11.3788 24.3516 10.9418 23.9479C10.9418 23.9479 10.1697 23.5512 9.78427 22.7631C9.24979 21.6704 8.6992 21.7586 8.6992 21.7586L9.93299 26.4934C9.93299 26.4934 10.6578 26.2862 11.0983 26.089C11.212 26.0382 11.2537 25.893 11.1755 25.7958Z" fill="#2F4171"/>
<path d="M10.6275 25.2992C10.6275 25.5045 10.4612 25.6709 10.2559 25.6709C10.0506 25.6709 9.8843 25.5045 9.8843 25.2992C9.8843 25.094 10.0506 24.9276 10.2559 24.9276C10.4612 24.9276 10.6275 25.094 10.6275 25.2992Z" fill="#F2B814"/>
<path d="M8.16438 21.8979L9.39825 26.6326L9.93264 26.4933L8.69877 21.7585L8.16438 21.8979Z" fill="black"/>
<path d="M10.0437 23.1626C10.0319 23.1658 10.0249 23.1778 10.0281 23.1897C10.0281 23.19 10.0394 23.2338 10.0254 23.3012C10.0126 23.3637 9.97496 23.4601 9.86859 23.5641C9.85993 23.5726 9.8598 23.5867 9.86833 23.5954C9.87279 23.5998 9.87843 23.6021 9.8842 23.6021C9.88984 23.6021 9.89535 23.5999 9.89967 23.5957C10.1224 23.3778 10.0729 23.186 10.0707 23.1781C10.0675 23.1662 10.0554 23.1594 10.0437 23.1626Z" fill="#F2B814"/>
<path d="M10.231 23.365C10.2192 23.3681 10.2122 23.3802 10.2154 23.392C10.2155 23.3924 10.2266 23.4362 10.2127 23.5035C10.1999 23.5661 10.1623 23.6623 10.0561 23.7664C10.0474 23.775 10.0471 23.789 10.0557 23.7978C10.0601 23.8022 10.0659 23.8044 10.0716 23.8044C10.0771 23.8044 10.0828 23.8023 10.0869 23.7981C10.3097 23.5802 10.2604 23.3884 10.2581 23.3804C10.255 23.3686 10.2428 23.3618 10.231 23.365Z" fill="#F2B814"/>
<path d="M10.4421 23.5666C10.4304 23.5698 10.4233 23.5819 10.4265 23.5938C10.4265 23.5942 10.4377 23.6378 10.4239 23.7053C10.411 23.7677 10.3734 23.8641 10.2672 23.9681C10.2584 23.9768 10.2581 23.9907 10.2668 23.9995C10.2711 24.0039 10.277 24.0061 10.2827 24.0061C10.2882 24.0061 10.2938 24.004 10.2981 23.9998C10.5208 23.7819 10.4714 23.5902 10.4692 23.5821C10.466 23.5704 10.4537 23.5634 10.4421 23.5666Z" fill="#F2B814"/>
<path d="M21.0597 22.7841L11.2486 23.9562L11.4784 25.9441C11.4784 25.9441 23.6693 26.4626 24.7576 25.4837C25.8463 24.505 25.2932 22.6469 25.2932 22.6469L21.0597 22.7841Z" fill="#1A2E6D"/>
<mask id="mask0_150_187" style="mask-type:luminance" maskUnits="userSpaceOnUse" x="11" y="22" width="15" height="5">
<path d="M21.0598 22.7841L11.2486 23.9562L11.4784 25.9441C11.4784 25.9441 23.6693 26.4626 24.7578 25.4838C25.8463 24.505 25.2931 22.6469 25.2931 22.6469L21.0598 22.7841Z" fill="white"/>
</mask>
<g mask="url(#mask0_150_187)">
<path d="M16.7094 26.075C15.9901 26.068 15.2939 26.0559 14.6573 26.0418H16.5849C16.5849 26.0418 16.5717 25.4763 16.5168 25.0027L16.832 25.2351L18.2546 23.9288C17.7506 24.6521 17.2355 25.3675 16.7094 26.075ZM21.5228 26.0096C21.2614 25.8307 21.0369 25.5926 20.8193 25.3592C20.3172 24.8212 19.8151 24.2832 19.313 23.7452C19.1814 23.6041 19.0483 23.462 18.9074 23.3296L19.2682 22.9983L19.3578 22.9875C19.6088 23.3171 21.3041 25.4744 23.016 25.9018C22.573 25.9476 22.0684 25.9829 21.5228 26.0096ZM12.5196 25.2786C13.1292 24.6958 13.7547 24.1294 14.3947 23.5804L15.1628 23.4887C15.0021 23.688 14.9018 23.8119 14.9018 23.8119L14.9744 23.8654C14.849 24.0087 14.7364 24.1469 14.6577 24.2611C14.6365 24.257 14.6142 24.2548 14.5906 24.2548C14.5055 24.2548 14.4052 24.2839 14.2879 24.3591C14.2879 24.3591 13.6861 25.032 12.7921 25.2133C12.6939 25.2332 12.6035 25.255 12.5196 25.2786Z" fill="#182C65"/>
</g>
<path d="M14.5458 24.5077C14.6645 25.25 16.3272 25.0567 16.3272 25.0567L17.1289 23.7265L15.8523 22.9452C15.8523 22.9452 14.5057 24.2571 14.5458 24.5077Z" fill="#F5B0A6"/>
<path d="M16.2091 24.6081C15.868 24.7612 15.4663 24.8298 14.9961 24.5991C14.9961 24.5991 14.809 24.0249 14.2883 24.3588C14.2883 24.3588 13.6865 25.0316 12.7925 25.2129C11.5527 25.4644 11.497 26.0415 11.497 26.0415H16.5854C16.5854 26.0415 16.5669 25.2578 16.4841 24.7629C16.4627 24.635 16.3275 24.555 16.2091 24.6081Z" fill="#2F4171"/>
<path d="M15.9642 25.4496C15.9642 25.6665 15.7884 25.8423 15.5714 25.8423C15.3547 25.8423 15.1787 25.6665 15.1787 25.4496C15.1787 25.2327 15.3547 25.0568 15.5714 25.0568C15.7884 25.0568 15.9642 25.2327 15.9642 25.4496Z" fill="#F2B814"/>
<path d="M11.497 26.6157H16.5854V26.0415H11.497V26.6157Z" fill="black"/>
<path d="M13.285 25.0347C13.2727 25.0349 13.2629 25.0449 13.2631 25.057C13.2632 25.0692 13.2732 25.079 13.2853 25.079H13.2854C13.2859 25.0789 13.3327 25.0791 13.3973 25.1109C13.457 25.1402 13.5441 25.2035 13.6212 25.3379C13.6253 25.3451 13.6328 25.3491 13.6404 25.3491C13.6441 25.3491 13.6479 25.3481 13.6514 25.3462C13.662 25.3401 13.6657 25.3265 13.6597 25.316C13.499 25.0351 13.2935 25.0348 13.285 25.0347Z" fill="#F2B814"/>
<path d="M13.5382 24.8994C13.526 24.8997 13.5162 24.9096 13.5162 24.9218C13.5164 24.934 13.5266 24.9441 13.5386 24.9437C13.5394 24.9437 13.5864 24.9441 13.6505 24.9756C13.7101 25.005 13.7973 25.0682 13.8744 25.2027C13.8784 25.2099 13.886 25.2139 13.8935 25.2139C13.8974 25.2139 13.9011 25.2129 13.9045 25.2109C13.9152 25.2048 13.9189 25.1913 13.9129 25.1806C13.7522 24.9 13.5468 24.8993 13.5382 24.8994Z" fill="#F2B814"/>
<path d="M13.7961 24.7391C13.7838 24.7393 13.7741 24.7492 13.7743 24.7614C13.7743 24.7736 13.7843 24.7834 13.7965 24.7834C13.7974 24.7834 13.8442 24.7837 13.9083 24.8152C13.9681 24.8446 14.0553 24.9078 14.1324 25.0423C14.1364 25.0495 14.1438 25.0535 14.1516 25.0535C14.1553 25.0535 14.1591 25.0526 14.1625 25.0506C14.1733 25.0445 14.1769 25.031 14.1708 25.0204C14.0102 24.7396 13.8049 24.7393 13.7961 24.7391Z" fill="#F2B814"/>
<path d="M25.7394 22.8009C25.487 21.6422 24.6775 21.9451 24.3213 22.1433C24.2978 22.1564 24.2759 22.169 24.2565 22.1807C24.1901 22.2214 24.1509 22.2509 24.1509 22.2509C24.1509 22.2509 24.082 22.2218 23.9592 22.1703C23.2927 21.8909 21.0423 20.9481 19.6706 20.3922C19.1988 20.2014 18.831 20.0561 18.6674 19.9993C17.94 19.7466 17.8115 20.0833 17.3365 20.7366C16.8614 21.3898 14.9017 23.8114 14.9017 23.8114L16.8318 25.2346L19.3258 22.9447C19.3258 22.9447 21.722 26.1999 23.805 25.9625C24.468 25.8868 24.9378 25.6909 25.2602 25.4106C25.3029 25.3734 25.343 25.3346 25.3809 25.2943C25.3989 25.2749 25.4165 25.2553 25.4336 25.2354C25.8843 24.7063 25.9351 23.954 25.8064 23.1541C25.7877 23.0374 25.7649 22.9193 25.7394 22.8009Z" fill="#1A2E6D"/>
<mask id="mask1_150_187" style="mask-type:luminance" maskUnits="userSpaceOnUse" x="14" y="19" width="12" height="7">
<path d="M25.4332 25.2356C25.4161 25.2555 25.3986 25.2751 25.3806 25.2945C25.3428 25.3348 25.3025 25.3736 25.2599 25.4108C24.9376 25.6911 24.4676 25.8871 23.8046 25.9627C21.7217 26.2002 19.3255 22.9449 19.3255 22.9449L16.8315 25.2348L14.9013 23.8116C14.9013 23.8116 16.861 21.39 17.3362 20.7368C17.8111 20.0836 17.9397 19.7469 18.667 19.9995C18.8306 20.0563 19.1985 20.2016 19.6703 20.3925C21.0419 20.9483 23.2925 21.8911 23.9588 22.1705C24.0816 22.222 24.1505 22.2512 24.1505 22.2512C24.1505 22.2512 24.1899 22.2216 24.2563 22.1809C24.2757 22.1692 24.2974 22.1567 24.321 22.1435C24.6771 21.9454 25.4868 21.6425 25.739 22.8012C25.7646 22.9196 25.7874 23.0376 25.8062 23.1544C25.9348 23.9543 25.884 24.7065 25.4332 25.2356Z" fill="white"/>
</mask>
<g mask="url(#mask1_150_187)">
<path d="M23.0154 25.9019C21.3034 25.4744 19.6082 23.3172 19.3571 22.9875C19.6082 23.3172 21.3037 25.4742 23.0154 25.9019Z" fill="#162A5E"/>
<path d="M23.5836 25.9756C23.5833 25.9756 23.5831 25.9756 23.5826 25.9756C23.3945 25.9755 23.2048 25.9493 23.0153 25.902C21.3035 25.4744 19.6081 23.3173 19.3571 22.9877C19.3362 22.9603 19.3252 22.9454 19.3252 22.9454L19.2676 22.9985L18.9066 23.3299L16.8313 25.2353L16.5161 25.0029L16.0611 24.6675L14.9011 23.8121C14.9011 23.8121 14.9196 23.7891 14.9535 23.7472C15.4666 23.8277 16.0754 23.8582 16.4441 23.9593C16.5204 23.9802 16.5986 24.0005 16.6771 24.0005C16.6924 24.0005 16.7079 23.9997 16.7231 23.998C16.8391 23.9852 16.9422 23.9215 17.0388 23.8561C17.6922 23.4121 18.2286 22.8205 18.772 22.247C18.8809 22.1319 18.9945 22.0145 19.1398 21.9508C19.1426 21.9496 19.146 21.9491 19.1508 21.9491C19.2717 21.9491 20.0529 22.3504 20.9448 22.7517C21.741 23.1101 22.6252 23.4685 23.2057 23.5411C23.4647 23.6668 23.74 23.7621 24.0165 23.7956C24.0571 23.8004 24.0969 23.8042 24.1363 23.8069C24.1878 23.8104 24.2384 23.8121 24.2878 23.8121C24.9419 23.8121 25.4163 23.5167 25.6985 23.26C25.6987 23.2597 25.6989 23.2595 25.6994 23.2593C25.6994 23.2591 25.6996 23.259 25.6999 23.2589C25.7001 23.2585 25.7005 23.2582 25.701 23.2579C25.7395 23.2225 25.7746 23.1879 25.806 23.1548C25.8449 23.3971 25.8675 23.6348 25.8675 23.8633C25.8672 24.2433 25.8048 24.5976 25.6518 24.904C25.5928 25.0223 25.5204 25.1334 25.4329 25.2361C25.4158 25.256 25.3985 25.2756 25.3803 25.295C25.3425 25.3353 25.3022 25.3741 25.2596 25.4113C24.9947 25.6417 24.6303 25.8149 24.1411 25.9113C24.0347 25.9324 23.9227 25.9497 23.8045 25.9632C23.7311 25.9715 23.6574 25.9756 23.5836 25.9756Z" fill="#182B63"/>
<path d="M24.009 25.5677C23.193 25.5307 22.3991 25.2479 21.7012 24.8235C21.0034 24.3991 20.3973 23.8364 19.8619 23.2197C19.8698 23.1766 19.8778 23.1336 19.8857 23.0905C19.8264 23.1144 19.7574 23.1136 19.6985 23.0886C19.8707 22.6443 20.0429 22.2001 20.2153 21.756C19.9343 22.1069 19.6535 22.4579 19.3725 22.8089C19.2565 22.5716 19.1404 22.3342 19.0243 22.0969C19.0366 22.3271 19.0488 22.5575 19.0611 22.7878C19.0647 22.857 19.0679 22.9283 19.0445 22.9934C19.017 23.0686 18.9568 23.1266 18.8987 23.1816C18.0445 23.9901 17.1904 24.7986 16.336 25.6072L16.6674 25.5878C17.0441 25.477 17.3796 25.2539 17.7549 25.1386C18.644 24.8654 19.5952 25.2323 20.4282 25.6458C21.2614 26.0594 22.1215 26.5393 23.0508 26.5002C23.4 26.4855 23.7432 26.3963 24.0676 26.2664C24.7321 26.0001 25.3259 25.559 25.7723 24.9994C25.3273 25.4541 24.6446 25.5967 24.009 25.5677Z" fill="#142754"/>
</g>
<path d="M18.2213 17.9277L17.3936 18.3746L17.3274 18.5483L18.4849 20.1089L19.355 19.4918L19.3467 19.318L18.2213 17.9277Z" fill="#2F4171"/>
<path d="M17.3274 18.5483L18.485 20.1089L18.6141 20.0173L17.3937 18.3745L17.3274 18.5483Z" fill="#243354"/>
<path d="M18.6815 18.6951L18.5109 18.4811L18.3917 18.3314L18.2214 18.1182L17.659 18.4326L18.1434 19.0994L18.3317 19.3587V19.3588L18.4637 19.5403L18.5609 19.6741L18.7084 19.583L19.165 19.3015L18.8927 18.9599L18.6815 18.6951Z" fill="#F2B814"/>
<path d="M18.3314 19.3582L18.1432 19.0989L18.3913 18.3309L18.5106 18.4806L18.3314 19.3582Z" fill="#DFE6F2"/>
<path d="M18.5603 19.6741L18.463 19.5403L18.6809 18.6951L18.8921 18.9599L18.7079 19.583L18.5603 19.6741Z" fill="#DFE6F2"/>
<path d="M19.2863 18.6885C19.1181 18.5297 19.0684 18.4703 19.0291 18.5693C18.9895 18.6682 19.0488 18.8971 19.2368 19.0202C19.4249 19.1434 19.0388 19.3611 19.1181 19.5689C19.1973 19.7768 19.5734 20.1431 19.5734 20.1431L19.9001 19.6215C19.9001 19.6215 19.7319 19.1137 19.6426 18.985C19.5536 18.8563 19.4546 18.8474 19.2863 18.6885Z" fill="#EAA7A0"/>
<path d="M25.2004 17.4051C25.1954 17.39 25.1903 17.3748 25.1855 17.3598C25.1812 17.3471 25.1766 17.3342 25.1718 17.3214C25.1435 17.2446 25.1066 17.1705 25.0638 17.0997C24.653 16.4211 23.6666 16.0107 23.6666 16.0107C23.6666 16.0107 23.0675 16.3123 22.2256 16.748C21.3838 17.1834 21.6336 19.5785 21.6336 19.5785L21.6183 19.578L19.8806 19.5191L19.7143 20.2116L19.6711 20.3922L19.6432 20.5088L21.4048 21.2018L21.5938 21.9024L21.7411 22.4489C21.7411 22.4489 22.8694 23.6561 24.0175 23.7949C24.1852 23.815 24.3428 23.8158 24.4899 23.8016C24.5686 23.7941 24.6445 23.7822 24.7175 23.7669C24.7347 23.7634 24.752 23.7595 24.769 23.7555C25.2585 23.6394 25.6076 23.3639 25.8071 23.1541C25.8894 23.0673 25.9466 22.9919 25.9773 22.9434C26.0015 22.9055 26.0136 22.8382 26.0169 22.7473C26.0322 22.3169 25.848 21.362 25.7991 20.5287C25.7407 19.5372 25.4726 18.2403 25.2004 17.4051Z" fill="#E7342F"/>
<path d="M22.5128 16.253L22.0575 16.6885V17.1041L22.2252 16.748L22.4288 17.3601C22.4288 17.3601 23.0696 16.4273 23.1784 16.3798C23.2873 16.3322 23.6663 16.0107 23.6663 16.0107L23.3828 15.6994L22.5128 16.253Z" fill="#40947E"/>
<path d="M23.678 13.2567C23.5213 13.0941 23.3238 12.9639 23.1021 12.911C22.9266 12.869 22.7395 12.8768 22.5683 12.9328L22.5679 12.9348C22.5659 12.9636 22.5597 12.9923 22.5487 13.02L22.5679 12.9348C22.5769 12.8062 22.5023 12.6728 22.3937 12.594C22.2607 12.4975 22.0896 12.4679 21.9244 12.459C21.7593 12.45 21.5922 12.4588 21.4299 12.4271C21.3762 12.4166 21.3095 12.3995 21.2719 12.4389C20.9637 12.7625 21.2741 12.8828 21.1972 12.9219C21.1202 12.9611 21.0306 12.9647 20.9449 12.978C20.7889 13.0023 20.6315 13.0664 20.535 13.189C20.4385 13.3117 20.4208 13.501 20.5245 13.6181C20.5551 13.6526 20.597 13.6844 20.6013 13.7302C20.6065 13.7863 20.5527 13.8287 20.5266 13.8791C20.497 13.9364 20.5059 14.0107 20.5482 14.0598C20.57 14.0851 20.6002 14.1052 20.6112 14.1365C20.6207 14.1636 20.6136 14.1933 20.6151 14.2219C20.619 14.3035 20.6943 14.3673 20.7742 14.3905C20.8543 14.4136 20.9395 14.406 21.0231 14.4055C21.2484 14.4041 21.4701 14.4557 21.6892 14.507C21.869 14.5491 22.0498 14.5915 22.2188 14.6644C22.3961 14.7407 22.5577 14.8496 22.7393 14.9151C22.9206 14.9808 23.1362 14.9972 23.2976 14.8929C23.3866 14.8353 23.4498 14.7474 23.5107 14.6616C23.6389 14.4809 23.7686 14.297 23.842 14.0889C23.9156 13.8808 23.9273 13.6418 23.8228 13.4468C23.785 13.3766 23.7337 13.3143 23.678 13.2567Z" fill="black"/>
<path d="M22.5679 12.9352L22.5486 13.02C22.5598 12.9925 22.5658 12.9639 22.5679 12.9352Z" fill="#060606"/>
<mask id="mask2_150_187" style="mask-type:luminance" maskUnits="userSpaceOnUse" x="20" y="12" width="4" height="3">
<path d="M22.5487 13.02C22.6088 12.869 22.5266 12.6904 22.3937 12.594C22.2607 12.4975 22.0896 12.4679 21.9245 12.459C21.7594 12.45 21.5922 12.4588 21.43 12.4271C21.3762 12.4166 21.3095 12.3995 21.272 12.4388C20.9637 12.7625 21.2741 12.8828 21.1973 12.9219C21.1203 12.9611 21.0306 12.9647 20.945 12.978C20.7888 13.0023 20.6317 13.0664 20.5351 13.189C20.4385 13.3117 20.4209 13.501 20.5245 13.6181C20.5552 13.6526 20.5971 13.6844 20.6013 13.7302C20.6065 13.7863 20.5528 13.8287 20.5266 13.8791C20.4971 13.9364 20.5058 14.0107 20.5481 14.0598C20.5699 14.0851 20.6003 14.1052 20.6114 14.1365C20.6208 14.1637 20.6136 14.1933 20.615 14.2219C20.6191 14.3035 20.6943 14.3673 20.7743 14.3905C20.8544 14.4136 20.9396 14.406 21.023 14.4055C21.2483 14.4041 21.4701 14.4557 21.6892 14.507C21.8689 14.5491 22.0498 14.5915 22.2189 14.6644C22.396 14.7407 22.5578 14.8496 22.7392 14.9151C22.9206 14.9808 23.1363 14.9972 23.2978 14.8929C23.3867 14.8353 23.4498 14.7474 23.5107 14.6616C23.639 14.4809 23.7686 14.297 23.8421 14.0889C23.9157 13.8808 23.9273 13.6418 23.8227 13.4468C23.7851 13.3766 23.7337 13.3143 23.6781 13.2567C23.5213 13.0941 23.3238 12.9639 23.102 12.911C22.9267 12.869 22.7394 12.8768 22.5684 12.9328L22.5487 13.02Z" fill="white"/>
</mask>
<g mask="url(#mask2_150_187)">
<path d="M22.5676 12.9348C22.5758 12.8193 22.5163 12.6998 22.4253 12.6196C22.5163 12.6997 22.5756 12.819 22.5676 12.9345V12.9348ZM22.4082 12.6052C22.4078 12.605 22.4076 12.6047 22.4074 12.6045C22.4076 12.6047 22.408 12.605 22.4082 12.6052ZM22.4022 12.6004C22.4017 12.6002 22.4013 12.5999 22.4009 12.5996C22.4015 12.5999 22.4017 12.6002 22.4022 12.6004Z" fill="#5C7CAB"/>
<path d="M23.848 14.0708C23.8375 13.9298 23.8012 13.7921 23.7341 13.6672C23.5983 13.4133 23.3233 13.2283 23.0386 13.2283C23.0088 13.2283 22.9791 13.2303 22.9493 13.2345C23.083 13.2926 23.179 13.4291 23.1885 13.5744C23.1087 13.4546 23.0056 13.3437 22.8717 13.291C22.8242 13.2721 22.772 13.2624 22.7203 13.2624C22.6269 13.2624 22.5346 13.2944 22.4725 13.3632C22.5124 13.1237 22.3914 12.8657 22.1817 12.7432C22.0185 12.6478 21.8218 12.6343 21.6415 12.5774C21.541 12.5458 21.4392 12.4909 21.3669 12.4159C21.388 12.4184 21.4098 12.4232 21.4297 12.4271C21.5919 12.4588 21.759 12.45 21.9242 12.459C22.0892 12.4678 22.2604 12.4975 22.3933 12.594C22.3937 12.5942 22.3942 12.5946 22.3946 12.5948C22.3946 12.5949 22.3946 12.5949 22.3948 12.595C22.395 12.5952 22.3955 12.5954 22.3957 12.5958C22.3959 12.5958 22.3959 12.5959 22.3961 12.5959C22.3963 12.5962 22.3968 12.5964 22.397 12.5966C22.397 12.5966 22.397 12.5968 22.3972 12.5968C22.3976 12.597 22.3978 12.5973 22.3983 12.5975C22.3985 12.5976 22.3985 12.5977 22.3985 12.5977C22.3989 12.5981 22.3991 12.5983 22.3996 12.5985C22.3996 12.5986 22.3998 12.5988 22.3998 12.5988C22.4002 12.599 22.4004 12.5992 22.4006 12.5994C22.4009 12.5995 22.4009 12.5995 22.4009 12.5996C22.4013 12.5999 22.4017 12.6002 22.4021 12.6004C22.4021 12.6005 22.4024 12.6006 22.4024 12.6006C22.4026 12.6009 22.403 12.6012 22.4032 12.6014C22.4034 12.6015 22.4034 12.6015 22.4037 12.6016C22.4039 12.6018 22.4041 12.6021 22.4043 12.6023C22.4045 12.6024 22.4047 12.6025 22.4047 12.6025C22.4052 12.6029 22.4056 12.6031 22.4058 12.6033C22.406 12.6034 22.406 12.6035 22.4062 12.6036C22.4065 12.6039 22.4067 12.6041 22.4069 12.6043C22.4071 12.6043 22.4071 12.6044 22.4073 12.6045C22.4075 12.6047 22.4078 12.605 22.4082 12.6052C22.4082 12.6053 22.4084 12.6054 22.4084 12.6055C22.4088 12.6057 22.409 12.6061 22.4095 12.6063C22.4097 12.6064 22.4097 12.6064 22.4099 12.6065C22.4101 12.6067 22.4103 12.607 22.4106 12.6072C22.4108 12.6073 22.4108 12.6073 22.411 12.6074C22.4112 12.6077 22.4116 12.6079 22.4118 12.6082C22.4121 12.6083 22.4121 12.6084 22.4123 12.6085C22.4125 12.6087 22.4129 12.609 22.4131 12.6093C22.4131 12.6094 22.4134 12.6094 22.4134 12.6095C22.4138 12.6097 22.414 12.6099 22.4144 12.6103C22.4144 12.6103 22.4144 12.6104 22.4147 12.6104C22.4149 12.6107 22.4153 12.6109 22.4155 12.6113C22.4157 12.6114 22.4157 12.6114 22.4159 12.6115C22.4166 12.612 22.4172 12.6127 22.4181 12.6133C22.4181 12.6134 22.4181 12.6134 22.4183 12.6135C22.4185 12.6137 22.419 12.614 22.4194 12.6144V12.6145C22.4203 12.6152 22.4209 12.6157 22.4216 12.6164C22.4216 12.6165 22.4218 12.6165 22.4218 12.6165C22.4222 12.6168 22.4226 12.6171 22.4228 12.6175C22.4231 12.6175 22.4231 12.6175 22.4231 12.6175C22.4237 12.6181 22.4246 12.6189 22.4252 12.6196C22.5162 12.6998 22.5758 12.8193 22.5676 12.9348V12.9345L22.568 12.9328C22.6666 12.9006 22.7703 12.8843 22.874 12.8843C22.8984 12.8843 22.923 12.8852 22.9472 12.8869C22.9899 12.8902 23.0326 12.8961 23.0744 12.9049C23.0757 12.9051 23.077 12.9053 23.0781 12.9055C23.0804 12.9061 23.0826 12.9065 23.085 12.9071C23.086 12.9073 23.0873 12.9076 23.0884 12.9079C23.0923 12.9087 23.096 12.9097 23.0999 12.9105C23.1005 12.9106 23.1009 12.9108 23.1018 12.911C23.3235 12.9639 23.5208 13.0941 23.6776 13.2567C23.7333 13.3142 23.7848 13.3766 23.8224 13.4468C23.8758 13.5466 23.8989 13.6579 23.8989 13.7707C23.8987 13.8719 23.8802 13.9745 23.848 14.0708ZM22.5676 12.9348L22.5484 13.0199C22.5594 12.9923 22.5656 12.9636 22.5676 12.9348Z" fill="#1A1A1A"/>
<path d="M22.5484 13.02L22.5677 12.9352C22.5656 12.9639 22.5596 12.9925 22.5484 13.02Z" fill="#1F1F1F"/>
<path d="M20.9204 14.4067C20.8824 14.4067 20.8446 14.405 20.8078 14.3981C20.7964 14.3959 20.7852 14.3933 20.7741 14.3901C20.6942 14.367 20.619 14.3032 20.6149 14.2216C20.6147 14.2191 20.6147 14.2166 20.6147 14.2141C20.6145 14.1879 20.6198 14.161 20.6112 14.1362C20.6019 14.1099 20.5791 14.0916 20.5592 14.0715C20.5553 14.0676 20.5515 14.0636 20.548 14.0594C20.5224 14.0297 20.509 13.9907 20.509 13.9519C20.509 13.9266 20.5149 13.9014 20.5265 13.8788C20.5513 13.8308 20.6013 13.7899 20.6015 13.7375C20.6015 13.735 20.6013 13.7325 20.6011 13.7298C20.6007 13.7251 20.5998 13.7206 20.5986 13.7163C20.5885 13.6776 20.5519 13.6488 20.5242 13.6177C20.4208 13.5006 20.4382 13.3114 20.5348 13.1886C20.5545 13.1637 20.5767 13.1412 20.6009 13.121C20.6925 13.1651 20.7722 13.2431 20.8334 13.3267C20.9235 13.4496 21.0127 13.6054 21.1646 13.6189C21.1713 13.6196 21.1782 13.6198 21.1849 13.6198C21.2611 13.6198 21.3325 13.5828 21.4036 13.5458C21.4748 13.5088 21.5457 13.472 21.6207 13.472C21.6319 13.472 21.6429 13.4727 21.6541 13.4744C21.7622 13.4908 21.8419 13.5928 21.8635 13.6999C21.8793 13.78 21.8687 13.862 21.8482 13.9417C21.8437 13.95 21.8391 13.9582 21.8346 13.9665C21.8114 13.9555 21.7962 13.9408 21.7848 13.9257C21.761 13.8944 21.7533 13.862 21.7228 13.8619C21.7222 13.8619 21.7218 13.8619 21.7212 13.862C21.6972 13.8628 21.6598 13.8829 21.5911 13.9369C21.5902 13.9376 21.5894 13.9381 21.5888 13.9387L21.5886 13.9388C21.5882 13.9391 21.5876 13.9396 21.5872 13.9399C21.587 13.9401 21.587 13.9402 21.5868 13.9403C21.5852 13.9416 21.5835 13.9429 21.5819 13.9441C21.5809 13.9449 21.5799 13.9458 21.5789 13.9465C21.3449 14.1348 21.2953 14.0497 21.1274 14.1366C21.1257 14.1374 21.1243 14.1382 21.1229 14.1388C21.1225 14.139 21.1223 14.1393 21.1217 14.1395C21.1201 14.1404 21.1182 14.1413 21.1164 14.1421C21.1162 14.1424 21.1158 14.1425 21.1156 14.1426C21.1148 14.143 21.114 14.1434 21.1131 14.1438C21.1125 14.1441 21.1119 14.1444 21.1115 14.1446C21.1091 14.1458 21.1068 14.1469 21.1046 14.148C21.102 14.1493 21.0993 14.1506 21.0967 14.1518C21.0312 14.1825 20.9865 14.1919 20.9572 14.193C20.9548 14.1931 20.9527 14.1932 20.9507 14.1932C20.9505 14.1932 20.9505 14.1932 20.9505 14.1932C20.9448 14.1932 20.9397 14.1929 20.9353 14.1923C20.9349 14.1923 20.9345 14.1922 20.934 14.1922C20.933 14.192 20.9322 14.192 20.9314 14.192C20.9202 14.192 20.9117 14.2017 20.9121 14.213C20.9123 14.2133 20.9123 14.2136 20.9123 14.2138C20.9125 14.2155 20.9127 14.2171 20.9127 14.2188C20.9166 14.2579 20.9235 14.3266 20.933 14.4066C20.929 14.4067 20.9247 14.4067 20.9204 14.4067Z" fill="#1A1A1A"/>
<path d="M22.5841 14.1982C22.5136 14.1982 22.443 14.1823 22.3804 14.1505C22.3649 14.1274 22.3496 14.1024 22.3344 14.0756C22.3337 14.0747 22.3333 14.074 22.3329 14.0731C22.3323 14.072 22.3314 14.0708 22.3308 14.0697C22.33 14.0681 22.3291 14.0667 22.3283 14.0651C22.3277 14.064 22.327 14.0629 22.3262 14.0618C22.326 14.0613 22.3258 14.0609 22.3256 14.0606C22.2619 13.9526 22.2071 13.9082 22.1573 13.8968H22.157C22.157 13.8968 22.157 13.8968 22.1568 13.8968C22.1476 13.8947 22.1384 13.8937 22.1294 13.8937C22.0875 13.8937 22.049 13.9142 22.0109 13.9352C21.986 13.927 21.96 13.9222 21.9343 13.9222C21.9192 13.9222 21.9039 13.9239 21.8887 13.9276L21.8581 13.9754C21.8558 13.9747 21.8535 13.9741 21.8512 13.9733C21.8451 13.9713 21.8395 13.9691 21.8344 13.9667C21.8388 13.9583 21.8434 13.9501 21.848 13.9419C21.8945 13.8573 21.9443 13.7768 22.0266 13.7305C22.0674 13.7076 22.1135 13.6967 22.16 13.6967C22.2441 13.6967 22.3289 13.7326 22.3821 13.7983C22.433 13.8612 22.4549 13.9434 22.5041 14.0074C22.5605 14.0807 22.6534 14.1219 22.7453 14.1219C22.7876 14.1219 22.8295 14.1133 22.8678 14.0952C22.7905 14.164 22.6873 14.1982 22.5841 14.1982Z" fill="#1A1A1A"/>
<path d="M22.7892 14.4583L22.786 14.4517C22.786 14.4517 22.6044 14.4444 22.4208 14.2061C22.4839 14.2288 22.5516 14.2391 22.6198 14.2391C22.6831 14.2391 22.7468 14.2302 22.8076 14.2142C22.9695 14.1712 23.115 14.0818 23.2526 13.9867C23.2056 14.1568 23.0849 14.2903 22.9336 14.3842C22.8993 14.3989 22.8654 14.4172 22.8326 14.4389C22.8184 14.4456 22.8038 14.452 22.7892 14.4583ZM21.8907 13.9802C21.8905 13.9802 21.8903 13.9802 21.8901 13.9802C21.8814 13.9802 21.8725 13.9792 21.8638 13.9769C21.8634 13.9768 21.8627 13.9767 21.8623 13.9766C21.861 13.9763 21.8598 13.9759 21.8585 13.9756L21.8892 13.9277C21.9044 13.9241 21.9197 13.9224 21.9347 13.9224C21.9606 13.9224 21.9864 13.9272 22.0114 13.9354C22.0105 13.9359 22.0095 13.9365 22.0084 13.9371C21.9872 13.9488 21.9663 13.9606 21.9451 13.9688C21.9277 13.9756 21.9104 13.98 21.8926 13.9802C21.892 13.9802 21.8911 13.9802 21.8907 13.9802Z" fill="#1A1A1A"/>
</g>
<path d="M23.4285 14.4475C23.2728 14.2917 23.002 14.305 22.7929 14.4668L22.7858 14.4514C22.7858 14.4514 22.5423 14.4415 22.3344 14.0755C22.1973 13.8336 22.1011 13.8852 22.0081 13.9367C21.9602 13.9633 21.9134 13.9899 21.862 13.9762C21.7111 13.9368 21.8129 13.7586 21.5789 13.9466C21.3447 14.1348 21.2951 14.0497 21.1273 14.1366C21.0221 14.1912 20.9632 14.196 20.9339 14.1922C20.9213 14.1903 20.9111 14.2014 20.9121 14.2138C20.9235 14.3314 20.9684 14.7653 21.028 14.9086C21.0975 15.0749 20.7907 15.4906 21.1884 15.3545C21.2579 15.404 21.3249 16.3814 22.186 15.9656C22.217 16.1198 22.2371 16.2611 22.2502 16.3796C22.275 16.6038 22.275 16.7478 22.275 16.7478C22.275 16.7478 22.3742 16.708 22.6415 16.3915C22.9086 16.0746 23.4729 15.8766 23.4729 15.8766L23.1686 15.2783C23.2336 15.2474 23.2963 15.2041 23.3523 15.1479C23.5666 14.9336 23.6008 14.6201 23.4285 14.4475Z" fill="#F5B0A6"/>
<mask id="mask3_150_187" style="mask-type:luminance" maskUnits="userSpaceOnUse" x="20" y="13" width="4" height="4">
<path d="M23.1685 15.2783L23.4728 15.8766C23.4728 15.8766 22.9086 16.0746 22.6414 16.3915C22.3742 16.708 22.275 16.7478 22.275 16.7478C22.275 16.7478 22.275 16.6038 22.2501 16.3796C22.237 16.2611 22.2169 16.1198 22.186 15.9656C21.3248 16.3814 21.2578 15.404 21.1884 15.3545C20.7905 15.4906 21.0975 15.0749 21.028 14.9086C20.9683 14.7653 20.9235 14.3314 20.9122 14.2138C20.9109 14.2014 20.9213 14.1903 20.9339 14.1922C20.9632 14.196 21.022 14.1912 21.1271 14.1366C21.2952 14.0497 21.3448 14.1348 21.5788 13.9466C21.8127 13.7586 21.7109 13.9368 21.862 13.9762C21.9133 13.9899 21.9602 13.9633 22.0081 13.9367C22.101 13.8852 22.1973 13.8336 22.3344 14.0755C22.5423 14.4415 22.7857 14.4514 22.7857 14.4514L22.7929 14.4668C23.0019 14.305 23.2727 14.2917 23.4283 14.4475C23.6008 14.6201 23.5666 14.9336 23.3523 15.1479C23.2962 15.2041 23.2335 15.2474 23.1685 15.2783Z" fill="white"/>
</mask>
<g mask="url(#mask3_150_187)">
<path d="M22.0084 13.9371C22.0094 13.9365 22.0104 13.936 22.0112 13.9354C22.0114 13.9354 22.0112 13.9354 22.0114 13.9354C22.0104 13.936 22.0094 13.9365 22.0084 13.9371Z" fill="#9B5D5E"/>
<path d="M22.6477 14.406C22.4439 14.3955 22.2442 14.2764 22.1504 14.0936C22.1282 14.0502 22.1038 13.9979 22.0558 13.99C22.0516 13.9893 22.0477 13.989 22.0435 13.989C22.0192 13.989 21.9944 14 21.9703 14.0108C21.9462 14.0217 21.9227 14.0327 21.9008 14.0327C21.8894 14.0327 21.8783 14.0297 21.8679 14.0221C21.8488 14.0084 21.8415 13.984 21.8288 13.9638C21.8357 13.9673 21.843 13.9705 21.8513 13.9733H21.8515C21.8548 13.9744 21.8584 13.9755 21.8621 13.9764C21.8625 13.9765 21.863 13.9766 21.8634 13.9767C21.8723 13.979 21.8813 13.98 21.8898 13.98C21.89 13.98 21.8902 13.98 21.8904 13.98C21.891 13.98 21.8917 13.98 21.8923 13.98C21.9102 13.9798 21.9274 13.9754 21.9447 13.9686C21.9661 13.9604 21.9871 13.9486 22.0081 13.9368C22.0092 13.9363 22.0102 13.9357 22.0113 13.9352C22.0491 13.9141 22.0878 13.8936 22.1296 13.8936C22.1386 13.8936 22.1477 13.8946 22.1571 13.8967C22.1573 13.8967 22.1573 13.8967 22.1573 13.8967H22.1575C22.2072 13.9082 22.2621 13.9526 22.326 14.0606C22.3262 14.0609 22.3264 14.0613 22.3266 14.0618C22.3272 14.0629 22.3278 14.064 22.3285 14.0651C22.3295 14.0666 22.3303 14.0681 22.3312 14.0696C22.3318 14.0708 22.3326 14.072 22.3332 14.0731C22.3337 14.074 22.3341 14.0747 22.3345 14.0756C22.4424 14.2655 22.5597 14.3595 22.6477 14.406Z" fill="#F39996"/>
<path d="M20.9147 14.2388C20.9139 14.2315 20.9133 14.2248 20.9127 14.2188C20.9125 14.2172 20.9123 14.2155 20.9123 14.2139C20.9123 14.2136 20.9123 14.2133 20.9121 14.2131C20.9115 14.2018 20.9202 14.192 20.9311 14.192C20.9322 14.192 20.933 14.192 20.934 14.1922C20.9344 14.1922 20.9348 14.1924 20.9352 14.1924C20.9397 14.1929 20.9447 14.1932 20.9504 14.1932C20.9504 14.1932 20.9504 14.1932 20.9506 14.1932C20.9526 14.1932 20.9547 14.1931 20.9571 14.193C20.9863 14.1919 21.0311 14.1825 21.0965 14.1518C21.0992 14.1506 21.1018 14.1494 21.1045 14.1481C21.1067 14.1469 21.1089 14.1459 21.1113 14.1446C21.112 14.1444 21.1124 14.1442 21.113 14.1438C21.1138 14.1434 21.1146 14.1431 21.1156 14.1426C21.1158 14.1425 21.116 14.1424 21.1164 14.1422C21.118 14.1413 21.1199 14.1404 21.1217 14.1395C21.1221 14.1393 21.1225 14.1391 21.1229 14.1389C21.1243 14.1382 21.1257 14.1374 21.1272 14.1366C21.2952 14.0497 21.3449 14.1349 21.5788 13.9466C21.5798 13.9458 21.5808 13.9449 21.5818 13.9442C21.5834 13.9429 21.5851 13.9416 21.5867 13.9404C21.5869 13.9403 21.5869 13.9402 21.5871 13.9399C21.5875 13.9396 21.5881 13.9392 21.5885 13.9389L21.5887 13.9387C21.5893 13.9382 21.5901 13.9376 21.5909 13.937C21.6597 13.8829 21.6972 13.8629 21.7211 13.8621C21.7217 13.862 21.7221 13.862 21.7225 13.862H21.7227C21.7531 13.8621 21.761 13.8944 21.7847 13.9258C21.7685 13.9187 21.7503 13.9155 21.7316 13.9155C21.7067 13.9155 21.6813 13.9212 21.659 13.9318C21.6041 13.9579 21.5626 14.0047 21.5157 14.0435C21.369 14.1646 21.1726 14.2028 20.9845 14.2304C20.9615 14.2337 20.9382 14.2368 20.9147 14.2388Z" fill="#F39996"/>
<path d="M21.1645 15.3427C21.129 15.3248 21.0878 15.3259 21.0483 15.3213C21.0089 15.3165 20.966 15.3021 20.9479 15.2668C20.9355 15.2424 20.9353 15.2093 20.912 15.1949C20.8797 15.175 20.8411 15.2131 20.8301 15.2495C20.8082 15.3223 20.8321 15.4067 20.8887 15.4575C20.9453 15.5083 21.0318 15.5226 21.1017 15.4931L21.2042 15.4405C21.2255 15.407 21.2 15.3605 21.1645 15.3427Z" fill="#D87D82"/>
</g>
<path d="M23.0971 14.6512C23.0882 14.6554 23.0793 14.6593 23.0715 14.665C23.0633 14.6702 23.055 14.6756 23.047 14.6811C23.0428 14.6838 23.039 14.6869 23.0356 14.6903L23.0244 14.7001C23.0092 14.7126 22.9972 14.7287 22.9845 14.7441C22.9617 14.7765 22.9456 14.8142 22.9391 14.853C22.9325 14.8918 22.9344 14.9322 22.9494 14.9678C22.9528 14.9299 22.9606 14.8947 22.9727 14.8617C22.9845 14.8286 23.0008 14.798 23.0206 14.7699L23.0367 14.7495C23.0415 14.7423 23.0481 14.7364 23.054 14.73C23.0601 14.7238 23.0656 14.7168 23.0722 14.711C23.0789 14.7052 23.0855 14.6992 23.0918 14.6931C23.0981 14.6867 23.1055 14.6815 23.1127 14.6758C23.1197 14.6703 23.1267 14.6645 23.1338 14.6585C23.1484 14.6476 23.1638 14.6374 23.1786 14.6247C23.16 14.6283 23.1417 14.6335 23.1233 14.6395C23.1144 14.6433 23.1058 14.6471 23.0971 14.6512Z" fill="#D87D82"/>
<path d="M23.1987 14.7796C23.172 14.767 23.1424 14.7599 23.1119 14.7598C23.0969 14.7592 23.0816 14.762 23.0668 14.7646C23.0524 14.7693 23.0378 14.7732 23.0246 14.781L23.0149 14.7863C23.0115 14.7881 23.0083 14.79 23.0056 14.7925C22.9996 14.797 22.9939 14.8017 22.9884 14.8064C22.9827 14.8109 22.978 14.8168 22.9734 14.8225C22.9687 14.8281 22.9643 14.8337 22.9605 14.8398C22.9677 14.8375 22.9742 14.835 22.9806 14.8323C22.9871 14.83 22.9929 14.8264 22.9996 14.8249C23.0062 14.8229 23.0126 14.8208 23.0187 14.8185C23.0246 14.8159 23.0314 14.8154 23.0375 14.8135C23.0496 14.8095 23.0623 14.8085 23.0746 14.806C23.0871 14.8053 23.0992 14.8034 23.1117 14.8041C23.1367 14.8042 23.1619 14.8071 23.1875 14.8124C23.2131 14.8178 23.239 14.825 23.2667 14.8334C23.2493 14.8098 23.2252 14.7924 23.1987 14.7796Z" fill="#D87D82"/>
<path d="M21.5361 14.5732C21.4786 14.5747 21.4333 14.6369 21.4354 14.7119C21.4374 14.7871 21.4858 14.8467 21.5434 14.8452C21.6011 14.8437 21.6461 14.7815 21.6441 14.7064C21.6421 14.6313 21.5936 14.5716 21.5361 14.5732Z" fill="black"/>
<path d="M22.1864 15.1594C22.0618 15.1594 21.9435 15.0861 21.8921 14.9643C21.8233 14.8019 21.8994 14.6145 22.0618 14.5458C22.1024 14.5287 22.1445 14.5206 22.186 14.5206C22.3104 14.5206 22.4288 14.5938 22.4803 14.7156C22.5489 14.8781 22.473 15.0654 22.3104 15.1341C22.27 15.1512 22.2279 15.1594 22.1864 15.1594Z" fill="#F39996"/>
<path d="M21.8728 15.3131C21.8621 15.3074 21.8486 15.3115 21.843 15.3224C21.7161 15.5622 21.4115 15.5192 21.408 15.5186C21.396 15.5168 21.3846 15.5251 21.383 15.5371C21.381 15.5492 21.3893 15.5606 21.4015 15.5624C21.4023 15.5626 21.4269 15.5662 21.4654 15.5662C21.5705 15.5662 21.7783 15.5395 21.8822 15.3431C21.8879 15.3322 21.8836 15.3188 21.8728 15.3131Z" fill="#D87D82"/>
<path d="M21.5123 14.1387C21.2374 14.1728 21.3126 14.3352 21.3132 14.3312C21.4798 14.2391 21.8365 14.2698 21.8546 14.2783C21.847 14.2668 21.7711 14.1187 21.5123 14.1387Z" fill="black"/>
<path d="M22.1865 15.9659C22.2173 16.1201 22.2375 16.2614 22.2506 16.3799C22.4198 16.196 22.6175 15.9007 22.6717 15.4908C22.4537 15.7779 22.1865 15.9659 22.1865 15.9659Z" fill="#F18A8B"/>
<path d="M25.8075 23.1538C25.8896 23.0672 25.9466 22.992 25.9772 22.9436C26.0014 22.9057 26.0133 22.8384 26.0168 22.7476C26.0168 22.7474 26.0168 22.7474 26.0168 22.7474C26.0133 22.8384 26.0017 22.9057 25.9772 22.9437C25.9466 22.992 25.8896 23.0673 25.8075 23.1538Z" fill="#C5DFD8"/>
<path d="M24.2888 23.8113C24.2393 23.8113 24.189 23.8096 24.1375 23.8061C24.1885 23.8095 24.2387 23.8112 24.2876 23.8112C24.357 23.8112 24.4246 23.8078 24.4899 23.8015C24.5688 23.794 24.6445 23.7821 24.7175 23.7667C24.7347 23.7633 24.752 23.7594 24.769 23.7555C25.18 23.6579 25.492 23.4481 25.6995 23.2592C25.4174 23.5159 24.9429 23.8113 24.2888 23.8113ZM25.7004 23.2585C25.7006 23.2583 25.7006 23.2582 25.7009 23.2581C25.7009 23.2582 25.7006 23.2583 25.7004 23.2585Z" fill="#244B6B"/>
<path d="M24.2873 23.8113C24.2383 23.8113 24.1883 23.8096 24.137 23.8062C24.0977 23.8035 24.0579 23.7998 24.0174 23.7948C22.8691 23.6562 21.7409 22.4489 21.7409 22.4489L21.7393 22.4422C21.7496 22.4467 21.7601 22.451 21.7704 22.4552C21.9224 22.5169 22.0777 22.5705 22.2368 22.6121L22.2965 22.6278L22.3569 22.6407L22.4173 22.6537C22.4376 22.6576 22.4584 22.6604 22.479 22.6637C22.5295 22.6707 22.5807 22.6742 22.6317 22.6742C22.6642 22.6742 22.6967 22.6728 22.7289 22.6699C22.8124 22.663 22.8945 22.6467 22.9745 22.6232C23.1012 22.6557 23.2372 22.6747 23.3824 22.6747C23.5576 22.6747 23.746 22.6469 23.9463 22.5816C23.2071 22.8578 22.8636 22.8936 22.7351 22.8936C22.69 22.8936 22.6715 22.8892 22.6715 22.8892C22.6715 22.8892 23.5661 23.4127 24.5185 23.4127C25.0478 23.4127 25.5955 23.2508 26.0167 22.7473C26.0132 22.8382 26.0013 22.9055 25.9771 22.9434C25.9465 22.9918 25.8895 23.067 25.8074 23.1536C25.7759 23.1868 25.7407 23.2216 25.7016 23.2572C25.7013 23.2575 25.7009 23.2578 25.7006 23.2582C25.7004 23.2583 25.7002 23.2584 25.7002 23.2586C25.6997 23.2588 25.6995 23.2591 25.6993 23.2593C25.4916 23.4482 25.1797 23.658 24.7686 23.7556C24.7517 23.7596 24.7345 23.7634 24.7172 23.7669C24.6442 23.7823 24.5685 23.7941 24.4896 23.8017C24.4242 23.808 24.3568 23.8113 24.2873 23.8113Z" fill="#61B381"/>
<path d="M19.8806 19.5192L19.7145 20.2116L19.8013 20.4099L22.0581 21.1077C22.0456 21.0584 21.7769 20.3012 21.6185 19.578L19.8806 19.5192Z" fill="#6AB77B"/>
<path d="M18.9424 18.8528C18.7742 18.546 18.6957 18.7391 18.6563 18.8678C18.6167 18.9965 18.7837 19.1676 18.7816 19.2736C18.7791 19.3875 18.6529 19.6084 18.4748 19.5788C18.2966 19.5491 17.8511 19.5986 17.9403 19.747C18.0292 19.8954 18.1975 19.9846 18.257 20.1132C18.3164 20.2419 18.5737 20.138 18.5341 20.3136C18.4944 20.4893 18.7121 20.5684 18.9399 20.6378C19.096 20.6853 19.3756 20.7368 19.3756 20.7368L19.7862 19.7965C19.7862 19.7965 19.6525 19.5292 19.5535 19.3709C19.4546 19.2125 19.1107 19.1595 18.9424 18.8528Z" fill="#F5B0A6"/>
<mask id="mask4_150_187" style="mask-type:luminance" maskUnits="userSpaceOnUse" x="17" y="18" width="3" height="3">
<path d="M19.7862 19.7965C19.7862 19.7965 19.6525 19.5292 19.5535 19.3709C19.4546 19.2125 19.1106 19.1595 18.9424 18.8527C18.7741 18.546 18.6958 18.7392 18.6563 18.8678C18.6166 18.9965 18.7838 19.1676 18.7815 19.2736C18.7791 19.3875 18.6528 19.6084 18.4747 19.5788C18.2965 19.5491 17.8512 19.5986 17.9402 19.747C18.0293 19.8954 18.1976 19.9846 18.257 20.1131C18.3164 20.2418 18.5737 20.138 18.5341 20.3136C18.4946 20.4893 18.7123 20.5684 18.9399 20.6378C19.0961 20.6853 19.3755 20.7368 19.3755 20.7368L19.7862 19.7965Z" fill="white"/>
</mask>
<g mask="url(#mask4_150_187)">
<path d="M18.7419 18.7393C18.7445 18.7094 18.7501 18.6786 18.7671 18.654C18.7842 18.6293 18.8157 18.6126 18.8447 18.6206L18.8025 18.4411C18.7039 18.4912 18.6322 18.5836 18.586 18.684C18.5396 18.7845 18.5165 18.8938 18.4936 19.0019C18.4685 19.1206 18.4435 19.2392 18.4184 19.358C18.4032 19.4291 18.3971 19.5211 18.4609 19.5559C18.515 19.5852 18.5802 19.5504 18.6316 19.5163C18.7358 19.4472 18.8508 19.3603 18.8582 19.2356C18.8639 19.1435 18.8079 19.0608 18.775 18.9746C18.7466 18.9 18.7353 18.8188 18.7419 18.7393Z" fill="#F18A8B"/>
<path d="M18.7433 20.6017C18.7 20.5638 18.6399 20.5396 18.6174 20.4865C18.5891 20.4196 18.6357 20.3435 18.6268 20.2713C18.6187 20.207 18.561 20.1522 18.4962 20.1478C18.4501 20.1447 18.3924 20.1594 18.3667 20.1211C18.3412 20.0832 18.3761 20.035 18.3821 19.9898C18.3917 19.9186 18.3259 19.8581 18.2583 19.8339C18.1907 19.8097 18.1159 19.8071 18.0506 19.7771C17.9854 19.747 17.9301 19.672 17.9582 19.6058L17.6783 19.7068C17.9126 19.8251 18.0781 20.0701 18.1004 20.3317C18.1098 20.441 18.1006 20.565 18.1761 20.6446C18.2388 20.7107 18.3394 20.7215 18.4304 20.7201C18.5295 20.7185 18.6287 20.7071 18.7256 20.6863C18.7407 20.683 18.7575 20.6784 18.7656 20.6653C18.7785 20.6444 18.7617 20.6177 18.7433 20.6017Z" fill="#F18A8B"/>
</g>
<path d="M22.4291 20.687L19.8245 19.7527L19.3263 20.8453C19.3263 20.8453 21.0782 22.3695 22.4291 22.6269C23.7802 22.8842 24.9681 20.5287 25.1461 19.7962L23.1788 18.4898L22.4291 20.687Z" fill="#E7342F"/>
<path d="M19.3553 20.8589L19.3656 20.8365C19.3594 20.8313 19.3532 20.8262 19.3472 20.821L19.3553 20.8589Z" fill="#6BDBB9"/>
<path d="M24.9802 20.2555C24.9157 20.4049 24.8451 20.5516 24.7689 20.6954C24.6169 20.983 24.4451 21.2601 24.2515 21.5208C24.1544 21.651 24.0521 21.7771 23.942 21.896C23.887 21.9555 23.8305 22.0136 23.7718 22.0692C23.7129 22.1245 23.6521 22.178 23.5891 22.2286C23.4636 22.3299 23.3283 22.4193 23.1831 22.4879C23.0384 22.5565 22.883 22.6033 22.7244 22.6153C22.6452 22.6214 22.5654 22.6191 22.4868 22.6079C22.4672 22.6044 22.4477 22.6018 22.4281 22.5979L22.3691 22.585L22.3102 22.572L22.2517 22.5563C22.096 22.5145 21.943 22.461 21.7934 22.3993C21.644 22.3373 21.4973 22.268 21.3532 22.1939C21.209 22.12 21.0674 22.0404 20.928 21.9573C20.6491 21.7915 20.3787 21.6105 20.1154 21.4204C19.859 21.2345 19.6071 21.041 19.3659 20.8368L19.3556 20.8593L19.3474 20.8213C19.3534 20.8265 19.3596 20.8316 19.3659 20.8368L19.8407 19.7917L19.8139 19.7822L19.8523 19.7659L19.8407 19.7917L21.1176 20.2453L22.4223 20.706L22.4413 20.7126L22.4475 20.6938L22.6315 20.1432L22.8142 19.5924L22.9971 19.0415L23.1784 18.4902L22.9853 19.0374L22.7932 19.5852L22.6012 20.1329L22.4169 20.6621L22.4355 20.6689L22.4102 20.681L22.4169 20.6621L21.1355 20.1952L19.8346 19.7241L19.8081 19.7145L19.7962 19.7403L19.2964 20.8322L19.2862 20.8545L19.3047 20.8703C19.4293 20.9772 19.5559 21.0795 19.6848 21.1801C19.8137 21.2805 19.9441 21.3787 20.0767 21.4739C20.3418 21.6647 20.6138 21.8461 20.895 22.0127C21.1759 22.1799 21.4671 22.3312 21.7704 22.4556C21.9223 22.5173 22.0777 22.5709 22.2369 22.6125L22.2965 22.6281L22.3571 22.6411L22.4174 22.6541C22.4377 22.6579 22.4585 22.6608 22.479 22.6641C22.5619 22.6756 22.6458 22.6775 22.7289 22.6703C22.8953 22.6563 23.0565 22.6059 23.2052 22.5339C23.3542 22.4617 23.4918 22.369 23.6186 22.2648C23.7459 22.1609 23.8629 22.0453 23.9724 21.9237C24.0822 21.8022 24.1838 21.6738 24.2799 21.5415C24.3757 21.4093 24.465 21.2724 24.5492 21.1326C24.6336 20.9928 24.7122 20.8497 24.7861 20.7043C24.8598 20.5588 24.9282 20.4106 24.9903 20.2597C25.0211 20.1843 25.0501 20.1081 25.0765 20.031C25.103 19.9539 25.1272 19.876 25.1457 19.7967C25.1254 19.8755 25.0995 19.9527 25.0713 20.0291C25.0432 20.1056 25.0124 20.1808 24.9802 20.2555Z" fill="#40947E"/>
<path d="M19.8139 19.782L19.8405 19.7915L19.8521 19.7658L19.8139 19.782Z" fill="#6BDBB9"/>
<path d="M22.4342 20.6692L22.4167 20.6628L22.4105 20.6807L22.4342 20.6692Z" fill="#6BDBB9"/>
<path d="M22.6711 21.5115L22.4284 21.0141L20.0777 19.8756L21.1172 20.245L22.4219 20.7056L22.4409 20.7122L22.4473 20.6934L22.6311 20.1429L22.8139 19.5921L22.9967 19.0412L23.1672 18.5233L22.7794 20.5682L23.2665 21.0389L22.6711 20.9891V21.5115Z" fill="#61B381"/>
<path d="M22.4412 20.7124L22.422 20.7058L21.1174 20.2451L20.0778 19.8758L19.8518 19.7663L19.852 19.7657L19.8514 19.766L19.8241 19.7529L22.4101 20.6805V20.6808L22.4103 20.6806L22.4287 20.6872L22.435 20.6689L22.4353 20.6686L22.435 20.6685L23.1679 18.5208L23.1674 18.5234L22.9968 19.0413L22.8141 19.5922L22.6312 20.143L22.4473 20.6936L22.4412 20.7124Z" fill="#40947E"/>
<path d="M19.8525 19.7664L19.8513 19.7657L19.8529 19.7649L19.8525 19.7664Z" fill="#5EC6A7"/>
<path d="M22.4105 20.6807V20.6804L22.4107 20.6805L22.4105 20.6807ZM22.4338 20.6694L22.434 20.6691L22.4342 20.6692L22.4338 20.6694Z" fill="#5EC6A7"/>
<path d="M2.45073 3.9656C1.19166 4.22282 0.382488 5.46617 0.643094 6.74286C0.903799 8.0194 2.13574 8.8462 3.39492 8.58915C4.654 8.33209 5.46334 7.08841 5.20257 5.81171C4.94185 4.53518 3.70991 3.70854 2.45073 3.9656Z" fill="#EF7C59"/>
<path d="M3.04571 4.0433C2.85865 4.03172 2.66726 4.04444 2.47509 4.08359C2.32745 4.11376 2.18657 4.15813 2.05322 4.21506C1.22765 4.56756 0.693254 5.40142 0.713399 6.31309C0.7164 6.44717 0.731456 6.58321 0.759153 6.71958C0.801678 6.92804 0.871461 7.12378 0.964047 7.30354C1.40962 8.17084 2.38151 8.67422 3.37133 8.47212C4.5664 8.22793 5.33445 7.04777 5.08717 5.83597C4.87939 4.81892 4.02246 4.10267 3.04571 4.0433Z" fill="#F19A6D"/>
<path d="M2.57016 4.54841C1.62852 4.74079 1.023 5.67098 1.21805 6.62581C1.41309 7.58081 2.33457 8.19905 3.27634 8.00667C4.2181 7.81444 4.8235 6.88426 4.62857 5.92942C4.43352 4.97459 3.51191 4.35618 2.57016 4.54841Z" fill="#EF7C59"/>
<path d="M4.51898 5.8194C4.47933 5.69956 4.42739 5.58658 4.36448 5.48172C4.26657 5.31758 4.14263 5.17352 3.99999 5.05336C3.8035 4.88826 3.57091 4.76906 3.32038 4.70802C3.091 4.65177 2.84646 4.64428 2.60025 4.69448C1.69814 4.87854 1.11812 5.76968 1.30495 6.68425C1.36355 6.97094 1.49059 7.22607 1.66514 7.43563C1.83105 7.63483 2.04005 7.7926 2.27418 7.89714C2.44387 7.97268 2.62627 8.02017 2.81489 8.03515C2.93506 8.04503 3.05777 8.04136 3.18127 8.02367C3.21316 8.01921 3.24496 8.01347 3.27675 8.00694C4.17863 7.82272 4.75837 6.93174 4.57171 6.01717C4.55786 5.94944 4.54014 5.88331 4.51898 5.8194Z" fill="#F3CE90"/>
<path d="M2.27344 7.89697C2.0393 7.79237 1.8303 7.63451 1.6644 7.43549L3.31963 4.70773C3.57017 4.76878 3.80276 4.888 3.99923 5.05317L2.27344 7.89697Z" fill="#F2B57F"/>
<path d="M2.94589 8.04053C2.90181 8.04053 2.85806 8.03868 2.81453 8.03513L4.36406 5.48165C4.42698 5.58653 4.47896 5.69942 4.51859 5.8194L3.18091 8.02372C3.10205 8.03497 3.02364 8.04053 2.94589 8.04053Z" fill="#F2B57F"/>
<path d="M25.0584 9.37205C24.2346 9.10145 23.3443 9.55943 23.07 10.3948C22.7956 11.2301 23.241 12.1267 24.0649 12.3973C24.8887 12.6679 25.779 12.2098 26.0533 11.3745C26.3277 10.5392 25.8823 9.6426 25.0584 9.37205Z" fill="#EF7C59"/>
<path d="M25.381 9.61627C25.2753 9.54683 25.1588 9.49033 25.0331 9.44893C24.9364 9.41724 24.8392 9.39608 24.7418 9.38489C24.14 9.31523 23.5479 9.62513 23.2547 10.1661C23.2118 10.2457 23.175 10.3304 23.1456 10.4196C23.1008 10.5559 23.0762 10.694 23.0702 10.8304C23.0413 11.4876 23.4424 12.1077 24.0902 12.3205C24.8721 12.5772 25.7171 12.1426 25.9775 11.3497C26.196 10.6842 25.9333 9.97778 25.381 9.61627Z" fill="#F19A6D"/>
<path d="M24.9331 9.75375C24.3168 9.55129 23.6511 9.89387 23.4458 10.5186C23.2405 11.1435 23.5738 11.8141 24.1899 12.0165C24.8062 12.219 25.4722 11.8764 25.6775 11.2516C25.8826 10.6267 25.5494 9.9561 24.9331 9.75375Z" fill="#EF7C59"/>
<path d="M25.6024 10.5272C25.5424 10.3647 25.4461 10.217 25.3197 10.0974C25.2039 9.98785 25.0632 9.90157 24.9021 9.84862C24.3119 9.65469 23.6739 9.98286 23.4775 10.5813C23.4159 10.7689 23.405 10.9609 23.4372 11.1421C23.4678 11.3144 23.5375 11.4767 23.6397 11.6164C23.7138 11.7174 23.8049 11.8062 23.9105 11.8781C23.9775 11.9241 24.0505 11.9629 24.1289 11.994C24.149 12.0019 24.1694 12.0092 24.1903 12.0161C24.7805 12.2098 25.4185 11.8818 25.6149 11.2832C25.6296 11.2389 25.6412 11.1943 25.6502 11.1497C25.6672 11.0662 25.6745 10.9826 25.6727 10.9001C25.6702 10.7713 25.6457 10.6453 25.6024 10.5272Z" fill="#F3CE90"/>
<path d="M23.6395 11.6162C23.5373 11.4765 23.4674 11.3142 23.4369 11.1419L25.3196 10.0972C25.446 10.2168 25.5423 10.3645 25.6022 10.527L23.6395 11.6162Z" fill="#F2B57F"/>
<path d="M24.1284 11.9939C24.05 11.9629 23.9768 11.924 23.9098 11.878L25.6722 10.9001C25.6724 10.9085 25.6724 10.9168 25.6724 10.9252C25.6724 10.9995 25.6649 11.0746 25.6497 11.1496L24.1284 11.9939Z" fill="#F2B57F"/>
</svg>
