<svg width="4124" height="787" viewBox="0 0 4124 787" fill="none" xmlns="http://www.w3.org/2000/svg">
<g clip-path="url(#clip0_2728_125)">
<path d="M1614.03 419.1V532.488C1614.03 541.046 1612.03 547.821 1608.02 552.813C1604.38 557.805 1598.37 562.44 1590 566.72C1580.53 571.711 1566.88 575.99 1549.04 579.556C1531.56 583.122 1513.9 584.905 1496.06 584.905C1461.47 584.905 1430.52 579.021 1403.21 567.254C1376.27 555.131 1354.97 536.589 1339.32 511.63C1323.66 486.313 1315.83 454.043 1315.83 414.82C1315.83 377.024 1323.84 345.468 1339.86 320.151C1355.88 294.835 1377.18 275.758 1403.76 262.922C1430.71 250.085 1460.38 243.667 1492.78 243.667C1514.63 243.667 1533.57 245.985 1549.59 250.62C1565.97 255.256 1578.53 261.318 1587.27 268.805C1596.37 276.293 1600.93 284.494 1600.93 293.409C1600.93 300.184 1598.92 306.245 1594.91 311.594C1591.27 316.942 1587.08 321.043 1582.35 323.895C1572.52 317.834 1560.87 312.307 1547.4 307.315C1533.93 301.966 1517.36 299.292 1497.7 299.292C1476.59 299.292 1457.47 303.749 1440.35 312.663C1423.6 321.577 1410.5 334.771 1401.03 352.243C1391.57 369.358 1386.83 390.217 1386.83 414.82C1386.83 441.207 1391.57 462.958 1401.03 480.073C1410.5 496.831 1423.6 509.312 1440.35 517.513C1457.1 525.714 1476.03 529.815 1497.15 529.815C1507.71 529.815 1517.36 528.923 1526.1 527.14C1535.2 525.357 1542.3 523.218 1547.4 520.722V444.773H1476.4C1474.94 442.276 1473.31 438.711 1471.48 434.075C1470.03 429.084 1469.3 424.091 1469.3 419.1C1469.3 409.472 1471.48 402.519 1475.85 398.24C1480.22 393.605 1486.23 391.287 1493.88 391.287H1585.63C1594.01 391.287 1600.74 393.783 1605.84 398.775C1611.3 403.767 1614.03 410.542 1614.03 419.1ZM1749.66 384.334V457.609H1682.48V378.985C1682.48 370.071 1684.67 362.583 1689.03 356.522C1693.4 350.103 1699.6 344.22 1707.61 338.871C1718.53 332.453 1732.36 327.105 1749.11 322.825C1765.86 318.547 1783.88 316.408 1803.18 316.408C1837.41 316.408 1854.52 326.748 1854.52 347.429C1854.52 352.421 1853.79 357.056 1852.33 361.335C1850.88 365.258 1849.06 368.823 1846.87 372.032C1843.23 371.319 1838.68 370.784 1833.22 370.428C1827.76 369.714 1821.93 369.358 1815.74 369.358C1802.64 369.358 1790.26 370.784 1778.6 373.637C1767.32 376.133 1757.67 379.698 1749.66 384.334ZM1682.48 435.68L1749.66 438.889V575.812C1746.75 576.882 1742.56 577.773 1737.09 578.486C1731.63 579.556 1725.63 580.09 1719.07 580.09C1706.69 580.09 1697.41 577.951 1691.22 573.672C1685.39 569.037 1682.48 561.014 1682.48 549.604V435.68ZM1921.06 483.817L1918.33 437.82L2064.7 416.425C2063.6 402.876 2058.33 391.109 2048.86 381.125C2039.4 371.141 2025.56 366.149 2007.35 366.149C1988.78 366.149 1973.31 372.567 1960.93 385.403C1948.55 397.884 1942.18 415.89 1941.82 439.424L1943.45 467.236C1946.73 490.057 1955.65 506.815 1970.21 517.513C1985.14 528.21 2003.89 533.558 2026.47 533.558C2041.76 533.558 2055.96 531.419 2069.06 527.14C2082.18 522.505 2092.55 517.513 2100.2 512.164C2105.3 515.373 2109.3 519.474 2112.22 524.466C2115.49 529.101 2117.13 534.271 2117.13 539.977C2117.13 549.247 2112.94 557.27 2104.57 564.045C2096.19 570.463 2084.9 575.455 2070.71 579.021C2056.51 582.587 2040.31 584.37 2022.1 584.37C1994.06 584.37 1969.12 579.377 1947.28 569.393C1925.79 559.053 1908.86 543.72 1896.48 523.396C1884.47 503.072 1878.46 477.755 1878.46 447.447C1878.46 425.696 1881.92 406.619 1888.83 390.217C1895.75 373.815 1905.04 360.265 1916.69 349.568C1928.71 338.515 1942.54 330.314 1958.2 324.965C1973.85 319.26 1990.24 316.408 2007.35 316.408C2031.39 316.408 2052.32 321.221 2070.16 330.848C2088.37 340.119 2102.56 353.134 2112.76 369.893C2123.32 386.651 2128.6 405.906 2128.6 427.657C2128.6 437.641 2125.87 445.129 2120.4 450.121C2115.31 454.757 2108.03 457.609 2098.56 458.679L1921.06 483.817ZM2212.26 483.817L2209.53 437.82L2355.9 416.425C2354.81 402.876 2349.53 391.109 2340.06 381.125C2330.6 371.141 2316.76 366.149 2298.56 366.149C2279.98 366.149 2264.51 372.567 2252.13 385.403C2239.75 397.884 2233.38 415.89 2233.02 439.424L2234.66 467.236C2237.93 490.057 2246.86 506.815 2261.42 517.513C2276.34 528.21 2295.1 533.558 2317.67 533.558C2332.97 533.558 2347.16 531.419 2360.27 527.14C2373.38 522.505 2383.76 517.513 2391.4 512.164C2396.5 515.373 2400.5 519.474 2403.42 524.466C2406.69 529.101 2408.33 534.271 2408.33 539.977C2408.33 549.247 2404.14 557.27 2395.77 564.045C2387.39 570.463 2376.11 575.455 2361.91 579.021C2347.71 582.587 2331.5 584.37 2313.3 584.37C2285.27 584.37 2260.33 579.377 2238.48 569.393C2217 559.053 2200.07 543.72 2187.69 523.396C2175.67 503.072 2169.67 477.755 2169.67 447.447C2169.67 425.696 2173.12 406.619 2180.04 390.217C2186.96 373.815 2196.24 360.265 2207.89 349.568C2219.91 338.515 2233.74 330.314 2249.4 324.965C2265.06 319.26 2281.45 316.408 2298.56 316.408C2322.58 316.408 2343.52 321.221 2361.36 330.848C2379.57 340.119 2393.77 353.134 2403.96 369.893C2414.52 386.651 2419.8 405.906 2419.8 427.657C2419.8 437.641 2417.07 445.129 2411.61 450.121C2406.51 454.757 2399.23 457.609 2389.76 458.679L2212.26 483.817ZM2712.66 411.612V463.492H2645.48V414.286C2645.48 398.597 2640.93 387.186 2631.83 380.055C2622.72 372.567 2610.53 368.823 2595.24 368.823C2583.95 368.823 2573.75 370.249 2564.65 373.102C2555.91 375.598 2548.09 378.629 2541.17 382.195V463.492H2473.99V377.915C2473.99 369.358 2475.81 362.405 2479.45 357.056C2483.09 351.351 2488.55 346.181 2495.83 341.545C2506.76 334.414 2520.77 328.531 2537.89 323.895C2555.36 318.904 2574.66 316.408 2595.78 316.408C2632.55 316.408 2661.14 324.43 2681.53 340.476C2702.28 356.522 2712.66 380.233 2712.66 411.612ZM2473.99 437.285H2541.17V575.812C2538.25 576.882 2534.06 577.773 2528.6 578.486C2523.14 579.556 2517.13 580.09 2510.58 580.09C2498.2 580.09 2488.92 577.951 2482.72 573.672C2476.9 569.037 2473.99 561.014 2473.99 549.604V437.285ZM2645.48 437.285H2712.66V575.812C2710.11 576.882 2705.92 577.773 2700.09 578.486C2694.64 579.556 2688.81 580.09 2682.62 580.09C2669.87 580.09 2660.41 577.951 2654.22 573.672C2648.39 569.037 2645.48 561.014 2645.48 549.604V437.285ZM2790.43 364.545H2859.8V573.138L2827.57 577.416C2816.28 577.416 2807.18 574.207 2800.26 567.789C2793.71 561.014 2790.43 552.278 2790.43 541.581V364.545ZM2827.57 577.416V521.792H3001.25C3003.43 524.644 3005.25 528.388 3006.71 533.023C3008.53 537.659 3009.44 542.829 3009.44 548.534C3009.44 558.162 3007.07 565.471 3002.34 570.463C2997.97 575.099 2991.96 577.416 2984.32 577.416H2827.57ZM2859.8 440.494H2790.43V252.225C2793.71 251.512 2798.26 250.62 2804.09 249.55C2810.28 248.481 2816.46 247.946 2822.66 247.946C2835.76 247.946 2845.23 250.264 2851.06 254.899C2856.88 259.178 2859.8 267.379 2859.8 279.503V440.494ZM3084.3 483.817L3081.57 437.82L3227.94 416.425C3226.85 402.876 3221.57 391.109 3212.1 381.125C3202.63 371.141 3188.8 366.149 3170.59 366.149C3152.02 366.149 3136.55 372.567 3124.17 385.403C3111.79 397.884 3105.42 415.89 3105.05 439.424L3106.69 467.236C3109.97 490.057 3118.89 506.815 3133.46 517.513C3148.38 528.21 3167.14 533.558 3189.71 533.558C3205 533.558 3219.2 531.419 3232.31 527.14C3245.42 522.505 3255.79 517.513 3263.44 512.164C3268.53 515.373 3272.54 519.474 3275.46 524.466C3278.73 529.101 3280.37 534.271 3280.37 539.977C3280.37 549.247 3276.18 557.27 3267.81 564.045C3259.43 570.463 3248.14 575.455 3233.95 579.021C3219.75 582.587 3203.54 584.37 3185.34 584.37C3157.3 584.37 3132.36 579.377 3110.51 569.393C3089.03 559.053 3072.1 543.72 3059.72 523.396C3047.71 503.072 3041.7 477.755 3041.7 447.447C3041.7 425.696 3045.16 406.619 3052.08 390.217C3058.99 373.815 3068.28 360.265 3079.93 349.568C3091.95 338.515 3105.78 330.314 3121.44 324.965C3137.1 319.26 3153.48 316.408 3170.59 316.408C3194.62 316.408 3215.56 321.221 3233.4 330.848C3251.6 340.119 3265.81 353.134 3276 369.893C3286.56 386.651 3291.84 405.906 3291.84 427.657C3291.84 437.641 3289.11 445.129 3283.65 450.121C3278.55 454.757 3271.27 457.609 3261.8 458.679L3084.3 483.817ZM3447.6 534.628C3458.52 534.628 3468.35 533.558 3477.09 531.419C3485.83 529.28 3492.2 526.962 3496.2 524.466V463.492L3442.13 468.841C3427.21 469.91 3415.74 473.12 3407.73 478.468C3400.08 483.461 3396.26 490.948 3396.26 500.932C3396.26 511.273 3400.45 519.474 3408.82 525.535C3417.2 531.597 3430.12 534.628 3447.6 534.628ZM3444.87 316.408C3480.55 316.408 3508.95 323.895 3530.07 338.871C3551.18 353.491 3561.74 376.667 3561.74 408.402V531.419C3561.74 539.977 3559.56 546.752 3555.19 551.743C3551.18 556.736 3545.91 561.192 3539.35 565.115C3529.16 570.82 3516.23 575.455 3500.57 579.021C3484.92 582.943 3467.26 584.905 3447.6 584.905C3411.19 584.905 3382.6 578.129 3361.85 564.58C3341.1 550.673 3330.72 530.171 3330.72 503.072C3330.72 479.181 3338.37 460.996 3353.66 448.516C3369.31 435.68 3391.89 427.836 3421.38 424.983L3495.66 417.495V407.868C3495.66 393.605 3490.56 383.264 3480.36 376.846C3470.54 370.428 3456.52 367.218 3438.31 367.218C3424.11 367.218 3410.28 369.001 3396.81 372.567C3383.34 376.133 3371.32 380.412 3360.76 385.403C3357.12 382.551 3353.84 378.629 3350.93 373.637C3348.01 368.645 3346.56 363.475 3346.56 358.126C3346.56 345.29 3353.84 335.841 3368.4 329.779C3378.6 325.143 3390.43 321.756 3403.9 319.617C3417.74 317.477 3431.4 316.408 3444.87 316.408ZM3658.14 576.882H3631.38C3627.37 573.316 3624.09 569.037 3621.55 564.045C3619 559.053 3617.72 553.526 3617.72 547.465C3617.72 541.759 3619 536.411 3621.55 531.419C3624.46 526.07 3627.73 520.9 3631.38 515.908L3793.04 323.895H3817.07C3821.44 327.461 3824.9 331.74 3827.45 336.732C3829.99 341.724 3831.27 347.251 3831.27 353.312C3831.27 358.661 3829.99 364.01 3827.45 369.358C3824.9 374.707 3821.44 379.698 3817.07 384.334L3658.14 576.882ZM3804.5 323.895V375.776H3627.55C3625.74 372.924 3624.09 369.18 3622.64 364.545C3621.18 359.909 3620.45 355.096 3620.45 350.103C3620.45 340.832 3622.46 334.236 3626.46 330.314C3630.83 326.035 3636.65 323.895 3643.94 323.895H3804.5ZM3646.67 576.882V525H3829.63C3831.09 527.497 3832.54 531.062 3834 535.698C3835.46 540.333 3836.19 545.325 3836.19 550.673C3836.19 559.588 3834 566.185 3829.63 570.463C3825.62 574.742 3819.98 576.882 3812.7 576.882H3646.67ZM3914.2 483.817L3911.46 437.82L4057.83 416.425C4056.74 402.876 4051.46 391.109 4041.99 381.125C4032.53 371.141 4018.69 366.149 4000.49 366.149C3981.91 366.149 3966.44 372.567 3954.06 385.403C3941.68 397.884 3935.31 415.89 3934.94 439.424L3936.59 467.236C3939.86 490.057 3948.79 506.815 3963.35 517.513C3978.28 528.21 3997.03 533.558 4019.6 533.558C4034.89 533.558 4049.09 531.419 4062.2 527.14C4075.31 522.505 4085.69 517.513 4093.33 512.164C4098.43 515.373 4102.44 519.474 4105.35 524.466C4108.62 529.101 4110.26 534.271 4110.26 539.977C4110.26 549.247 4106.07 557.27 4097.7 564.045C4089.32 570.463 4078.04 575.455 4063.84 579.021C4049.64 582.587 4033.43 584.37 4015.23 584.37C3987.2 584.37 3962.26 579.377 3940.41 569.393C3918.93 559.053 3902 543.72 3889.62 523.396C3877.6 503.072 3871.6 477.755 3871.6 447.447C3871.6 425.696 3875.05 406.619 3881.97 390.217C3888.89 373.815 3898.17 360.265 3909.83 349.568C3921.84 338.515 3935.68 330.314 3951.33 324.965C3966.99 319.26 3983.37 316.408 4000.49 316.408C4024.51 316.408 4045.45 321.221 4063.29 330.848C4081.5 340.119 4095.7 353.134 4105.89 369.893C4116.45 386.651 4121.73 405.906 4121.73 427.657C4121.73 437.641 4119 445.129 4113.54 450.121C4108.44 454.757 4101.16 457.609 4091.69 458.679L3914.2 483.817Z" fill="white"></path>
<mask id="mask0_2728_125" style="mask-type:luminance" maskUnits="userSpaceOnUse" x="1313" y="241" width="2811" height="347">
<path d="M4123.49 241.966H1313.4V587.075H4123.49V241.966Z" fill="white"></path>
<path d="M1614.05 419.106V532.495C1614.05 541.053 1612.05 547.828 1608.04 552.82C1604.4 557.812 1598.39 562.448 1590.01 566.726C1580.55 571.718 1566.89 575.997 1549.05 579.563C1531.58 583.128 1513.92 584.911 1496.07 584.911C1461.48 584.911 1430.54 579.028 1403.23 567.261C1376.29 555.138 1354.99 536.596 1339.33 511.636C1323.67 486.32 1315.84 454.05 1315.84 414.828C1315.84 377.031 1323.85 345.474 1339.88 320.158C1355.9 294.842 1377.2 275.765 1403.78 262.929C1430.72 250.093 1460.39 243.674 1492.8 243.674C1514.65 243.674 1533.58 245.992 1549.6 250.627C1565.99 255.262 1578.55 261.324 1587.29 268.813C1596.39 276.3 1600.94 284.501 1600.94 293.415C1600.94 300.19 1598.94 306.252 1594.93 311.601C1591.29 316.949 1587.1 321.05 1582.37 323.903C1572.54 317.84 1560.89 312.314 1547.41 307.322C1533.94 301.973 1517.37 299.299 1497.72 299.299C1476.6 299.299 1457.48 303.756 1440.37 312.67C1423.62 321.585 1410.52 334.778 1401.04 352.25C1391.58 369.365 1386.85 390.224 1386.85 414.828C1386.85 441.214 1391.58 462.964 1401.04 480.08C1410.52 496.839 1423.62 509.318 1440.37 517.52C1457.12 525.721 1476.05 529.821 1497.17 529.821C1507.73 529.821 1517.37 528.93 1526.12 527.147C1535.22 525.364 1542.32 523.225 1547.41 520.728V444.779H1476.42C1474.96 442.284 1473.32 438.717 1471.5 434.082C1470.04 429.09 1469.31 424.098 1469.31 419.106C1469.31 409.479 1471.5 402.526 1475.87 398.247C1480.24 393.611 1486.24 391.294 1493.89 391.294H1585.64C1594.02 391.294 1600.76 393.79 1605.85 398.782C1611.31 403.774 1614.05 410.548 1614.05 419.106ZM1749.68 384.341V457.616H1682.5V378.993C1682.5 370.078 1684.68 362.59 1689.05 356.528C1693.42 350.11 1699.61 344.227 1707.62 338.878C1718.54 332.46 1732.38 327.111 1749.13 322.833C1765.87 318.553 1783.9 316.414 1803.2 316.414C1837.42 316.414 1854.53 326.755 1854.53 347.436C1854.53 352.428 1853.81 357.063 1852.35 361.342C1850.89 365.264 1849.07 368.83 1846.89 372.039C1843.25 371.326 1838.7 370.791 1833.23 370.435C1827.77 369.722 1821.95 369.365 1815.76 369.365C1802.65 369.365 1790.27 370.791 1778.62 373.643C1767.33 376.14 1757.69 379.706 1749.68 384.341ZM1682.5 435.687L1749.68 438.896V575.818C1746.76 576.888 1742.57 577.78 1737.11 578.493C1731.65 579.563 1725.64 580.098 1719.09 580.098C1706.71 580.098 1697.43 577.958 1691.24 573.679C1685.41 569.044 1682.5 561.021 1682.5 549.611V435.687ZM1921.07 483.823L1918.35 437.826L2064.71 416.432C2063.62 402.882 2058.34 391.115 2048.87 381.132C2039.41 371.148 2025.57 366.156 2007.36 366.156C1988.8 366.156 1973.32 372.574 1960.95 385.41C1948.57 397.891 1942.19 415.897 1941.83 439.431L1943.46 467.243C1946.74 490.064 1955.66 506.823 1970.23 517.52C1985.16 528.217 2003.91 533.565 2026.48 533.565C2041.77 533.565 2055.98 531.426 2069.08 527.147C2082.19 522.511 2092.56 517.52 2100.21 512.171C2105.31 515.38 2109.31 519.48 2112.23 524.473C2115.51 529.108 2117.14 534.278 2117.14 539.983C2117.14 549.254 2112.96 557.277 2104.58 564.052C2096.21 570.47 2084.92 575.462 2070.72 579.028C2056.52 582.594 2040.32 584.376 2022.11 584.376C1994.08 584.376 1969.13 579.384 1947.29 569.4C1925.81 559.06 1908.87 543.728 1896.5 523.403C1884.48 503.078 1878.47 477.762 1878.47 447.453C1878.47 425.703 1881.93 406.627 1888.85 390.224C1895.77 373.822 1905.06 360.273 1916.7 349.575C1928.72 338.521 1942.56 330.32 1958.21 324.972C1973.87 319.267 1990.25 316.414 2007.36 316.414C2031.4 316.414 2052.33 321.228 2070.17 330.855C2088.38 340.126 2102.58 353.141 2112.77 369.9C2123.33 386.659 2128.61 405.913 2128.61 427.664C2128.61 437.648 2125.88 445.136 2120.42 450.128C2115.33 454.763 2108.04 457.616 2098.58 458.685L1921.07 483.823ZM2212.28 483.823L2209.55 437.826L2355.91 416.432C2354.82 402.882 2349.55 391.115 2340.08 381.132C2330.61 371.148 2316.77 366.156 2298.57 366.156C2280 366.156 2264.53 372.574 2252.15 385.41C2239.77 397.891 2233.4 415.897 2233.03 439.431L2234.67 467.243C2237.95 490.064 2246.87 506.823 2261.43 517.52C2276.36 528.217 2295.11 533.565 2317.68 533.565C2332.98 533.565 2347.18 531.426 2360.28 527.147C2373.39 522.511 2383.77 517.52 2391.42 512.171C2396.51 515.38 2400.52 519.48 2403.43 524.473C2406.71 529.108 2408.35 534.278 2408.35 539.983C2408.35 549.254 2404.16 557.277 2395.79 564.052C2387.41 570.47 2376.12 575.462 2361.93 579.028C2347.72 582.594 2331.52 584.376 2313.31 584.376C2285.28 584.376 2260.34 579.384 2238.49 569.4C2217.01 559.06 2200.08 543.728 2187.7 523.403C2175.68 503.078 2169.68 477.762 2169.68 447.453C2169.68 425.703 2173.14 406.627 2180.05 390.224C2186.97 373.822 2196.26 360.273 2207.91 349.575C2219.93 338.521 2233.76 330.32 2249.41 324.972C2265.07 319.267 2281.46 316.414 2298.57 316.414C2322.6 316.414 2343.53 321.228 2361.38 330.855C2379.58 340.126 2393.78 353.141 2403.98 369.9C2414.54 386.659 2419.81 405.913 2419.81 427.664C2419.81 437.648 2417.09 445.136 2411.62 450.128C2406.53 454.763 2399.24 457.616 2389.78 458.685L2212.28 483.823ZM2712.67 411.618V463.499H2645.5V414.293C2645.5 398.604 2640.95 387.194 2631.84 380.062C2622.74 372.574 2610.54 368.83 2595.25 368.83C2583.96 368.83 2573.77 370.257 2564.67 373.109C2555.93 375.605 2548.1 378.636 2541.18 382.201V463.499H2474.01V377.923C2474.01 369.365 2475.82 362.412 2479.47 357.063C2483.11 351.358 2488.57 346.188 2495.85 341.553C2506.77 334.421 2520.79 328.537 2537.91 323.903C2555.38 318.91 2574.68 316.414 2595.79 316.414C2632.57 316.414 2661.15 324.437 2681.54 340.483C2702.3 356.528 2712.67 380.24 2712.67 411.618ZM2474.01 437.291H2541.18V575.818C2538.27 576.888 2534.08 577.78 2528.62 578.493C2523.16 579.563 2517.15 580.098 2510.59 580.098C2498.21 580.098 2488.93 577.958 2482.74 573.679C2476.91 569.044 2474.01 561.021 2474.01 549.611V437.291ZM2645.5 437.291H2712.67V575.818C2710.12 576.888 2705.94 577.78 2700.11 578.493C2694.65 579.563 2688.82 580.098 2682.63 580.098C2669.89 580.098 2660.42 577.958 2654.24 573.679C2648.41 569.044 2645.5 561.021 2645.5 549.611V437.291ZM2790.45 364.551H2859.81V573.145L2827.58 577.423C2816.3 577.423 2807.2 574.214 2800.28 567.796C2793.72 561.021 2790.45 552.285 2790.45 541.588V364.551ZM2827.58 577.423V521.798H3001.26C3003.44 524.651 3005.27 528.395 3006.72 533.03C3008.55 537.666 3009.45 542.836 3009.45 548.541C3009.45 558.168 3007.09 565.478 3002.35 570.47C2997.98 575.105 2991.98 577.423 2984.33 577.423H2827.58ZM2859.81 440.5H2790.45V252.232C2793.72 251.519 2798.28 250.627 2804.1 249.558C2810.29 248.488 2816.48 247.953 2822.67 247.953C2835.78 247.953 2845.25 250.271 2851.07 254.906C2856.89 259.185 2859.81 267.386 2859.81 279.509V440.5ZM3084.32 483.823L3081.59 437.826L3227.95 416.432C3226.86 402.882 3221.58 391.115 3212.11 381.132C3202.65 371.148 3188.81 366.156 3170.61 366.156C3152.04 366.156 3136.57 372.574 3124.19 385.41C3111.81 397.891 3105.44 415.897 3105.07 439.431L3106.71 467.243C3109.99 490.064 3118.91 506.823 3133.47 517.52C3148.4 528.217 3167.15 533.565 3189.72 533.565C3205.02 533.565 3219.21 531.426 3232.32 527.147C3245.43 522.511 3255.81 517.52 3263.45 512.171C3268.55 515.38 3272.56 519.48 3275.47 524.473C3278.75 529.108 3280.38 534.278 3280.38 539.983C3280.38 549.254 3276.2 557.277 3267.82 564.052C3259.45 570.47 3248.16 575.462 3233.96 579.028C3219.76 582.594 3203.56 584.376 3185.35 584.376C3157.32 584.376 3132.38 579.384 3110.53 569.4C3089.05 559.06 3072.12 543.728 3059.74 523.403C3047.72 503.078 3041.72 477.762 3041.72 447.453C3041.72 425.703 3045.17 406.627 3052.09 390.224C3059.01 373.822 3068.3 360.273 3079.95 349.575C3091.96 338.521 3105.8 330.32 3121.45 324.972C3137.11 319.267 3153.5 316.414 3170.61 316.414C3194.64 316.414 3215.57 321.228 3233.41 330.855C3251.62 340.126 3265.82 353.141 3276.01 369.9C3286.58 386.659 3291.85 405.913 3291.85 427.664C3291.85 437.648 3289.12 445.136 3283.66 450.128C3278.56 454.763 3271.28 457.616 3261.82 458.685L3084.32 483.823ZM3447.61 534.635C3458.54 534.635 3468.37 533.565 3477.1 531.426C3485.84 529.286 3492.21 526.969 3496.22 524.473V463.499L3442.15 468.848C3427.22 469.918 3415.76 473.127 3407.74 478.475C3400.1 483.467 3396.27 490.955 3396.27 500.939C3396.27 511.279 3400.46 519.481 3408.84 525.543C3417.21 531.604 3430.14 534.635 3447.61 534.635ZM3444.88 316.414C3480.56 316.414 3508.96 323.903 3530.08 338.878C3551.2 353.497 3561.76 376.675 3561.76 408.409V531.426C3561.76 539.983 3559.57 546.758 3555.2 551.75C3551.2 556.742 3545.92 561.199 3539.36 565.121C3529.17 570.827 3516.24 575.462 3500.59 579.028C3484.93 582.95 3467.28 584.911 3447.61 584.911C3411.2 584.911 3382.62 578.136 3361.87 564.587C3341.11 550.68 3330.74 530.177 3330.74 503.078C3330.74 479.188 3338.38 461.003 3353.67 448.523C3369.33 435.687 3391.9 427.842 3421.4 424.99L3495.67 417.502V407.874C3495.67 393.611 3490.58 383.271 3480.38 376.853C3470.55 370.435 3456.53 367.225 3438.33 367.225C3424.13 367.225 3410.29 369.008 3396.82 372.574C3383.35 376.14 3371.33 380.419 3360.78 385.41C3357.13 382.558 3353.85 378.636 3350.94 373.643C3348.03 368.652 3346.57 363.481 3346.57 358.133C3346.57 345.296 3353.85 335.847 3368.42 329.786C3378.61 325.15 3390.45 321.763 3403.92 319.623C3417.75 317.484 3431.41 316.414 3444.88 316.414ZM3658.16 576.888H3631.39C3627.38 573.323 3624.11 569.044 3621.56 564.052C3619.02 559.06 3617.74 553.533 3617.74 547.471C3617.74 541.766 3619.02 536.418 3621.56 531.426C3624.48 526.077 3627.75 520.907 3631.39 515.915L3793.05 323.903H3817.09C3821.45 327.468 3824.91 331.747 3827.46 336.738C3830.01 341.731 3831.28 347.257 3831.28 353.319C3831.28 358.668 3830.01 364.016 3827.46 369.365C3824.91 374.713 3821.45 379.706 3817.09 384.341L3658.16 576.888ZM3804.52 323.903V375.783H3627.57C3625.75 372.93 3624.11 369.187 3622.65 364.551C3621.2 359.916 3620.47 355.102 3620.47 350.11C3620.47 340.839 3622.47 334.243 3626.47 330.32C3630.84 326.042 3636.67 323.903 3643.95 323.903H3804.52ZM3646.68 576.888V525.008H3829.65C3831.1 527.504 3832.56 531.069 3834.02 535.705C3835.47 540.34 3836.2 545.332 3836.2 550.68C3836.2 559.595 3834.02 566.191 3829.65 570.47C3825.64 574.749 3819.99 576.888 3812.72 576.888H3646.68ZM3914.21 483.823L3911.48 437.826L4057.85 416.432C4056.75 402.882 4051.47 391.115 4042.01 381.132C4032.54 371.148 4018.7 366.156 4000.5 366.156C3981.93 366.156 3966.46 372.574 3954.08 385.41C3941.7 397.891 3935.33 415.897 3934.96 439.431L3936.6 467.243C3939.88 490.064 3948.8 506.823 3963.36 517.52C3978.29 528.217 3997.04 533.565 4019.62 533.565C4034.91 533.565 4049.11 531.426 4062.22 527.147C4075.33 522.511 4085.7 517.52 4093.35 512.171C4098.44 515.38 4102.45 519.48 4105.36 524.473C4108.64 529.108 4110.28 534.278 4110.28 539.983C4110.28 549.254 4106.09 557.277 4097.72 564.052C4089.34 570.47 4078.05 575.462 4063.85 579.028C4049.66 582.594 4033.45 584.376 4015.25 584.376C3987.21 584.376 3962.27 579.384 3940.42 569.4C3918.94 559.06 3902.01 543.728 3889.63 523.403C3877.61 503.078 3871.61 477.762 3871.61 447.453C3871.61 425.703 3875.07 406.627 3881.98 390.224C3888.9 373.822 3898.19 360.273 3909.84 349.575C3921.86 338.521 3935.69 330.32 3951.35 324.972C3967 319.267 3983.39 316.414 4000.5 316.414C4024.53 316.414 4045.47 321.228 4063.31 330.855C4081.51 340.126 4095.71 353.141 4105.91 369.9C4116.47 386.659 4121.74 405.913 4121.74 427.664C4121.74 437.648 4119.02 445.136 4113.56 450.128C4108.45 454.763 4101.18 457.616 4091.71 458.685L3914.21 483.823Z" fill="black"></path>
</mask>
<g mask="url(#mask0_2728_125)">
<path d="M1608.05 552.815L1607.03 552.028L1607.01 552.051L1607 552.075L1608.05 552.815ZM1590.03 566.721L1589.43 565.592L1589.42 565.601L1590.03 566.721ZM1549.07 579.558L1548.8 578.31V578.311L1549.07 579.558ZM1403.25 567.256L1402.7 568.414L1402.71 568.418L1402.72 568.422L1403.25 567.256ZM1339.34 511.632L1338.22 512.291L1338.24 512.297L1339.34 511.632ZM1403.79 262.924L1403.22 261.779V261.782L1403.79 262.924ZM1549.61 250.623L1549.25 251.844V251.846L1549.61 250.623ZM1587.3 268.808L1586.44 269.767L1586.45 269.774L1586.47 269.783L1587.3 268.808ZM1594.95 311.596L1593.89 310.844L1593.87 310.866L1593.86 310.889L1594.95 311.596ZM1582.38 323.898L1581.69 324.975L1582.37 325.398L1583.06 324.983L1582.38 323.898ZM1547.43 307.317L1546.94 308.498L1546.96 308.503L1546.97 308.508L1547.43 307.317ZM1440.38 312.666L1439.77 311.541L1439.76 311.547L1440.38 312.666ZM1401.06 352.245L1402.2 352.851V352.842L1401.06 352.245ZM1401.06 480.075L1399.92 480.681V480.691L1401.06 480.075ZM1526.13 527.142L1525.87 525.893V525.895L1526.13 527.142ZM1547.43 520.724L1548.01 521.863L1548.73 521.511V520.724H1547.43ZM1547.43 444.775H1548.73V443.501H1547.43V444.775ZM1476.43 444.775L1475.29 445.406L1475.68 446.048H1476.43V444.775ZM1471.51 434.078L1470.27 434.428L1470.28 434.481L1470.3 434.535L1471.51 434.078ZM1475.88 398.243L1476.81 399.143L1476.82 399.125L1476.83 399.106L1475.88 398.243ZM1605.87 398.777L1604.94 399.677L1604.97 399.693L1604.98 399.708L1605.87 398.777ZM1612.76 419.102V532.491H1615.36V419.102H1612.76ZM1612.76 532.491C1612.76 540.863 1610.79 547.328 1607.03 552.028L1609.08 553.602C1613.32 548.319 1615.36 541.236 1615.36 532.491H1612.76ZM1607 552.075C1603.52 556.842 1597.7 561.363 1589.43 565.592L1590.63 567.851C1599.1 563.523 1605.31 558.773 1609.11 553.555L1607 552.075ZM1589.42 565.601C1580.11 570.506 1566.59 574.755 1548.8 578.31L1549.32 580.806C1567.22 577.23 1581.02 572.921 1590.64 567.842L1589.42 565.601ZM1548.8 578.311C1531.41 581.859 1513.84 583.633 1496.09 583.633V586.18C1514.02 586.18 1531.77 584.39 1549.32 580.806L1548.8 578.311ZM1496.09 583.633C1461.65 583.633 1430.89 577.776 1403.77 566.091L1402.72 568.422C1430.21 580.27 1461.35 586.18 1496.09 586.18V583.633ZM1403.79 566.099C1377.08 554.083 1355.97 535.712 1340.45 510.966L1338.24 512.297C1354.03 537.47 1375.52 556.184 1402.7 568.414L1403.79 566.099ZM1340.46 510.972C1324.96 485.909 1317.16 453.886 1317.16 414.823H1314.56C1314.56 454.205 1322.41 486.722 1338.22 512.291L1340.46 510.972ZM1317.16 414.823C1317.16 377.201 1325.13 345.892 1340.99 320.825L1338.79 319.482C1322.61 345.048 1314.56 376.852 1314.56 414.823H1317.16ZM1340.99 320.825C1356.88 295.704 1378 276.795 1404.36 264.066L1403.22 261.782C1376.42 274.727 1354.93 293.97 1338.79 319.482L1340.99 320.825ZM1404.36 264.069C1431.11 251.325 1460.59 244.943 1492.81 244.943V242.396C1460.23 242.396 1430.36 248.851 1403.22 261.779L1404.36 264.069ZM1492.81 244.943C1514.57 244.943 1533.37 247.252 1549.25 251.844L1549.98 249.401C1533.81 244.722 1514.75 242.396 1492.81 242.396V244.943ZM1549.25 251.846C1565.53 256.452 1577.9 262.444 1586.44 269.767L1588.16 267.849C1579.23 260.195 1566.46 254.064 1549.98 249.399L1549.25 251.846ZM1586.47 269.783C1595.36 277.108 1599.65 284.981 1599.65 293.411H1602.25C1602.25 284.013 1597.44 275.483 1588.13 267.832L1586.47 269.783ZM1599.65 293.411C1599.65 299.921 1597.72 305.718 1593.89 310.844L1596 312.349C1600.17 306.777 1602.25 300.451 1602.25 293.411H1599.65ZM1593.86 310.889C1590.3 316.113 1586.25 320.072 1581.71 322.813L1583.06 324.983C1587.99 322.018 1592.3 317.776 1596.02 312.303L1593.86 310.889ZM1583.07 322.82C1573.15 316.704 1561.42 311.142 1547.88 306.127L1546.97 308.508C1560.38 313.477 1571.95 318.968 1581.69 324.975L1583.07 322.82ZM1547.92 306.137C1534.24 300.709 1517.51 298.021 1497.73 298.021V300.568C1517.27 300.568 1533.67 303.228 1546.94 308.498L1547.92 306.137ZM1497.73 298.021C1476.42 298.021 1457.09 302.52 1439.77 311.541L1440.99 313.79C1457.9 304.983 1476.81 300.568 1497.73 300.568V298.021ZM1439.76 311.547C1422.78 320.588 1409.49 333.97 1399.92 351.648L1402.2 352.842C1411.56 335.577 1424.49 322.572 1441.01 313.785L1439.76 311.547ZM1399.92 351.638C1390.32 368.983 1385.56 390.063 1385.56 414.823H1388.16C1388.16 390.376 1392.86 369.737 1402.2 352.851L1399.92 351.638ZM1385.56 414.823C1385.56 441.349 1390.32 463.325 1399.92 480.681L1402.2 479.469C1392.86 462.594 1388.16 441.069 1388.16 414.823H1385.56ZM1399.92 480.691C1409.51 497.666 1422.8 510.333 1439.8 518.654L1440.97 516.377C1424.46 508.295 1411.54 496.003 1402.2 479.459L1399.92 480.691ZM1439.8 518.654C1456.75 526.954 1475.88 531.09 1497.18 531.09V528.543C1476.25 528.543 1457.51 524.478 1440.97 516.377L1439.8 518.654ZM1497.18 531.09C1507.82 531.09 1517.56 530.192 1526.39 528.389L1525.87 525.895C1517.22 527.658 1507.66 528.543 1497.18 528.543V531.09ZM1526.39 528.392C1535.54 526.598 1542.76 524.431 1548.01 521.863L1546.84 519.586C1541.9 522.009 1534.92 524.121 1525.87 525.893L1526.39 528.392ZM1548.73 520.724V444.775H1546.13V520.724H1548.73ZM1547.43 443.501H1476.43V446.048H1547.43V443.501ZM1477.56 444.143C1476.15 441.728 1474.54 438.232 1472.72 433.621L1470.3 434.535C1472.12 439.194 1473.79 442.829 1475.29 445.406L1477.56 444.143ZM1472.76 433.727C1471.35 428.845 1470.63 423.97 1470.63 419.102H1468.03C1468.03 424.217 1468.77 429.326 1470.27 434.428L1472.76 433.727ZM1470.63 419.102C1470.63 409.619 1472.79 403.074 1476.81 399.143L1474.96 397.342C1470.24 401.967 1468.03 409.329 1468.03 419.102H1470.63ZM1476.83 399.106C1480.92 394.781 1486.55 392.562 1493.91 392.562V390.016C1485.98 390.016 1479.59 392.433 1474.93 397.379L1476.83 399.106ZM1493.91 392.562H1585.66V390.016H1493.91V392.562ZM1585.66 392.562C1593.75 392.562 1600.13 394.963 1604.94 399.677L1606.79 397.877C1601.41 392.608 1594.32 390.016 1585.66 390.016V392.562ZM1604.98 399.708C1610.13 404.419 1612.76 410.832 1612.76 419.102H1615.36C1615.36 410.257 1612.52 403.12 1606.75 397.846L1604.98 399.708ZM1749.69 384.336L1749.04 383.24L1748.38 383.609V384.336H1749.69ZM1749.69 457.611V458.885H1750.99V457.611H1749.69ZM1682.51 457.611H1681.21V458.885H1682.51V457.611ZM1689.07 356.524L1690.13 357.258L1690.15 357.245L1690.16 357.23L1689.07 356.524ZM1707.63 338.873L1706.97 337.781L1706.94 337.8L1706.91 337.822L1707.63 338.873ZM1852.37 361.338L1853.59 361.773L1853.6 361.757V361.74L1852.37 361.338ZM1846.9 372.035L1846.66 373.284L1847.5 373.451L1848 372.741L1846.9 372.035ZM1833.25 370.43L1833.08 371.692L1833.12 371.699L1833.17 371.701L1833.25 370.43ZM1778.63 373.639L1778.92 374.881L1778.94 374.878L1778.96 374.874L1778.63 373.639ZM1682.51 435.682L1682.57 434.41L1681.21 434.345V435.682H1682.51ZM1749.69 438.891H1750.99V437.679L1749.75 437.619L1749.69 438.891ZM1749.69 575.814L1750.15 577.006L1750.99 576.697V575.814H1749.69ZM1737.13 578.488L1736.96 577.227L1736.92 577.232L1736.88 577.239L1737.13 578.488ZM1691.25 573.675L1690.43 574.663L1690.47 574.689L1690.51 574.715L1691.25 573.675ZM1748.38 384.336V457.611H1750.99V384.336H1748.38ZM1749.69 456.338H1682.51V458.885H1749.69V456.338ZM1683.81 457.611V378.988H1681.21V457.611H1683.81ZM1683.81 378.988C1683.81 370.283 1685.95 363.064 1690.13 357.258L1688.01 355.789C1683.46 362.107 1681.21 369.864 1681.21 378.988H1683.81ZM1690.16 357.23C1694.41 350.975 1700.47 345.203 1708.37 339.926L1706.91 337.822C1698.79 343.242 1692.47 349.235 1687.98 355.817L1690.16 357.23ZM1708.31 339.965C1719.09 333.627 1732.81 328.319 1749.48 324.061L1748.82 321.595C1731.99 325.894 1718.02 331.284 1706.97 337.781L1708.31 339.965ZM1749.48 324.061C1766.11 319.811 1784.01 317.683 1803.21 317.683V315.136C1783.82 315.136 1765.68 317.287 1748.82 321.595L1749.48 324.061ZM1803.21 317.683C1820.23 317.683 1832.78 320.262 1841.04 325.249C1849.19 330.173 1853.25 337.506 1853.25 347.431H1855.85C1855.85 336.675 1851.36 328.498 1842.41 323.081C1833.55 317.728 1820.42 315.136 1803.21 315.136V317.683ZM1853.25 347.431C1853.25 352.301 1852.55 356.799 1851.14 360.935L1853.6 361.74C1855.11 357.319 1855.85 352.545 1855.85 347.431H1853.25ZM1851.14 360.902C1849.73 364.737 1847.94 368.21 1845.82 371.328L1848 372.741C1850.23 369.44 1852.1 365.783 1853.59 361.773L1851.14 360.902ZM1847.16 370.785C1843.45 370.058 1838.84 369.518 1833.34 369.159L1833.17 371.701C1838.59 372.055 1843.09 372.585 1846.66 373.284L1847.16 370.785ZM1833.43 369.168C1827.91 368.446 1822.01 368.087 1815.77 368.087V370.634C1821.92 370.634 1827.68 370.988 1833.08 371.692L1833.43 369.168ZM1815.77 368.087C1802.58 368.087 1790.09 369.523 1778.32 372.404L1778.96 374.874C1790.49 372.05 1802.77 370.634 1815.77 370.634V368.087ZM1778.35 372.398C1766.97 374.915 1757.18 378.523 1749.04 383.24L1750.35 385.432C1758.22 380.879 1767.74 377.355 1778.92 374.881L1778.35 372.398ZM1682.46 436.954L1749.63 440.164L1749.75 437.619L1682.57 434.41L1682.46 436.954ZM1748.38 438.891V575.814H1750.99V438.891H1748.38ZM1749.23 574.622C1746.46 575.641 1742.39 576.517 1736.96 577.227L1737.31 579.751C1742.79 579.033 1747.1 578.126 1750.15 577.006L1749.23 574.622ZM1736.88 577.239C1731.51 578.29 1725.59 578.819 1719.11 578.819V581.367C1725.74 581.367 1731.83 580.827 1737.38 579.737L1736.88 577.239ZM1719.11 578.819C1706.84 578.819 1697.88 576.693 1692 572.634L1690.51 574.715C1697.01 579.214 1706.62 581.367 1719.11 581.367V578.819ZM1692.07 572.686C1686.68 568.402 1683.81 560.846 1683.81 549.606H1681.21C1681.21 561.187 1684.18 569.677 1690.43 574.663L1692.07 572.686ZM1683.81 549.606V435.682H1681.21V549.606H1683.81ZM1921.09 483.819L1919.79 483.893L1919.86 485.279L1921.27 485.08L1921.09 483.819ZM1918.36 437.822L1918.16 436.562L1916.98 436.734L1917.06 437.896L1918.36 437.822ZM2064.73 416.428L2064.91 417.687L2066.12 417.511L2066.01 416.327L2064.73 416.428ZM1960.96 385.406L1961.88 386.293L1961.89 386.281L1960.96 385.406ZM1941.84 439.426L1940.54 439.407V439.453V439.5L1941.84 439.426ZM1943.48 467.238L1942.18 467.312V467.364L1942.19 467.416L1943.48 467.238ZM1970.24 517.515L1969.46 518.534L1969.47 518.543L1970.24 517.515ZM2069.1 527.142L2069.5 528.351L2069.51 528.346L2069.54 528.34L2069.1 527.142ZM2100.23 512.166L2100.93 511.095L2100.19 510.628L2099.46 511.13L2100.23 512.166ZM2112.24 524.468L2111.11 525.1L2111.14 525.148L2111.16 525.192L2112.24 524.468ZM2104.59 564.047L2105.39 565.051L2105.4 565.039L2105.42 565.029L2104.59 564.047ZM1947.3 569.396L1946.72 570.538L1946.73 570.544L1946.74 570.549L1947.3 569.396ZM1896.51 523.398L1895.38 524.037L1895.39 524.05L1896.51 523.398ZM1916.72 349.57L1917.6 350.5V350.499L1916.72 349.57ZM1958.23 324.967L1958.65 326.17V326.165L1958.67 326.16L1958.23 324.967ZM2070.19 330.851L2069.55 331.966L2069.56 331.974L2069.58 331.98L2070.19 330.851ZM2112.79 369.895L2111.67 370.547V370.555V370.563L2112.79 369.895ZM2120.44 450.123L2121.32 451.057V451.054L2120.44 450.123ZM2098.59 458.681L2098.43 457.416L2098.42 457.418L2098.4 457.42L2098.59 458.681ZM1922.38 483.745L1919.64 437.748L1917.06 437.896L1919.79 483.893L1922.38 483.745ZM1918.54 439.081L2064.91 417.687L2064.53 415.168L1918.16 436.562L1918.54 439.081ZM2066.01 416.327C2064.9 402.491 2059.5 390.454 2049.84 380.261L2047.93 381.993C2057.2 391.768 2062.36 403.265 2063.42 416.528L2066.01 416.327ZM2049.84 380.261C2040.06 369.943 2025.82 364.878 2007.38 364.878V367.425C2025.34 367.425 2038.78 372.343 2047.93 381.993L2049.84 380.261ZM2007.38 364.878C1988.46 364.878 1972.63 371.432 1960.01 384.531L1961.89 386.281C1974.02 373.706 1989.15 367.425 2007.38 367.425V364.878ZM1960.02 384.518C1947.34 397.304 1940.91 415.666 1940.54 439.407L1943.15 439.445C1943.5 416.119 1949.81 398.468 1961.88 386.293L1960.02 384.518ZM1940.54 439.5L1942.18 467.312L1944.77 467.165L1943.13 439.352L1940.54 439.5ZM1942.19 467.416C1945.5 490.469 1954.55 507.578 1969.46 518.534L1971.02 516.496C1956.81 506.057 1948 489.649 1944.77 467.062L1942.19 467.416ZM1969.47 518.543C1984.66 529.432 2003.7 534.834 2026.5 534.834V532.287C2004.13 532.287 1985.66 526.992 1971.01 516.487L1969.47 518.543ZM2026.5 534.834C2041.9 534.834 2056.25 532.677 2069.5 528.351L2068.68 525.934C2055.71 530.165 2041.66 532.287 2026.5 532.287V534.834ZM2069.54 528.34C2082.7 523.682 2093.2 518.643 2100.98 513.203L2099.46 511.13C2091.96 516.387 2081.7 521.331 2068.65 525.944L2069.54 528.34ZM2099.51 513.237C2104.44 516.34 2108.3 520.291 2111.11 525.1L2113.36 523.837C2110.34 518.661 2106.19 514.411 2100.93 511.095L2099.51 513.237ZM2111.16 525.192C2114.3 529.613 2115.86 534.53 2115.86 539.979H2118.45C2118.45 534.017 2116.74 528.594 2113.31 523.743L2111.16 525.192ZM2115.86 539.979C2115.86 548.812 2111.89 556.493 2103.76 563.066L2105.42 565.029C2114.04 558.052 2118.45 549.688 2118.45 539.979H2115.86ZM2103.79 563.045C2095.6 569.322 2084.49 574.252 2070.41 577.789L2071.05 580.257C2085.36 576.663 2096.83 571.609 2105.39 565.051L2103.79 563.045ZM2070.41 577.789C2056.34 581.323 2040.24 583.098 2022.13 583.098V585.645C2040.41 585.645 2056.73 583.855 2071.05 580.257L2070.41 577.789ZM2022.13 583.098C1994.25 583.098 1969.5 578.136 1947.85 568.242L1946.74 570.549C1968.8 580.624 1993.92 585.645 2022.13 585.645V583.098ZM1947.88 568.253C1926.62 558.022 1909.88 542.861 1897.62 522.746L1895.39 524.05C1907.89 544.585 1925.02 560.088 1946.72 570.538L1947.88 568.253ZM1897.63 522.761C1885.76 502.678 1879.79 477.597 1879.79 447.449H1877.19C1877.19 477.918 1883.22 503.47 1895.38 524.037L1897.63 522.761ZM1879.79 447.449C1879.79 425.828 1883.22 406.924 1890.06 390.706L1887.66 389.733C1880.66 406.32 1877.19 425.568 1877.19 447.449H1879.79ZM1890.06 390.706C1896.92 374.449 1906.1 361.057 1917.6 350.5L1915.82 348.641C1904.01 359.478 1894.64 373.186 1887.66 389.733L1890.06 390.706ZM1917.6 350.499C1929.49 339.568 1943.17 331.459 1958.65 326.17L1957.79 323.765C1941.96 329.172 1927.97 337.466 1915.82 348.642L1917.6 350.499ZM1958.67 326.16C1974.18 320.51 1990.41 317.683 2007.38 317.683V315.136C1990.11 315.136 1973.57 318.014 1957.77 323.774L1958.67 326.16ZM2007.38 317.683C2031.23 317.683 2051.95 322.46 2069.55 331.966L2070.81 329.735C2052.75 319.987 2031.58 315.136 2007.38 315.136V317.683ZM2069.58 331.98C2087.58 341.145 2101.59 353.997 2111.67 370.547L2113.89 369.243C2103.58 352.276 2089.2 339.098 2070.78 329.721L2069.58 331.98ZM2111.67 370.563C2122.1 387.101 2127.32 406.119 2127.32 427.66H2129.93C2129.93 405.699 2124.58 386.207 2113.89 369.227L2111.67 370.563ZM2127.32 427.66C2127.32 437.423 2124.66 444.519 2119.54 449.193L2121.32 451.054C2127.13 445.744 2129.93 437.862 2129.93 427.66H2127.32ZM2119.55 449.19C2114.71 453.584 2107.73 456.366 2098.43 457.416L2098.73 459.945C2108.38 458.857 2115.95 455.934 2121.32 451.057L2119.55 449.19ZM2098.4 457.42L1920.89 482.558L1921.27 485.08L2098.77 459.942L2098.4 457.42ZM2212.29 483.819L2210.99 483.893L2211.08 485.279L2212.47 485.08L2212.29 483.819ZM2209.56 437.822L2209.37 436.562L2208.19 436.734L2208.26 437.896L2209.56 437.822ZM2355.93 416.428L2356.12 417.687L2357.32 417.511L2357.23 416.327L2355.93 416.428ZM2252.16 385.406L2253.1 386.293L2253.11 386.281L2252.16 385.406ZM2233.05 439.426L2231.74 439.407V439.453V439.5L2233.05 439.426ZM2234.68 467.238L2233.39 467.312V467.364L2233.4 467.416L2234.68 467.238ZM2261.44 517.515L2260.67 518.534L2260.68 518.543L2261.44 517.515ZM2360.3 527.142L2360.72 528.351L2360.73 528.346L2360.74 528.34L2360.3 527.142ZM2391.43 512.166L2392.13 511.095L2391.39 510.628L2390.67 511.13L2391.43 512.166ZM2403.44 524.468L2402.31 525.1L2402.34 525.148L2402.38 525.192L2403.44 524.468ZM2395.8 564.047L2396.6 565.051L2396.62 565.039L2396.63 565.029L2395.8 564.047ZM2238.51 569.396L2237.94 570.538L2237.95 570.544L2237.96 570.549L2238.51 569.396ZM2187.71 523.398L2186.6 524.037V524.05L2187.71 523.398ZM2207.92 349.57L2208.81 350.5L2208.82 350.499L2207.92 349.57ZM2249.43 324.967L2249.86 326.17L2249.87 326.165L2249.88 326.16L2249.43 324.967ZM2361.39 330.851L2360.77 331.966L2360.78 331.974L2360.79 331.98L2361.39 330.851ZM2403.99 369.895L2402.87 370.547L2402.88 370.555V370.563L2403.99 369.895ZM2411.64 450.123L2412.52 451.057V451.054L2411.64 450.123ZM2389.79 458.681L2389.65 457.416L2389.62 457.418L2389.61 457.42L2389.79 458.681ZM2213.59 483.745L2210.86 437.748L2208.26 437.896L2210.99 483.893L2213.59 483.745ZM2209.75 439.081L2356.12 417.687L2355.73 415.168L2209.37 436.562L2209.75 439.081ZM2357.23 416.327C2356.11 402.491 2350.72 390.454 2341.04 380.261L2339.14 381.993C2348.41 391.768 2353.56 403.265 2354.63 416.528L2357.23 416.327ZM2341.04 380.261C2331.26 369.943 2317.04 364.878 2298.58 364.878V367.425C2316.54 367.425 2329.99 372.343 2339.14 381.993L2341.04 380.261ZM2298.58 364.878C2279.68 364.878 2263.85 371.432 2251.21 384.531L2253.11 386.281C2265.23 373.706 2280.37 367.425 2298.58 367.425V364.878ZM2251.23 384.518C2238.54 397.304 2232.11 415.666 2231.74 439.407L2234.34 439.445C2234.71 416.119 2241.01 398.468 2253.1 386.293L2251.23 384.518ZM2231.74 439.5L2233.39 467.312L2235.98 467.165L2234.34 439.352L2231.74 439.5ZM2233.4 467.416C2236.71 490.469 2245.75 507.578 2260.67 518.534L2262.23 516.496C2248.01 506.057 2239.22 489.649 2235.97 467.062L2233.4 467.416ZM2260.68 518.543C2275.88 529.432 2294.92 534.834 2317.7 534.834V532.287C2295.34 532.287 2276.88 526.992 2262.21 516.487L2260.68 518.543ZM2317.7 534.834C2333.12 534.834 2347.45 532.677 2360.72 528.351L2359.88 525.934C2346.93 530.165 2332.86 532.287 2317.7 532.287V534.834ZM2360.74 528.34C2373.91 523.682 2384.4 518.643 2392.18 513.203L2390.67 511.13C2383.16 516.387 2372.9 521.331 2359.86 525.944L2360.74 528.34ZM2390.73 513.237C2395.66 516.34 2399.52 520.291 2402.31 525.1L2404.58 523.837C2401.56 518.661 2397.4 514.411 2392.13 511.095L2390.73 513.237ZM2402.38 525.192C2405.5 529.613 2407.06 534.53 2407.06 539.979H2409.66C2409.66 534.017 2407.94 528.594 2404.51 523.743L2402.38 525.192ZM2407.06 539.979C2407.06 548.812 2403.09 556.493 2394.97 563.066L2396.63 565.029C2405.25 558.052 2409.66 549.688 2409.66 539.979H2407.06ZM2394.99 563.045C2386.81 569.322 2375.71 574.252 2361.61 577.789L2362.26 580.257C2376.58 576.663 2388.05 571.609 2396.6 565.051L2394.99 563.045ZM2361.61 577.789C2347.54 581.323 2331.46 583.098 2313.33 583.098V585.645C2331.62 585.645 2347.94 583.855 2362.26 580.257L2361.61 577.789ZM2313.33 583.098C2285.45 583.098 2260.7 578.136 2239.05 568.242L2237.96 570.549C2260 580.624 2285.14 585.645 2313.33 585.645V583.098ZM2239.08 568.253C2217.83 558.022 2201.08 542.861 2188.83 522.746L2186.6 524.05C2199.1 544.585 2216.22 560.088 2237.94 570.538L2239.08 568.253ZM2188.85 522.761C2176.98 502.678 2170.99 477.597 2170.99 447.449H2168.39C2168.39 477.918 2174.44 503.47 2186.6 524.037L2188.85 522.761ZM2170.99 447.449C2170.99 425.828 2174.44 406.924 2181.28 390.706L2178.87 389.733C2171.87 406.32 2168.39 425.568 2168.39 447.449H2170.99ZM2181.28 390.706C2188.13 374.449 2197.31 361.057 2208.81 350.5L2207.04 348.641C2195.23 359.478 2185.84 373.186 2178.87 389.733L2181.28 390.706ZM2208.82 350.499C2220.69 339.568 2234.37 331.459 2249.86 326.17L2249 323.765C2233.17 329.172 2219.18 337.466 2207.04 348.642L2208.82 350.499ZM2249.88 326.16C2265.4 320.51 2281.63 317.683 2298.58 317.683V315.136C2281.31 315.136 2264.78 318.014 2248.98 323.774L2249.88 326.16ZM2298.58 317.683C2322.44 317.683 2343.15 322.46 2360.77 331.966L2362.01 329.735C2343.95 319.987 2322.8 315.136 2298.58 315.136V317.683ZM2360.79 331.98C2378.79 341.145 2392.81 353.997 2402.87 370.547L2405.11 369.243C2394.79 352.276 2380.41 339.098 2361.99 329.721L2360.79 331.98ZM2402.88 370.563C2413.3 387.101 2418.53 406.119 2418.53 427.66H2421.13C2421.13 405.699 2415.8 386.207 2405.1 369.227L2402.88 370.563ZM2418.53 427.66C2418.53 437.423 2415.87 444.519 2410.75 449.193L2412.52 451.054C2418.34 445.744 2421.13 437.862 2421.13 427.66H2418.53ZM2410.75 449.19C2405.92 453.584 2398.94 456.366 2389.65 457.416L2389.95 459.945C2399.58 458.857 2407.17 455.934 2412.52 451.057L2410.75 449.19ZM2389.61 457.42L2212.11 482.558L2212.47 485.08L2389.97 459.942L2389.61 457.42ZM2712.68 463.495V464.768H2713.99V463.495H2712.68ZM2645.51 463.495H2644.21V464.768H2645.51V463.495ZM2631.85 380.058L2631.01 381.033L2631.02 381.042L2631.04 381.052L2631.85 380.058ZM2564.68 373.104L2565.04 374.327L2565.05 374.322L2565.07 374.317L2564.68 373.104ZM2541.19 382.197L2540.58 381.07L2539.89 381.428V382.197H2541.19ZM2541.19 463.495V464.768H2542.49V463.495H2541.19ZM2474.02 463.495H2472.71V464.768H2474.02V463.495ZM2479.48 357.058L2480.56 357.765L2480.57 357.749V357.734L2479.48 357.058ZM2495.86 341.548L2496.57 342.615L2496.58 342.607L2495.86 341.548ZM2537.92 323.898L2538.25 325.125L2538.28 325.12L2537.92 323.898ZM2681.55 340.478L2680.73 341.471L2680.75 341.478L2681.55 340.478ZM2474.02 437.287V436.013H2472.71V437.287H2474.02ZM2541.19 437.287H2542.49V436.013H2541.19V437.287ZM2541.19 575.814L2541.65 577.006L2542.49 576.697V575.814H2541.19ZM2528.63 578.488L2528.45 577.227L2528.41 577.232L2528.37 577.239L2528.63 578.488ZM2482.76 573.675L2481.94 574.663L2481.96 574.689L2482 574.715L2482.76 573.675ZM2645.51 437.287V436.013H2644.21V437.287H2645.51ZM2712.68 437.287H2713.99V436.013H2712.68V437.287ZM2712.68 575.814L2713.19 576.985L2713.99 576.653V575.814H2712.68ZM2700.12 578.488L2699.95 577.225L2699.91 577.23L2699.86 577.239L2700.12 578.488ZM2654.25 573.675L2653.43 574.663L2653.45 574.689L2653.49 574.715L2654.25 573.675ZM2711.39 411.614V463.495H2713.99V411.614H2711.39ZM2712.68 462.221H2645.51V464.768H2712.68V462.221ZM2646.81 463.495V414.288H2644.21V463.495H2646.81ZM2646.81 414.288C2646.81 398.366 2642.18 386.517 2632.66 379.062L2631.04 381.052C2639.72 387.86 2644.21 398.832 2644.21 414.288H2646.81ZM2632.69 379.082C2623.28 371.352 2610.76 367.552 2595.26 367.552V370.099C2610.33 370.099 2622.2 373.787 2631.01 381.033L2632.69 379.082ZM2595.26 367.552C2583.86 367.552 2573.53 368.992 2564.27 371.892L2565.07 374.317C2574.02 371.511 2584.08 370.099 2595.26 370.099V367.552ZM2564.32 371.882C2555.5 374.398 2547.59 377.458 2540.58 381.07L2541.79 383.324C2548.62 379.804 2556.37 376.802 2565.04 374.327L2564.32 371.882ZM2539.89 382.197V463.495H2542.49V382.197H2539.89ZM2541.19 462.221H2474.02V464.768H2541.19V462.221ZM2475.32 463.495V377.918H2472.71V463.495H2475.32ZM2475.32 377.918C2475.32 369.529 2477.1 362.845 2480.56 357.765L2478.39 356.352C2474.56 361.969 2472.71 369.191 2472.71 377.918H2475.32ZM2480.57 357.734C2484.09 352.222 2489.4 347.175 2496.57 342.615L2495.15 340.481C2487.75 345.191 2482.13 350.485 2478.37 356.384L2480.57 357.734ZM2496.58 342.607C2507.36 335.573 2521.23 329.737 2538.25 325.125L2537.57 322.67C2520.36 327.33 2506.2 333.26 2495.14 340.488L2496.58 342.607ZM2538.28 325.12C2555.61 320.167 2574.8 317.683 2595.81 317.683V315.136C2574.59 315.136 2555.16 317.645 2537.55 322.675L2538.28 325.12ZM2595.81 317.683C2632.4 317.683 2660.65 325.668 2680.73 341.47L2682.36 339.485C2661.67 323.197 2632.75 315.136 2595.81 315.136V317.683ZM2680.75 341.478C2701.12 357.23 2711.39 380.534 2711.39 411.614H2713.99C2713.99 379.938 2703.49 355.817 2682.36 339.479L2680.75 341.478ZM2474.02 438.56H2541.19V436.013H2474.02V438.56ZM2539.89 437.287V575.814H2542.49V437.287H2539.89ZM2540.74 574.622C2537.96 575.641 2533.88 576.517 2528.45 577.227L2528.8 579.751C2534.3 579.033 2538.59 578.126 2541.65 577.006L2540.74 574.622ZM2528.37 577.239C2523 578.29 2517.08 578.819 2510.61 578.819V581.367C2517.23 581.367 2523.33 580.827 2528.88 579.737L2528.37 577.239ZM2510.61 578.819C2498.33 578.819 2489.38 576.693 2483.5 572.634L2482 574.715C2488.5 579.214 2498.11 581.367 2510.61 581.367V578.819ZM2483.57 572.686C2478.19 568.402 2475.32 560.846 2475.32 549.606H2472.71C2472.71 561.187 2475.67 569.677 2481.94 574.663L2483.57 572.686ZM2475.32 549.606V437.287H2472.71V549.606H2475.32ZM2645.51 438.56H2712.68V436.013H2645.51V438.56ZM2711.39 437.287V575.814H2713.99V437.287H2711.39ZM2712.16 574.644C2709.8 575.638 2705.77 576.513 2699.95 577.225L2700.28 579.752C2706.12 579.037 2710.46 578.129 2713.19 576.985L2712.16 574.644ZM2699.86 577.239C2694.49 578.291 2688.76 578.819 2682.64 578.819V581.367C2688.9 581.367 2694.82 580.825 2700.37 579.737L2699.86 577.239ZM2682.64 578.819C2670.01 578.819 2660.86 576.689 2654.99 572.634L2653.49 574.715C2660.01 579.218 2669.8 581.367 2682.64 581.367V578.819ZM2655.06 572.686C2649.68 568.402 2646.81 560.846 2646.81 549.606H2644.21C2644.21 561.187 2647.16 569.677 2653.43 574.663L2655.06 572.686ZM2646.81 549.606V437.287H2644.21V549.606H2646.81ZM2790.46 364.547V363.273H2789.16V364.547H2790.46ZM2859.82 364.547H2861.12V363.273H2859.82V364.547ZM2859.82 573.14L2859.99 574.402L2861.12 574.253V573.14H2859.82ZM2827.6 577.418V578.692H2827.68L2827.76 578.681L2827.6 577.418ZM2800.29 567.791L2799.34 568.667L2799.37 568.692L2799.39 568.716L2800.29 567.791ZM2827.6 577.418H2826.3V578.692H2827.6V577.418ZM2827.6 521.794V520.521H2826.3V521.794H2827.6ZM3001.27 521.794L3002.32 521.03L3001.93 520.521H3001.27V521.794ZM3006.73 533.026L3005.49 533.4L3005.5 533.442L3005.51 533.483L3006.73 533.026ZM3002.37 570.465L3001.41 569.599V569.602L3002.37 570.465ZM2859.82 440.496V441.769H2861.12V440.496H2859.82ZM2790.46 440.496H2789.16V441.769H2790.46V440.496ZM2790.46 252.227L2790.17 250.984L2789.16 251.206V252.227H2790.46ZM2804.11 249.553L2803.88 248.299L2803.86 248.301L2804.11 249.553ZM2851.08 254.901L2850.26 255.89L2850.27 255.905L2850.3 255.92L2851.08 254.901ZM2790.46 365.82H2859.82V363.273H2790.46V365.82ZM2858.52 364.547V573.14H2861.12V364.547H2858.52ZM2859.64 571.877L2827.41 576.157L2827.76 578.681L2859.99 574.402L2859.64 571.877ZM2827.6 576.145C2816.57 576.145 2807.82 573.02 2801.17 566.867L2799.39 568.716C2806.6 575.399 2816.04 578.692 2827.6 578.692V576.145ZM2801.22 566.915C2794.93 560.412 2791.76 552.006 2791.76 541.583H2789.16C2789.16 552.556 2792.53 561.621 2799.34 568.667L2801.22 566.915ZM2791.76 541.583V364.547H2789.16V541.583H2791.76ZM2828.9 577.418V521.794H2826.3V577.418H2828.9ZM2827.6 523.067H3001.27V520.521H2827.6V523.067ZM3000.23 522.558C3002.3 525.259 3004.06 528.858 3005.49 533.4L3007.97 532.651C3006.49 527.923 3004.62 524.034 3002.32 521.03L3000.23 522.558ZM3005.51 533.483C3007.27 537.952 3008.16 542.965 3008.16 548.536H3010.77C3010.77 542.698 3009.83 537.369 3007.94 532.568L3005.51 533.483ZM3008.16 548.536C3008.16 557.975 3005.84 564.925 3001.41 569.599L3003.32 571.331C3008.35 566.022 3010.77 558.352 3010.77 548.536H3008.16ZM3001.41 569.602C2997.33 573.927 2991.69 576.145 2984.34 576.145V578.692C2992.27 578.692 2998.66 576.275 3003.32 571.329L3001.41 569.602ZM2984.34 576.145H2827.6V578.692H2984.34V576.145ZM2859.82 439.222H2790.46V441.769H2859.82V439.222ZM2791.76 440.496V252.227H2789.16V440.496H2791.76ZM2790.73 253.47C2794 252.762 2798.53 251.873 2804.35 250.805L2803.86 248.301C2798.04 249.372 2793.48 250.266 2790.17 250.984L2790.73 253.47ZM2804.33 250.807C2810.45 249.751 2816.57 249.222 2822.68 249.222V246.675C2816.41 246.675 2810.14 247.216 2803.88 248.299L2804.33 250.807ZM2822.68 249.222C2835.69 249.222 2844.79 251.533 2850.26 255.89L2851.9 253.913C2845.72 248.999 2835.88 246.675 2822.68 246.675V249.222ZM2850.3 255.92C2855.62 259.831 2858.52 267.506 2858.52 279.505H2861.12C2861.12 267.256 2858.19 258.53 2851.86 253.882L2850.3 255.92ZM2858.52 279.505V440.496H2861.12V279.505H2858.52ZM3084.33 483.819L3083.03 483.893L3083.11 485.279L3084.51 485.08L3084.33 483.819ZM3081.6 437.822L3081.4 436.562L3080.23 436.734L3080.29 437.896L3081.6 437.822ZM3227.97 416.428L3228.15 417.687L3229.36 417.511L3229.26 416.327L3227.97 416.428ZM3124.2 385.406L3125.12 386.293L3125.13 386.281L3124.2 385.406ZM3105.08 439.426L3103.78 439.407V439.453V439.5L3105.08 439.426ZM3106.72 467.238L3105.42 467.312V467.364L3105.43 467.416L3106.72 467.238ZM3133.48 517.515L3132.7 518.534L3132.72 518.543L3133.48 517.515ZM3232.34 527.142L3232.74 528.351L3232.76 528.346L3232.78 528.34L3232.34 527.142ZM3263.46 512.166L3264.17 511.095L3263.43 510.628L3262.71 511.13L3263.46 512.166ZM3275.48 524.468L3274.35 525.1L3274.38 525.148L3274.4 525.192L3275.48 524.468ZM3267.83 564.047L3268.63 565.051L3268.64 565.039L3268.65 565.029L3267.83 564.047ZM3110.55 569.396L3109.97 570.538V570.544L3109.99 570.549L3110.55 569.396ZM3059.75 523.398L3058.62 524.037L3058.63 524.05L3059.75 523.398ZM3079.96 349.57L3080.85 350.5V350.499L3079.96 349.57ZM3121.47 324.967L3121.9 326.17L3121.91 326.165L3121.92 326.16L3121.47 324.967ZM3233.43 330.851L3232.79 331.966L3232.81 331.974L3232.83 331.98L3233.43 330.851ZM3276.03 369.895L3274.91 370.547V370.555L3274.92 370.563L3276.03 369.895ZM3283.67 450.123L3284.56 451.057V451.054L3283.67 450.123ZM3261.83 458.681L3261.67 457.416L3261.66 457.418L3261.63 457.42L3261.83 458.681ZM3085.62 483.745L3082.88 437.748L3080.29 437.896L3083.03 483.893L3085.62 483.745ZM3081.78 439.081L3228.15 417.687L3227.77 415.168L3081.4 436.562L3081.78 439.081ZM3229.26 416.327C3228.15 402.491 3222.74 390.454 3213.08 380.261L3211.17 381.993C3220.44 391.768 3225.6 403.265 3226.67 416.528L3229.26 416.327ZM3213.08 380.261C3203.3 369.943 3189.06 364.878 3170.62 364.878V367.425C3188.58 367.425 3202.03 372.343 3211.17 381.993L3213.08 380.261ZM3170.62 364.878C3151.7 364.878 3135.88 371.432 3123.25 384.531L3125.13 386.281C3137.27 373.706 3152.39 367.425 3170.62 367.425V364.878ZM3123.26 384.518C3110.58 397.304 3104.15 415.666 3103.78 439.407L3106.38 439.445C3106.73 416.119 3113.05 398.468 3125.12 386.293L3123.26 384.518ZM3103.78 439.5L3105.42 467.312L3108.01 467.165L3106.37 439.352L3103.78 439.5ZM3105.43 467.416C3108.73 490.469 3117.79 507.578 3132.7 518.534L3134.27 516.496C3120.05 506.057 3111.25 489.649 3108.01 467.062L3105.43 467.416ZM3132.72 518.543C3147.91 529.432 3166.94 534.834 3189.74 534.834V532.287C3167.37 532.287 3148.9 526.992 3134.25 516.487L3132.72 518.543ZM3189.74 534.834C3205.14 534.834 3219.49 532.677 3232.74 528.351L3231.92 525.934C3218.95 530.165 3204.9 532.287 3189.74 532.287V534.834ZM3232.78 528.34C3245.94 523.682 3256.44 518.643 3264.22 513.203L3262.71 511.13C3255.2 516.387 3244.94 521.331 3231.9 525.944L3232.78 528.34ZM3262.76 513.237C3267.68 516.34 3271.54 520.291 3274.35 525.1L3276.6 523.837C3273.58 518.661 3269.44 514.411 3264.17 511.095L3262.76 513.237ZM3274.4 525.192C3277.54 529.613 3279.1 534.53 3279.1 539.979H3281.7C3281.7 534.017 3279.98 528.594 3276.55 523.743L3274.4 525.192ZM3279.1 539.979C3279.1 548.812 3275.13 556.493 3267.01 563.066L3268.65 565.029C3277.29 558.052 3281.7 549.688 3281.7 539.979H3279.1ZM3267.03 563.045C3258.84 569.322 3247.73 574.252 3233.65 577.789L3234.29 580.257C3248.6 576.663 3260.07 571.609 3268.63 565.051L3267.03 563.045ZM3233.65 577.789C3219.58 581.323 3203.48 583.098 3185.37 583.098V585.645C3203.65 585.645 3219.97 583.855 3234.29 580.257L3233.65 577.789ZM3185.37 583.098C3157.49 583.098 3132.74 578.136 3111.09 568.242L3109.99 570.549C3132.04 580.624 3157.16 585.645 3185.37 585.645V583.098ZM3111.12 568.253C3089.85 558.022 3073.12 542.861 3060.87 522.746L3058.63 524.05C3071.14 544.585 3088.26 560.088 3109.97 570.538L3111.12 568.253ZM3060.87 522.761C3049 502.678 3043.03 477.597 3043.03 447.449H3040.43C3040.43 477.918 3046.46 503.47 3058.62 524.037L3060.87 522.761ZM3043.03 447.449C3043.03 425.828 3046.46 406.924 3053.3 390.706L3050.9 389.733C3043.9 406.32 3040.43 425.568 3040.43 447.449H3043.03ZM3053.3 390.706C3060.15 374.449 3069.35 361.057 3080.85 350.5L3079.06 348.641C3067.27 359.478 3057.88 373.186 3050.9 389.733L3053.3 390.706ZM3080.85 350.499C3092.73 339.568 3106.41 331.459 3121.9 326.17L3121.04 323.765C3105.21 329.172 3091.21 337.466 3079.06 348.642L3080.85 350.499ZM3121.92 326.16C3137.43 320.51 3153.65 317.683 3170.62 317.683V315.136C3153.35 315.136 3136.81 318.014 3121.01 323.774L3121.92 326.16ZM3170.62 317.683C3194.47 317.683 3215.18 322.46 3232.79 331.966L3234.05 329.735C3215.99 319.987 3194.82 315.136 3170.62 315.136V317.683ZM3232.83 331.98C3250.83 341.145 3264.84 353.997 3274.91 370.547L3277.15 369.243C3266.82 352.276 3252.44 339.098 3234.03 329.721L3232.83 331.98ZM3274.92 370.563C3285.34 387.101 3290.57 406.119 3290.57 427.66H3293.16C3293.16 405.699 3287.82 386.207 3277.14 369.227L3274.92 370.563ZM3290.57 427.66C3290.57 437.423 3287.9 444.519 3282.78 449.193L3284.56 451.054C3290.37 445.744 3293.16 437.862 3293.16 427.66H3290.57ZM3282.79 449.19C3277.95 453.584 3270.97 456.366 3261.67 457.416L3261.97 459.945C3271.62 458.857 3279.19 455.934 3284.56 451.057L3282.79 449.19ZM3261.63 457.42L3084.13 482.558L3084.51 485.08L3262.01 459.942L3261.63 457.42ZM3496.23 524.468L3496.93 525.543L3497.53 525.167V524.468H3496.23ZM3496.23 463.495H3497.53V462.086L3496.1 462.227L3496.23 463.495ZM3442.16 468.843L3442.25 470.113L3442.28 470.112L3442.29 470.111L3442.16 468.843ZM3407.76 478.47L3408.48 479.53L3408.5 479.523L3407.76 478.47ZM3530.09 338.873L3529.34 339.905V339.914L3530.09 338.873ZM3555.22 551.745L3554.23 550.916L3554.21 550.937L3554.2 550.958L3555.22 551.745ZM3539.38 565.117L3540.03 566.222L3540.04 566.214L3540.05 566.204L3539.38 565.117ZM3500.6 579.023L3500.32 577.783L3500.29 577.785L3500.28 577.789L3500.6 579.023ZM3361.88 564.582L3361.15 565.633L3361.16 565.642L3361.88 564.582ZM3495.68 417.497L3495.82 418.764L3496.99 418.646V417.497H3495.68ZM3480.4 376.848L3479.68 377.908V377.914L3479.69 377.919L3480.4 376.848ZM3360.79 385.406L3359.98 386.401L3360.62 386.901L3361.36 386.553L3360.79 385.406ZM3368.44 329.781L3368.94 330.953L3368.97 330.945L3368.98 330.936L3368.44 329.781ZM3403.93 319.619L3403.74 318.361L3403.73 318.362L3403.93 319.619ZM3447.62 535.904C3458.64 535.904 3468.57 534.826 3477.43 532.657L3476.8 530.186C3468.18 532.295 3458.47 533.357 3447.62 533.357V535.904ZM3477.43 532.657C3486.21 530.508 3492.74 528.151 3496.93 525.543L3495.53 523.393C3491.7 525.777 3485.5 528.055 3476.8 530.186L3477.43 532.657ZM3497.53 524.468V463.495H3494.93V524.468H3497.53ZM3496.1 462.227L3442.03 467.576L3442.29 470.111L3496.36 464.761L3496.1 462.227ZM3442.07 467.573C3427.03 468.651 3415.3 471.893 3407.03 477.419L3408.5 479.523C3416.23 474.351 3427.44 471.175 3442.25 470.113L3442.07 467.573ZM3407.04 477.411C3398.98 482.668 3394.99 490.58 3394.99 500.935H3397.58C3397.58 491.321 3401.24 484.257 3408.48 479.53L3407.04 477.411ZM3394.99 500.935C3394.99 511.672 3399.37 520.257 3408.08 526.561L3409.63 524.514C3401.59 518.696 3397.58 510.878 3397.58 500.935H3394.99ZM3408.08 526.561C3416.78 532.863 3430.04 535.904 3447.62 535.904V533.357C3430.25 533.357 3417.66 530.336 3409.63 524.514L3408.08 526.561ZM3444.89 317.683C3480.41 317.683 3508.51 325.136 3529.34 339.905L3530.86 337.842C3509.44 322.66 3480.76 315.136 3444.89 315.136V317.683ZM3529.34 339.914C3550.03 354.234 3560.47 376.967 3560.47 408.405H3563.07C3563.07 376.373 3552.4 352.752 3530.85 337.833L3529.34 339.914ZM3560.47 408.405V531.421H3563.07V408.405H3560.47ZM3560.47 531.421C3560.47 539.768 3558.35 546.218 3554.23 550.916L3556.21 552.574C3560.83 547.29 3563.07 540.189 3563.07 531.421H3560.47ZM3554.2 550.958C3550.3 555.812 3545.15 560.173 3538.7 564.031L3540.05 566.204C3546.73 562.216 3552.12 557.663 3556.24 552.532L3554.2 550.958ZM3538.74 564.012C3528.68 569.638 3515.88 574.235 3500.32 577.783L3500.9 580.264C3516.63 576.68 3529.69 572.007 3540.03 566.222L3538.74 564.012ZM3500.28 577.789C3484.75 581.681 3467.21 583.633 3447.62 583.633V586.18C3467.38 586.18 3485.14 584.21 3500.92 580.257L3500.28 577.789ZM3447.62 583.633C3411.36 583.633 3383.06 576.882 3362.61 563.523L3361.16 565.642C3382.2 579.381 3411.07 586.18 3447.62 586.18V583.633ZM3362.62 563.532C3342.26 549.889 3332.05 529.803 3332.05 503.074H3329.45C3329.45 530.544 3340 551.463 3361.15 565.633L3362.62 563.532ZM3332.05 503.074C3332.05 479.468 3339.59 461.681 3354.52 449.497L3352.85 447.541C3337.2 460.316 3329.45 478.9 3329.45 503.074H3332.05ZM3354.52 449.497C3369.9 436.883 3392.19 429.091 3421.54 426.252L3421.28 423.718C3391.64 426.585 3368.78 434.482 3352.85 447.542L3354.52 449.497ZM3421.54 426.252L3495.82 418.764L3495.56 416.23L3421.28 423.718L3421.54 426.252ZM3496.99 417.497V407.87H3494.39V417.497H3496.99ZM3496.99 407.87C3496.99 393.275 3491.75 382.479 3481.1 375.777L3479.69 377.919C3489.43 384.053 3494.39 393.94 3494.39 407.87H3496.99ZM3481.12 375.788C3470.99 369.174 3456.68 365.947 3438.34 365.947V368.494C3456.41 368.494 3470.15 371.685 3479.68 377.908L3481.12 375.788ZM3438.34 365.947C3424.04 365.947 3410.08 367.744 3396.49 371.34L3397.17 373.798C3410.54 370.263 3424.26 368.494 3438.34 368.494V365.947ZM3396.49 371.34C3382.96 374.923 3370.86 379.227 3360.23 384.259L3361.36 386.553C3371.83 381.601 3383.76 377.347 3397.17 373.798L3396.49 371.34ZM3361.6 384.412C3358.12 381.681 3354.93 377.895 3352.09 373.007L3349.82 374.271C3352.8 379.367 3356.18 383.426 3359.98 386.401L3361.6 384.412ZM3352.09 373.007C3349.28 368.192 3347.89 363.238 3347.89 358.128H3345.29C3345.29 363.715 3346.81 369.102 3349.82 374.271L3352.09 373.007ZM3347.89 358.128C3347.89 351.962 3349.63 346.666 3353.09 342.181C3356.56 337.681 3361.82 333.923 3368.94 330.953L3367.93 328.609C3360.5 331.701 3354.83 335.698 3351.01 340.647C3347.19 345.612 3345.29 351.458 3345.29 358.128H3347.89ZM3368.98 330.936C3379.04 326.359 3390.76 323 3404.14 320.876L3403.73 318.362C3390.16 320.517 3378.21 323.932 3367.88 328.626L3368.98 330.936ZM3404.14 320.877C3417.91 318.748 3431.5 317.683 3444.89 317.683V315.136C3431.36 315.136 3417.64 316.211 3403.74 318.361L3404.14 320.877ZM3658.17 576.884V578.157H3658.78L3659.17 577.685L3658.17 576.884ZM3631.4 576.884L3630.52 577.826L3630.9 578.157H3631.4V576.884ZM3621.57 531.421L3620.41 530.821V530.837L3620.4 530.852L3621.57 531.421ZM3631.4 515.91L3630.39 515.101L3630.36 515.135L3630.34 515.17L3631.4 515.91ZM3793.07 323.898V322.624H3792.44L3792.05 323.088L3793.07 323.898ZM3817.1 323.898L3817.93 322.92L3817.56 322.624H3817.1V323.898ZM3817.1 384.336L3816.13 383.473L3816.11 383.504L3816.08 383.535L3817.1 384.336ZM3804.54 323.898H3805.83V322.624H3804.54V323.898ZM3804.54 375.778V377.052H3805.83V375.778H3804.54ZM3627.58 375.778L3626.48 376.453L3626.85 377.052H3627.58V375.778ZM3646.7 576.884H3645.4V578.157H3646.7V576.884ZM3646.7 525.003V523.729H3645.4V525.003H3646.7ZM3829.66 525.003L3830.78 524.372L3830.41 523.729H3829.66V525.003ZM3829.66 570.465L3828.73 569.565L3828.71 569.584L3828.69 569.605L3829.66 570.465ZM3658.17 575.611H3631.4V578.157H3658.17V575.611ZM3632.27 575.942C3628.39 572.486 3625.22 568.336 3622.73 563.478L3620.4 564.616C3623.02 569.742 3626.4 574.149 3630.52 577.826L3632.27 575.942ZM3622.73 563.478C3620.28 558.677 3619.05 553.348 3619.05 547.467H3616.45C3616.45 553.709 3617.76 559.433 3620.4 564.616L3622.73 563.478ZM3619.05 547.467C3619.05 541.955 3620.28 536.802 3622.73 531.991L3620.4 530.852C3617.76 536.025 3616.45 541.568 3616.45 547.467H3619.05ZM3622.72 532.021C3625.6 526.721 3628.84 521.598 3632.46 516.65L3630.34 515.17C3626.67 520.207 3623.35 525.424 3620.41 530.821L3622.72 532.021ZM3632.41 516.72L3794.07 324.707L3792.05 323.088L3630.39 515.101L3632.41 516.72ZM3793.07 325.171H3817.1V322.624H3793.07V325.171ZM3816.25 324.875C3820.49 328.33 3823.83 332.468 3826.31 337.303L3828.63 336.165C3826.01 331.017 3822.43 326.597 3817.93 322.92L3816.25 324.875ZM3826.31 337.303C3828.76 342.104 3830 347.434 3830 353.315H3832.6C3832.6 347.072 3831.27 341.348 3828.63 336.165L3826.31 337.303ZM3830 353.315C3830 358.458 3828.76 363.625 3826.29 368.821L3828.64 369.899C3831.27 364.399 3832.6 358.868 3832.6 353.315H3830ZM3826.29 368.821C3823.81 374.043 3820.43 378.926 3816.13 383.473L3818.05 385.2C3822.51 380.475 3826.03 375.375 3828.64 369.899L3826.29 368.821ZM3816.08 383.535L3657.15 576.083L3659.17 577.685L3818.1 385.137L3816.08 383.535ZM3803.23 323.898V375.778H3805.83V323.898H3803.23ZM3804.54 374.505H3627.58V377.052H3804.54V374.505ZM3628.68 375.104C3626.93 372.376 3625.35 368.744 3623.9 364.172L3621.42 364.921C3622.89 369.62 3624.58 373.476 3626.48 376.453L3628.68 375.104ZM3623.9 364.172C3622.48 359.661 3621.78 354.974 3621.78 350.105H3619.18C3619.18 355.221 3619.92 360.161 3621.42 364.921L3623.9 364.172ZM3621.78 350.105C3621.78 340.958 3623.76 334.782 3627.4 331.216L3625.57 329.416C3621.2 333.694 3619.18 340.711 3619.18 350.105H3621.78ZM3627.4 331.216C3631.48 327.219 3636.96 325.171 3643.96 325.171V322.624C3636.4 322.624 3630.22 324.855 3625.57 329.416L3627.4 331.216ZM3643.96 325.171H3804.54V322.624H3643.96V325.171ZM3647.99 576.884V525.003H3645.4V576.884H3647.99ZM3646.7 526.277H3829.66V523.729H3646.7V526.277ZM3828.53 525.634C3829.9 528.012 3831.33 531.477 3832.78 536.074L3835.26 535.326C3833.79 530.652 3832.31 526.986 3830.78 524.372L3828.53 525.634ZM3832.78 536.074C3834.2 540.577 3834.91 545.442 3834.91 550.676H3837.51C3837.51 545.213 3836.76 540.093 3835.26 535.326L3832.78 536.074ZM3834.91 550.676C3834.91 559.412 3832.77 565.617 3828.73 569.565L3830.57 571.366C3835.28 566.756 3837.51 559.768 3837.51 550.676H3834.91ZM3828.69 569.605C3824.99 573.562 3819.73 575.611 3812.73 575.611V578.157C3820.28 578.157 3826.31 575.926 3830.61 571.326L3828.69 569.605ZM3812.73 575.611H3646.7V578.157H3812.73V575.611ZM3914.22 483.819L3912.92 483.893L3913 485.279L3914.4 485.08L3914.22 483.819ZM3911.49 437.822L3911.29 436.562L3910.13 436.734L3910.19 437.896L3911.49 437.822ZM4057.86 416.428L4058.06 417.687L4059.25 417.511L4059.16 416.327L4057.86 416.428ZM3954.09 385.406L3955.03 386.293L3955.04 386.281L3954.09 385.406ZM3934.98 439.426L3933.67 439.407V439.453V439.5L3934.98 439.426ZM3936.61 467.238L3935.31 467.312V467.364L3935.33 467.416L3936.61 467.238ZM3963.37 517.515L3962.59 518.534L3962.61 518.543L3963.37 517.515ZM4062.23 527.142L4062.65 528.351L4062.66 528.346L4062.67 528.34L4062.23 527.142ZM4093.36 512.166L4094.06 511.095L4093.32 510.628L4092.6 511.13L4093.36 512.166ZM4105.38 524.468L4104.24 525.1L4104.27 525.148L4104.31 525.192L4105.38 524.468ZM4097.73 564.047L4098.53 565.051L4098.55 565.039L4098.56 565.029L4097.73 564.047ZM3940.44 569.396L3939.87 570.538L3939.88 570.544L3939.89 570.549L3940.44 569.396ZM3889.64 523.398L3888.51 524.037L3888.53 524.05L3889.64 523.398ZM3909.85 349.57L3910.74 350.5V350.499L3909.85 349.57ZM3951.36 324.967L3951.79 326.17L3951.8 326.165L3951.81 326.16L3951.36 324.967ZM4063.32 330.851L4062.7 331.966L4062.71 331.974L4062.72 331.98L4063.32 330.851ZM4105.92 369.895L4104.8 370.547V370.555L4104.81 370.563L4105.92 369.895ZM4113.57 450.123L4114.45 451.057V451.054L4113.57 450.123ZM4091.72 458.681L4091.57 457.416L4091.55 457.418L4091.54 457.42L4091.72 458.681ZM3915.52 483.745L3912.79 437.748L3910.19 437.896L3912.92 483.893L3915.52 483.745ZM3911.68 439.081L4058.06 417.687L4057.66 415.168L3911.29 436.562L3911.68 439.081ZM4059.16 416.327C4058.04 402.491 4052.65 390.454 4042.97 380.261L4041.07 381.993C4050.33 391.768 4055.49 403.265 4056.56 416.528L4059.16 416.327ZM4042.97 380.261C4033.19 369.943 4018.97 364.878 4000.51 364.878V367.425C4018.47 367.425 4031.92 372.343 4041.07 381.993L4042.97 380.261ZM4000.51 364.878C3981.59 364.878 3965.78 371.432 3953.14 384.531L3955.04 386.281C3967.16 373.706 3982.3 367.425 4000.51 367.425V364.878ZM3953.15 384.518C3940.47 397.304 3934.04 415.666 3933.67 439.407L3936.27 439.445C3936.64 416.119 3942.94 398.468 3955.03 386.293L3953.15 384.518ZM3933.67 439.5L3935.31 467.312L3937.92 467.165L3936.27 439.352L3933.67 439.5ZM3935.33 467.416C3938.63 490.469 3947.68 507.578 3962.59 518.534L3964.16 516.496C3949.95 506.057 3941.14 489.649 3937.9 467.062L3935.33 467.416ZM3962.61 518.543C3977.81 529.432 3996.83 534.834 4019.63 534.834V532.287C3997.26 532.287 3978.8 526.992 3964.14 516.487L3962.61 518.543ZM4019.63 534.834C4035.05 534.834 4049.38 532.677 4062.65 528.351L4061.81 525.934C4048.86 530.165 4034.79 532.287 4019.63 532.287V534.834ZM4062.67 528.34C4075.84 523.682 4086.34 518.643 4094.11 513.203L4092.6 511.13C4085.09 516.387 4074.83 521.331 4061.79 525.944L4062.67 528.34ZM4092.66 513.237C4097.59 516.34 4101.43 520.291 4104.24 525.1L4106.51 523.837C4103.49 518.661 4099.33 514.411 4094.06 511.095L4092.66 513.237ZM4104.31 525.192C4107.43 529.613 4108.99 534.53 4108.99 539.979H4111.59C4111.59 534.017 4109.87 528.594 4106.44 523.743L4104.31 525.192ZM4108.99 539.979C4108.99 548.812 4105.03 556.493 4096.9 563.066L4098.56 565.029C4107.18 558.052 4111.59 549.688 4111.59 539.979H4108.99ZM4096.92 563.045C4088.73 569.322 4077.63 574.252 4063.54 577.789L4064.19 580.257C4078.5 576.663 4089.96 571.609 4098.53 565.051L4096.92 563.045ZM4063.54 577.789C4049.47 581.323 4033.38 583.098 4015.26 583.098V585.645C4033.54 585.645 4049.86 583.855 4064.19 580.257L4063.54 577.789ZM4015.26 583.098C3987.38 583.098 3962.63 578.136 3940.98 568.242L3939.89 570.549C3961.93 580.624 3987.07 585.645 4015.26 585.645V583.098ZM3941.01 568.253C3919.76 558.022 3903.01 542.861 3890.76 522.746L3888.53 524.05C3901.03 544.585 3918.15 560.088 3939.87 570.538L3941.01 568.253ZM3890.76 522.761C3878.9 502.678 3872.92 477.597 3872.92 447.449H3870.32C3870.32 477.918 3876.35 503.47 3888.51 524.037L3890.76 522.761ZM3872.92 447.449C3872.92 425.828 3876.35 406.924 3883.19 390.706L3880.8 389.733C3873.81 406.32 3870.32 425.568 3870.32 447.449H3872.92ZM3883.19 390.706C3890.06 374.449 3899.24 361.057 3910.74 350.5L3908.97 348.641C3897.16 359.478 3887.77 373.186 3880.8 389.733L3883.19 390.706ZM3910.74 350.499C3922.62 339.568 3936.3 331.459 3951.79 326.17L3950.93 323.765C3935.11 329.172 3921.11 337.466 3908.96 348.642L3910.74 350.499ZM3951.81 326.16C3967.32 320.51 3983.56 317.683 4000.51 317.683V315.136C3983.24 315.136 3966.72 318.014 3950.9 323.774L3951.81 326.16ZM4000.51 317.683C4024.36 317.683 4045.07 322.46 4062.7 331.966L4063.94 329.735C4045.88 319.987 4024.73 315.136 4000.51 315.136V317.683ZM4062.72 331.98C4080.72 341.145 4094.74 353.997 4104.8 370.547L4107.04 369.243C4096.71 352.276 4082.33 339.098 4063.92 329.721L4062.72 331.98ZM4104.81 370.563C4115.23 387.101 4120.46 406.119 4120.46 427.66H4123.06C4123.06 405.699 4117.73 386.207 4107.03 369.227L4104.81 370.563ZM4120.46 427.66C4120.46 437.423 4117.8 444.519 4112.68 449.193L4114.45 451.054C4120.26 445.744 4123.06 437.862 4123.06 427.66H4120.46ZM4112.68 449.19C4107.85 453.584 4100.86 456.366 4091.57 457.416L4091.86 459.945C4101.52 458.857 4109.09 455.934 4114.45 451.057L4112.68 449.19ZM4091.54 457.42L3914.04 482.558L3914.4 485.08L4091.9 459.942L4091.54 457.42Z" fill="white"></path>
</g>
<path d="M338.745 727.144C525.828 727.144 677.492 578.62 677.492 395.407C677.492 212.193 525.828 63.6694 338.745 63.6694C151.662 63.6694 0 212.193 0 395.407C0 578.62 151.662 727.144 338.745 727.144Z" fill="white"></path>
<path d="M1115.72 393.5C1115.72 610.824 935.827 787 713.912 787C491.997 787 312.1 610.824 312.1 393.5C312.1 176.176 491.997 0 713.912 0C935.827 0 1115.72 176.176 1115.72 393.5ZM378.482 393.5C378.482 574.92 528.659 721.989 713.912 721.989C899.163 721.989 1049.34 574.92 1049.34 393.5C1049.34 212.08 899.163 65.0093 713.912 65.0093C528.659 65.0093 378.482 212.08 378.482 393.5Z" fill="#0D5537"></path>
<path d="M1050.66 395.407C1050.66 578.62 899.288 727.144 712.564 727.144C525.841 727.144 374.471 578.62 374.471 395.407C374.471 212.193 525.841 63.6694 712.564 63.6694C899.288 63.6694 1050.66 212.193 1050.66 395.407ZM430.326 395.407C430.326 548.352 556.689 672.337 712.564 672.337C868.441 672.337 994.806 548.352 994.806 395.407C994.806 242.461 868.441 118.475 712.564 118.475C556.689 118.475 430.326 242.461 430.326 395.407Z" fill="white"></path>
</g>
<defs>
<clipPath id="clip0_2728_125">
<rect width="4124" height="787" fill="white"></rect>
</clipPath>
</defs>
</svg>
