<svg width="12" height="8" viewBox="0 0 12 8" fill="none" xmlns="http://www.w3.org/2000/svg">
<path d="M3.64336 7.39179C5.65554 7.39179 7.28672 5.88203 7.28672 4.01963C7.28672 2.15723 5.65554 0.647461 3.64336 0.647461C1.63119 0.647461 0 2.15723 0 4.01963C0 5.88203 1.63119 7.39179 3.64336 7.39179Z" fill="white"></path>
<path d="M11.9998 4C11.9998 6.20914 10.0649 8 7.6781 8C5.29133 8 3.35645 6.20914 3.35645 4C3.35645 1.79086 5.29133 0 7.6781 0C10.0649 0 11.9998 1.79086 11.9998 4ZM4.07042 4C4.07042 5.84417 5.68565 7.33915 7.6781 7.33915C9.67062 7.33915 11.2859 5.84417 11.2859 4C11.2859 2.15583 9.67062 0.660833 7.6781 0.660833C5.68565 0.660833 4.07042 2.15583 4.07042 4Z" fill="#0D5537"></path>
<path d="M11.3011 4.01963C11.3011 5.88202 9.67302 7.39179 7.66472 7.39179C5.65638 7.39179 4.02832 5.88202 4.02832 4.01963C4.02832 2.15724 5.65638 0.647461 7.66472 0.647461C9.67302 0.647461 11.3011 2.15724 11.3011 4.01963ZM4.62908 4.01963C4.62908 5.57435 5.98817 6.83469 7.66472 6.83469C9.3412 6.83469 10.7003 5.57435 10.7003 4.01963C10.7003 2.46491 9.3412 1.20457 7.66472 1.20457C5.98817 1.20457 4.62908 2.46491 4.62908 4.01963Z" fill="white"></path>
</svg>
