<?xml version="1.0" standalone="no"?>
<!DOCTYPE svg PUBLIC "-//W3C//DTD SVG 20010904//EN"
 "http://www.w3.org/TR/2001/REC-SVG-20010904/DTD/svg10.dtd">
<svg version="1.0" xmlns="http://www.w3.org/2000/svg"
 width="1549.000000pt" height="1808.000000pt" viewBox="0 0 1549.000000 1808.000000"
 preserveAspectRatio="xMidYMid meet">

<g transform="translate(0.000000,1808.000000) scale(0.100000,-0.100000)"
fill="#000000" stroke="none">
<path d="M1588 15956 c-75 -27 -127 -79 -154 -153 -11 -32 -13 -1169 -14
-6754 0 -5984 2 -6721 15 -6760 21 -60 58 -104 113 -136 l47 -28 443 -3 442
-3 0 -524 0 -525 65 0 65 0 0 525 0 525 120 0 120 0 0 -525 0 -525 65 0 65 0
0 525 0 525 120 0 120 0 0 -525 0 -525 65 0 65 0 0 525 0 525 120 0 120 0 0
-525 0 -525 65 0 65 0 0 525 0 525 120 0 120 0 0 -525 0 -525 65 0 65 0 0 525
0 525 120 0 120 0 0 -525 0 -525 65 0 65 0 0 525 0 525 120 0 120 0 0 -525 0
-525 65 0 65 0 0 525 0 525 120 0 120 0 0 -525 0 -525 65 0 65 0 0 525 0 525
2733 2 2732 3 47 28 c53 31 94 79 114 134 11 32 13 1169 14 6754 0 5984 -2
6721 -15 6760 -21 60 -58 104 -113 136 l-47 28 -4520 2 c-3752 2 -4526 0
-4557 -11z m9093 -59 c24 -13 58 -43 74 -66 l30 -43 3 -6732 2 -6733 -23 -44
c-13 -24 -43 -57 -66 -74 l-43 -30 -4517 -3 -4518 -2 -44 23 c-24 13 -57 43
-74 66 l-30 43 -3 6731 -2 6731 21 43 c22 46 65 84 114 101 21 7 1419 11 4531
11 l4501 1 44 -23z"/>
<path d="M3704 7038 c-12 -5 -27 -21 -33 -34 -15 -35 -16 -1163 0 -1197 6 -14
22 -30 36 -36 17 -8 551 -11 1918 -11 1367 0 1901 3 1918 11 14 6 30 22 36 36
15 34 15 1162 0 1196 -6 14 -22 30 -36 36 -33 15 -3808 14 -3839 -1z m1434
-411 c15 -12 16 -49 0 -65 -7 -7 -24 -12 -38 -12 -32 0 -50 17 -50 46 0 43 50
60 88 31z m-167 -53 c20 -18 24 -41 10 -63 -7 -11 -15 -11 -45 -1 -41 13 -86
6 -86 -13 0 -8 28 -24 62 -38 77 -30 106 -70 92 -127 -14 -56 -52 -77 -139
-77 -58 0 -77 4 -94 19 -42 38 -18 97 29 71 32 -18 84 -19 99 -1 14 17 1 29
-52 46 -21 6 -51 23 -67 37 -25 20 -30 32 -30 66 1 50 15 71 61 92 43 19 133
13 160 -11z m167 -66 c8 -7 12 -46 12 -128 0 -116 0 -118 -24 -124 -27 -7 -57
1 -68 18 -4 6 -8 64 -8 128 0 103 2 117 18 121 20 5 52 -2 70 -15z m286 -1
c26 -17 26 -18 26 -148 0 -130 0 -131 -28 -159 -33 -33 -83 -45 -146 -36 -50
8 -69 25 -64 58 3 22 8 23 73 23 54 0 70 3 73 15 2 12 -8 15 -41 15 -56 0 -92
19 -112 60 -31 67 -9 150 48 179 40 21 134 17 171 -7z m295 9 c40 -21 51 -56
51 -160 0 -76 -3 -95 -16 -100 -27 -10 -43 -7 -64 14 -17 17 -20 33 -20 99 0
85 -6 97 -46 87 -23 -6 -24 -9 -24 -101 0 -83 -2 -94 -19 -100 -10 -3 -30 -1
-45 5 l-27 10 3 111 3 112 35 18 c42 23 129 25 169 5z m299 -14 c7 -10 12 -47
12 -94 l0 -78 35 0 35 0 0 94 c0 87 2 94 21 99 12 3 32 2 45 -3 23 -9 24 -13
24 -120 0 -107 -1 -110 -26 -127 -39 -25 -131 -28 -174 -6 -49 25 -60 54 -60
160 0 79 2 92 18 96 25 6 55 -3 70 -21z m432 10 c20 -10 42 -32 52 -52 51
-101 -18 -217 -124 -208 l-37 3 -3 -45 c-3 -42 -5 -45 -33 -48 -56 -4 -60 4
-63 155 -3 150 4 178 48 200 36 18 119 16 160 -5z"/>
<path d="M5301 6441 c-24 -24 -25 -30 -12 -64 11 -27 33 -39 56 -30 12 4 15
18 13 57 -3 58 -23 71 -57 37z"/>
<path d="M6347 6453 c-4 -3 -7 -33 -7 -65 0 -57 1 -58 28 -58 38 0 52 17 52
60 0 50 -47 90 -73 63z"/>
<path d="M780 13190 l0 -800 65 0 65 0 0 800 0 800 -65 0 -65 0 0 -800z"/>
<path d="M1150 13140 l0 -750 65 0 65 0 0 750 0 750 -65 0 -65 0 0 -750z"/>
</g>
</svg>
