<?xml version="1.0" standalone="no"?>
<!DOCTYPE svg PUBLIC "-//W3C//DTD SVG 20010904//EN"
 "http://www.w3.org/TR/2001/REC-SVG-20010904/DTD/svg10.dtd">
<svg version="1.0" xmlns="http://www.w3.org/2000/svg"
 width="1549.000000pt" height="1808.000000pt" viewBox="0 0 1549.000000 1808.000000"
 preserveAspectRatio="xMidYMid meet">

<g transform="translate(0.000000,1808.000000) scale(0.100000,-0.100000)"
fill="#000000" stroke="none">
<path d="M1588 15956 c-75 -27 -127 -79 -154 -153 -11 -32 -13 -1169 -14
-6754 0 -5984 2 -6721 15 -6760 21 -60 58 -104 113 -136 l47 -28 443 -3 442
-3 0 -524 0 -525 65 0 65 0 0 525 0 525 120 0 120 0 0 -525 0 -525 65 0 65 0
0 525 0 525 120 0 120 0 0 -525 0 -525 65 0 65 0 0 525 0 525 120 0 120 0 0
-525 0 -525 65 0 65 0 0 525 0 525 120 0 120 0 0 -525 0 -525 65 0 65 0 0 525
0 525 120 0 120 0 0 -525 0 -525 65 0 65 0 0 525 0 525 120 0 120 0 0 -525 0
-525 65 0 65 0 0 525 0 525 120 0 120 0 0 -525 0 -525 65 0 65 0 0 525 0 525
2733 2 2732 3 47 28 c53 31 94 79 114 134 11 32 13 1169 14 6754 0 5984 -2
6721 -15 6760 -21 60 -58 104 -113 136 l-47 28 -4520 2 c-3752 2 -4526 0
-4557 -11z m9093 -59 c24 -13 58 -43 74 -66 l30 -43 3 -6732 2 -6733 -23 -44
c-13 -24 -43 -57 -66 -74 l-43 -30 -4517 -3 -4518 -2 -44 23 c-24 13 -57 43
-74 66 l-30 43 -3 6731 -2 6731 21 43 c22 46 65 84 114 101 21 7 1419 11 4531
11 l4501 1 44 -23z"/>
<path d="M7305 13730 c-9 -15 4 -30 26 -30 12 0 19 7 19 20 0 21 -33 29 -45
10z"/>
<path d="M6420 13721 l-35 -6 0 -135 c0 -120 2 -135 18 -138 14 -3 17 5 17 52
0 55 0 56 29 56 25 0 36 -9 68 -55 21 -31 46 -55 56 -55 24 0 21 11 -17 61
l-33 44 28 26 c38 36 40 89 4 124 -13 14 -32 25 -42 25 -10 0 -27 2 -38 4 -11
2 -36 1 -55 -3z m101 -41 c13 -7 19 -21 19 -45 0 -41 -20 -55 -79 -55 l-41 0
0 55 0 55 41 0 c22 0 49 -5 60 -10z"/>
<path d="M6681 13646 c-52 -29 -69 -121 -31 -169 35 -44 116 -57 158 -24 24
19 11 25 -43 20 -45 -5 -59 -2 -75 12 -35 32 -25 43 48 50 91 9 97 13 82 59
-19 57 -85 82 -139 52z m89 -36 c23 -23 26 -40 8 -41 -7 0 -34 -4 -60 -8 -43
-7 -48 -6 -48 11 0 24 35 58 60 58 11 0 29 -9 40 -20z"/>
<path d="M6910 13647 c-25 -13 -25 -13 -25 -152 0 -118 2 -140 15 -140 11 0
16 13 18 43 3 42 4 43 32 37 35 -8 95 16 109 43 14 26 14 107 1 133 -23 43
-100 61 -150 36z m101 -36 c20 -16 24 -28 23 -67 -1 -56 -20 -74 -76 -74 l-38
0 0 74 c0 50 4 76 13 79 26 11 56 6 78 -12z"/>
<path d="M7163 13645 l-33 -14 0 -96 c0 -88 1 -95 20 -95 18 0 20 7 20 89 0
96 3 100 68 101 34 0 22 25 -14 27 -16 2 -44 -4 -61 -12z"/>
<path d="M7317 13653 c-4 -3 -7 -53 -7 -110 0 -96 1 -103 20 -103 19 0 20 7
20 99 0 70 -4 102 -13 110 -8 6 -17 8 -20 4z"/>
<path d="M7432 13644 c-17 -12 -22 -24 -20 -47 3 -32 11 -38 83 -69 45 -20 41
-52 -7 -56 -20 -2 -46 2 -57 7 -15 8 -20 7 -25 -5 -8 -22 55 -47 100 -38 35 6
64 36 64 64 0 24 -40 57 -77 65 -17 3 -37 13 -44 22 -11 13 -10 18 6 30 19 13
48 13 88 -2 12 -5 17 -2 17 9 0 34 -89 48 -128 20z"/>
<path d="M7670 13648 c-55 -29 -73 -116 -35 -174 21 -32 85 -49 131 -34 55 19
44 40 -18 33 -55 -5 -84 7 -90 37 -2 11 15 17 72 25 70 9 75 12 78 36 7 59
-80 107 -138 77z m90 -45 c12 -15 18 -29 13 -30 -4 -1 -34 -6 -65 -11 -49 -8
-58 -7 -58 6 0 24 41 62 66 62 13 0 32 -12 44 -27z"/>
<path d="M4527 6634 c-4 -4 -7 -18 -7 -31 0 -21 4 -23 55 -23 31 0 55 -4 55
-10 0 -6 -16 -46 -36 -89 -42 -92 -42 -115 2 -119 30 -3 31 -1 84 118 67 153
67 154 -57 158 -49 1 -92 0 -96 -4z"/>
<path d="M4771 6621 c-15 -28 -14 -128 2 -138 6 -4 32 -8 57 -8 41 0 45 -2 45
-25 0 -21 -5 -26 -32 -28 -18 -2 -41 1 -51 7 -15 8 -23 7 -32 -4 -20 -24 -2
-54 40 -66 83 -25 160 17 160 88 -1 58 -38 93 -99 93 -24 0 -31 4 -31 20 0 16
8 19 58 22 53 3 57 5 57 28 0 24 -2 25 -82 28 -73 2 -83 1 -92 -17z"/>
<path d="M5007 6622 c-23 -25 -22 -85 1 -105 25 -23 85 -22 105 1 23 25 22 85
-1 105 -25 23 -85 22 -105 -1z m68 -43 c5 -13 2 -25 -6 -30 -17 -10 -29 -2
-29 20 0 35 25 42 35 10z"/>
<path d="M5131 6516 c-82 -122 -96 -162 -54 -154 22 4 185 237 181 258 -2 8
-12 16 -23 18 -15 2 -39 -26 -104 -122z"/>
<path d="M5201 6481 c-27 -27 -28 -82 -3 -104 23 -21 86 -22 106 -1 46 46 19
116 -47 122 -26 2 -42 -3 -56 -17z m67 -57 c-4 -24 -24 -29 -32 -8 -8 20 13
49 27 35 5 -5 7 -17 5 -27z"/>
<path d="M780 13190 l0 -800 65 0 65 0 0 800 0 800 -65 0 -65 0 0 -800z"/>
<path d="M1150 13140 l0 -750 65 0 65 0 0 750 0 750 -65 0 -65 0 0 -750z"/>
</g>
</svg>
