<?xml version="1.0" standalone="no"?>
<!DOCTYPE svg PUBLIC "-//W3C//DTD SVG 20010904//EN"
 "http://www.w3.org/TR/2001/REC-SVG-20010904/DTD/svg10.dtd">
<svg version="1.0" xmlns="http://www.w3.org/2000/svg"
 width="1549.000000pt" height="1808.000000pt" viewBox="0 0 1549.000000 1808.000000"
 preserveAspectRatio="xMidYMid meet">

<g transform="translate(0.000000,1808.000000) scale(0.100000,-0.100000)"
fill="#000000" stroke="none">
<path d="M1588 15956 c-75 -27 -127 -79 -154 -153 -11 -32 -13 -1169 -14
-6754 0 -5984 2 -6721 15 -6760 21 -60 58 -104 113 -136 l47 -28 443 -3 442
-3 0 -524 0 -525 65 0 65 0 0 525 0 525 120 0 120 0 0 -525 0 -525 65 0 65 0
0 525 0 525 120 0 120 0 0 -525 0 -525 65 0 65 0 0 525 0 525 120 0 120 0 0
-525 0 -525 65 0 65 0 0 525 0 525 120 0 120 0 0 -525 0 -525 65 0 65 0 0 525
0 525 120 0 120 0 0 -525 0 -525 65 0 65 0 0 525 0 525 120 0 120 0 0 -525 0
-525 65 0 65 0 0 525 0 525 120 0 120 0 0 -525 0 -525 65 0 65 0 0 525 0 525
2718 0 c2244 1 2724 3 2755 14 55 20 103 61 134 114 l28 47 3 2033 2 2032
1596 0 1595 0 24 25 25 24 0 1776 0 1776 -25 24 -24 25 -1595 0 -1596 0 -2
2888 -3 2888 -26 49 c-28 56 -91 109 -147 125 -25 7 -1467 10 -4537 10 -3727
-1 -4506 -3 -4537 -14z m9093 -59 c24 -13 58 -43 74 -66 l30 -43 3 -2889 2
-2889 -155 0 c-152 0 -156 -1 -180 -25 l-25 -24 0 -1776 0 -1776 25 -24 c24
-24 28 -25 180 -25 l155 0 0 -2018 0 -2019 -23 -44 c-13 -24 -43 -57 -66 -74
l-43 -30 -4517 -3 -4518 -2 -44 23 c-24 13 -57 43 -74 66 l-30 43 -3 6731 -2
6731 21 43 c22 46 65 84 114 101 21 7 1419 11 4531 11 l4501 1 44 -23z m3351
-5934 c17 -15 18 -84 18 -1779 0 -1589 -2 -1764 -16 -1778 -14 -14 -189 -16
-1779 -16 -1590 0 -1765 2 -1779 16 -14 14 -16 189 -16 1776 0 1625 1 1763 17
1780 15 17 84 18 1776 18 1624 0 1762 -1 1779 -17z"/>
<path d="M6045 15011 c-96 -24 -164 -99 -215 -239 l-28 -77 -67 -22 c-86 -28
-95 -36 -95 -88 0 -23 -15 -159 -34 -301 -52 -390 -60 -454 -55 -458 3 -3 683
-133 729 -139 13 -2 18 65 37 473 12 261 22 525 22 587 1 103 0 111 -17 106
-14 -3 -22 4 -32 26 -16 39 -74 91 -102 91 -12 0 -31 9 -42 19 -26 24 -62 32
-101 22z m47 -46 c3 -3 -16 -27 -42 -53 -33 -32 -54 -66 -70 -109 -20 -55 -26
-63 -64 -77 -23 -9 -45 -16 -48 -16 -19 0 47 140 89 190 35 42 118 82 135 65z
m52 -67 c3 -13 6 -40 6 -60 0 -35 -2 -37 -52 -54 -29 -9 -59 -19 -65 -21 -30
-12 39 126 74 146 26 15 30 14 37 -11z m87 -8 c9 -14 20 -35 24 -47 6 -20 3
-23 -24 -23 -17 0 -31 3 -31 8 -1 4 -5 26 -9 50 -7 36 -6 42 7 40 8 -2 23 -14
33 -28z m-93 -344 c4 -5 -17 -134 -24 -147 -2 -4 -24 0 -49 9 -61 20 -122 4
-131 -33 -9 -37 -1 -49 70 -105 76 -60 106 -112 106 -186 -1 -126 -104 -218
-224 -200 -48 7 -135 46 -153 68 -10 11 -9 26 4 71 l16 56 41 -23 c62 -36 92
-40 116 -16 34 34 25 59 -45 124 -71 67 -85 94 -85 164 1 106 75 193 187 222
36 9 160 6 171 -4z"/>
<path d="M6360 14823 c0 -50 -39 -966 -45 -1050 -4 -63 -2 -83 7 -83 37 -2
388 76 388 86 0 6 -31 229 -70 497 -38 267 -70 489 -70 492 0 3 -26 5 -59 5
-55 0 -61 3 -101 40 -23 22 -44 40 -46 40 -2 0 -4 -12 -4 -27z"/>
<path d="M6071 11326 c-16 -20 -3 -46 24 -46 13 0 26 7 29 16 7 19 -10 44 -29
44 -7 0 -18 -6 -24 -14z"/>
<path d="M6190 11187 c0 -168 3 -177 57 -177 26 0 33 4 33 20 0 13 -7 20 -20
20 -19 0 -20 7 -20 145 l0 145 -25 0 -25 0 0 -153z"/>
<path d="M6320 11192 c0 -169 5 -186 60 -180 40 3 49 31 13 36 -23 3 -23 6
-23 148 l0 144 -25 0 -25 0 0 -148z"/>
<path d="M5801 11238 c17 -46 43 -116 57 -155 22 -60 31 -73 49 -73 23 0 24 2
99 208 19 51 34 95 34 98 0 3 -12 4 -27 2 -24 -3 -30 -13 -67 -117 l-40 -114
-39 116 c-37 113 -40 117 -68 117 l-28 0 30 -82z"/>
<path d="M6070 11137 c0 -112 6 -127 52 -127 30 0 40 26 13 36 -12 5 -15 26
-15 100 0 94 0 94 -25 94 l-25 0 0 -103z"/>
<path d="M6469 11211 c-26 -26 -29 -36 -29 -91 0 -52 4 -65 26 -87 23 -23 31
-25 84 -21 67 5 73 8 64 32 -4 10 -13 15 -25 11 -11 -3 -28 -7 -38 -11 -13 -3
-28 3 -40 15 -28 28 -26 41 3 41 59 0 106 36 106 79 0 39 -28 61 -79 61 -34 0
-49 -6 -72 -29z m99 -28 c3 -23 -30 -53 -60 -53 -25 0 -23 35 3 61 25 25 53
21 57 -8z"/>
<path d="M4790 10705 l0 -25 -1382 -3 c-761 -1 437 -2 2662 -2 2225 0 3450 1
2723 2 l-1323 3 0 25 0 25 -1340 0 -1340 0 0 -25z"/>
<path d="M2395 9985 l-25 -24 0 -1776 0 -1776 25 -24 24 -25 1776 0 1776 0 24
25 25 24 0 1776 0 1776 -25 24 -24 25 -1776 0 -1776 0 -24 -25z m3577 -22 c17
-15 18 -84 18 -1779 0 -1589 -2 -1764 -16 -1778 -14 -14 -189 -16 -1779 -16
-1590 0 -1765 2 -1779 16 -14 14 -16 189 -16 1776 0 1625 1 1763 17 1780 15
17 84 18 1776 18 1624 0 1762 -1 1779 -17z"/>
<path d="M4867 9043 c-11 -3 -16 -11 -13 -19 3 -8 3 -27 0 -43 -5 -24 -14 -31
-49 -41 -27 -8 -42 -17 -39 -24 3 -8 -17 -18 -55 -29 -123 -34 -175 -62 -422
-224 -252 -164 -440 -281 -461 -286 -6 -1 -22 -12 -36 -24 -13 -13 -28 -20
-33 -17 -5 3 -9 0 -9 -6 0 -6 -4 -9 -9 -5 -6 3 -14 -2 -19 -11 -7 -13 -20 -6
-78 46 -86 76 -148 112 -255 147 -67 22 -84 32 -81 46 3 13 14 17 53 17 27 0
49 5 49 10 0 6 -24 10 -52 10 -29 0 -142 3 -250 7 -216 7 -251 1 -263 -44 -3
-14 1 -37 10 -55 8 -17 15 -32 15 -33 0 -2 -22 -17 -49 -34 -90 -58 -194 -177
-237 -272 -10 -24 -24 -39 -34 -39 -20 0 -33 -43 -17 -59 6 -6 5 -28 -2 -61
-6 -28 -11 -83 -11 -122 0 -68 1 -70 18 -55 17 15 18 12 30 -60 36 -228 230
-438 459 -497 80 -21 246 -21 327 0 129 33 281 140 357 251 l30 43 -67 0 c-37
0 -64 3 -61 7 4 3 36 5 71 4 l63 -2 19 45 c11 25 25 46 32 46 6 0 12 -4 12 -8
0 -5 17 -18 38 -29 29 -16 43 -18 65 -11 23 8 32 6 58 -16 17 -14 27 -27 22
-27 -19 -3 55 -17 95 -18 55 -1 97 19 147 73 l40 43 103 -6 c88 -5 105 -4 112
10 7 13 -6 18 -76 34 -47 11 -83 24 -80 30 2 6 11 44 20 85 16 72 26 88 245
404 218 316 266 376 274 345 2 -8 10 -30 16 -49 7 -19 15 -42 17 -50 3 -9 -8
-22 -28 -35 -62 -36 -172 -157 -211 -232 -21 -40 -44 -73 -51 -73 -7 0 -12
-14 -12 -37 -1 -21 -7 -80 -14 -130 -15 -101 -6 -195 27 -300 15 -49 33 -70
33 -40 0 6 14 -13 31 -44 113 -209 320 -333 554 -332 188 0 313 51 446 183 63
63 95 104 121 157 147 294 49 644 -228 820 -61 38 -72 49 -58 56 14 8 12 12
-17 24 -105 44 -300 58 -412 28 -64 -17 -81 -13 -72 16 4 10 3 19 -2 19 -5 0
-16 15 -25 33 -24 47 -100 298 -93 305 3 4 14 1 25 -6 10 -6 44 -14 74 -17
l56 -5 0 39 c0 22 -4 41 -10 43 -5 2 -6 18 -1 41 10 42 -3 48 -51 23 -23 -12
-28 -13 -28 -1 0 12 -54 47 -69 44 -3 -1 -14 -3 -24 -6z m-37 -113 c0 -5 -8
-10 -17 -10 -15 0 -16 2 -3 10 19 12 20 12 20 0z m-96 -116 c13 -34 3 -56 -91
-190 -111 -160 -374 -540 -417 -601 -30 -45 -108 -85 -127 -66 -12 12 -139
415 -139 440 0 12 41 43 128 97 70 44 204 128 299 188 201 128 330 177 347
132z m69 -125 c4 -16 1 -20 -15 -17 -29 4 -48 36 -28 48 17 11 36 -2 43 -31z
m-24 -38 c-26 -4 -55 -13 -65 -21 -18 -14 -18 -13 0 8 15 17 29 22 65 21 l46
-2 -46 -6z m-1616 -95 c4 -10 -8 -16 -49 -21 -46 -5 -131 -27 -204 -51 -8 -3
-21 5 -28 17 -11 18 -12 26 -1 45 12 23 16 24 145 24 103 0 133 -3 137 -14z
m105 2 c-3 -7 -24 -14 -49 -16 -41 -3 -43 -2 -24 12 25 19 78 21 73 4z m1692
-48 c12 -8 9 -10 -13 -10 -16 0 -26 4 -22 10 8 12 16 12 35 0z m-1795 -71 c-6
-9 -45 -8 -45 2 0 4 11 7 25 7 13 0 22 -4 20 -9z m2140 -9 c13 -6 15 -9 5 -9
-8 0 -22 4 -30 9 -18 12 -2 12 25 0z m-2105 -56 c0 -16 -83 -244 -89 -244 -3
0 -34 46 -68 103 -46 76 -58 104 -48 109 40 23 205 49 205 32z m121 -10 c67
-20 169 -71 169 -84 0 -6 6 -10 13 -10 22 0 58 -45 51 -63 -3 -9 -10 -14 -15
-11 -5 3 -12 -2 -15 -10 -3 -9 -10 -14 -14 -11 -4 2 -19 -6 -34 -20 -15 -13
-28 -23 -31 -22 -2 1 -15 -7 -27 -18 -13 -11 -27 -19 -31 -17 -4 1 -10 -5 -13
-13 -3 -8 -10 -12 -15 -9 -5 3 -21 -8 -36 -23 -14 -15 -23 -22 -19 -15 7 11 4
11 -15 0 -13 -7 -26 -16 -29 -19 -13 -15 -56 -39 -69 -39 -8 0 -11 3 -8 7 4 3
-2 13 -13 20 -11 8 -18 19 -15 24 4 5 1 9 -4 9 -20 0 -11 56 28 170 66 195 53
180 142 154z m1969 8 c0 -5 11 -7 24 -5 63 12 212 -64 292 -149 75 -79 145
-234 131 -287 -3 -11 0 -22 6 -24 14 -4 -8 -170 -23 -175 -6 -2 -8 -8 -5 -13
9 -14 -32 -99 -77 -157 -46 -59 -145 -135 -165 -128 -7 3 -12 0 -10 -6 1 -6
-23 -20 -53 -32 -74 -28 -251 -30 -323 -3 -63 23 -138 64 -157 86 -8 9 -22 20
-31 23 -22 8 -110 128 -103 139 3 5 1 9 -5 9 -13 0 -47 112 -55 181 -8 61 8
182 24 187 6 2 8 8 5 12 -3 5 1 25 9 45 l15 36 143 -3 143 -3 2 -82 c1 -60 -3
-85 -13 -94 -19 -15 -18 -40 1 -33 11 4 15 -1 16 -17 0 -13 3 -18 6 -11 6 15
57 16 84 2 25 -14 24 -34 -3 -54 l-23 -16 30 2 c18 2 29 8 28 16 -4 17 16 15
23 -3 5 -12 10 -13 20 -4 8 6 14 8 14 3 0 -5 5 -2 10 6 8 11 9 8 4 -12 -4 -18
-2 -28 5 -28 6 0 11 19 11 44 0 25 5 48 11 52 8 5 6 10 -5 16 -9 5 -16 14 -16
19 0 6 -7 17 -15 26 -9 8 -14 20 -12 27 2 6 -2 17 -10 24 -19 20 -16 32 10 33
18 1 17 3 -7 8 -26 5 -34 20 -92 156 -35 83 -64 155 -64 162 0 7 17 15 38 18
20 4 42 8 47 9 29 7 115 6 115 -2z m-1387 -113 c2 -13 9 -37 15 -52 7 -15 15
-40 18 -55 4 -15 15 -53 25 -85 11 -31 23 -85 28 -119 8 -58 7 -63 -18 -90
-17 -19 -41 -33 -67 -37 l-41 -8 -6 81 c-9 117 -26 179 -78 284 l-46 93 66 43
66 43 17 -37 c9 -20 19 -47 21 -61z m-847 -112 c99 -170 100 -172 75 -176
l-26 -4 29 -6 c16 -3 34 -14 40 -23 9 -14 6 -21 -12 -34 -12 -8 -20 -19 -17
-24 7 -12 -5 -40 -18 -40 -6 0 -19 7 -29 17 -17 15 -18 15 -18 -2 0 -10 10
-26 22 -36 11 -11 16 -19 11 -19 -6 0 -13 -9 -16 -20 -5 -21 16 -45 33 -35 5
3 10 -1 10 -9 0 -9 5 -16 11 -16 5 0 7 -5 4 -10 -3 -6 -18 -7 -33 -3 -24 5
-25 4 -14 -9 10 -13 10 -17 -3 -22 -9 -3 -13 -2 -10 4 4 6 -7 8 -27 6 -18 -2
-39 1 -46 7 -23 18 -36 -7 -25 -49 6 -26 18 -44 35 -54 25 -14 29 -13 47 6 11
12 21 30 23 40 4 26 18 34 53 33 l30 -1 -30 -8 c-24 -6 -18 -8 31 -9 69 -1 81
7 85 59 2 19 7 40 12 47 5 7 1 13 -11 17 -11 4 -22 18 -25 32 -3 18 -1 22 6
15 6 -6 16 -7 28 0 13 7 20 5 28 -8 6 -10 11 -13 11 -8 0 7 15 9 35 7 30 -4
33 -6 24 -23 -12 -23 -13 -23 109 -49 132 -28 172 -39 172 -50 0 -9 -13 -33
-52 -101 -25 -43 -119 -127 -179 -159 -66 -35 -178 -62 -248 -59 -105 3 -230
46 -290 98 -13 12 -28 21 -32 21 -13 0 -109 123 -103 132 3 4 1 8 -4 8 -12 0
-44 69 -37 81 4 5 2 9 -4 9 -5 0 -14 31 -21 69 -27 162 24 324 138 439 47 47
107 92 122 92 3 0 50 -78 106 -173z m1958 101 c15 -35 34 -77 42 -94 l13 -32
-136 -1 -135 -1 17 27 c35 54 145 163 165 163 3 0 18 -28 34 -62z m-1371 -149
c21 -41 40 -93 41 -116 2 -22 6 -45 8 -49 12 -21 7 -85 -7 -90 -14 -6 -281 32
-297 42 -5 3 -7 13 -6 21 2 9 -3 18 -11 21 -9 3 -11 0 -6 -9 6 -11 5 -11 -5
-2 -9 8 -19 9 -32 2 -12 -6 -18 -6 -18 1 0 5 -10 20 -22 32 l-21 21 24 19 c47
38 294 187 304 184 6 -1 27 -36 48 -77z m1461 -44 c3 -8 1 -15 -4 -15 -6 0
-10 7 -10 15 0 8 2 15 4 15 2 0 6 -7 10 -15z m46 -105 c0 -5 -2 -10 -4 -10 -3
0 -8 5 -11 10 -3 6 -1 10 4 10 6 0 11 -4 11 -10z m-1052 -22 c-3 -7 -15 -15
-28 -16 -21 -3 -22 -2 -11 12 16 19 44 21 39 4z m1037 -8 c3 -5 -1 -10 -10
-10 -9 0 -13 5 -10 10 3 6 8 10 10 10 2 0 7 -4 10 -10z m-1685 -60 l105 -18
-127 3 c-129 3 -162 10 -137 26 19 12 37 10 159 -11z m-252 -111 c13 -21 13
-21 -17 -3 -16 10 -28 21 -25 25 7 12 28 1 42 -22z m387 17 c28 -8 43 -15 35
-15 -8 0 -37 6 -65 13 -27 8 -43 15 -35 15 8 0 38 -6 65 -13z m82 -22 c-3 -3
-12 -4 -19 -1 -8 3 -5 6 6 6 11 1 17 -2 13 -5z m176 -31 c-7 -2 -19 -2 -25 0
-7 3 -2 5 12 5 14 0 19 -2 13 -5z m137 -33 c0 -5 -4 -10 -10 -10 -5 0 -10 5
-10 10 0 6 5 10 10 10 6 0 10 -4 10 -10z m487 -6 c-3 -3 -12 -4 -19 -1 -8 3
-5 6 6 6 11 1 17 -2 13 -5z m-1407 -64 c0 -5 -2 -10 -4 -10 -3 0 -8 5 -11 10
-3 6 -1 10 4 10 6 0 11 -4 11 -10z m1750 -91 c0 -6 10 -19 23 -30 12 -10 17
-18 11 -19 -5 0 -23 14 -39 30 -22 23 -25 30 -12 30 9 0 17 -5 17 -11z m-1226
-59 c-40 -41 -54 -48 -54 -29 0 5 4 8 9 5 5 -3 21 10 35 29 15 19 32 35 38 35
6 0 -7 -18 -28 -40z m-702 -51 c16 -12 27 -23 24 -26 -6 -6 -66 29 -66 39 0
13 10 9 42 -13z m2058 -8 c0 -5 14 -14 32 -22 17 -7 26 -15 20 -17 -14 -4 -92
45 -92 58 0 7 7 7 20 0 11 -6 20 -14 20 -19z m546 4 c-11 -8 -25 -15 -30 -15
-6 1 0 7 14 15 32 19 40 18 16 0z m-1988 -6 c-2 -6 -8 -11 -13 -12 -6 0 -19
-9 -29 -19 -21 -19 -36 -23 -36 -10 0 6 67 50 78 52 2 0 2 -5 0 -11z m2041
-20 c-21 -14 -122 -50 -141 -52 -10 -1 -18 -4 -18 -7 0 -4 -6 -7 -12 -8 -108
-8 -178 -9 -178 -3 0 5 32 9 71 10 79 1 172 26 240 64 25 15 46 21 48 15 2 -6
-3 -14 -10 -19z m-109 1 c-8 -5 -19 -10 -25 -10 -5 0 -3 5 5 10 8 5 20 10 25
10 6 0 3 -5 -5 -10z m-2485 -10 c3 -5 -1 -10 -9 -10 -9 0 -16 5 -16 10 0 6 4
10 9 10 6 0 13 -4 16 -10z m63 -24 c15 -7 35 -12 45 -11 9 2 17 -1 17 -6 0 -6
4 -7 10 -4 5 3 18 2 27 -4 16 -9 15 -10 -7 -9 -40 1 -130 28 -130 38 0 13 6
13 38 -4z m109 8 c-3 -3 -12 -4 -19 -1 -8 3 -5 6 6 6 11 1 17 -2 13 -5z m243
-24 c-19 -12 -30 -12 -30 -1 0 10 31 20 40 14 2 -2 -2 -8 -10 -13z m1710 4 c0
-2 -7 -4 -15 -4 -8 0 -15 4 -15 10 0 5 7 7 15 4 8 -4 15 -8 15 -10z m97 -18
c2 -2 0 -7 -6 -11 -6 -3 -11 -1 -11 5 0 6 -5 8 -10 5 -14 -8 -52 4 -45 15 5 8
61 -3 72 -14z m-1852 4 c-3 -5 -10 -10 -16 -10 -5 0 -9 5 -9 10 0 6 7 10 16
10 8 0 12 -4 9 -10z m-145 -12 c0 -4 -9 -8 -20 -8 -11 0 -20 4 -20 9 0 6 9 9
20 8 11 -1 20 -5 20 -9z m94 0 c-7 -11 -74 -10 -74 2 0 5 18 9 40 8 21 -1 37
-5 34 -10z"/>
<path d="M5280 8021 c0 -3 9 -12 20 -19 16 -10 20 -10 20 2 0 7 -9 16 -20 19
-11 3 -20 2 -20 -2z"/>
<path d="M5360 7944 c0 -8 5 -12 10 -9 6 4 8 11 5 16 -9 14 -15 11 -15 -7z"/>
<path d="M5290 7919 c0 -9 11 -21 25 -27 16 -7 25 -8 25 -1 0 5 -8 13 -17 16
-10 4 -21 11 -25 17 -5 7 -8 5 -8 -5z"/>
<path d="M5372 7843 c-6 -2 -10 -9 -6 -14 8 -14 21 -11 21 6 0 8 -1 15 -1 14
-1 0 -7 -3 -14 -6z"/>
<path d="M5093 7832 c-8 -5 -9 -13 -3 -22 8 -13 11 -13 22 -1 11 11 11 13 -1
6 -11 -6 -13 -4 -8 8 7 19 7 20 -10 9z"/>
<path d="M5166 7751 c-5 -8 -3 -17 5 -22 21 -13 29 -11 29 7 0 8 -4 13 -9 10
-5 -4 -11 -1 -13 6 -3 9 -6 9 -12 -1z"/>
<path d="M5275 7730 c3 -5 8 -10 11 -10 2 0 4 5 4 10 0 6 -5 10 -11 10 -5 0
-7 -4 -4 -10z"/>
<path d="M3105 8000 c-3 -6 1 -7 9 -4 18 7 21 14 7 14 -6 0 -13 -4 -16 -10z"/>
<path d="M3095 7939 c-4 -6 -5 -12 -2 -15 2 -3 7 2 10 11 7 17 1 20 -8 4z"/>
<path d="M3330 7991 c0 -5 6 -12 13 -14 7 -3 5 -6 -5 -6 -22 -1 -23 -17 -2
-25 8 -3 12 -2 9 4 -3 6 -1 10 4 10 6 0 11 -5 11 -12 0 -6 2 -9 5 -6 8 8 -13
58 -25 58 -5 0 -10 -4 -10 -9z"/>
<path d="M3296 7967 c3 -10 9 -15 12 -12 3 3 0 11 -7 18 -10 9 -11 8 -5 -6z"/>
<path d="M3608 7893 c7 -3 16 -2 19 1 4 3 -2 6 -13 5 -11 0 -14 -3 -6 -6z"/>
<path d="M3563 8973 c-19 -7 -16 -33 4 -33 9 0 24 -7 33 -15 10 -9 31 -17 48
-20 17 -2 46 -16 65 -31 31 -24 40 -44 84 -188 40 -129 50 -174 49 -227 l-1
-66 50 30 c71 41 625 408 625 414 0 7 -9 1 -297 -189 -149 -99 -276 -177 -282
-174 -20 13 -53 102 -131 357 -15 50 56 99 146 99 73 0 93 10 69 34 -14 14
-45 16 -233 15 -119 0 -223 -3 -229 -6z m224 -59 c-3 -3 -12 -4 -19 -1 -8 3
-5 6 6 6 11 1 17 -2 13 -5z m63 2 c0 -9 -30 -14 -35 -6 -4 6 3 10 14 10 12 0
21 -2 21 -4z m64 -458 c-11 -17 -24 -6 -24 19 0 26 1 26 14 8 8 -11 12 -23 10
-27z"/>
<path d="M4685 8900 c-13 -6 -15 -9 -5 -9 8 0 22 4 30 9 18 12 2 12 -25 0z"/>
<path d="M2781 6794 c-37 -31 -50 -84 -30 -125 8 -15 47 -62 88 -104 58 -59
79 -75 95 -71 12 3 55 42 96 88 72 79 75 84 75 131 0 42 -4 52 -33 78 -37 33
-84 38 -121 13 -22 -16 -25 -16 -51 0 -41 23 -84 20 -119 -10z"/>
<path d="M3406 6804 c-13 -12 -16 -39 -16 -130 0 -63 3 -114 7 -114 3 0 21 11
39 25 29 22 42 25 118 25 102 0 106 4 106 109 0 97 -6 101 -135 101 -81 0
-107 -3 -119 -16z m223 -18 c7 -9 11 -41 9 -83 l-3 -68 -92 -3 c-65 -2 -95 -7
-103 -17 -7 -8 -16 -15 -21 -15 -10 0 -12 183 -2 193 3 4 50 7 103 7 72 0 101
-4 109 -14z"/>
<path d="M3488 6743 c23 -2 59 -2 80 0 20 2 1 4 -43 4 -44 0 -61 -2 -37 -4z"/>
<path d="M3455 6700 c3 -5 26 -10 51 -10 24 0 44 5 44 10 0 6 -23 10 -51 10
-31 0 -48 -4 -44 -10z"/>
<path d="M3683 6712 c13 -14 17 -39 17 -107 0 -85 -1 -87 -18 -72 -14 13 -38
17 -101 17 -74 0 -83 2 -88 20 -3 11 -9 20 -14 20 -12 0 -11 -17 1 -41 9 -16
22 -19 91 -19 66 0 86 -4 106 -20 14 -11 30 -20 34 -20 5 0 9 49 9 108 0 109
-7 132 -39 132 -12 0 -11 -3 2 -18z"/>
<path d="M6425 9985 l-25 -24 0 -1776 0 -1776 25 -24 24 -25 1776 0 1776 0 24
25 25 24 0 1776 0 1776 -25 24 -24 25 -1776 0 -1776 0 -24 -25z m3577 -22 c17
-15 18 -84 18 -1779 0 -1589 -2 -1764 -16 -1778 -14 -14 -189 -16 -1779 -16
-1590 0 -1765 2 -1779 16 -14 14 -16 189 -16 1776 0 1625 1 1763 17 1780 15
17 84 18 1776 18 1624 0 1762 -1 1779 -17z"/>
<path d="M8683 9236 c-13 -6 -23 -14 -23 -18 0 -12 35 -9 47 3 8 8 15 5 24
-12 11 -22 11 -23 -4 -11 -9 8 -20 11 -25 8 -5 -3 -31 -8 -58 -11 -27 -4 -53
-10 -59 -15 -6 -5 -34 -12 -64 -16 -55 -7 -75 -26 -50 -48 11 -10 26 -9 74 5
33 10 54 18 46 18 -8 1 -12 3 -9 6 3 3 15 2 28 -3 20 -8 15 -12 -45 -33 -68
-24 -87 -41 -67 -61 8 -8 32 -3 84 17 40 15 93 29 118 30 39 2 46 0 47 -16 1
-10 -4 -19 -12 -19 -18 0 -75 -49 -75 -63 0 -7 5 -4 11 6 9 16 65 47 84 47 14
0 3 -41 -14 -49 -19 -10 -36 -51 -21 -51 4 0 10 -22 14 -49 3 -27 15 -60 26
-74 11 -14 23 -39 26 -56 4 -17 10 -34 15 -37 24 -14 -16 -86 -165 -289 -283
-389 -389 -540 -389 -552 0 -7 -4 -10 -8 -7 -5 2 -17 -13 -28 -34 -11 -22 -27
-42 -36 -46 -13 -4 -14 -2 -5 14 9 17 8 19 -7 13 -12 -5 -5 10 20 42 30 41
345 477 545 758 24 33 50 66 58 74 8 8 12 19 8 24 -3 5 -16 -5 -28 -23 -37
-54 -166 -233 -290 -403 -64 -88 -155 -213 -202 -277 -46 -65 -89 -118 -94
-118 -5 0 -7 -6 -5 -12 4 -10 -14 -12 -77 -8 -59 4 -82 9 -81 18 2 6 -2 12 -9
12 -6 0 -9 3 -5 6 3 4 0 19 -8 34 -8 15 -12 30 -10 32 3 2 -4 23 -15 46 -11
22 -20 48 -20 56 0 9 -9 30 -20 48 -11 18 -20 39 -20 45 0 7 -21 63 -46 125
-25 62 -45 123 -45 134 0 13 -7 24 -18 27 -11 3 -22 17 -26 35 -3 17 -13 36
-21 43 -8 6 -14 22 -14 35 0 34 -56 154 -72 154 -7 1 4 10 24 21 21 10 42 28
47 38 6 10 26 22 45 25 20 4 52 14 72 22 30 13 34 17 23 30 -16 20 -151 13
-194 -10 -34 -18 -81 -23 -55 -6 21 14 -165 13 -191 0 -23 -13 -25 -30 -3 -30
9 0 14 -6 11 -12 -2 -7 -10 -12 -16 -11 -6 2 -11 -2 -11 -7 0 -6 3 -11 8 -12
14 -3 57 -9 82 -11 14 -1 31 -6 39 -11 9 -6 12 -5 8 1 -8 13 18 24 38 17 17
-7 18 -13 7 -32 -5 -8 -16 -10 -27 -6 -13 5 -16 4 -11 -4 4 -7 16 -12 27 -12
10 0 19 -5 19 -10 0 -6 11 -16 25 -22 14 -6 25 -15 25 -19 0 -4 5 -20 12 -36
6 -15 10 -35 9 -45 -1 -9 3 -19 8 -23 7 -4 9 1 5 12 -5 15 -4 16 5 3 6 -8 8
-23 5 -34 -5 -13 -3 -16 7 -11 9 6 11 3 6 -8 -8 -21 12 -79 24 -71 5 3 9 1 9
-5 0 -5 -5 -13 -10 -16 -6 -4 -8 -11 -4 -16 3 -6 12 -3 21 8 8 10 12 13 9 7
-3 -6 3 -33 13 -60 28 -74 35 -102 21 -84 -10 13 -11 12 -6 -3 3 -10 6 -23 6
-28 0 -6 4 -8 9 -5 5 3 12 -1 15 -10 3 -8 2 -13 -3 -10 -5 3 -11 -1 -15 -9 -7
-19 -26 -20 -26 -1 0 17 -24 38 -33 29 -4 -3 -1 -13 6 -22 10 -14 10 -14 -3
-5 -8 6 -26 10 -40 9 -16 -2 -36 8 -55 25 -33 31 -181 124 -229 144 -59 24
-86 28 -86 11 0 -8 -4 -15 -10 -15 -11 0 -12 15 -4 48 5 17 13 22 42 22 19 0
32 3 28 8 -10 9 -595 2 -621 -9 -15 -6 -10 -8 22 -8 l42 -1 -6 -57 c-4 -38 -3
-54 4 -50 6 4 14 0 17 -9 8 -22 8 -26 -4 -19 -16 10 -123 -69 -179 -132 -29
-32 -68 -91 -88 -131 -28 -56 -40 -71 -53 -67 -12 4 -19 -1 -23 -15 -4 -17 -2
-20 15 -14 19 6 20 3 14 -22 -24 -110 -28 -149 -23 -234 14 -261 158 -457 432
-586 77 -36 84 -38 211 -42 l131 -4 99 42 c113 48 199 104 262 168 42 44 102
124 102 137 0 4 -37 3 -82 -1 -81 -7 -83 -7 -152 -65 -176 -144 -373 -168
-576 -71 -133 63 -246 205 -279 352 -13 58 -13 172 0 230 25 111 107 234 206
310 27 21 30 28 22 49 l-9 23 -36 -27 c-34 -26 -35 -26 -22 -4 7 13 21 30 31
37 11 9 16 21 13 35 -13 52 31 -61 80 -205 57 -171 70 -199 91 -211 13 -8 30
-42 38 -77 16 -69 17 -80 5 -80 -6 0 -14 10 -18 22 -5 21 -6 21 -12 2 -5 -11
-1 -30 8 -46 20 -34 13 -42 -24 -27 -16 6 -76 20 -134 31 -176 33 -170 33
-169 12 0 -11 3 -14 6 -6 2 6 9 12 15 12 6 0 8 -6 5 -13 -3 -8 -2 -19 1 -25
10 -14 185 -42 253 -39 42 1 55 -1 52 -10 -3 -8 4 -13 18 -13 12 0 30 -7 39
-15 10 -9 31 -17 49 -18 17 -1 31 -3 31 -3 0 -1 -7 -17 -15 -35 -21 -48 -36
-65 -65 -72 -14 -3 -33 -12 -44 -20 -18 -13 -17 -15 13 -37 29 -20 36 -21 57
-10 18 10 22 19 18 37 -5 18 1 32 21 53 15 16 24 33 21 39 -4 6 -1 9 7 5 10
-3 20 6 28 25 13 28 18 31 60 31 39 0 48 4 60 26 7 15 12 37 11 49 -2 17 5 25
28 35 26 11 50 10 143 -3 62 -9 159 -22 217 -28 58 -7 108 -17 113 -23 5 -8
10 -6 17 4 7 11 10 12 10 2 0 -7 -7 -20 -15 -28 -8 -8 -12 -21 -9 -29 4 -10 0
-15 -12 -16 -18 0 -18 -1 1 -10 11 -6 32 -30 47 -54 32 -54 89 -85 153 -85 63
0 105 20 147 69 35 42 36 42 89 36 38 -4 48 -2 34 4 -19 9 -19 10 3 10 12 1
22 -3 22 -8 0 -5 19 -8 43 -7 23 1 47 -2 53 -6 7 -5 14 -3 18 7 9 24 -5 46
-28 44 -11 -1 -33 3 -48 9 -15 6 -49 14 -77 18 -49 6 -49 6 -53 48 -6 55 9 79
272 440 154 212 219 294 230 290 75 -28 150 -29 150 -3 0 8 -5 7 -15 -1 -18
-15 -93 -6 -120 14 -17 12 -15 17 25 69 23 32 46 57 51 57 5 0 13 -10 18 -22
5 -13 26 -62 45 -109 35 -83 45 -119 27 -90 -7 12 -15 10 -42 -7 -49 -30 -130
-117 -180 -192 -53 -80 -48 -74 -54 -68 -19 18 159 232 234 281 13 8 21 21 19
27 -6 18 -123 -75 -180 -143 -27 -33 -63 -84 -80 -113 -16 -30 -34 -54 -39
-54 -5 0 -8 -10 -7 -22 0 -13 -7 -50 -18 -83 -24 -79 -25 -265 -2 -345 30
-102 58 -165 58 -132 0 26 19 9 54 -48 68 -111 175 -204 294 -257 31 -14 82
-37 112 -51 49 -24 67 -27 170 -27 101 0 119 3 150 22 19 12 60 31 90 43 82
32 182 103 248 175 55 60 128 183 137 230 2 11 4 22 5 25 1 3 2 9 1 14 -1 4 2
13 7 20 5 6 8 22 7 36 -1 14 3 28 8 32 8 4 5 13 -6 26 -20 22 -23 39 -3 23 11
-10 14 -7 12 14 -1 27 -11 33 -19 13 -4 -10 -6 -10 -6 0 -1 7 5 20 13 27 11
11 12 23 4 55 -6 22 -14 37 -19 34 -5 -3 -9 0 -9 5 0 6 4 11 9 11 6 0 6 12 1
30 -5 17 -6 30 -3 30 3 0 0 7 -7 15 -6 8 -9 19 -5 25 3 5 2 10 -3 10 -9 0 -27
47 -24 62 1 3 -5 8 -12 11 -10 4 -12 -1 -8 -16 6 -26 0 -21 -17 11 -7 12 -8
22 -4 21 20 -3 23 2 9 17 -9 8 -14 19 -11 24 3 4 -2 11 -11 14 -8 3 -12 12 -9
18 4 7 0 5 -8 -5 -14 -16 -14 -16 -14 6 0 27 -128 161 -144 152 -5 -4 -9 -1
-9 5 0 19 -141 79 -228 98 -59 13 -79 21 -72 28 8 8 5 13 -10 17 -16 4 -24 1
-27 -14 -4 -15 -14 -19 -45 -19 -32 0 -116 -14 -210 -34 -11 -3 -15 1 -11 12
5 12 2 14 -11 9 -10 -4 -20 -7 -22 -7 -3 0 0 -9 6 -21 6 -11 10 -25 8 -31 -2
-6 -17 24 -32 68 -15 43 -34 93 -42 111 -8 17 -14 34 -14 37 0 4 -22 64 -49
135 -28 70 -50 136 -51 147 0 10 -2 70 -3 131 l-3 113 33 6 c44 8 57 28 14 22
-43 -6 -39 6 10 25 40 16 41 16 36 -3 -3 -11 -1 -18 4 -14 5 3 9 14 9 24 0 10
8 24 18 29 9 6 12 11 7 11 -6 0 -15 -4 -20 -8 -6 -5 -23 -14 -39 -21 -26 -11
-28 -10 -17 3 10 12 8 15 -11 18 -14 2 -22 9 -20 18 3 12 1 13 -10 2 -11 -11
-10 -16 5 -26 16 -12 15 -14 -15 -18 -20 -3 -38 0 -46 8 -11 12 -9 14 15 15
26 2 25 2 -7 9 -30 6 -31 8 -10 10 14 1 29 2 33 1 4 -1 17 5 28 13 29 20 8 28
-25 10 -35 -17 -80 -19 -70 -2 5 7 2 9 -8 5 -9 -3 -19 -2 -24 2 -5 4 -19 3
-31 -3z m21 -121 c-21 -16 -34 -19 -34 -7 0 8 42 30 49 25 3 -2 -4 -10 -15
-18z m61 15 c-3 -5 -11 -10 -16 -10 -6 0 -7 5 -4 10 3 6 11 10 16 10 6 0 7 -4
4 -10z m-1193 -285 c-2 -5 -9 -8 -15 -6 -7 2 -25 7 -42 12 -26 7 -24 7 15 6
25 -1 43 -6 42 -12z m152 -49 c-6 -16 -59 -38 -69 -28 -3 3 9 14 27 24 41 21
49 22 42 4z m1146 -226 c0 -5 -8 -10 -18 -10 -22 0 -51 -30 -127 -132 -31 -43
-60 -78 -62 -78 -3 0 10 19 27 43 17 23 55 74 83 114 38 52 58 72 75 72 12 1
22 -3 22 -9z m-1139 -53 c-10 -9 -11 -8 -5 6 3 10 9 15 12 12 3 -3 0 -11 -7
-18z m-466 -47 c3 -6 -1 -13 -9 -16 -9 -3 -16 -12 -16 -18 0 -9 -22 -13 -75
-13 -66 0 -75 3 -75 18 0 24 -26 14 -33 -12 -6 -22 -27 -26 -27 -4 0 20 -23
19 -89 -4 -36 -13 -61 -16 -75 -11 -12 5 -15 9 -8 9 7 1 17 12 22 25 8 21 17
25 62 29 122 8 317 7 323 -3z m39 -54 c-10 -26 -24 -7 -24 32 l1 37 14 -27 c8
-15 12 -34 9 -42z m-441 29 c-3 -9 -8 -14 -10 -11 -3 3 -2 9 2 15 9 16 15 13
8 -4z m514 -51 c-3 -3 -12 -4 -19 -1 -8 3 -5 6 6 6 11 1 17 -2 13 -5z m91 -25
c41 -9 134 -65 169 -101 45 -47 17 -43 -49 7 -35 26 -94 63 -133 82 -38 18
-59 30 -45 27 14 -4 40 -10 58 -15z m-308 -19 c-8 -5 -35 -12 -60 -16 -62 -8
-159 -35 -166 -45 -7 -12 -34 -11 -34 0 0 15 152 61 202 61 26 0 50 5 53 11 4
6 10 8 13 4 4 -3 0 -10 -8 -15z m2241 0 c5 0 9 -4 9 -10 0 -5 -13 -10 -30 -10
-29 0 -38 9 -23 24 4 3 13 4 21 1 7 -3 18 -5 23 -5z m-2121 -24 c0 -16 -2 -18
-9 -7 -5 8 -26 17 -47 21 l-39 8 48 -1 c41 0 47 -3 47 -21z m165 -37 c90 -45
151 -92 140 -108 -4 -7 -27 6 -62 35 -66 53 -98 71 -164 90 -27 8 -49 20 -49
25 0 17 47 3 135 -42z m1195 21 c-12 -16 -24 -30 -26 -30 -3 0 4 14 16 30 12
17 24 30 26 30 3 0 -4 -13 -16 -30z m425 -58 c1 -2 22 2 44 9 23 7 38 15 32
18 -5 3 37 7 94 9 94 3 148 -5 242 -34 10 -3 7 2 -7 10 -14 8 -20 15 -15 15
14 0 63 -28 50 -29 -5 0 9 -12 33 -26 23 -14 46 -23 51 -20 10 7 121 -90 121
-106 0 -5 -6 -6 -12 -2 -8 4 -10 3 -5 -2 5 -5 14 -9 20 -9 12 0 71 -96 82
-134 5 -18 4 -22 -6 -16 -9 6 -10 3 -5 -10 3 -10 12 -49 18 -86 49 -287 -187
-575 -487 -594 -75 -4 -186 14 -237 40 -17 8 -35 15 -40 15 -16 0 -123 78
-160 117 -20 21 -49 59 -66 85 -16 26 -33 44 -37 40 -5 -4 -5 -1 -1 5 8 14
-13 95 -23 89 -3 -2 -7 31 -9 73 -3 86 12 204 28 209 6 2 8 7 6 11 -3 4 5 25
17 46 l23 40 129 0 130 0 10 -32 c5 -18 13 -33 17 -33 11 0 10 2 -8 46 -53
126 -63 162 -48 168 16 6 38 -38 104 -202 18 -45 34 -81 36 -79 4 4 -42 129
-115 311 -50 125 -70 196 -30 106 11 -24 22 -46 24 -48z m447 63 c28 -10 45
-22 41 -28 -4 -6 0 -8 10 -4 10 3 17 3 17 -2 0 -5 13 -14 29 -21 40 -16 66
-46 50 -56 -8 -4 -10 -3 -5 4 4 7 1 12 -8 12 -9 0 -16 5 -16 10 0 6 -6 10 -14
10 -8 0 -16 3 -18 8 -4 9 -119 66 -138 68 -36 3 -40 5 -40 15 0 13 21 9 92
-16z m-204 -12 c-16 -2 -40 -2 -55 0 -16 2 -3 4 27 4 30 0 43 -2 28 -4z m-328
-38 c0 -5 -5 -3 -10 5 -5 8 -10 20 -10 25 0 6 5 3 10 -5 5 -8 10 -19 10 -25z
m217 29 c-3 -3 -12 -4 -19 -1 -8 3 -5 6 6 6 11 1 17 -2 13 -5z m196 -1 c-7 -2
-19 -2 -25 0 -7 3 -2 5 12 5 14 0 19 -2 13 -5z m-2156 -98 c-67 -214 -82 -250
-101 -253 -13 -3 -16 0 -11 8 8 13 -17 10 -58 -5 -10 -4 -19 8 -32 42 -9 26
-35 93 -56 147 -22 54 -38 100 -37 101 2 1 23 10 48 19 68 25 128 35 205 33
l71 -2 -29 -90z m2200 89 c-3 -3 -12 -4 -19 -1 -8 3 -5 6 6 6 11 1 17 -2 13
-5z m-2043 -48 c40 -19 92 -52 117 -74 40 -36 47 -38 63 -26 11 7 23 11 28 8
5 -3 16 0 24 7 8 6 17 9 20 6 6 -6 -34 -32 -51 -32 -5 -1 -20 -6 -31 -13 -12
-6 -25 -8 -29 -4 -4 4 -6 0 -3 -8 3 -9 15 -14 28 -12 30 3 38 9 -124 -98 -130
-85 -141 -91 -153 -74 -7 10 -13 21 -13 26 0 4 -5 8 -10 8 -6 0 -8 -10 -4 -24
6 -24 -10 -44 -20 -27 -4 5 -2 12 3 16 18 10 0 36 -20 30 -24 -8 -24 -8 2 79
12 39 22 76 24 81 16 72 52 165 63 165 8 0 47 -15 86 -34z m2186 -22 c0 -2 -9
0 -20 6 -11 6 -20 13 -20 16 0 2 9 0 20 -6 11 -6 20 -13 20 -16z m-2780 -1 c0
-9 -3 -14 -6 -10 -3 3 -18 -8 -32 -26 -14 -18 -41 -49 -61 -69 -19 -21 -32
-38 -28 -38 8 0 -32 -78 -44 -86 -5 -3 -9 4 -9 16 0 11 7 23 15 26 8 4 15 15
15 26 0 11 17 37 38 57 21 21 36 43 34 51 -3 7 0 10 7 6 6 -4 11 -1 11 6 0 10
46 56 58 58 1 0 2 -7 2 -17z m188 -148 c53 -142 60 -167 43 -149 -8 7 -111
290 -111 304 0 19 25 -36 68 -155z m877 135 c-3 -5 -10 -10 -16 -10 -5 0 -9 5
-9 10 0 6 7 10 16 10 8 0 12 -4 9 -10z m-22 -37 c10 -22 14 -28 11 -13 -6 32
10 7 20 -30 6 -19 5 -21 -3 -10 -14 19 -14 11 0 -29 9 -26 14 -29 25 -20 12
10 13 9 8 -5 -3 -9 -1 -16 6 -16 6 0 8 -5 4 -11 -4 -8 -9 -7 -15 2 -16 25 -10
3 26 -95 l35 -96 -43 0 -43 0 -17 73 c-9 39 -36 111 -59 158 l-43 87 30 21
c16 11 33 21 36 21 3 0 14 -17 22 -37z m1188 -38 c16 -38 29 -73 29 -77 0 -4
-49 -8 -110 -8 -71 0 -110 4 -110 11 0 17 137 152 150 147 6 -2 25 -35 41 -73z
m-101 52 c0 -2 -10 -12 -22 -23 l-23 -19 19 23 c18 21 26 27 26 19z m800 -12
c7 -9 10 -18 7 -22 -8 -7 -37 15 -37 28 0 14 16 11 30 -6z m-1966 -62 c48 -72
102 -253 76 -253 -5 0 -10 8 -10 18 0 30 -47 159 -79 218 -33 61 -24 73 13 17z
m725 5 c-13 -18 -52 -73 -88 -122 -35 -50 -83 -119 -107 -155 -24 -35 -44 -62
-44 -58 0 13 46 85 110 172 36 50 83 114 104 143 21 28 40 52 43 52 2 0 -6
-15 -18 -32z m-779 18 c0 -2 -23 -18 -50 -36 -28 -18 -49 -35 -48 -39 61 -114
78 -164 59 -175 -5 -3 -56 -1 -114 6 -105 11 -107 11 -141 -13 -20 -13 -36
-27 -36 -31 0 -5 17 -8 37 -8 49 0 203 -22 203 -30 0 -3 20 -4 45 -2 24 2 76
-1 115 -8 61 -10 74 -16 95 -44 14 -18 25 -36 25 -39 0 -17 -26 -4 -54 28 -27
30 -39 35 -94 41 -51 5 -62 4 -60 -7 2 -11 -13 -14 -72 -12 -41 1 -86 5 -100
8 -24 6 -24 7 -5 18 32 18 -90 37 -125 20 -14 -7 -30 -13 -37 -13 -17 0 -31
30 -28 59 2 22 1 23 -12 6 -17 -24 -16 -36 3 -63 18 -26 13 -38 -10 -25 -15 8
-16 11 -16 38 0 11 -10 15 -32 14 -31 -2 -31 -2 -5 -6 15 -2 27 -9 27 -14 0
-5 -16 -7 -38 -3 -32 5 -38 3 -39 -13 -1 -16 6 -20 40 -22 47 -2 62 -10 62
-31 0 -10 9 -15 25 -14 14 1 17 -1 8 -3 -10 -3 -18 -11 -18 -18 0 -8 -18 -24
-40 -35 -37 -19 -40 -19 -49 -2 -6 9 -11 13 -11 8 0 -6 -7 -1 -16 10 -8 10
-13 13 -9 7 4 -9 1 -11 -9 -7 -9 3 -13 11 -9 18 3 6 1 6 -8 -1 -27 -26 -45
-15 -46 25 0 20 -3 53 -7 72 -5 28 -5 30 3 13 11 -25 19 -27 40 -14 9 6 10 11
2 15 -6 4 -11 18 -11 32 0 18 6 24 23 25 16 1 18 2 5 6 -11 3 -18 13 -17 26 0
12 3 16 6 10 2 -7 14 -13 26 -13 12 0 29 -5 37 -11 13 -9 12 -10 -3 -5 -11 3
-16 2 -12 -4 9 -15 32 -12 39 5 3 8 10 15 17 15 6 0 8 -7 5 -16 -4 -11 13 -5
58 19 35 20 68 33 73 29 4 -4 5 -3 1 2 -4 4 41 41 100 80 59 40 125 84 146 99
36 25 56 33 56 23z m2054 -12 c9 -24 7 -28 -9 -14 -17 14 -20 30 -6 30 5 0 12
-7 15 -16z m-3139 -54 c-9 -16 -18 -30 -21 -30 -2 0 2 14 11 30 9 17 18 30 21
30 2 0 -2 -13 -11 -30z m3255 -40 c0 -5 -2 -10 -4 -10 -3 0 -8 5 -11 10 -3 6
-1 10 4 10 6 0 11 -4 11 -10z m-1958 -22 c-7 -7 -12 -8 -12 -2 0 14 12 26 19
19 2 -3 -1 -11 -7 -17z m743 5 c-44 -112 -52 -303 -16 -413 25 -77 25 -80 8
-80 -9 0 -14 12 -15 29 0 17 -5 39 -11 50 -6 11 -8 27 -5 35 4 11 1 16 -10 16
-9 0 -16 5 -16 11 0 5 4 8 9 5 5 -3 6 41 3 102 -4 93 -1 119 18 185 13 42 27
77 33 77 5 0 6 -8 2 -17z m1222 -25 c-3 -8 -6 -5 -6 6 -1 11 2 17 5 13 3 -3 4
-12 1 -19z m-3308 -26 c-6 -18 -15 -32 -20 -32 -13 0 -11 8 8 41 21 36 26 32
12 -9z m1386 -36 c14 -37 22 -65 17 -62 -5 3 -17 30 -27 60 -11 31 -23 56 -28
56 -4 0 -5 5 -2 11 10 14 11 12 40 -65z m-850 14 c3 -5 -3 -10 -14 -10 -12 0
-21 5 -21 10 0 6 6 10 14 10 8 0 18 -4 21 -10z m2792 -22 c-3 -8 -6 -5 -6 6
-1 11 2 17 5 13 3 -3 4 -12 1 -19z m-1794 -65 c-7 -2 -21 -2 -30 0 -10 3 -4 5
12 5 17 0 24 -2 18 -5z m1817 -3 c0 -5 -2 -10 -4 -10 -3 0 -8 5 -11 10 -3 6
-1 10 4 10 6 0 11 -4 11 -10z m-3390 -65 c-7 -14 -15 -23 -18 -20 -3 2 1 11 8
20 7 8 10 26 6 42 -5 27 -5 27 6 5 9 -17 8 -28 -2 -47z m1605 45 c7 -12 -19
-12 -55 0 -22 7 -21 8 12 9 20 1 40 -3 43 -9z m1795 -14 c0 -3 -4 -8 -10 -11
-5 -3 -10 -1 -10 4 0 6 5 11 10 11 6 0 10 -2 10 -4z m-1797 -87 c16 -20 17
-23 2 -32 -9 -5 -34 -6 -56 -2 -29 5 -46 2 -66 -10 -25 -17 -27 -17 -40 1 -13
17 -11 22 18 48 28 25 38 28 78 23 31 -3 51 -12 64 -28z m97 -10 c11 -20 14
-86 4 -76 -4 4 -14 29 -24 56 -13 38 -13 48 -3 44 8 -3 18 -14 23 -24z m-1132
-7 c2 -7 -3 -12 -12 -12 -9 0 -16 7 -16 16 0 17 22 14 28 -4z m2822 -12 c0 -5
-4 -10 -10 -10 -5 0 -10 5 -10 10 0 6 5 10 10 10 6 0 10 -4 10 -10z m-2782
-38 c22 -17 22 -17 -23 -14 -41 4 -44 5 -28 18 23 17 24 17 51 -4z m2769 -4
c-3 -8 -6 -5 -6 6 -1 11 2 17 5 13 3 -3 4 -12 1 -19z m-1840 -24 c-9 -9 -28 6
-21 18 4 6 10 6 17 -1 6 -6 8 -13 4 -17z m-116 -111 l24 -26 -27 19 c-15 10
-28 22 -28 27 0 12 5 8 31 -20z m818 -20 c8 -17 8 -23 -1 -29 -7 -4 -10 -4 -6
1 4 4 0 14 -8 22 -8 8 -11 19 -8 24 7 12 7 11 23 -18z m-686 -20 c-7 -2 -19
-2 -25 0 -7 3 -2 5 12 5 14 0 19 -2 13 -5z m722 -39 c9 -9 14 -18 11 -21 -2
-3 -14 5 -25 16 -12 12 -17 21 -12 21 5 0 17 -7 26 -16z m46 -21 c13 -16 12
-17 -3 -4 -10 7 -18 15 -18 17 0 8 8 3 21 -13z m-6 -23 c8 -13 -5 -13 -25 0
-13 8 -13 10 2 10 9 0 20 -4 23 -10z m60 -30 c10 -11 16 -20 13 -20 -3 0 -13
9 -23 20 -10 11 -16 20 -13 20 3 0 13 -9 23 -20z m-30 -1 c12 -18 -3 -22 -20
-5 -14 14 -14 16 -1 16 8 0 18 -5 21 -11z m-2054 -26 c13 -16 12 -17 -3 -4
-10 7 -18 15 -18 17 0 8 8 3 21 -13z m2809 13 c0 -2 -8 -10 -17 -17 -16 -13
-17 -12 -4 4 13 16 21 21 21 13z m-2080 -10 c0 -2 -8 -10 -17 -17 -16 -13 -17
-12 -4 4 13 16 21 21 21 13z m1384 -32 c24 -23 19 -27 -9 -8 -14 9 -25 18 -25
20 0 10 20 3 34 -12z m626 -9 c0 -6 -76 -45 -87 -45 -4 1 12 12 37 25 50 27
50 27 50 20z m-2082 -19 c-7 -8 -15 -12 -17 -11 -5 6 10 25 20 25 5 0 4 -6 -3
-14z m-33 -16 c-9 -14 -66 -43 -72 -36 -3 2 12 14 34 25 45 24 46 24 38 11z
m1560 0 c3 -5 1 -10 -4 -10 -6 0 -11 5 -11 10 0 6 2 10 4 10 3 0 8 -4 11 -10z
m-2000 -20 c13 -6 15 -9 5 -9 -8 0 -22 4 -30 9 -18 12 -2 12 25 0z m2044 1 c7
-5 9 -11 5 -14 -5 -3 -15 1 -22 9 -14 16 -5 18 17 5z m378 -7 c-3 -3 -12 -4
-19 -1 -8 3 -5 6 6 6 11 1 17 -2 13 -5z m-2140 -10 c-3 -3 -12 -4 -19 -1 -8 3
-5 6 6 6 11 1 17 -2 13 -5z m1900 0 c-3 -3 -12 -4 -19 -1 -8 3 -5 6 6 6 11 1
17 -2 13 -5z m196 -1 c-7 -2 -19 -2 -25 0 -7 3 -2 5 12 5 14 0 19 -2 13 -5z
m-2175 -10 c-21 -2 -57 -2 -80 0 -24 2 -7 4 37 4 44 0 63 -2 43 -4z m122 -3
c0 -5 -8 -10 -17 -10 -15 0 -16 2 -3 10 19 12 20 12 20 0z m1790 6 c0 -3 -4
-8 -10 -11 -5 -3 -10 -1 -10 4 0 6 5 11 10 11 6 0 10 -2 10 -4z m178 -3 c-16
-2 -40 -2 -55 0 -16 2 -3 4 27 4 30 0 43 -2 28 -4z"/>
<path d="M9590 8193 c1 -8 80 -67 80 -59 0 2 -18 19 -40 36 -22 17 -40 28 -40
23z"/>
<path d="M9725 8046 c10 -14 19 -26 22 -26 7 0 -17 39 -28 46 -6 3 -3 -5 6
-20z"/>
<path d="M9107 7889 c-10 -11 -23 -17 -30 -14 -7 4 -3 -1 7 -9 11 -9 15 -16 9
-16 -10 0 -11 -24 -4 -103 2 -13 53 26 61 47 8 19 9 19 9 -5 1 -15 8 -33 17
-40 15 -12 16 -11 9 10 -14 44 -34 86 -35 72 0 -19 -40 16 -40 36 0 18 10 16
26 -4 12 -16 12 -13 3 15 -6 17 -12 32 -12 31 -1 0 -10 -9 -20 -20z"/>
<path d="M9265 7839 c6 -17 3 -20 -21 -17 -16 2 -28 -2 -30 -10 -1 -7 0 -8 2
-3 3 6 12 7 22 1 9 -4 32 -14 50 -20 24 -9 32 -19 32 -36 0 -13 -4 -24 -10
-24 -5 0 -10 11 -10 25 0 29 -16 32 -42 8 -13 -12 -18 -13 -18 -3 0 7 -2 11
-5 8 -12 -12 8 -38 25 -33 11 3 20 -1 24 -10 8 -22 46 -1 46 25 0 10 5 22 10
25 15 9 12 25 -5 25 -8 0 -19 9 -25 20 -6 11 -15 18 -21 15 -5 -4 -9 1 -9 9 0
9 -5 16 -11 16 -6 0 -8 -9 -4 -21z"/>
<path d="M9140 7751 c0 -5 5 -13 10 -16 6 -3 10 -2 10 4 0 5 -4 13 -10 16 -5
3 -10 2 -10 -4z"/>
<path d="M9245 7710 c-3 -5 -1 -10 4 -10 6 0 11 5 11 10 0 6 -2 10 -4 10 -3 0
-8 -4 -11 -10z"/>
<path d="M7155 7770 c-4 -6 -3 -16 3 -22 6 -6 12 -6 17 2 4 6 3 16 -3 22 -6 6
-12 6 -17 -2z"/>
<path d="M8850 8814 c0 -6 9 -21 20 -34 11 -13 20 -27 20 -31 0 -5 7 -6 15 -3
24 10 19 44 -6 44 -12 0 -28 8 -35 18 -7 9 -14 12 -14 6z"/>
<path d="M8897 8716 c-4 -10 -1 -13 9 -9 7 3 14 9 14 14 0 14 -17 10 -23 -5z"/>
<path d="M7770 8355 c0 -5 5 -17 10 -25 5 -8 10 -10 10 -5 0 6 -5 17 -10 25
-5 8 -10 11 -10 5z"/>
<path d="M6590 8227 c-34 -53 -14 -85 28 -43 26 26 26 26 7 46 -20 20 -20 20
-35 -3z"/>
<path d="M7671 7596 c-7 -25 -28 -70 -46 -100 -18 -30 -28 -53 -21 -51 6 2 44
6 85 9 40 3 75 7 77 9 2 2 17 36 33 76 l30 72 -22 8 c-12 5 -45 12 -72 15
l-50 7 -14 -45z m40 -49 c-8 -8 -11 -7 -11 4 0 9 3 19 7 23 4 4 9 2 11 -4 3
-7 -1 -17 -7 -23z m-26 -57 c3 -5 1 -10 -4 -10 -6 0 -11 5 -11 10 0 6 2 10 4
10 3 0 8 -4 11 -10z"/>
<path d="M6851 6794 c-37 -31 -50 -84 -30 -125 8 -15 47 -62 88 -104 58 -59
79 -75 95 -71 12 3 55 42 96 88 72 79 75 84 75 131 0 42 -4 52 -33 78 -37 33
-84 38 -121 13 -22 -16 -25 -16 -51 0 -41 23 -84 20 -119 -10z"/>
<path d="M7476 6804 c-13 -12 -16 -39 -16 -130 0 -63 3 -114 7 -114 3 0 21 11
39 25 29 22 42 25 118 25 102 0 106 4 106 109 0 97 -6 101 -135 101 -81 0
-107 -3 -119 -16z m223 -18 c7 -9 11 -41 9 -83 l-3 -68 -92 -3 c-65 -2 -95 -7
-103 -17 -7 -8 -16 -15 -21 -15 -10 0 -12 183 -2 193 3 4 50 7 103 7 72 0 101
-4 109 -14z"/>
<path d="M7558 6743 c23 -2 59 -2 80 0 20 2 1 4 -43 4 -44 0 -61 -2 -37 -4z"/>
<path d="M7525 6700 c3 -5 26 -10 51 -10 24 0 44 5 44 10 0 6 -23 10 -51 10
-31 0 -48 -4 -44 -10z"/>
<path d="M7753 6712 c13 -14 17 -39 17 -107 0 -85 -1 -87 -18 -72 -14 13 -38
17 -101 17 -74 0 -83 2 -88 20 -3 11 -9 20 -14 20 -12 0 -11 -17 1 -41 9 -16
22 -19 91 -19 66 0 86 -4 106 -20 14 -11 30 -20 34 -20 5 0 9 49 9 108 0 109
-7 132 -39 132 -12 0 -11 -3 2 -18z"/>
<path d="M2323 4206 c-102 -32 -176 -97 -222 -196 l-26 -55 0 -470 0 -470 33
-67 c38 -77 92 -130 171 -167 l56 -26 3790 0 3790 0 67 33 c77 38 130 92 167
171 l26 56 0 470 0 470 -26 56 c-37 79 -90 133 -167 171 l-67 33 -3775 2
c-3102 1 -3783 -1 -3817 -11z m6986 -630 c49 -126 50 -127 28 -135 -45 -17
-259 -63 -265 -57 -3 4 2 22 11 41 17 35 17 35 -11 49 -15 8 -55 19 -87 25
-118 21 -248 -21 -338 -111 -26 -26 -50 -48 -52 -48 -30 0 48 135 108 187 114
100 289 150 432 124 33 -6 61 -8 63 -4 10 31 45 74 53 66 5 -5 31 -67 58 -137z
m-4637 -78 c3 -79 8 -151 12 -160 13 -28 -23 -36 -43 -10 l-16 22 -13 -21
c-10 -16 -21 -19 -54 -17 -53 4 -81 38 -82 101 -2 77 43 127 114 127 29 0 30
1 30 50 0 46 2 50 24 50 24 0 24 0 28 -142z m1628 76 c0 -59 1 -64 16 -50 22
22 77 20 98 -3 43 -47 37 -143 -11 -187 -20 -18 -37 -24 -74 -24 -83 0 -79 -8
-79 171 l0 159 25 0 c24 0 25 -2 25 -66z m-2504 23 c21 -19 27 -32 27 -66 0
-58 -33 -91 -97 -98 l-46 -6 0 -58 c0 -59 0 -59 -30 -59 l-30 0 0 155 0 155
74 0 c64 0 79 -3 102 -23z m4564 -27 c0 -27 3 -30 30 -30 17 0 30 -2 30 -4 0
-20 -16 -36 -36 -36 -23 0 -24 -3 -24 -75 l0 -75 30 0 c23 0 30 -4 30 -20 0
-17 -7 -20 -43 -20 -24 0 -48 5 -55 12 -7 7 -12 44 -12 95 0 76 -2 83 -20 83
-13 0 -20 7 -20 20 0 13 7 20 20 20 13 0 20 7 20 18 0 21 18 42 37 42 8 0 13
-12 13 -30z m-4187 -48 c44 -39 2 -109 -72 -119 -45 -6 -48 -10 -28 -38 11
-14 23 -17 60 -13 35 4 47 2 52 -10 8 -21 1 -25 -60 -30 -69 -6 -100 13 -115
68 -13 48 0 108 29 134 39 35 98 39 134 8z m875 8 c1 0 7 -11 12 -25 6 -17 6
-33 -2 -50 -11 -25 -63 -55 -95 -55 -28 0 -34 -10 -22 -32 9 -16 20 -19 62
-17 41 2 53 0 55 -13 4 -18 -25 -28 -86 -28 -63 0 -92 32 -92 102 0 95 57 148
135 126 16 -4 31 -8 33 -8z m1599 0 c1 0 10 -14 19 -32 24 -46 15 -132 -17
-163 -38 -37 -108 -37 -144 0 -34 33 -36 128 -4 169 24 31 73 46 114 34 16 -4
31 -8 32 -8z m750 -16 c9 -15 13 -33 9 -49 -8 -30 -60 -65 -98 -65 -28 0 -35
-14 -19 -38 5 -9 24 -13 57 -11 38 3 50 0 52 -13 6 -33 -116 -40 -148 -8 -40
40 -39 133 1 176 43 46 118 50 146 8z m593 -10 c19 -50 -31 -104 -95 -104 -22
0 -26 -4 -23 -22 3 -21 9 -23 58 -24 41 -1 56 -5 58 -16 3 -18 -25 -28 -80
-28 -50 0 -66 8 -83 41 -30 58 -13 144 34 174 47 30 116 18 131 -21z m-4092
15 l8 -20 18 20 c19 21 76 30 76 12 0 -23 -14 -41 -30 -41 -37 0 -50 -27 -50
-106 0 -72 -1 -74 -25 -74 -24 0 -25 2 -25 68 0 37 -5 84 -11 106 -8 31 -8 41
3 47 20 13 28 11 36 -12z m411 2 c13 11 38 19 57 19 51 0 64 -27 64 -137 0
-93 0 -93 -25 -93 -25 0 -25 1 -25 83 0 95 -7 112 -42 104 -33 -9 -48 -46 -48
-122 0 -62 -1 -65 -24 -65 -23 0 -24 3 -28 93 -3 50 -8 99 -12 109 -11 23 25
30 45 8 14 -16 16 -16 38 1z m492 0 c10 10 31 19 45 19 21 0 25 -4 22 -22 -2
-13 -11 -24 -23 -26 -44 -8 -55 -31 -55 -109 0 -70 -1 -73 -24 -73 -23 0 -24
3 -28 93 -3 50 -8 99 -12 109 -11 23 25 30 42 7 13 -17 14 -17 33 2z m492 -1
c41 48 122 11 134 -62 12 -80 -37 -148 -108 -148 l-38 0 -3 -47 c-3 -41 -6
-48 -25 -51 -21 -3 -22 0 -25 140 -2 79 -7 150 -12 160 -11 24 25 29 44 6 15
-18 16 -18 33 2z m351 14 c13 -5 16 -22 16 -86 0 -44 5 -89 11 -100 9 -16 8
-23 -2 -29 -22 -14 -37 -10 -44 10 -6 20 -6 20 -26 0 -20 -20 -69 -25 -99 -9
-21 11 -40 60 -40 102 0 37 23 82 52 102 22 16 102 22 132 10z m104 -15 l8
-20 18 20 c19 21 76 30 76 12 0 -23 -14 -41 -30 -41 -37 0 -50 -27 -50 -106 0
-72 -1 -74 -25 -74 -24 0 -25 3 -25 63 0 34 -5 82 -11 106 -8 34 -7 46 3 52
20 13 28 11 36 -12z m418 13 c6 -4 14 -43 17 -87 3 -44 9 -90 13 -102 9 -31
-23 -44 -42 -18 -13 17 -15 18 -33 1 -28 -25 -89 -18 -113 14 -37 51 -20 157
31 185 28 15 108 20 127 7z m599 -12 l6 -20 26 20 c31 24 80 26 105 3 15 -13
18 -32 18 -115 0 -97 0 -98 -25 -98 -24 0 -24 2 -27 92 -3 81 -5 93 -21 96
-10 2 -27 -4 -38 -14 -16 -14 -19 -31 -19 -96 l0 -78 -30 0 -30 0 0 86 c0 47
-5 94 -10 104 -8 15 -6 21 7 29 26 15 31 13 38 -9z m252 0 c5 -20 5 -20 30 0
34 26 85 26 109 -1 15 -17 20 -40 22 -115 l4 -94 -31 0 -30 0 -3 93 c-3 86 -5
92 -25 95 -35 5 -53 -33 -53 -115 l0 -73 -29 0 -29 0 -4 108 c-3 101 1 121 25
122 5 0 11 -9 14 -20z m470 0 c5 -20 5 -20 30 0 31 24 70 26 94 4 16 -15 20
-15 41 0 29 21 82 21 99 0 8 -10 15 -53 17 -115 l4 -99 -31 0 -31 0 0 90 c0
99 -12 119 -50 85 -17 -15 -20 -31 -20 -97 l0 -78 -30 0 -30 0 0 90 c0 99 -12
119 -50 85 -17 -15 -20 -31 -20 -97 l0 -78 -29 0 -29 0 -4 108 c-3 101 1 121
25 122 5 0 11 -9 14 -20z m588 0 l6 -20 26 20 c34 26 84 26 109 -1 14 -16 19
-40 22 -115 l4 -94 -30 0 -31 0 -3 93 c-3 86 -5 92 -25 95 -35 5 -53 -33 -53
-115 l0 -73 -29 0 -29 0 -4 108 c-4 100 0 121 24 122 4 0 10 -9 13 -20z"/>
<path d="M4555 3485 c-25 -24 -32 -64 -19 -112 8 -30 48 -30 68 -1 22 31 22
124 0 132 -22 9 -22 9 -49 -19z"/>
<path d="M6321 3484 c-26 -33 -30 -128 -6 -138 23 -8 62 13 69 38 10 38 6 81
-10 104 -20 28 -28 28 -53 -4z"/>
<path d="M3680 3525 c0 -52 1 -55 25 -55 29 0 65 32 65 58 0 26 -32 52 -63 52
-26 0 -27 -2 -27 -55z"/>
<path d="M4076 3488 c-21 -30 -20 -58 2 -58 30 0 63 30 60 53 -4 31 -42 34
-62 5z"/>
<path d="M4958 3498 c-9 -7 -20 -25 -24 -40 -5 -23 -3 -28 13 -28 31 0 64 30
61 53 -4 26 -27 33 -50 15z"/>
<path d="M6559 3500 c-36 -21 -31 -140 7 -154 42 -16 73 49 54 116 -13 44 -32
55 -61 38z"/>
<path d="M7302 3502 c-7 -5 -16 -23 -21 -40 -11 -36 -1 -41 44 -20 20 9 25 18
23 37 -3 27 -24 37 -46 23z"/>
<path d="M7886 3495 c-9 -9 -16 -20 -16 -25 0 -5 -3 -15 -6 -24 -7 -19 14 -21
51 -4 20 9 25 18 23 37 -4 31 -29 38 -52 16z"/>
<path d="M5317 3498 c-36 -28 -52 -140 -22 -152 21 -8 61 9 69 29 12 32 6 103
-10 119 -19 19 -16 19 -37 4z"/>
<path d="M5560 3503 c-27 -10 -40 -36 -40 -84 0 -56 21 -85 50 -69 37 20 56
142 24 154 -9 3 -16 6 -17 5 -1 0 -9 -3 -17 -6z"/>
<path d="M6065 3485 c-32 -31 -34 -92 -5 -126 l20 -24 25 28 c20 23 25 39 25
81 0 40 -4 55 -16 60 -22 9 -22 9 -49 -19z"/>
<path d="M12766 9053 c17 -17 16 -18 -22 -25 -21 -4 -58 -5 -81 -1 -34 4 -43
2 -43 -10 0 -26 27 -40 66 -33 29 6 42 3 70 -19 19 -14 34 -31 34 -36 0 -6
-21 -20 -47 -31 l-48 -21 28 -9 c28 -10 34 -22 16 -34 -16 -9 -4 -72 26 -140
27 -61 29 -68 18 -61 -5 3 -17 -7 -28 -22 -15 -21 -16 -23 -2 -12 21 17 -96
-184 -126 -216 -42 -46 -26 -12 41 92 39 58 63 100 55 93 -8 -7 -50 -66 -94
-133 -43 -66 -85 -128 -93 -137 -9 -10 -14 -18 -11 -18 7 0 -35 -83 -45 -90
-4 -3 -11 -17 -16 -31 -5 -14 -60 -120 -122 -236 -87 -161 -119 -213 -140
-223 -42 -19 -175 -26 -188 -9 -6 8 -20 51 -32 96 -12 46 -51 167 -87 270 -37
103 -64 195 -62 205 3 11 0 18 -8 18 -14 0 -30 39 -96 230 -24 68 -36 116 -29
118 13 5 13 29 0 37 -5 3 -36 1 -67 -5 -46 -8 -60 -7 -71 4 -12 12 -10 13 10
9 12 -2 52 5 87 16 35 12 78 21 95 21 l31 0 -25 -20 c-36 -29 -20 -24 20 5 24
18 47 25 77 25 31 0 43 4 43 14 0 19 -39 23 -247 31 -123 5 -163 4 -163 -5 0
-7 -7 -9 -16 -6 -9 4 -23 1 -30 -5 -12 -10 -11 -14 3 -25 10 -7 26 -14 35 -14
10 0 33 -16 52 -35 20 -19 42 -35 51 -35 9 0 24 -8 34 -17 19 -18 129 -312
135 -362 2 -14 18 -63 35 -109 17 -46 31 -92 31 -103 0 -13 7 -19 23 -20 19
-1 18 -2 -9 -14 -18 -8 -51 -13 -75 -12 -40 3 -51 10 -129 88 -87 87 -189 150
-265 165 -41 7 -70 34 -37 34 29 0 53 11 47 20 -3 5 -56 6 -118 2 -61 -4 -154
-6 -204 -5 -56 0 -93 -3 -93 -9 0 -6 -29 -9 -72 -8 -104 4 -118 2 -118 -15 0
-11 12 -15 44 -15 27 0 48 -6 56 -15 7 -9 11 -17 9 -18 -2 -2 -25 -16 -52 -31
-70 -40 -170 -138 -217 -212 -50 -80 -96 -216 -105 -313 -6 -66 -5 -73 9 -62
13 11 16 7 21 -26 19 -112 30 -151 67 -226 74 -147 217 -266 382 -316 52 -16
95 -21 181 -21 188 0 315 51 446 181 63 62 85 92 124 172 26 53 52 97 58 97
18 -1 40 -21 67 -60 40 -57 53 -68 92 -75 54 -10 96 3 142 45 52 47 80 56 111
36 16 -11 47 -16 90 -16 63 0 65 1 65 25 0 18 -5 25 -19 25 -26 0 -75 27 -62
34 11 7 89 119 132 189 36 60 167 303 261 487 62 119 91 166 130 203 27 26 55
47 62 47 7 0 20 -16 29 -35 9 -19 23 -35 32 -35 8 0 24 -13 36 -30 12 -16 26
-27 30 -24 5 3 6 -3 2 -12 -5 -12 -3 -15 6 -9 10 5 12 2 7 -11 -3 -11 -1 -26
4 -34 5 -8 10 -10 10 -5 1 6 12 -14 26 -44 13 -30 22 -56 20 -59 -5 -4 -36 64
-36 80 0 20 -103 -48 -165 -110 -112 -112 -166 -222 -188 -379 -13 -100 0
-216 33 -291 38 -86 94 -172 109 -167 7 3 43 -22 80 -58 81 -76 134 -108 234
-142 229 -77 475 -18 648 154 122 122 179 260 179 434 0 166 -59 308 -179 428
-90 90 -179 140 -315 174 -54 14 -82 25 -71 28 11 2 -16 5 -61 6 -97 1 -195
-15 -211 -35 -7 -10 -13 -11 -18 -5 -4 7 -12 7 -24 -1 -17 -10 -17 -14 -5 -44
8 -18 14 -41 14 -51 -1 -10 -16 20 -35 65 -23 56 -32 93 -29 111 4 17 -1 41
-10 59 -16 30 -16 30 20 51 20 12 38 30 41 41 3 11 9 20 14 20 5 0 9 11 9 24
0 23 -21 36 -62 36 -27 0 -33 -39 -9 -56 29 -21 26 -39 -9 -54 -17 -7 -32 -11
-34 -9 -7 9 -56 122 -56 130 0 5 6 9 13 9 7 0 22 7 33 15 17 13 15 13 -17 0
-42 -17 -33 -29 -99 138 -38 98 -40 108 -30 153 17 79 28 94 69 94 20 0 52 -4
70 -10 53 -15 48 -4 -6 16 -26 10 -62 28 -79 41 -17 13 -37 23 -45 23 -8 0
-27 9 -44 20 -37 25 -52 26 -29 3z m-1106 -413 c0 -5 -4 -10 -10 -10 -5 0 -10
5 -10 10 0 6 5 10 10 10 6 0 10 -4 10 -10z m1329 -244 c-2 -2 -15 -9 -29 -15
-24 -11 -24 -11 -6 3 16 13 49 24 35 12z m-362 -85 c0 -11 -5 -17 -11 -14 -5
4 -7 -1 -3 -10 4 -10 2 -16 -6 -14 -7 1 -11 -4 -9 -12 1 -7 -2 -19 -8 -25 -5
-7 -7 -16 -3 -19 3 -4 2 -7 -4 -7 -6 0 -19 -20 -30 -45 -16 -40 -43 -62 -43
-34 0 5 4 7 10 4 5 -3 7 0 5 7 -3 8 3 23 14 35 11 11 17 24 14 27 -4 3 -1 6 6
6 7 0 9 5 6 10 -3 6 -1 10 5 10 6 0 8 5 4 12 -5 7 -3 8 5 4 8 -5 11 -3 10 5
-3 13 27 79 36 79 2 0 3 -9 2 -19z m-1557 -44 c0 -5 -14 -7 -32 -5 -17 3 -56
-1 -86 -9 -55 -14 -82 -8 -67 17 8 13 185 10 185 -3z m128 6 c-15 -2 -42 -2
-60 0 -18 2 -6 4 27 4 33 0 48 -2 33 -4z m-170 -70 c-10 -2 -28 -2 -40 0 -13
2 -5 4 17 4 22 1 32 -1 23 -4z m101 -17 c-2 -2 -29 -6 -59 -9 -34 -3 -47 -2
-35 3 19 8 103 14 94 6z m2169 -13 c-10 -2 -28 -2 -40 0 -13 2 -5 4 17 4 22 1
32 -1 23 -4z m-2051 -56 c3 -4 -2 -42 -12 -84 -9 -43 -23 -104 -30 -137 -15
-65 -26 -77 -70 -74 -28 3 -35 13 -97 133 -37 71 -64 133 -60 137 27 27 246
47 269 25z m1244 -20 c-10 -9 -11 -8 -5 6 3 10 9 15 12 12 3 -3 0 -11 -7 -18z
m1007 -6 c160 -60 277 -186 321 -346 19 -71 14 -178 -15 -263 -114 -346 -557
-453 -817 -200 -97 95 -149 214 -150 343 0 80 19 174 38 181 7 3 66 -5 131
-17 66 -12 134 -22 152 -21 19 0 32 -5 32 -12 0 -17 -45 -40 -64 -33 -13 5
-12 -2 4 -44 11 -27 20 -59 20 -69 0 -23 19 -26 40 -7 12 10 12 9 2 -4 -7 -9
-10 -24 -6 -33 7 -19 24 -21 24 -3 0 8 4 7 10 -3 5 -8 10 -10 10 -4 0 5 -5 15
-12 22 -9 9 -6 12 14 12 35 0 59 -10 52 -21 -6 -10 9 -12 19 -2 12 11 61 10
70 -1 4 -6 6 -2 5 9 -2 34 2 56 10 52 4 -3 13 1 20 9 10 11 10 19 0 12 -2 -1
-13 4 -26 11 -16 9 -21 18 -18 36 5 29 1 31 -20 10 -17 -17 -49 -21 -39 -5 3
6 -1 7 -9 4 -9 -4 -16 -1 -16 6 0 7 -11 36 -25 64 -44 90 -105 257 -105 287 0
24 5 30 38 38 20 5 46 12 57 15 43 11 201 -3 253 -23z m-2114 -15 c64 -31 166
-113 166 -134 0 -10 -338 -148 -345 -141 -4 5 44 232 61 292 8 25 39 21 118
-17z m-368 -119 c98 -194 103 -206 92 -214 -7 -3 -8 -1 -4 5 4 7 2 12 -3 12
-6 0 -11 -6 -12 -12 0 -10 -2 -10 -6 0 -9 24 -23 12 -19 -18 2 -20 -2 -33 -13
-40 -9 -5 -15 -11 -13 -14 1 -3 2 -14 2 -23 0 -15 -2 -16 -10 -3 -8 13 -10 12
-10 -2 0 -10 5 -18 10 -18 6 0 10 -10 10 -23 0 -12 7 -32 15 -43 8 -12 11 -24
8 -28 -3 -3 1 -6 10 -6 9 0 17 -5 17 -11 0 -5 4 -8 9 -5 5 3 11 -1 15 -9 3 -9
18 -15 36 -15 17 0 29 4 26 8 -3 5 30 8 72 8 62 -1 80 2 90 17 14 19 43 22 70
8 9 -6 62 -17 117 -27 55 -9 103 -18 107 -21 10 -5 -20 -69 -62 -129 -136
-198 -408 -266 -626 -156 -110 55 -201 154 -244 263 -27 68 -37 204 -21 279
26 123 109 241 217 309 26 17 50 31 53 31 4 0 34 -55 67 -123z m499 93 c10
-11 16 -20 13 -20 -3 0 -13 9 -23 20 -10 11 -16 20 -13 20 3 0 13 -9 23 -20z
m-695 7 c0 -1 -24 -25 -52 -52 l-53 -50 50 53 c46 48 55 57 55 49z m1579 -144
c-40 -76 -85 -162 -99 -191 -18 -35 -29 -49 -33 -39 -3 8 -2 18 2 23 5 5 37
65 73 134 69 131 121 220 126 215 2 -2 -29 -66 -69 -142z m723 7 c26 -63 48
-121 48 -128 0 -11 -9 -13 -37 -7 -43 8 -50 9 -153 25 -108 16 -104 13 -80 61
25 48 146 172 162 167 7 -3 33 -56 60 -118z m-1263 32 c16 -31 41 -169 41
-232 l0 -60 -67 1 c-38 1 -55 4 -39 6 28 5 29 5 22 58 -3 30 -19 90 -36 135
l-30 81 23 8 c21 8 53 17 69 20 4 0 12 -7 17 -17z m-1186 -87 c-15 -30 -29
-53 -31 -51 -4 5 46 106 53 106 3 0 -7 -25 -22 -55z m3157 0 c0 -11 -14 7 -31
40 -7 13 -3 12 10 -5 11 -14 21 -29 21 -35z m-2210 -27 c10 -24 24 -69 31
-100 l12 -57 41 -4 c23 -2 -13 -2 -79 0 -66 1 -114 -1 -107 -6 11 -6 11 -10 0
-18 -28 -22 -59 -34 -71 -26 -13 8 -18 9 -59 11 -33 2 -37 21 -7 29 19 5 20 8
7 17 -49 37 -66 54 -72 72 -7 21 -19 15 194 95 41 15 79 28 83 28 4 1 16 -18
27 -41z m2244 -53 c9 -27 18 -88 21 -135 l4 -85 -13 100 c-8 55 -21 120 -30
145 -9 25 -13 40 -8 35 5 -6 17 -32 26 -60z m-2701 10 c-6 -17 -25 -15 -31 3
-2 7 5 12 17 12 14 0 19 -5 14 -15z m-526 -17 c-3 -8 -6 -5 -6 6 -1 11 2 17 5
13 3 -3 4 -12 1 -19z m-15 -112 c-5 -110 7 -174 53 -266 75 -149 191 -245 346
-285 48 -13 92 -16 179 -13 77 3 105 1 85 -4 -58 -18 -215 -12 -285 11 -232
73 -390 284 -390 519 0 61 8 132 15 132 1 0 0 -42 -3 -94z m1608 9 c0 -9 -9
-15 -22 -15 -21 0 -21 0 -2 15 24 18 24 18 24 0z m-1099 -11 c-17 -12 -22 -24
-19 -45 3 -15 1 -26 -4 -23 -23 14 7 84 36 84 6 0 0 -7 -13 -16z m219 4 c0 -5
-9 -8 -19 -8 -11 0 -22 3 -24 8 -3 4 6 7 19 7 13 0 24 -3 24 -7z m643 -5 c-13
-2 -33 -2 -45 0 -13 2 -3 4 22 4 25 0 35 -2 23 -4z m67 -3 c8 -5 11 -10 5 -10
-5 0 -17 5 -25 10 -8 5 -10 10 -5 10 6 0 17 -5 25 -10z m1180 -32 c0 -4 -4 -8
-10 -8 -5 0 -13 0 -17 0 -6 0 -8 24 -4 48 2 9 31 -29 31 -40z m-1580 -9 c0
-34 2 -34 -105 -12 l-29 5 23 19 c15 12 39 19 67 19 43 0 44 -1 44 -31z m1127
-31 c-2 -13 -4 -3 -4 22 0 25 2 35 4 23 2 -13 2 -33 0 -45z m-897 28 c0 -46
-82 -62 -88 -17 -2 15 0 21 7 17 6 -4 11 -2 11 3 0 6 16 11 35 11 24 0 35 -5
35 -14z m1971 -162 c-31 -87 -79 -159 -149 -225 -97 -91 -201 -136 -338 -146
-157 -11 -303 41 -415 148 l-64 61 65 -57 c199 -173 466 -190 686 -43 54 36
91 71 125 117 48 66 98 178 100 229 l2 27 4 -26 c2 -15 -5 -53 -16 -85z
m-1064 64 c-3 -7 -5 -2 -5 12 0 14 2 19 5 13 2 -7 2 -19 0 -25z m-614 -35 c-7
-2 -21 -2 -30 0 -10 3 -4 5 12 5 17 0 24 -2 18 -5z m67 -43 c0 -5 -4 -10 -10
-10 -5 0 -10 5 -10 10 0 6 5 10 10 10 6 0 10 -4 10 -10z m642 -127 c6 -7 8
-13 4 -13 -9 0 -66 91 -66 104 0 6 12 -9 26 -34 14 -25 30 -51 36 -57z m-856
62 c-11 -8 -36 -15 -55 -14 l-36 1 35 13 c19 7 44 14 55 14 20 0 20 0 1 -14z
m-406 -39 c0 -2 -8 -10 -17 -17 -16 -13 -17 -12 -4 4 13 16 21 21 21 13z m-30
-39 c0 -1 -24 -25 -52 -52 l-53 -50 50 53 c46 48 55 57 55 49z m-115 -107 c-3
-5 -16 -15 -28 -21 -19 -9 -19 -8 3 10 28 23 34 26 25 11z m-55 -34 c0 -2 -7
-7 -16 -10 -8 -3 -12 -2 -9 4 6 10 25 14 25 6z m-60 -31 c-14 -8 -32 -14 -40
-14 -8 0 -1 6 15 14 40 18 57 18 25 0z"/>
<path d="M13284 7779 c-3 -5 -10 -6 -16 -3 -7 5 -8 2 -4 -5 5 -7 14 -10 21 -7
8 3 16 0 19 -7 2 -7 5 -4 5 6 1 12 6 16 14 11 6 -4 8 -3 4 1 -11 13 -36 15
-43 4z"/>
<path d="M13351 7773 c7 -10 13 -19 14 -20 0 -1 9 5 20 14 19 15 19 15 -4 8
-16 -5 -21 -4 -17 4 4 6 0 11 -10 11 -14 0 -15 -2 -3 -17z"/>
<path d="M13396 7748 c7 -11 34 -10 34 1 0 6 -9 9 -19 8 -11 0 -17 -5 -15 -9z"/>
<path d="M13420 7719 c0 -5 5 -7 10 -4 6 3 10 8 10 11 0 2 -4 4 -10 4 -5 0
-10 -5 -10 -11z"/>
<path d="M13447 7718 c-3 -8 -2 -21 3 -27 11 -19 23 5 12 25 -8 14 -10 14 -15
2z"/>
<path d="M13461 7671 c-10 -6 -11 -14 -3 -26 9 -17 10 -16 17 4 8 27 4 33 -14
22z"/>
<path d="M13452 7604 c-7 -8 -8 -14 -2 -14 5 0 10 -5 10 -11 0 -5 -4 -8 -9 -4
-14 8 -25 -15 -14 -26 14 -14 35 15 31 44 -2 21 -5 23 -16 11z"/>
<path d="M13267 7516 c-15 -12 -16 -14 -2 -20 8 -3 22 -3 30 0 8 4 15 1 15 -5
0 -6 8 -11 18 -10 10 0 12 3 4 6 -6 2 -10 9 -6 14 3 5 2 9 -3 8 -20 -3 -34 2
-28 11 9 14 -7 12 -28 -4z"/>
<path d="M13368 7522 c-31 -4 -37 -17 -12 -26 24 -9 36 -7 28 6 -5 8 -2 9 9 5
9 -3 19 -1 23 5 4 6 3 8 -4 4 -5 -3 -12 -3 -14 1 -1 5 -15 7 -30 5z"/>
<path d="M11348 7493 c7 -3 16 -2 19 1 4 3 -2 6 -13 5 -11 0 -14 -3 -6 -6z"/>
<path d="M11435 7470 c27 -12 43 -12 25 0 -8 5 -22 9 -30 9 -10 0 -8 -3 5 -9z"/>
<path d="M11527 7449 c7 -7 15 -10 18 -7 3 3 -2 9 -12 12 -14 6 -15 5 -6 -5z"/>
<path d="M11578 7433 c7 -3 16 -2 19 1 4 3 -2 6 -13 5 -11 0 -14 -3 -6 -6z"/>
<path d="M13073 7870 c0 -25 2 -35 4 -22 2 12 2 32 0 45 -2 12 -4 2 -4 -23z"/>
<path d="M11478 7673 c7 -3 16 -2 19 1 4 3 -2 6 -13 5 -11 0 -14 -3 -6 -6z"/>
<path d="M13020 8937 c0 -2 14 -16 31 -33 16 -16 28 -22 24 -14 -5 13 -55 56
-55 47z"/>
<path d="M13103 8780 c0 -25 2 -35 4 -22 2 12 2 32 0 45 -2 12 -4 2 -4 -23z"/>
<path d="M13066 8662 l-19 -27 24 22 c12 12 21 24 18 27 -2 2 -13 -8 -23 -22z"/>
<path d="M13009 8603 c-13 -16 -12 -17 4 -4 9 7 17 15 17 17 0 8 -8 3 -21 -13z"/>
<path d="M13090 8266 c0 -9 8 -12 25 -8 28 5 24 22 -6 22 -10 0 -19 -6 -19
-14z"/>
<path d="M10770 8225 c0 -17 2 -18 24 -9 18 7 12 24 -10 24 -8 0 -14 -7 -14
-15z"/>
<path d="M11867 7359 c7 -7 15 -10 18 -7 3 3 -2 9 -12 12 -14 6 -15 5 -6 -5z"/>
<path d="M10921 6794 c-37 -31 -50 -84 -30 -125 8 -15 47 -62 88 -104 58 -59
79 -75 95 -71 12 3 55 42 96 88 72 79 75 84 75 131 0 42 -4 52 -33 78 -37 33
-84 38 -121 13 -22 -16 -25 -16 -51 0 -41 23 -84 20 -119 -10z"/>
<path d="M11546 6804 c-13 -12 -16 -39 -16 -130 0 -63 3 -114 7 -114 3 0 21
11 39 25 29 22 42 25 118 25 102 0 106 4 106 109 0 97 -6 101 -135 101 -81 0
-107 -3 -119 -16z m223 -18 c7 -9 11 -41 9 -83 l-3 -68 -92 -3 c-65 -2 -95 -7
-103 -17 -7 -8 -16 -15 -21 -15 -10 0 -12 183 -2 193 3 4 50 7 103 7 72 0 101
-4 109 -14z"/>
<path d="M11628 6743 c23 -2 59 -2 80 0 20 2 1 4 -43 4 -44 0 -61 -2 -37 -4z"/>
<path d="M11595 6700 c3 -5 26 -10 51 -10 24 0 44 5 44 10 0 6 -23 10 -51 10
-31 0 -48 -4 -44 -10z"/>
<path d="M11823 6712 c13 -14 17 -39 17 -107 0 -85 -1 -87 -18 -72 -14 13 -38
17 -101 17 -74 0 -83 2 -88 20 -3 11 -9 20 -14 20 -12 0 -11 -17 1 -41 9 -16
22 -19 91 -19 66 0 86 -4 106 -20 14 -11 30 -20 34 -20 5 0 9 49 9 108 0 109
-7 132 -39 132 -12 0 -11 -3 2 -18z"/>
<path d="M780 13190 l0 -800 65 0 65 0 0 800 0 800 -65 0 -65 0 0 -800z"/>
<path d="M1150 13140 l0 -750 65 0 65 0 0 750 0 750 -65 0 -65 0 0 -750z"/>
</g>
</svg>
