<svg width="27" height="30" viewBox="0 0 27 30" fill="none" xmlns="http://www.w3.org/2000/svg">
<path d="M26.4429 21.108C26.4609 21.1329 26.4727 21.1707 26.4696 21.2015C26.4671 21.2263 26.4522 21.2384 26.4331 21.2536C26.3024 21.3588 26.0567 21.3981 25.8979 21.457C25.6179 21.561 25.3398 21.6809 25.0503 21.755C24.7355 21.8355 24.4118 21.8767 24.0903 21.9175C23.2292 22.027 22.3328 22.0908 21.4664 22.0166C21.4506 21.969 21.4384 21.9048 21.4538 21.8563C21.5776 21.8459 21.7115 21.8723 21.8364 21.877C22.072 21.886 22.3098 21.8839 22.5453 21.8793C23.048 21.8697 23.5481 21.8216 24.047 21.7634C24.3837 21.7241 24.7279 21.6861 25.0571 21.6025C25.2975 21.5413 25.5236 21.4442 25.7578 21.364C25.9889 21.2849 26.2216 21.2129 26.4429 21.108Z" fill="#151927"/>
<path d="M20.7891 19.2606C21.1558 19.063 21.532 18.875 21.9081 18.6956C22.0552 18.9839 22.25 19.2477 22.3925 19.538C22.0758 19.8289 21.5491 19.8876 21.1383 19.8852C21.0354 19.7122 20.8261 19.4452 20.7891 19.2606Z" fill="#F1A473"/>
<path d="M15.5191 24.674C15.7045 24.6499 15.9149 24.6319 16.1004 24.6521C16.5136 24.6652 16.9302 24.6298 17.3427 24.6562C17.3031 24.6623 17.2705 24.6584 17.2421 24.688C17.1884 24.9517 17.1515 25.3015 17.1428 25.5708C16.6922 25.5565 16.2418 25.5381 15.7916 25.5159L15.6824 25.5446C15.5697 25.2882 15.5496 24.951 15.5191 24.674Z" fill="#F1A473"/>
<path d="M15.5191 24.6738C15.7046 24.6498 15.9149 24.6318 16.1005 24.652C16.0061 24.6577 15.9122 24.6617 15.8175 24.6624C15.8141 24.9347 15.8382 25.2493 15.7915 25.5157L15.6825 25.5444C15.5698 25.2881 15.5497 24.9509 15.5191 24.6738Z" fill="#204364"/>
<path d="M21.6611 17.9202C21.7058 17.9021 21.7217 17.8862 21.7686 17.9013C21.8775 18.043 22.0717 18.42 22.1285 18.589C22.0555 18.6254 21.982 18.6609 21.908 18.6953C21.5318 18.8748 21.1557 19.0628 20.7889 19.2604C20.6857 19.3159 20.5826 19.3697 20.4761 19.4187C20.3037 19.2286 20.1681 18.9883 20.0109 18.7824C20.1169 18.703 20.2389 18.6518 20.3442 18.5723L20.4201 18.5377C20.5622 18.4997 20.7216 18.3925 20.8545 18.3251L21.6611 17.9202Z" fill="#151927"/>
<path d="M10.5909 10.4116C11.6524 11.0206 12.3986 11.4554 13.2416 12.3744C13.0125 12.5174 12.757 12.6445 12.5381 12.8C12.1933 12.6143 11.8529 12.3769 11.5432 12.1374C11.0182 11.7314 10.9108 11.6445 10.7293 10.997C10.676 10.8064 10.6157 10.6082 10.5909 10.4116Z" fill="#F7A41F"/>
<path d="M22.793 19.8117C22.9066 19.8869 23.0231 19.9525 23.1491 20.005C23.4937 20.1296 23.8267 20.2874 24.1675 20.4218C24.3823 20.5064 24.6435 20.5619 24.8412 20.6773C25.1929 20.7827 25.5808 20.8305 25.9436 20.8849C25.79 20.9911 25.6289 21.088 25.4516 21.149C24.5584 21.4567 22.3446 21.5494 21.3724 21.4649C21.3451 21.126 21.2987 20.7885 21.2713 20.4494C21.621 20.5188 22.1139 20.5923 22.4347 20.3967C22.656 20.2617 22.7331 20.0486 22.793 19.8117Z" fill="#E7342F" fill-opacity="0.8"/>
<path d="M23.149 20.0049C23.4937 20.1295 23.8265 20.2873 24.1675 20.4217C24.3823 20.5063 24.6435 20.5619 24.8412 20.6772C24.734 20.7491 24.3645 20.8531 24.2388 20.8354C24.2051 20.8306 24.218 20.8356 24.1946 20.8069L24.2008 20.7729C24.2511 20.7238 24.3339 20.7182 24.398 20.6899L24.3945 20.668C24.1635 20.5272 23.9999 20.7236 23.7781 20.6746C23.7376 20.6657 23.7249 20.6508 23.7032 20.6174L23.7109 20.5822C23.7735 20.5304 23.8767 20.5177 23.9538 20.4953C23.6861 20.4241 23.7496 20.4354 23.4989 20.4836C23.4356 20.4958 23.3133 20.512 23.2609 20.4621C23.2353 20.4378 23.232 20.4255 23.23 20.3915C23.2857 20.3361 23.4654 20.3459 23.5423 20.3412C23.4783 20.3212 23.4138 20.2791 23.3511 20.2646C23.2239 20.2351 23.0883 20.3649 22.9432 20.2729C22.923 20.2409 22.9152 20.2433 22.9222 20.204C22.973 20.1634 23.0588 20.1569 23.1219 20.1439C23.1558 20.1121 23.1468 20.0515 23.149 20.0049Z" fill="#151927"/>
<path d="M17.3726 25.9898C17.5307 26.0698 17.6957 26.1685 17.8333 26.2808C17.8877 26.3128 17.9419 26.3478 17.9978 26.3769C18.0722 26.4257 18.1507 26.4724 18.2215 26.5258C18.2799 26.5636 18.3379 26.6028 18.3974 26.6387C18.4673 26.6811 18.5417 26.7209 18.6048 26.7731L18.7306 26.8497L18.8912 26.9492L18.9815 27.0016C19.2032 27.1176 19.9749 27.5778 20.1537 27.6117L20.1624 27.6955C20.1531 27.7142 20.1453 27.7222 20.1307 27.7367C20.0145 27.7559 19.8792 27.7358 19.7609 27.7325C19.4655 27.7245 19.1701 27.7145 18.8749 27.7023C17.7348 27.6543 16.5904 27.5748 15.45 27.5552L15.4678 27.3721C15.4901 27.2268 15.5138 27.0782 15.5095 26.9307C15.5363 26.8052 15.5455 26.3166 15.6112 26.2513L16.527 26.3024C16.7344 26.315 16.9429 26.3381 17.1507 26.331C17.2427 26.2288 17.3067 26.1099 17.3726 25.9898Z" fill="#E7342F" fill-opacity="0.8"/>
<path d="M18.8911 26.9495L18.9814 27.0019C18.9386 27.0666 18.882 27.1233 18.8304 27.1812C18.7375 27.144 18.6504 27.1053 18.5641 27.0547C18.6722 27.0174 18.7821 26.9843 18.8911 26.9495Z" fill="#151927"/>
<path d="M18.605 26.7731L18.7309 26.8498C18.7082 26.8718 18.6825 26.8889 18.6539 26.9025C18.5449 26.9545 18.3677 26.985 18.2512 26.9419C18.2106 26.9269 18.1819 26.9046 18.1641 26.8642L18.1804 26.8433C18.3085 26.7864 18.4666 26.7824 18.605 26.7731Z" fill="#151927"/>
<path d="M18.2213 26.526C18.2797 26.5638 18.3375 26.603 18.3971 26.6389C18.2614 26.7005 18.0877 26.7167 17.9411 26.7432C17.8606 26.7094 17.7876 26.6623 17.7131 26.6172C17.8839 26.5844 18.0531 26.5744 18.2213 26.526Z" fill="#151927"/>
<path d="M17.8331 26.281C17.8875 26.313 17.9418 26.348 17.9977 26.3771C17.8685 26.4615 17.6089 26.4696 17.4505 26.4963L17.2726 26.3621C17.4631 26.3466 17.6396 26.2775 17.8331 26.281Z" fill="#151927"/>
<path d="M5.63888 21.0617C5.94416 21.0644 6.24951 21.065 6.55478 21.0632C6.49843 21.3191 6.45106 21.5771 6.39207 21.8323C6.28081 22.2775 6.19663 22.7312 6.09713 23.1794L5.14277 27.5772C5.10928 27.7724 5.08484 27.9726 4.90893 28.0959C4.89686 28.1043 4.88442 28.112 4.87159 28.119C4.85869 28.1261 4.84557 28.1325 4.83207 28.1382C4.81856 28.1439 4.80476 28.1489 4.79088 28.1533C4.77685 28.1577 4.76267 28.1613 4.74826 28.1642C4.73385 28.1671 4.71945 28.1694 4.70481 28.1709C4.69025 28.1723 4.67562 28.173 4.66099 28.1731C4.64628 28.1731 4.63164 28.1723 4.61708 28.1709C4.60253 28.1694 4.58804 28.1672 4.57364 28.1643C4.47067 28.1443 4.38008 28.0878 4.32305 27.9988C4.25803 27.8976 4.25018 27.7883 4.27847 27.6739C4.38347 27.2028 4.46222 26.7253 4.55976 26.2525L5.22333 23.0821C5.3324 22.5562 5.41364 22.0173 5.5461 21.4972C5.58329 21.3539 5.60909 21.2068 5.63888 21.0617Z" fill="#C35224"/>
<path d="M5.63899 21.0617C5.94426 21.0644 6.24961 21.0649 6.55488 21.0631C6.49853 21.319 6.45116 21.577 6.39218 21.8323C6.26771 21.7464 6.13955 21.6816 5.99714 21.63C5.903 21.5959 5.60685 21.5483 5.54621 21.4971C5.5834 21.3538 5.60919 21.2067 5.63899 21.0617Z" fill="#7C161A"/>
<path d="M7.0954 1.91225C7.11479 1.78371 7.13097 1.65315 7.19181 1.5363C7.1989 1.5232 7.20636 1.51011 7.2144 1.49741C7.22232 1.48472 7.23074 1.47243 7.23961 1.46034C7.2485 1.44825 7.25781 1.43657 7.2675 1.42508C7.27719 1.4138 7.28733 1.40272 7.29785 1.39204C7.30837 1.38136 7.31925 1.37109 7.33043 1.36122C7.3417 1.35134 7.35332 1.34188 7.36525 1.33281C7.37718 1.32374 7.38942 1.31528 7.40193 1.30702C7.41454 1.29896 7.42736 1.2911 7.44042 1.28385C7.67522 1.15128 7.9541 1.15591 8.19717 1.04913C8.48223 0.924017 8.68588 0.689501 8.99547 0.594405C9.16712 0.541619 9.37014 0.514419 9.53337 0.605687C9.5878 0.636109 9.66476 0.690509 9.67677 0.755988C9.69279 0.844234 9.62427 0.921801 9.5746 0.986676C9.88173 0.973379 9.96526 0.83154 10.2188 0.719319C10.3071 0.680233 10.4189 0.656459 10.5106 0.698768C10.5841 0.732415 10.6391 0.804945 10.6647 0.880296C10.7181 1.03624 10.6362 1.18996 10.5672 1.32576L10.7143 1.24194C10.8224 1.1813 10.9608 1.13093 11.0849 1.17103C11.1423 1.18956 11.1866 1.22522 11.2124 1.28022C11.2685 1.4007 11.2388 1.57297 11.1943 1.69224C11.054 2.06859 10.7462 2.28961 10.3945 2.44877C9.55239 2.71653 9.03081 1.8782 8.05885 2.16308C8.25413 2.32769 8.42572 2.52534 8.44517 2.7937C8.46538 3.07173 8.30812 3.34997 8.21559 3.60383C8.17325 3.72028 8.14334 3.83935 8.11896 3.96044C8.08696 3.78677 8.06207 3.59537 7.90026 3.48979C7.82973 3.44386 7.75448 3.42734 7.67194 3.44829C7.5601 3.4767 7.46367 3.56394 7.40872 3.66326C7.33976 3.78798 7.33505 3.94492 7.38039 4.0785C7.42125 4.19858 7.50805 4.28381 7.62259 4.33579C7.6773 4.36057 7.73197 4.37084 7.79154 4.37407L7.83323 4.38313C7.74694 4.56768 7.60616 4.6928 7.49858 4.85962C7.40955 4.6382 7.30687 4.42343 7.19062 4.2149C6.90646 3.7098 6.53735 3.22365 6.63251 2.60794C6.67948 2.30452 6.85306 2.08793 7.0954 1.91225Z" fill="#151927"/>
<path d="M12.4602 5.62882C12.4911 5.59626 12.5037 5.56863 12.5494 5.56284C12.7672 5.65423 13.0697 5.9185 13.2414 6.08474C13.487 6.31236 13.7293 6.53913 13.958 6.78397C14.238 7.08542 14.5082 7.39522 14.7689 7.71338C15.0295 8.03171 15.28 8.35771 15.5203 8.69138C15.6883 8.9236 15.8767 9.16793 16.0019 9.42641C16.0512 9.52837 16.0877 9.63698 16.0914 9.75122C16.0958 9.89137 16.0432 10.0177 15.9451 10.1176C15.7278 10.3389 15.421 10.3215 15.1422 10.3804C15.0803 10.2834 14.2633 9.5872 14.1009 9.43733C13.8327 9.18976 13.5779 8.90024 13.2912 8.67552C13.2651 8.54287 12.2787 7.36351 12.1031 7.13759C11.9276 6.92123 11.7265 6.70793 11.5773 6.47349C11.5889 6.4295 11.6184 6.4133 11.6513 6.38312C11.9162 6.12652 12.1858 5.8752 12.4602 5.62882Z" fill="#E7342F" fill-opacity="0.8"/>
<path d="M12.4602 5.62868C12.4911 5.59611 12.5037 5.56849 12.5494 5.5627C12.7672 5.65408 13.0697 5.91836 13.2414 6.0846C12.9742 6.33711 12.6925 6.57565 12.4216 6.82458C12.3166 6.92125 12.1853 7.02168 12.1031 7.13745C11.9276 6.92108 11.7265 6.70779 11.5773 6.47335C11.5889 6.42936 11.6184 6.41316 11.6513 6.38298C11.9162 6.12637 12.1858 5.87506 12.4602 5.62868Z" fill="#F57814"/>
<path d="M8.05893 2.16333C9.03088 1.87831 9.55245 2.71678 10.3946 2.44894C10.4652 2.61771 10.5217 2.78707 10.5698 2.96338C10.597 3.06263 10.6136 3.19723 10.6571 3.2878C10.6781 3.327 10.685 3.33839 10.6761 3.38435C10.6736 3.39709 10.6674 3.41138 10.6627 3.42355C10.6743 3.62805 10.6859 3.83371 10.7041 4.03782C10.8723 4.27399 11.1857 4.4922 11.408 4.68666C11.7629 4.99602 12.1137 5.31001 12.4602 5.62883C12.1858 5.87524 11.9161 6.12666 11.6513 6.3833C11.2869 5.92718 11.1934 5.69777 10.6001 5.5232L10.5904 5.54869C10.5018 5.77579 10.3951 6.02316 10.1544 6.12415C9.79091 6.27632 9.24658 6.06487 8.90248 5.92892C8.30313 5.55333 8.15475 5.08079 7.92375 4.44547L7.90339 4.48351C7.8925 4.44199 7.86119 4.41419 7.8333 4.38329L7.79162 4.37402C7.73203 4.37093 7.67739 4.3607 7.62265 4.33579C7.50812 4.28384 7.42132 4.19868 7.38047 4.07857C7.33514 3.94513 7.33983 3.78814 7.4088 3.66339C7.46375 3.56394 7.56017 3.47685 7.67202 3.44846C7.75455 3.42741 7.8298 3.44402 7.90034 3.48998C8.06214 3.59541 8.08703 3.78678 8.11902 3.96058C8.14341 3.83931 8.17331 3.72035 8.21567 3.60391C8.30821 3.34997 8.46546 3.0719 8.44524 2.79383C8.42579 2.52541 8.25422 2.32767 8.05893 2.16333Z" fill="#F1A473"/>
<path d="M7.92537 4.27011L7.92389 4.44515L7.90352 4.48315C7.89264 4.44176 7.86131 4.41392 7.83344 4.38305L7.79175 4.37377L7.7913 4.29259C7.83701 4.29134 7.88086 4.27992 7.92537 4.27011Z" fill="#F7977B"/>
<path d="M10.4413 3.73949C10.4654 3.7464 10.4874 3.75257 10.5076 3.76838C10.5394 3.79345 10.5578 3.83124 10.5596 3.8714C10.5626 3.93899 10.5337 3.97859 10.4931 4.02783C10.4719 4.02129 10.453 4.01402 10.4344 4.0013C10.398 3.97696 10.3842 3.94807 10.3781 3.90537C10.369 3.84215 10.4047 3.78673 10.4413 3.73949Z" fill="#151927"/>
<path d="M9.36348 3.81877C9.37914 3.82167 9.39406 3.82385 9.40904 3.82965C9.4429 3.84324 9.46967 3.86879 9.48255 3.90303C9.5103 3.9766 9.48047 4.05017 9.44424 4.11377C9.42911 4.11304 9.41501 4.11323 9.40009 4.10906C9.36408 4.09909 9.33776 4.07155 9.32486 4.03694C9.29711 3.96229 9.32836 3.88401 9.36348 3.81877Z" fill="#131212"/>
<path d="M10.6626 3.42313C10.5083 3.43108 10.275 3.46875 10.1464 3.37216L10.1507 3.33947C10.281 3.24952 10.5042 3.28073 10.6571 3.28757C10.6781 3.32672 10.685 3.33817 10.676 3.38398C10.6736 3.39672 10.6674 3.41094 10.6626 3.42313Z" fill="#131212"/>
<path d="M9.96951 3.68022C10.0177 3.80584 9.98486 3.95002 10.0336 4.07801C10.118 4.29956 10.3065 4.52039 10.3373 4.7576C10.3444 4.81276 10.3408 4.87412 10.3001 4.91635C10.2521 4.96605 10.1883 4.96186 10.1245 4.96387C10.1106 4.94184 10.1159 4.95495 10.112 4.92327C10.1448 4.90925 10.1879 4.91053 10.2171 4.89542C10.2406 4.8834 10.2596 4.86811 10.2693 4.84335C10.3253 4.70153 10.1049 4.38822 10.0404 4.24822C9.96152 4.07691 9.90143 3.86482 9.96951 3.68022Z" fill="#E7342F" fill-opacity="0.8"/>
<path d="M9.55651 3.3207L9.60312 3.32585C9.63585 3.35018 9.64175 3.35386 9.65658 3.39127C9.65433 3.39606 9.65255 3.40103 9.6498 3.40545C9.59073 3.50016 9.1851 3.55562 9.07215 3.58474C9.06736 3.58547 9.06268 3.58695 9.0579 3.58732C9.00503 3.591 9.00219 3.58289 8.9626 3.54973L8.96006 3.51453C9.05178 3.38777 9.40954 3.34502 9.55651 3.3207Z" fill="#151927"/>
<path d="M7.79136 4.29248C7.69205 4.26 7.60241 4.18849 7.53614 4.10876C7.47781 4.0387 7.44524 3.95276 7.45657 3.86117C7.45754 3.85242 7.45904 3.84384 7.4609 3.83527C7.46283 3.82669 7.46515 3.8183 7.4679 3.8099C7.47066 3.80151 7.4738 3.79348 7.47738 3.78546C7.48095 3.77743 7.48491 3.76958 7.48931 3.76192C7.49364 3.75444 7.49833 3.74696 7.50347 3.73984C7.50854 3.73273 7.51398 3.72598 7.5198 3.71941C7.52562 3.71266 7.53174 3.70646 7.53814 3.70043C7.54462 3.6946 7.55134 3.68894 7.55834 3.68365C7.61756 3.6384 7.69913 3.61541 7.7728 3.63092C7.82985 3.64296 7.87592 3.67726 7.90545 3.72726C7.98844 3.86847 7.96569 4.11788 7.92543 4.27004C7.88092 4.27989 7.83707 4.29139 7.79136 4.29248Z" fill="#E7342F" fill-opacity="0.8"/>
<path d="M10.6 5.52313C11.1933 5.69763 11.2868 5.92711 11.6512 6.38317C11.6183 6.41339 11.5887 6.42944 11.5771 6.4735C11.7263 6.7081 11.9275 6.92136 12.103 7.1377C12.2786 7.36359 13.265 8.54276 13.291 8.67561C13.5777 8.90031 13.8325 9.18972 14.1008 9.43747C14.2632 9.58722 15.0802 10.2833 15.1421 10.3803C14.0265 10.4911 12.5264 10.2774 11.4123 10.0745C11.1737 10.031 10.9191 10.0001 10.6862 9.93366C10.6162 9.94476 10.5493 9.95586 10.4817 9.97823C10.315 9.37071 10.1908 8.75244 10.022 8.14527C9.97906 8.03958 9.93388 7.90196 9.85283 7.81966C9.53183 7.42438 9.03761 6.88226 8.56972 6.67891L8.52677 6.6159L8.51693 6.60822C8.5085 6.48289 8.82212 6.06285 8.90235 5.92882C9.24647 6.06473 9.7908 6.27629 10.1543 6.12398C10.395 6.02307 10.5017 5.77583 10.5903 5.54857L10.6 5.52313Z" fill="#A91C22"/>
<path d="M10.0225 8.14525C10.131 8.17169 10.2207 8.22351 10.2786 8.32233C10.3808 8.49648 10.6703 9.70932 10.6867 9.93373C10.6167 9.94471 10.5498 9.95585 10.4822 9.97827C10.3155 9.37077 10.1913 8.75244 10.0225 8.14525Z" fill="#7C161A"/>
<path d="M10.6 5.52281C11.1933 5.69732 11.2868 5.9268 11.6512 6.38286C11.6183 6.41308 11.5887 6.42913 11.5771 6.47318C11.7263 6.70779 11.9275 6.92105 12.103 7.13739C12.2786 7.36328 13.265 8.54245 13.291 8.67529L10.9783 7.51046C10.4979 7.27415 9.99794 7.02025 9.49096 6.84661C9.17204 6.73733 8.85009 6.69737 8.52677 6.61559L8.51693 6.6079C8.5085 6.48258 8.82212 6.06254 8.90235 5.9285C9.24647 6.06442 9.7908 6.27597 10.1543 6.12367C10.395 6.02276 10.5017 5.77552 10.5903 5.54826L10.6 5.52281Z" fill="#0D5537"/>
<path d="M2.40226 14.2094C2.72453 14.2909 3.0474 14.3697 3.371 14.4457C3.52409 14.4815 3.70745 14.5047 3.85366 14.5589C3.87484 14.7163 3.91488 14.866 3.95634 15.0189C4.50886 16.6752 5.79317 17.9112 7.32655 18.6812C7.39868 19.2751 7.4176 19.8923 7.55176 20.4756C7.59769 20.6754 7.66818 20.8645 7.73467 21.0578C7.34124 21.0687 6.94815 21.0557 6.55493 21.0629C6.24965 21.0648 5.94432 21.0642 5.63905 21.0615C5.29531 21.0329 4.98407 20.9629 4.67745 20.7984C4.65308 20.7851 4.62891 20.7712 4.60514 20.757C4.58126 20.7428 4.55771 20.7281 4.53437 20.713C4.51111 20.6978 4.48814 20.6822 4.46547 20.6662C4.44272 20.6501 4.42035 20.6337 4.39829 20.6168C4.37622 20.5999 4.35452 20.5826 4.33311 20.5649C4.31172 20.5471 4.29061 20.529 4.26996 20.5105C4.24924 20.492 4.22888 20.4731 4.20889 20.4538C4.18891 20.4345 4.1693 20.4148 4.15006 20.3948C4.13083 20.3747 4.11196 20.3543 4.09354 20.3335C4.07512 20.3127 4.05708 20.2917 4.03941 20.2702C4.02174 20.2487 4.0045 20.2269 3.98773 20.2047C3.97095 20.1827 3.95455 20.1602 3.9386 20.1374C3.92263 20.1148 3.90713 20.0916 3.89207 20.0684C3.87701 20.045 3.86239 20.0214 3.84822 19.9974C3.83406 19.9736 3.82033 19.9494 3.80706 19.925C3.79387 19.9007 3.78112 19.876 3.76881 19.8511C3.56174 19.4411 3.48949 18.9445 3.38033 18.4997C3.13956 17.5122 2.91191 16.5216 2.69747 15.5281C2.59956 15.0924 2.52954 14.6362 2.40226 14.2094Z" fill="#F7A41F"/>
<path d="M7.58594 14.2248C7.81461 14.3497 8.0158 14.4957 8.22815 14.6448C8.36702 14.838 8.6755 15.0896 8.8659 15.237C8.99009 15.3397 9.16934 15.4739 9.18612 15.6467C9.19587 15.7489 9.14093 15.839 9.07508 15.912C8.92823 16.0748 8.74323 16.2089 8.58312 16.3589C8.55272 16.3873 8.55976 16.3881 8.55507 16.427L8.56798 16.4444C8.55906 16.7298 8.7383 19.1133 8.76941 19.167L8.80099 19.1795L8.76683 19.1941C8.75462 19.311 8.78749 19.4648 8.79688 19.5853C8.83573 20.0786 8.87764 20.5739 8.94772 21.0639C8.96403 21.1977 8.98457 21.3306 9.00946 21.463C9.03435 21.5953 9.06346 21.7267 9.09679 21.8573C9.13013 21.9877 9.16758 22.117 9.20925 22.245C9.25092 22.3731 9.2967 22.4997 9.34659 22.6248C9.33391 22.6205 9.32135 22.6161 9.30879 22.6115C8.58007 22.3415 8.05677 21.7482 7.73455 21.058C7.66811 20.8646 7.59768 20.6755 7.55167 20.4757C7.4175 19.8925 7.3986 19.2752 7.32641 18.6815C5.7931 17.9115 4.5088 16.6754 3.95627 15.0191C3.91481 14.8662 3.87477 14.7165 3.8536 14.5592C4.08677 14.5691 4.33975 14.6504 4.56793 14.7022L5.82329 14.986C6.02581 15.0305 6.23213 15.0845 6.43719 15.1148C6.71706 15.1723 6.99996 15.2375 7.28509 15.2625C7.32911 15.1786 7.37371 15.0949 7.41879 15.0115C7.41491 14.8867 7.55413 14.4045 7.58594 14.2248Z" fill="#E7342F" fill-opacity="0.8"/>
<path d="M8.07868 16.2838C8.06188 16.2555 8.04956 16.2318 8.02469 16.2096C8.02416 16.2706 8.02671 16.3301 8.00769 16.3887L7.98441 16.3933C7.92171 16.3377 7.87697 16.2671 7.86443 16.1827C7.85816 16.1403 7.86124 16.1106 7.88622 16.0748C7.98739 16.0356 8.01704 16.1115 8.10758 16.1245C8.13415 16.1049 8.12437 16.1142 8.1469 16.0891C8.15222 16.0833 8.15742 16.0771 8.16274 16.0712C8.18782 16.1044 8.19143 16.1353 8.19813 16.175C8.15966 16.212 8.12225 16.2528 8.07868 16.2838Z" fill="#F57B72"/>
<path d="M8.19797 16.1747C8.31315 16.0542 8.33773 15.925 8.48677 15.7796C8.50866 15.8917 8.50219 16.0764 8.4404 16.1749C8.36275 16.2816 8.24477 16.4226 8.10803 16.4514C8.08646 16.4559 8.07611 16.4491 8.05605 16.4426C8.03621 16.4091 8.03082 16.4052 8.03934 16.3653C8.04559 16.3367 8.06263 16.3077 8.07848 16.2835C8.12205 16.2526 8.15947 16.2119 8.19797 16.1747Z" fill="#F7977B"/>
<path d="M3.8536 14.5591C4.08675 14.5691 4.33976 14.6503 4.56792 14.7022L5.8233 14.986C6.02581 15.0305 6.23213 15.0844 6.43718 15.1147C6.71698 15.1722 6.99989 15.2375 7.28511 15.2625C7.32905 15.1786 7.37368 15.0948 7.41878 15.0114C7.44311 15.0675 7.45811 15.1242 7.47368 15.1833C7.77366 15.4013 8.15056 15.5422 8.48192 15.7086C8.43301 15.7413 8.38008 15.7786 8.32518 15.8001C8.28504 15.8158 8.23718 15.8206 8.19658 15.8057C8.08263 15.764 7.90271 15.583 7.79799 15.5059C7.67805 15.4176 7.55556 15.3466 7.4212 15.2826C7.3565 15.3696 7.29076 15.4407 7.20437 15.5062C6.91212 15.4958 6.60603 15.4239 6.31721 15.3789L4.91577 15.1675C4.59745 15.1171 4.27704 15.0494 3.95627 15.0191C3.91481 14.8661 3.87477 14.7165 3.8536 14.5591Z" fill="#A91C22"/>
<path d="M7.58558 14.2246C7.81424 14.3495 8.01544 14.4955 8.22779 14.6446C8.36665 14.8378 8.67514 15.0894 8.86553 15.2368C8.98973 15.3395 9.16897 15.4737 9.18576 15.6465C9.1955 15.7486 9.14056 15.8388 9.07471 15.9118C8.92786 16.0746 8.74287 16.2087 8.58275 16.3587C8.55235 16.3871 8.5594 16.3879 8.5547 16.4268L8.54108 16.3892C8.48122 16.3559 8.42241 16.3945 8.35761 16.3742C8.4014 16.316 8.42675 16.2626 8.43802 16.1904C8.43884 16.1852 8.43943 16.1801 8.44025 16.1749C8.502 16.0764 8.50857 15.8917 8.48662 15.7796C8.4946 15.7613 8.50176 15.7414 8.50904 15.7227L8.48157 15.7085C8.1502 15.5421 7.77327 15.4013 7.47324 15.1832C7.45763 15.1242 7.44272 15.0674 7.41842 15.0113C7.41455 14.8865 7.55377 14.4043 7.58558 14.2246Z" fill="#F1A473"/>
<path d="M5.14272 27.5771C6.07485 27.4765 7.01906 27.4348 7.95559 27.396C9.40401 27.3337 10.853 27.3068 12.3027 27.3151C13.0177 27.3152 13.7325 27.323 14.4473 27.3384C14.7863 27.3463 15.1296 27.3447 15.4676 27.3722L15.4497 27.5552C16.5903 27.5749 17.7346 27.6544 18.8748 27.7024C19.1699 27.7145 19.4654 27.7246 19.7606 27.7326C19.8791 27.7359 20.0144 27.7559 20.1306 27.7368C20.1452 27.7223 20.1528 27.7142 20.1623 27.6956L20.1537 27.6118C20.2566 27.5849 20.4069 27.6252 20.5133 27.6398C20.9457 27.6988 21.5062 27.7541 21.8879 27.9752C21.9513 28.012 21.9892 28.0586 22.032 28.1172C21.7466 28.4898 20.6333 28.5757 20.1672 28.6375C18.6548 28.8376 17.1094 28.8909 15.5858 28.9475C14.7259 28.9842 13.8656 29.0072 13.0052 29.0164C12.1446 29.0256 11.284 29.021 10.4236 29.0027C9.56314 28.9844 8.70317 28.9524 7.84383 28.9066C6.98439 28.8608 6.12593 28.8013 5.26837 28.728C4.77914 28.6847 3.02241 28.5156 2.68365 28.2447C2.65591 28.2226 2.64048 28.2029 2.62922 28.1686C2.63012 28.1292 2.63876 28.1046 2.66687 28.0766C2.86775 27.8771 3.96385 27.7139 4.27837 27.6738C4.25011 27.7882 4.25793 27.8974 4.32296 27.9987C4.37999 28.0877 4.47059 28.1442 4.57357 28.1642C4.58797 28.1671 4.60243 28.1692 4.61704 28.1707C4.63157 28.1722 4.6462 28.1729 4.66088 28.1729C4.67558 28.1729 4.69019 28.1721 4.70472 28.1707C4.71934 28.1692 4.73382 28.167 4.7482 28.1641C4.76259 28.1612 4.77675 28.1575 4.79078 28.1532C4.80471 28.1488 4.81851 28.1437 4.832 28.1381C4.8455 28.1323 4.85863 28.1259 4.87152 28.1188C4.88435 28.1118 4.89681 28.1041 4.90889 28.0958C5.08478 27.9725 5.10917 27.7722 5.14272 27.5771Z" fill="#A9E0E0"/>
<path d="M15.4098 27.8496C15.973 27.8973 16.5447 27.9001 17.1098 27.9238C17.9494 27.9591 18.7918 28.0161 19.6324 28.0195C19.9269 28.0207 20.2208 27.9959 20.5152 27.9897C20.544 28.009 20.5655 28.0207 20.584 28.0511C20.5984 28.0746 20.5905 28.0779 20.583 28.1018C20.5211 28.1472 20.4353 28.1525 20.3607 28.158C19.7629 28.2017 19.0543 28.1594 18.4521 28.144C17.4278 28.1222 16.4036 28.0913 15.3796 28.0515C15.3871 27.9835 15.3929 27.9161 15.4098 27.8496Z" fill="#151927"/>
<path d="M15.4499 27.5551C16.5903 27.5748 17.7348 27.6543 18.8749 27.7023C19.1701 27.7144 19.4654 27.7245 19.7607 27.7325C19.8792 27.7357 20.0145 27.7558 20.1307 27.7366C20.1454 27.7222 20.1529 27.7141 20.1624 27.6955C20.2136 27.731 20.5028 27.9616 20.5154 27.9894C20.221 27.9956 19.9271 28.0204 19.6325 28.0192C18.792 28.0158 17.9496 27.9588 17.1099 27.9235C16.5449 27.8998 15.9732 27.897 15.4099 27.8493C15.4294 27.7534 15.4373 27.6523 15.4499 27.5551Z" fill="#0D5537"/>
<path d="M7.83352 4.38299C7.86141 4.41392 7.89271 4.44182 7.90361 4.48323L7.92397 4.4452C8.15497 5.08044 8.30334 5.55305 8.90269 5.92861C8.82246 6.06262 8.50885 6.48262 8.51727 6.60811L8.52712 6.61575L8.57007 6.67867C9.03796 6.88218 9.53217 7.42429 9.85318 7.8194C9.93423 7.90187 9.97942 8.03944 10.0224 8.14502C10.1912 8.75218 10.3153 9.37053 10.4821 9.97804C10.5111 10.1167 10.5304 10.2841 10.5914 10.4116C10.6162 10.6081 10.6764 10.8065 10.7298 10.997C10.9112 11.6445 11.0186 11.7314 11.5436 12.1374C11.8533 12.3768 12.1937 12.6143 12.5385 12.8C12.1864 13.0147 11.82 13.2165 11.4746 13.4408C10.8804 13.8261 10.2788 14.1988 9.69644 14.6021C9.41459 14.7974 9.1123 14.997 8.86602 15.2368C8.67558 15.0895 8.36711 14.8378 8.22827 14.6448C8.24115 13.9027 8.16757 13.1603 8.07556 12.4252C8.00532 11.8642 7.92567 11.2935 7.78721 10.7448C7.72189 10.4128 7.57917 10.0838 7.47836 9.75996C7.23402 8.97542 6.97721 8.19532 6.74397 7.4074C6.66673 7.14648 6.57613 6.88822 6.51126 6.6241C6.50984 6.62108 6.50806 6.61806 6.50694 6.61504C6.47018 6.5084 6.36892 6.24516 6.40545 6.14314C6.4974 6.08413 7.43624 4.98588 7.49887 4.85951C7.60646 4.69261 7.74724 4.56766 7.83352 4.38299Z" fill="#40ADB2"/>
<path d="M8.47174 6.6433L8.56979 6.67902C9.03768 6.88239 9.53189 7.42448 9.85288 7.81975C9.64628 7.92594 9.43682 8.0277 9.23587 8.14438C9.48111 8.22664 9.72672 8.29973 9.9754 8.37036C9.89524 8.73809 9.85387 9.11631 9.79473 9.48814C9.73605 9.85686 9.65029 10.2374 9.63538 10.6104C9.53785 10.3865 9.48208 10.1336 9.41453 9.8993C9.3047 9.51961 9.1927 9.1404 9.07869 8.76186C8.93039 8.25549 8.72049 7.29535 8.39449 6.89976C8.41433 6.81405 8.45048 6.72998 8.47174 6.6433Z" fill="#F6E6AD"/>
<path d="M7.83352 4.38301C7.86141 4.41393 7.89271 4.44184 7.90361 4.48325L7.92397 4.44521C8.15497 5.08046 8.30334 5.55306 8.90269 5.92863C8.82246 6.06264 8.50885 6.48264 8.51727 6.60813L8.52712 6.61577L8.57007 6.67869L8.47201 6.64314C8.45077 6.7297 8.41461 6.81377 8.39477 6.89944C8.29939 7.05158 8.29559 7.28371 8.16004 7.40777C8.07652 7.48438 7.96206 7.50429 7.85254 7.49647C7.31358 7.45807 6.8477 7.00537 6.51126 6.62412C6.50984 6.6211 6.50806 6.61808 6.50694 6.61506C6.47018 6.50841 6.36892 6.24518 6.40545 6.14316C6.4974 6.08415 7.43624 4.9859 7.49887 4.85952C7.60646 4.69263 7.74724 4.56768 7.83352 4.38301Z" fill="#F1A473"/>
<path d="M7.92372 4.44506C8.1547 5.08036 8.30309 5.55302 8.90245 5.92849C8.82222 6.06257 8.5086 6.48255 8.51703 6.60794L8.52685 6.61557L8.56982 6.67871L8.47176 6.64288C8.2289 6.33251 7.96853 4.9202 7.90335 4.48301L7.92372 4.44506Z" fill="#E7342F" fill-opacity="0.8"/>
<path d="M9.85312 7.81985C9.93417 7.90225 9.97936 8.0398 10.0223 8.14554C10.1911 8.75259 10.3153 9.37107 10.482 9.97858C10.5111 10.1171 10.5304 10.2845 10.5913 10.4121C10.6161 10.6087 10.6762 10.8068 10.7297 10.9973C10.9111 11.6449 11.0186 11.7319 11.5435 12.1378C11.8533 12.3773 12.1936 12.6148 12.5385 12.8004C12.1862 13.0152 11.8199 13.217 11.4746 13.4412C10.8978 12.802 10.4022 12.1657 9.99777 11.4029C9.86236 11.1477 9.73173 10.8833 9.6356 10.6105C9.65052 10.2375 9.73627 9.85702 9.79495 9.4884C9.85409 9.1165 9.89547 8.73817 9.97563 8.3705C9.72695 8.30001 9.48134 8.22669 9.2361 8.1446C9.43705 8.02789 9.64649 7.92622 9.85312 7.81985Z" fill="#E7342F" fill-opacity="0.8"/>
<path d="M5.6646 6.52649C5.70873 6.45724 5.70239 6.37009 5.74685 6.29732C5.82334 6.23978 6.2723 6.08873 6.36253 6.10445C6.38557 6.10847 6.39182 6.1262 6.40524 6.14326C6.36872 6.24513 6.46997 6.50859 6.50673 6.61515C6.50785 6.61832 6.50964 6.62117 6.51105 6.62418C6.57593 6.88831 6.66653 7.14675 6.74378 7.40753C6.977 8.19556 7.23381 8.97557 7.47816 9.76009C7.57896 10.0838 7.7217 10.4128 7.787 10.745C7.92548 11.2937 8.0051 11.8642 8.07535 12.4253C8.16736 13.1605 8.24096 13.9028 8.22806 14.6449C8.01569 14.4957 7.81452 14.3496 7.58591 14.2248C7.55399 14.4045 7.41478 14.8867 7.41873 15.0114C7.37363 15.0948 7.32896 15.1786 7.28497 15.2625C6.99983 15.2375 6.71692 15.1723 6.43708 15.1147C6.23203 15.0845 6.02572 15.0306 5.82319 14.9859L4.56782 14.7022C4.33966 14.6504 4.08666 14.5691 3.8535 14.5592C3.70727 14.5049 3.52392 14.4816 3.37084 14.446C3.04722 14.3699 2.72436 14.2911 2.40209 14.2096C2.07338 14.1163 1.73232 14.0504 1.39919 13.9729C1.2275 13.9331 1.04455 13.9012 0.882508 13.8304C0.714781 13.7573 0.599053 13.6481 0.535342 13.4739C0.307133 12.8502 1.01691 11.1836 1.30657 10.5821C2.04348 9.05218 3.20732 7.67115 4.74022 6.90001C5.03714 6.75064 5.35128 6.63622 5.6646 6.52649Z" fill="#E7342F" fill-opacity="0.8"/>
<path d="M3.30806 11.6715C3.33774 11.6124 3.38114 11.5334 3.42662 11.486C3.44735 11.4644 3.45153 11.4607 3.4818 11.4597L3.497 11.5237C3.49566 11.6188 3.49902 11.7103 3.50893 11.8051L3.61274 12.8276L3.36816 12.7446C3.33587 12.3862 3.32014 12.0308 3.30806 11.6715Z" fill="#0D5537"/>
<path d="M3.30781 11.6711C3.31988 12.0306 3.33562 12.3859 3.36791 12.7444C3.18306 12.6771 2.93103 12.6215 2.77071 12.5131C2.9326 12.2249 3.12788 11.9486 3.30781 11.6711Z" fill="#F7A41F"/>
<path d="M5.26331 9.23931C5.00337 9.72235 3.92845 11.5501 3.50865 11.8047C3.49873 11.7099 3.49538 11.6184 3.49672 11.5233C3.49552 11.4802 3.49083 11.4292 3.51037 11.3896C3.59462 11.2185 3.75412 11.0485 3.87111 10.8975C4.3091 10.3229 4.77313 9.77014 5.26331 9.23931Z" fill="#A91C22"/>
<path d="M6.75469 13.743C7.04552 13.8254 7.3341 13.9148 7.62063 14.0109C7.60751 14.082 7.59716 14.1536 7.58573 14.225C7.55384 14.4047 7.41461 14.8869 7.41858 15.0116C7.37345 15.0951 7.3288 15.1788 7.28476 15.2627C6.99967 15.2378 6.71673 15.1725 6.43689 15.1149C6.50027 14.9193 6.53471 14.713 6.57618 14.5119C6.62777 14.2538 6.68735 13.9974 6.75469 13.743Z" fill="#F7A41F"/>
<path d="M5.66459 6.5266C5.70872 6.45735 5.70238 6.37019 5.74684 6.29743C5.82333 6.23989 6.27229 6.08884 6.36252 6.10456C6.38555 6.10858 6.39181 6.12631 6.40523 6.14337C6.36871 6.24524 6.46996 6.5087 6.50672 6.61525C6.50784 6.61843 6.50963 6.62127 6.51104 6.62429C6.57592 6.88841 6.66652 7.14686 6.74376 7.40764C6.97699 8.19567 7.23379 8.97568 7.47815 9.7602C7.57895 10.0839 7.72168 10.4129 7.78698 10.7451C7.36727 10.1836 6.87716 9.65866 6.40479 9.14011C6.17834 8.89154 5.94383 8.64983 5.73564 8.38536C5.9413 8.28433 6.15634 8.19868 6.36437 8.10183C6.06432 8.04211 5.74548 8.02104 5.44111 7.9839C5.50516 7.49663 5.57966 7.01086 5.66459 6.5266Z" fill="#F6E6AD"/>
<path d="M13.1444 18.2656C13.9482 18.2616 14.7518 18.2435 15.5552 18.211C15.4819 18.6823 15.4608 19.1691 15.4367 19.6456C15.4131 20.1109 15.3874 20.578 15.3844 21.044C15.2802 21.0423 15.0919 21.0159 14.9998 21.0543C15.0205 21.1305 15.0423 21.2066 15.06 21.2836C15.11 21.4961 15.2949 22.5663 15.3638 22.6662C15.3828 22.8401 15.446 23.6709 15.3975 23.7853L15.3208 23.8074C15.2537 23.9479 15.2828 24.5046 15.2822 24.6797C15.361 24.678 15.4405 24.6786 15.519 24.6736C15.5496 24.9506 15.5696 25.2878 15.6824 25.5442C15.6574 25.645 15.5754 26.1808 15.6113 26.2512C15.5456 26.3165 15.5365 26.8051 15.5097 26.9306C15.5139 27.0781 15.4902 27.2267 15.4679 27.372C15.1299 27.3445 14.7866 27.3461 14.4475 27.3383C13.7328 27.3228 13.0179 27.315 12.303 27.3149C10.8533 27.3066 9.40426 27.3336 7.95584 27.3958C7.01934 27.4347 6.07513 27.4763 5.14299 27.5769L6.09734 23.1791C6.19682 22.7309 6.281 22.2772 6.39224 21.832C6.45123 21.5767 6.49865 21.3187 6.55495 21.0628C6.94812 21.0556 7.34131 21.0686 7.73464 21.0578C8.05685 21.7479 8.58019 22.3412 9.30888 22.6112C9.32141 22.6158 9.33394 22.6202 9.3466 22.6245C9.29686 22.4994 9.25108 22.3728 9.2094 22.2447C9.16772 22.1167 9.13026 21.9875 9.09688 21.857C9.06351 21.7265 9.03449 21.595 9.00955 21.4627C8.98475 21.3304 8.96416 21.1974 8.94792 21.0637C8.87773 20.5736 8.83592 20.0783 8.79705 19.585C8.78759 19.4646 8.75472 19.3106 8.767 19.1938L8.80114 19.1792C8.90125 19.1883 9.00137 19.1953 9.10174 19.2003C9.90676 19.2368 10.6242 19.0528 11.2961 18.6033C11.4322 18.5123 11.574 18.4195 11.6948 18.3089C12.1778 18.2886 12.6613 18.2936 13.1444 18.2656Z" fill="#0D5537"/>
<path d="M14.1982 21.0487C14.3206 21.0352 14.9063 21.0002 14.9924 21.0448L14.9995 21.0543C15.0202 21.1305 15.0421 21.2066 15.0597 21.2837C15.1097 21.4961 15.2946 22.5663 15.3635 22.6663C15.3826 22.8401 15.4458 23.6709 15.3973 23.7853L15.3206 23.8075C15.2534 23.9479 15.2826 24.5046 15.282 24.6797C15.3607 24.678 15.4403 24.6787 15.5188 24.6736C15.5493 24.9506 15.5694 25.2878 15.6822 25.5442C15.6571 25.645 15.5751 26.1808 15.6111 26.2512C15.5454 26.3165 15.5363 26.8051 15.5094 26.9307C15.4148 26.6978 15.3704 26.4233 15.3135 26.1784C15.1941 25.6676 15.0811 25.1553 14.9743 24.6418L14.545 22.7013C14.467 22.3433 14.3807 21.9842 14.3226 21.6223C14.2745 21.4334 14.239 21.2395 14.1982 21.0487Z" fill="#C35224"/>
<path d="M14.1982 21.0487C14.3206 21.0352 14.9062 21.0001 14.9923 21.0448L14.9994 21.0542C15.0201 21.1305 15.0421 21.2066 15.0597 21.2836C14.9681 21.4408 14.8592 21.5462 14.6771 21.5914C14.5607 21.6203 14.4419 21.6213 14.3225 21.6223C14.2745 21.4333 14.2389 21.2395 14.1982 21.0487Z" fill="#A91C22"/>
<path d="M13.1442 18.2659C13.9482 18.2619 14.7518 18.2436 15.555 18.2112C15.4818 18.6826 15.4607 19.1695 15.4366 19.6458C15.4131 20.1111 15.3873 20.5783 15.3842 21.0442C15.28 21.0425 15.092 21.0162 14.9996 21.0545L14.9926 21.045C14.9064 21.0004 14.3208 21.0354 14.1984 21.0489C13.7188 21.0892 13.1956 21.0602 12.7104 21.0603L10.1897 21.0614C9.77639 21.0619 9.36071 21.0512 8.94782 21.0639C8.87755 20.5738 8.83574 20.0786 8.79698 19.5852C8.78745 19.4648 8.75466 19.3109 8.76686 19.1941L8.80104 19.1795C8.90106 19.1885 9.00133 19.1955 9.10172 19.2006C9.90665 19.2369 10.6242 19.0531 11.2959 18.6036C11.432 18.5125 11.5738 18.4197 11.6947 18.3092C12.1777 18.2889 12.6613 18.2938 13.1442 18.2659Z" fill="#F7A41F"/>
<path d="M13.2416 12.3745C14.023 11.947 14.7793 11.4747 15.5609 11.0466C15.8857 10.8689 16.2205 10.6569 16.5766 10.5506C16.8609 10.4656 17.1656 10.4463 17.4529 10.5284C17.9278 10.6643 18.1053 10.9879 18.3285 11.3963C18.9726 12.5772 19.6024 13.7658 20.2176 14.9621C20.726 15.9348 21.2071 16.9209 21.6609 17.9202L20.8545 18.3251C20.7216 18.3926 20.5621 18.4998 20.42 18.5377L20.3441 18.5724C20.2388 18.6518 20.1167 18.703 20.0107 18.7824C19.5823 18.2437 19.1647 17.7045 18.7778 17.1348C18.635 18.2259 18.3958 19.3024 18.157 20.3757L17.7081 22.4276C17.6696 22.601 17.3842 23.8039 17.4095 23.8455C17.4128 23.8509 17.4319 23.8693 17.437 23.8743C17.4208 24.1354 17.3682 24.3954 17.3422 24.656C16.9299 24.6296 16.5131 24.665 16.1001 24.652C15.9145 24.6318 15.704 24.6497 15.5186 24.6738C15.4401 24.6789 15.3606 24.6782 15.2818 24.6799C15.2825 24.5048 15.2533 23.9482 15.3205 23.8077L15.3971 23.7856C15.4457 23.6711 15.3823 22.8403 15.3634 22.6665C15.2945 22.5665 15.1095 21.4964 15.0595 21.2839C15.0419 21.2068 15.02 21.1308 14.9993 21.0545C15.0916 21.0162 15.2797 21.0425 15.384 21.0442C15.3869 20.5783 15.4128 20.1112 15.4363 19.6459C15.4603 19.1694 15.4815 18.6826 15.5548 18.2112C14.7515 18.2437 13.9478 18.2619 13.1439 18.2659C12.661 18.2938 12.1774 18.2889 11.6944 18.3091C11.5735 18.4197 11.4317 18.5125 11.2956 18.6035C10.6238 19.0531 9.90629 19.237 9.10136 19.2006C9.00099 19.1955 8.90078 19.1885 8.80071 19.1795L8.7691 19.167C8.738 19.1134 8.55875 16.7298 8.5677 16.4445L8.5548 16.4269C8.55942 16.3881 8.55241 16.3872 8.58275 16.3589C8.74292 16.2089 8.92792 16.0747 9.07482 15.912C9.14065 15.8389 9.19561 15.7489 9.18577 15.6468C9.16907 15.4739 8.98982 15.3398 8.86559 15.237C9.11187 14.9971 9.41416 14.7974 9.69602 14.6023C10.2784 14.1989 10.88 13.8262 11.4741 13.4409C11.8195 13.2166 12.1859 13.015 12.538 12.8003C12.7571 12.6446 13.0126 12.5175 13.2416 12.3745Z" fill="#172E48"/>
<path d="M8.58315 16.3588C9.05195 16.4884 9.43305 16.417 9.85239 16.178C10.5623 15.7735 11.2866 15.2785 11.9628 14.8188C12.6674 14.344 13.3679 13.863 14.0642 13.376L15.1837 12.5847C15.4267 12.4159 15.6686 12.2419 15.9287 12.1001C16.1705 11.9685 16.5882 11.7491 16.875 11.8192C16.9426 11.8357 16.9975 11.8729 17.0317 11.9341C17.1052 12.0657 17.0496 12.422 17.052 12.5814C17.0534 12.6772 17.0637 12.7738 17.0787 12.8683C17.1297 13.1937 17.2448 13.5073 17.3873 13.8034C17.5661 14.1747 17.7961 14.5282 18.0066 14.8827C18.4391 15.611 18.8807 16.3406 19.3668 17.0347C19.7162 17.5334 20.1064 18.0158 20.4203 18.5376L20.3445 18.5723C20.0295 18.0485 19.6385 17.5735 19.2935 17.0697C18.7835 16.3145 18.2983 15.5435 17.8379 14.7571C17.5563 14.2822 17.2608 13.822 17.098 13.2891C17.0303 13.0678 16.9721 12.8157 16.9729 12.5835C16.9735 12.4086 17.0157 12.1996 16.9738 12.0296C16.9666 12 16.9559 11.9681 16.9335 11.9463C16.8659 11.8807 16.7292 11.9005 16.6427 11.9035C16.5598 12.2811 16.4717 13.4113 16.5835 13.7528C16.6444 13.9383 16.7891 14.1249 16.8883 14.2962C16.7488 14.2351 16.5733 13.8261 16.5052 13.6859C16.4217 13.1003 16.4749 12.5074 16.5476 11.9236C15.9452 12.0929 15.4155 12.5306 14.9088 12.8847L13.7009 13.7274C12.6977 14.422 11.6968 15.1248 10.6612 15.771C10.2829 16.007 9.87843 16.3198 9.44961 16.4513C9.15828 16.5404 8.86017 16.5178 8.56811 16.4443L8.55521 16.4268C8.55982 16.3879 8.55282 16.3872 8.58315 16.3588Z" fill="#0D5537"/>
<path d="M8.5678 16.4442C8.85984 16.5176 9.15801 16.5403 9.44938 16.4511C9.87819 16.3197 10.2826 16.0068 10.6608 15.7708C11.6965 15.1246 12.6974 14.4217 13.7007 13.7271L14.9086 12.8846C15.4153 12.5304 15.9448 12.0926 16.5474 11.9234C16.4748 12.5071 16.4214 13.1 16.505 13.6857C16.3388 13.9829 15.4619 14.7611 15.4317 14.8486C15.6423 14.9121 15.8535 14.9737 16.0653 15.0336C16.0592 15.0384 16.0533 15.0432 16.0472 15.048C15.9902 15.0918 15.9081 15.1166 15.8434 15.1483C15.684 15.2263 15.5203 15.319 15.3813 15.4301C14.7794 15.9109 13.4954 17.5708 13.1441 18.2656C12.6611 18.2935 12.1775 18.2886 11.6945 18.3088C11.5736 18.4193 11.4319 18.5123 11.2958 18.6032C10.6239 19.0528 9.90642 19.2367 9.10154 19.2004C9.00113 19.1953 8.90086 19.1882 8.80084 19.1792L8.76928 19.1667C8.73812 19.113 8.55887 16.7295 8.5678 16.4442Z" fill="#172E48"/>
<path d="M15.4319 14.8491C15.6426 14.9126 15.8536 14.9743 16.0654 15.0341C16.0594 15.0389 16.0534 15.0437 16.0473 15.0484C15.9902 15.0923 15.9083 15.117 15.8435 15.1488C15.6842 15.2268 15.5206 15.3195 15.3815 15.4306C14.7795 15.9114 13.4955 17.5714 13.1442 18.2661C12.6612 18.294 12.1777 18.289 11.6947 18.3093C11.7927 18.183 11.9465 18.0732 12.0685 17.9699C12.29 17.7842 12.5102 17.5971 12.7293 17.4084C13.3151 16.8937 13.8877 16.3483 14.4496 15.8078C14.6048 15.6585 15.3274 14.8915 15.4319 14.8491Z" fill="#151927"/>
<path d="M16.6423 11.9035C16.7287 11.9006 16.8654 11.8808 16.9332 11.9466C16.9556 11.9681 16.9662 12.0002 16.9734 12.0298C17.0153 12.1997 16.9731 12.4087 16.9725 12.5835C16.9717 12.8158 17.0299 13.0679 17.0975 13.2892C17.2605 13.8222 17.5559 14.2824 17.8375 14.7572C18.298 15.5437 18.7832 16.3146 19.2931 17.0699C19.638 17.5734 20.0291 18.0486 20.3441 18.5724C20.2389 18.6518 20.1167 18.703 20.0108 18.7824C19.5823 18.2437 19.1648 17.7045 18.7777 17.1348C18.635 18.2259 18.3958 19.3024 18.157 20.3757L17.7081 22.4276C17.6697 22.601 17.3841 23.8039 17.4095 23.8455C17.4127 23.851 17.4318 23.8693 17.437 23.8743C17.4209 24.1354 17.3682 24.3955 17.3423 24.656C16.9299 24.6296 16.5131 24.665 16.1 24.652C15.9145 24.6318 15.704 24.6497 15.5186 24.6738C15.4401 24.6789 15.3606 24.6782 15.2819 24.6799C15.2825 24.5048 15.2534 23.9482 15.3205 23.8077L15.3972 23.7856C15.4457 23.6711 15.3825 22.8404 15.3634 22.6665C15.2944 22.5665 15.1096 21.4964 15.0595 21.2839C15.042 21.2068 15.0201 21.1308 14.9993 21.0545C15.0916 21.0162 15.2797 21.0425 15.384 21.0442C15.387 20.5783 15.4128 20.1112 15.4363 19.6459C15.4604 19.1694 15.4815 18.6826 15.5547 18.2113C14.7515 18.2437 13.9479 18.2619 13.144 18.2659C13.4952 17.5712 14.7793 15.9113 15.3812 15.4305C15.5203 15.3194 15.684 15.2266 15.8433 15.1486C15.908 15.1168 15.99 15.0921 16.0471 15.0483C16.0532 15.0436 16.059 15.0387 16.0651 15.0339C15.8534 14.9741 15.6422 14.9125 15.4316 14.849C15.4618 14.7614 16.3388 13.9831 16.5049 13.6861C16.573 13.8262 16.7484 14.2353 16.888 14.2963C16.7888 14.1249 16.644 13.9384 16.5832 13.753C16.4711 13.4114 16.5595 12.2813 16.6423 11.9035Z" fill="#172E48"/>
<path d="M16.7615 15.2175C16.8842 15.0193 16.9744 14.8043 17.0714 14.593C17.234 14.875 17.3919 15.1658 17.5762 15.4341C17.3068 15.3618 17.0346 15.2701 16.7615 15.2175Z" fill="#0D5537"/>
<path d="M14.9997 21.0545C15.092 21.0162 15.2802 21.0425 15.3844 21.0442C15.3762 21.5845 15.3589 22.1262 15.3638 22.6665C15.2948 22.5665 15.11 21.4964 15.06 21.2839C15.0423 21.2068 15.0204 21.1308 14.9997 21.0545Z" fill="#0D5537"/>
<path d="M16.2602 16.146C16.2674 16.1506 16.2747 16.1549 16.2817 16.1595C16.3463 16.2025 16.3615 16.3089 16.3736 16.3795C16.4069 16.5753 16.4001 16.791 16.388 16.9886C16.3463 17.6679 16.2537 18.3472 16.1949 19.0258C16.1121 19.986 16.0358 20.9466 15.9659 21.9079C15.925 22.4997 15.9048 23.1002 15.8423 23.6898C15.837 23.7392 15.8323 23.7762 15.8024 23.8174L15.7844 23.8142C15.7513 23.6905 15.8542 22.3585 15.8745 22.1303C15.8857 21.6858 15.9332 21.2352 15.9678 20.7916C16.0288 20.0044 16.0962 19.2177 16.1698 18.4314C16.2346 17.7636 16.355 17.0602 16.2988 16.3906C16.1502 16.8246 15.99 17.1093 15.7057 17.4687C15.6621 17.5237 15.6284 17.5688 15.5552 17.5772L15.5424 17.559C15.5903 17.4387 15.7176 17.3194 15.7968 17.2147C16.0863 16.8331 16.1543 16.5984 16.2602 16.146Z" fill="#0D5537"/>
<path d="M16.5052 13.686C16.5733 13.8261 16.7488 14.2353 16.8883 14.2963C16.955 14.3896 17.0183 14.4917 17.0716 14.5931C16.9746 14.8044 16.8844 15.0194 16.7616 15.2175C16.5304 15.153 16.2984 15.0917 16.0655 15.0339C15.8537 14.9741 15.6426 14.9125 15.432 14.849C15.462 14.7614 16.3391 13.9832 16.5052 13.686Z" fill="#F7A41F"/>
</svg>
