<svg width="28" height="29" viewBox="0 0 28 29" fill="none" xmlns="http://www.w3.org/2000/svg">
<path d="M21.6845 6.98413C21.85 7.04721 21.9332 7.23281 21.8699 7.39826C21.8069 7.56392 21.6215 7.64695 21.4558 7.58387C21.2904 7.52079 21.2071 7.33539 21.2704 7.16974C21.3335 7.00408 21.5189 6.92106 21.6845 6.98413Z" fill="#E45E87"/>
<path d="M27.0986 27.3213C27.0986 28.0252 21.5356 28.5957 14.6736 28.5957C7.81118 28.5957 2.24824 28.0252 2.24824 27.3213C2.24824 26.6175 7.81118 26.0468 14.6736 26.0468C21.5356 26.0468 27.0986 26.6175 27.0986 27.3213Z" fill="#7A8DB0"/>
<path d="M21.9322 27.4592H7.6225C7.36066 27.4592 7.14838 27.2468 7.14838 26.985V7.11519C7.14838 6.85341 7.36066 6.6412 7.6225 6.6412H21.9322C22.194 6.6412 22.4064 6.85341 22.4064 7.11519V26.985C22.4064 27.2468 22.194 27.4592 21.9322 27.4592Z" fill="#4F6388"/>
<path d="M21.3504 26.4033H8.20438V7.69727H21.3504V26.4033Z" fill="#F2B814"/>
<path d="M8.87049 9.16249C8.87049 9.16249 9.58167 9.22718 9.58167 8.45131H19.9692C19.9692 9.22718 20.6803 9.16249 20.6803 9.16249V25.0684C20.6803 25.0684 19.9692 25.0037 19.9692 25.7795H9.58167C9.58167 25.0037 8.87049 25.0684 8.87049 25.0684V9.16249Z" fill="#F2B814"/>
<path d="M9.60975 25.7513H19.941C19.9462 25.5169 20.0173 25.3357 20.1524 25.2124C20.3315 25.0488 20.5675 25.0373 20.6519 25.0387V9.19246C20.5675 9.19327 20.3315 9.18259 20.1524 9.01895C20.0173 8.89562 19.9462 8.71445 19.941 8.47987H9.60975C9.60451 8.71445 9.53349 8.89562 9.39851 9.01895C9.21936 9.18239 8.98231 9.19347 8.89894 9.19246V25.0387C8.98221 25.0373 9.21936 25.0488 9.39851 25.2124C9.53349 25.3357 9.60451 25.5169 9.60975 25.7513ZM19.9692 25.8081H9.58166C9.56598 25.8081 9.55324 25.7954 9.55324 25.7797C9.55324 25.5481 9.48829 25.3714 9.36018 25.2543C9.16146 25.0729 8.87588 25.0965 8.87308 25.0967C8.86472 25.0973 8.8572 25.0949 8.85132 25.0895C8.84543 25.084 8.84209 25.0766 8.84209 25.0685V9.16264C8.84209 9.15478 8.84543 9.14712 8.85132 9.14168C8.8572 9.13644 8.86494 9.13382 8.87304 9.13442C8.87586 9.13482 9.16241 9.158 9.36057 8.97643C9.48841 8.85954 9.55324 8.68281 9.55324 8.45146C9.55324 8.43594 9.56598 8.42304 9.58166 8.42304H19.9692C19.9849 8.42304 19.9976 8.43594 19.9976 8.45146C19.9976 8.68321 20.0625 8.85995 20.1906 8.97683C20.3893 9.1584 20.6747 9.13482 20.6777 9.13442C20.6854 9.13362 20.6936 9.13624 20.6995 9.14168C20.7053 9.14712 20.7088 9.15478 20.7088 9.16264V25.0685C20.7088 25.0766 20.7053 25.084 20.6995 25.0895C20.6936 25.0949 20.6862 25.0975 20.6777 25.0967C20.6749 25.0965 20.3883 25.0733 20.1902 25.2547C20.0625 25.3716 19.9976 25.5483 19.9976 25.7797C19.9976 25.7954 19.9849 25.8081 19.9692 25.8081Z" fill="#F2B814"/>
<path d="M19.6244 13.2461H9.89412V12.8582H19.6244V13.2461Z" fill="#4F6388"/>
<path d="M19.6324 14.3457H9.93454V14.281H19.6324V14.3457Z" fill="#4F6388"/>
<path d="M19.6324 15.4851H9.93454V15.4204H19.6324V15.4851Z" fill="#4F6388"/>
<path d="M19.6324 16.6255H9.93454V16.5608H19.6324V16.6255Z" fill="#4F6388"/>
<path d="M19.6324 17.7656H9.93454V17.7009H19.6324V17.7656Z" fill="#4F6388"/>
<path d="M19.6324 18.9014H12.1327V18.8445H19.6324V18.9014Z" fill="#4F6388"/>
<path d="M19.6324 20.0415H12.1327V19.9847H19.6324V20.0415Z" fill="#4F6388"/>
<path d="M19.6324 21.1814H12.1327V21.1246H19.6324V21.1814Z" fill="#4F6388"/>
<path d="M19.6324 22.3215H12.1327V22.2647H19.6324V22.3215Z" fill="#4F6388"/>
<path d="M19.6324 24.0972H15.3976V24.0544H19.6324V24.0972Z" fill="#4F6388"/>
<path d="M9.76483 19.9057H11.1225V18.5479H9.76483V19.9057ZM11.2518 20.0349H9.63553V18.4187H11.2518V20.0349Z" fill="#4F6388"/>
<path d="M9.76483 22.4592H11.1225V21.1015H9.76483V22.4592ZM11.2518 22.5884H9.63553V20.9722H11.2518V22.5884Z" fill="#4F6388"/>
<path d="M18.9444 22.7821C18.9063 22.8069 18.836 22.9061 18.8207 22.9695C18.7951 23.077 18.7693 23.211 18.7713 23.3456C18.8209 23.2732 18.8616 23.1942 18.8918 23.111C18.9551 22.9369 18.9591 22.8506 18.9515 22.8087C18.9493 22.7964 18.9466 22.788 18.9444 22.7821ZM17.7431 23.0997C17.7179 23.0997 17.6748 23.111 17.6393 23.1944C17.5942 23.3014 17.5902 23.4459 17.6085 23.5604C17.6704 23.4439 17.7296 23.3238 17.7451 23.1995L17.7468 23.187C17.7494 23.166 17.7554 23.1199 17.751 23.0999C17.7488 23.0997 17.746 23.0997 17.7431 23.0997ZM16.5491 23.7365C16.5352 23.7448 16.5088 23.767 16.4745 23.8159C16.4356 23.8714 16.4161 23.9425 16.4205 24.011C16.4236 24.0564 16.4373 24.1007 16.4592 24.1408C16.4939 24.0848 16.5211 24.0269 16.5392 23.9695C16.5608 23.901 16.5682 23.8429 16.562 23.7918C16.5584 23.7619 16.5529 23.7452 16.5491 23.7365ZM15.9131 24.6992C15.8698 24.6992 15.8264 24.6904 15.7839 24.6696C15.7003 24.6287 15.6358 24.5455 15.607 24.4413C15.5209 24.1323 15.6015 23.6978 15.7198 23.4044C15.8593 23.0576 16.1416 22.6979 16.4784 22.8244C16.5116 22.8369 16.5285 22.8744 16.5161 22.9077C16.5034 22.9411 16.4663 22.9579 16.4328 22.9454C16.1664 22.8452 15.9345 23.217 15.8397 23.4528C15.7333 23.7172 15.6539 24.1283 15.7315 24.4066C15.7505 24.4753 15.7904 24.5287 15.8407 24.5533C16.009 24.6355 16.2557 24.3812 16.3367 24.2978C16.3506 24.2831 16.3643 24.2684 16.3772 24.253C16.328 24.1851 16.297 24.1041 16.2916 24.0195C16.2849 23.9207 16.3123 23.8222 16.3685 23.7418C16.4433 23.6352 16.5154 23.5898 16.5834 23.6066C16.6422 23.6213 16.6783 23.6783 16.6904 23.776C16.6988 23.846 16.6898 23.9219 16.6626 24.0086C16.6374 24.0882 16.5975 24.1684 16.5463 24.244C16.5765 24.268 16.6108 24.2867 16.6472 24.298C16.8466 24.359 17.058 24.2162 17.1662 24.1255C17.306 24.008 17.4239 23.8728 17.5178 23.722C17.4523 23.5588 17.4546 23.2994 17.5202 23.1441C17.5735 23.0187 17.6639 22.9579 17.7748 22.9726C17.9025 22.9897 17.8832 23.1394 17.8749 23.2033L17.8735 23.2152C17.8534 23.3772 17.7766 23.5205 17.7022 23.6592L17.6877 23.6864C17.6807 23.6997 17.6734 23.713 17.6659 23.7261C17.67 23.7309 17.674 23.7351 17.678 23.7384C17.7121 23.7652 17.7617 23.7744 17.8058 23.7799C18.1101 23.8176 18.4233 23.7118 18.6439 23.4971C18.6474 23.4937 18.6506 23.4905 18.654 23.4871C18.6224 23.2928 18.6587 23.0917 18.6949 22.9395C18.7155 22.8539 18.831 22.6475 18.9537 22.6475C18.9547 22.6475 18.9557 22.6477 18.9565 22.6477C18.9928 22.6487 19.0569 22.6679 19.0786 22.7853C19.0941 22.8702 19.073 22.9911 19.0133 23.1549C18.9638 23.292 18.8888 23.4187 18.7943 23.5266C18.8074 23.5781 18.8271 23.6281 18.8551 23.6747C18.969 23.8639 19.2151 23.961 19.4275 23.9006C19.5105 23.8768 19.5901 23.8105 19.6209 23.739C19.6387 23.6978 19.6389 23.6596 19.6209 23.6253C19.6046 23.5937 19.6171 23.5546 19.6487 23.5382C19.6806 23.5217 19.7195 23.5342 19.7358 23.5658C19.7719 23.6354 19.7731 23.713 19.7396 23.7903C19.6931 23.8982 19.5845 23.9903 19.4629 24.0249C19.1961 24.1007 18.8874 23.979 18.7443 23.7414C18.7227 23.7053 18.705 23.6678 18.6909 23.6295C18.4456 23.8446 18.1133 23.9479 17.7901 23.9082C17.7316 23.901 17.6573 23.8867 17.5978 23.8397C17.5974 23.8393 17.597 23.8391 17.5966 23.8387C17.5009 23.9816 17.3846 24.111 17.2492 24.2244C17.0275 24.4102 16.8002 24.4802 16.6094 24.4215C16.5574 24.4056 16.5094 24.3798 16.4673 24.3466C16.455 24.3607 16.4425 24.3744 16.4296 24.3877C16.3401 24.48 16.1275 24.6992 15.9131 24.6992Z" fill="#0878B1"/>
<path d="M10.3144 19.7114C10.2934 19.7114 10.2737 19.7013 10.2615 19.684L9.85204 19.1022C9.83149 19.073 9.8385 19.0327 9.8677 19.0121C9.897 18.9916 9.93723 18.9986 9.9578 19.0277L10.3092 19.527L10.7972 18.6877C10.8152 18.6569 10.8548 18.6462 10.8856 18.6641C10.9165 18.6822 10.927 18.7217 10.9091 18.7526L10.3703 19.6792C10.3592 19.6983 10.3392 19.7104 10.3172 19.7114C10.3162 19.7114 10.3153 19.7114 10.3144 19.7114Z" fill="#F496AE"/>
<path d="M10.379 22.3406C10.358 22.3406 10.3383 22.3303 10.3261 22.313L9.91669 21.7312C9.89615 21.7019 9.90315 21.6616 9.93235 21.6411C9.96165 21.6205 10.0019 21.6276 10.0224 21.6568L10.3738 22.1562L10.8619 21.3166C10.8799 21.2858 10.9195 21.2753 10.9503 21.2933C10.9812 21.3112 10.9916 21.3509 10.9737 21.3817L10.4349 22.3083C10.4238 22.3275 10.4038 22.3396 10.3818 22.3404C10.3809 22.3404 10.3799 22.3406 10.379 22.3406Z" fill="#F496AE"/>
<path d="M13.1487 22.3042C12.5926 22.3042 12.0765 22.664 11.9045 23.2224C11.8023 23.5547 11.8354 23.9068 11.998 24.2139C12.1605 24.521 12.4329 24.7465 12.765 24.8489C13.0971 24.9511 13.4492 24.9178 13.7564 24.7554C14.0635 24.5928 14.289 24.3205 14.3914 23.9884C14.4936 23.6563 14.4605 23.3042 14.2979 22.9969C14.1355 22.6898 13.863 22.4643 13.5308 22.3621C13.4038 22.3228 13.2751 22.3042 13.1487 22.3042ZM13.1498 25.0845C13.0035 25.0845 12.8565 25.0627 12.7128 25.0184C12.3354 24.9021 12.0258 24.646 11.8411 24.2969C11.6565 23.9477 11.6188 23.5477 11.735 23.1702C11.9749 22.3911 12.8037 21.9526 13.583 22.1924C13.9605 22.3087 14.2701 22.5648 14.4547 22.9141C14.6395 23.2631 14.6771 23.6631 14.5609 24.0406C14.4446 24.4178 14.1885 24.7276 13.8394 24.9122C13.6232 25.0264 13.3875 25.0845 13.1498 25.0845Z" fill="#0878B1"/>
<path d="M13.1485 22.6297C12.7314 22.6297 12.3444 22.8996 12.2154 23.3183C12.1387 23.5676 12.1636 23.8316 12.2854 24.062C12.4073 24.2923 12.6117 24.4614 12.8607 24.5382C13.1099 24.615 13.3739 24.59 13.6043 24.468C13.8346 24.3461 14.0037 24.142 14.0804 23.8929C14.1572 23.6438 14.1322 23.3796 14.0105 23.1493C13.8885 22.9189 13.6842 22.7498 13.4351 22.6731C13.3398 22.6438 13.2434 22.6297 13.1485 22.6297ZM13.1493 24.7002C13.041 24.7002 12.9323 24.6839 12.8259 24.6512C12.5466 24.5652 12.3175 24.3755 12.1809 24.1174C12.0442 23.859 12.0163 23.563 12.1023 23.2837C12.2799 22.7071 12.8934 22.3825 13.4699 22.56C13.7492 22.6461 13.9783 22.8357 14.1149 23.094C14.2515 23.3522 14.2795 23.6484 14.1935 23.9276C14.1074 24.2069 13.9178 24.436 13.6596 24.5726C13.4997 24.6573 13.3252 24.7002 13.1493 24.7002Z" fill="#0878B1"/>
<path d="M13.8337 23.5676C13.8308 23.5676 13.8278 23.567 13.8249 23.5662L12.6101 23.1922C12.5945 23.1874 12.5858 23.1708 12.5905 23.1551C12.5953 23.1396 12.6119 23.1307 12.6275 23.1356L13.8424 23.5098C13.858 23.5144 13.8667 23.5312 13.8619 23.5467C13.858 23.5594 13.8463 23.5676 13.8337 23.5676Z" fill="#0878B1"/>
<path d="M13.7933 23.8647C13.7905 23.8647 13.7875 23.8643 13.7846 23.8635L12.4764 23.4605C12.4608 23.4559 12.452 23.4393 12.4568 23.4236C12.4616 23.4081 12.478 23.3992 12.4938 23.4041L13.8021 23.8069C13.8176 23.8117 13.8264 23.8283 13.8216 23.844C13.8177 23.8567 13.806 23.8647 13.7933 23.8647Z" fill="#0878B1"/>
<path d="M13.6596 24.1331C13.6568 24.1331 13.6538 24.1327 13.6509 24.1316L12.4361 23.7576C12.4205 23.7528 12.4117 23.7363 12.4165 23.7207C12.4213 23.705 12.4378 23.6964 12.4535 23.7012L13.6683 24.0752C13.6839 24.0801 13.6927 24.0966 13.6879 24.1123C13.684 24.1248 13.6723 24.1331 13.6596 24.1331Z" fill="#0878B1"/>
<path d="M15.9985 9.51212C16.0796 10.1272 15.9661 11.1638 15.8204 11.3422C15.6753 11.5197 14.8861 12.2605 14.7773 12.2651C14.6685 12.2605 13.8793 11.5197 13.7342 11.3422C13.5886 11.1638 13.4751 10.1272 13.556 9.51212C13.556 9.51212 14.3406 9.4958 14.7773 9.03572C15.2142 9.4958 15.9985 9.51212 15.9985 9.51212ZM14.7779 9.59253C14.4913 9.8936 13.9771 9.90408 13.9771 9.90408C13.9241 10.3077 13.9986 10.9869 14.0935 11.1034C14.1885 11.2192 14.7015 11.7009 14.7767 11.7079C14.7773 11.7079 14.7779 11.7079 14.7785 11.7079C14.8531 11.7009 15.3662 11.2192 15.4611 11.1034C15.5566 10.9869 15.6306 10.3077 15.5776 9.90408C15.5776 9.90408 15.0639 9.8936 14.7779 9.59253Z" fill="#F2819A"/>
<path d="M15.5776 9.90417C15.6306 10.3078 15.5566 10.987 15.4611 11.1034C15.3662 11.2193 14.8531 11.701 14.7785 11.708C14.7779 11.708 14.7773 11.708 14.7767 11.708C14.7015 11.701 14.1885 11.2193 14.0935 11.1034C13.9986 10.987 13.9241 10.3078 13.9771 9.90417C13.9771 9.90417 14.4913 9.89369 14.7779 9.59261C15.0639 9.89369 15.5776 9.90417 15.5776 9.90417Z" fill="#F496AE"/>
<path d="M16.1094 9.40883C16.1978 10.0797 16.0737 11.2103 15.9153 11.4047C15.7575 11.597 14.9043 12.3982 14.7791 12.4111C14.7779 12.4111 14.7773 12.4111 14.7761 12.4111C14.6503 12.3982 13.7977 11.597 13.6399 11.4047C13.4809 11.2103 13.3568 10.0797 13.4454 9.40883C13.4454 9.40883 14.3009 9.39069 14.7779 8.8893C15.2543 9.39069 16.1094 9.40883 16.1094 9.40883ZM15.8204 11.3418C15.9661 11.1635 16.0796 10.1269 15.9985 9.51181C15.9985 9.51181 15.2142 9.49548 14.7773 9.0354C14.3406 9.49548 13.556 9.51181 13.556 9.51181C13.4751 10.1269 13.5886 11.1635 13.7342 11.3418C13.8793 11.5194 14.6685 12.2602 14.7773 12.2648C14.8861 12.2602 15.6753 11.5194 15.8204 11.3418Z" fill="#E35E86"/>
<path d="M5.67834 14.8755C5.01504 14.8755 4.4754 14.3358 4.4754 13.6726V12.9092C4.4754 12.8236 4.54491 12.754 4.63062 12.754C4.71634 12.754 4.78583 12.8236 4.78583 12.9092V13.6726C4.78583 14.1647 5.18622 14.5651 5.67834 14.5651C6.17046 14.5651 6.57083 14.1647 6.57083 13.6726V5.08364C6.57083 5.07377 6.57053 5.0639 6.56994 5.05422C6.56476 4.96858 6.62992 4.89502 6.71548 4.88978C6.80147 4.88515 6.87462 4.94983 6.8798 5.03528C6.88077 5.0512 6.88128 5.06772 6.88128 5.08364V13.6726C6.88128 14.3358 6.34163 14.8755 5.67834 14.8755Z" fill="#899BCB"/>
<path d="M6.77793 -8.39233e-05C6.77793 -8.39233e-05 9.27421 2.50949 9.27421 5.8465C6.92034 4.06164 4.17805 5.87207 4.17805 5.87207C4.17805 2.58705 6.77793 -8.39233e-05 6.77793 -8.39233e-05Z" fill="#34416D"/>
<path d="M6.77794 9.9659e-05C13.1418 9.9659e-05 13.7111 5.12217 13.7111 5.12217C13.7111 5.12217 11.0076 4.00962 9.27421 5.84668C9.27421 2.50967 6.77794 9.9659e-05 6.77794 9.9659e-05Z" fill="#899BCB"/>
<path d="M6.77794 -8.39233e-05C6.77794 -8.39233e-05 4.17805 2.58705 4.17805 5.87207C4.17805 5.87207 2.76829 4.55282 0 5.04442C0 5.04442 0.414035 -8.39233e-05 6.77794 -8.39233e-05Z" fill="#899BCB"/>
<path d="M19.3362 20.2266C19.3827 20.4221 19.5177 20.7294 19.739 20.96C19.867 20.911 19.9274 20.7482 19.9274 20.7482L19.6318 20.0938L19.3362 20.2266Z" fill="#3D568A"/>
<path d="M25.601 16.1173C25.7654 17.37 25.5351 19.4798 25.2382 19.8425C24.9426 20.2028 23.3401 21.709 23.115 21.7207C22.8897 21.709 21.2873 20.2028 20.9915 19.8425C20.6947 19.4798 20.4643 17.37 20.629 16.1173C20.629 16.1173 22.2242 16.0845 23.115 15.148C24.0055 16.0845 25.601 16.1173 25.601 16.1173Z" fill="#899BCB"/>
<path d="M27.0112 14.8035C27.2698 16.767 26.9076 20.0738 26.4427 20.6421C25.9795 21.2076 23.4683 23.5662 23.1156 23.5862C23.115 23.5868 23.1149 23.5862 23.1149 23.5862C22.7756 23.5684 20.428 21.3752 19.844 20.7098C19.8462 20.7032 19.6539 20.5085 19.5842 20.2088C19.2263 19.102 18.9994 16.4695 19.2187 14.8035C19.2187 14.8035 21.7189 14.752 23.1143 13.284C24.5106 14.7526 27.0112 14.8035 27.0112 14.8035ZM23.1149 21.7209C23.34 21.7091 24.9426 20.203 25.2381 19.8426C25.5352 19.4799 25.7653 17.3701 25.601 16.1175C25.601 16.1175 24.0054 16.0846 23.1149 15.1481C22.2243 16.0846 20.6289 16.1175 20.6289 16.1175C20.4644 17.3701 20.6947 19.4799 20.9916 19.8426C21.2873 20.203 22.8897 21.7091 23.1149 21.7209Z" fill="#6C84BE"/>
<path d="M23.1151 23.5862C23.1151 23.5862 23.1151 23.5868 23.1155 23.5862C23.4683 23.5662 25.9794 21.2076 26.4427 20.6421C26.9076 20.0738 27.2699 16.767 27.0112 14.8036C27.0112 14.8036 24.5104 14.7526 23.1144 13.284C21.7188 14.752 19.2187 14.8036 19.2187 14.8036C18.9994 16.4696 19.2264 19.1021 19.5843 20.2089C19.5248 20.2826 19.4656 20.3606 19.4009 20.4223L19.4003 20.4217C19.2562 20.0226 19.1291 19.3883 19.0382 18.6547C18.8759 17.3549 18.8234 15.7437 18.977 14.5785C18.977 14.5785 21.633 14.5239 23.1151 12.9648C24.5969 14.5239 27.2529 14.5791 27.2529 14.5791C27.5273 16.6636 27.1428 20.1754 26.6491 20.7792C26.1593 21.3771 23.5118 23.8647 23.1196 23.906C23.119 23.906 23.119 23.906 23.1184 23.906C23.1171 23.906 23.1159 23.906 23.1151 23.9054C22.7691 23.8871 20.4638 21.7457 19.7278 20.946C19.7777 20.8709 19.8177 20.7921 19.844 20.7098C20.4279 21.3753 22.7755 23.5685 23.1151 23.5862Z" fill="#3D568A"/>
<path d="M23.0847 20.937C22.9898 20.937 22.9011 20.8886 22.8495 20.8084L20.242 16.7479C20.1586 16.618 20.1963 16.4452 20.3261 16.3618C20.456 16.2784 20.6288 16.3161 20.7122 16.4459L23.0672 20.1132L25.8579 15.0829C25.9329 14.9481 26.1027 14.8992 26.2378 14.9741C26.3728 15.0491 26.4214 15.2192 26.3466 15.354L23.329 20.7931C23.2814 20.879 23.1919 20.9336 23.0938 20.9368C23.0908 20.9368 23.0877 20.937 23.0847 20.937Z" fill="#899BCB"/>
</svg>
