<svg width="6579" height="1255" viewBox="0 0 6579 1255" fill="none" xmlns="http://www.w3.org/2000/svg">
<path d="M2574.86 668.323V849.14C2574.86 862.787 2571.66 873.59 2565.27 881.551C2559.46 889.511 2549.88 896.903 2536.52 903.727C2521.42 911.687 2499.64 918.51 2471.18 924.197C2443.29 929.883 2415.12 932.726 2386.66 932.726C2331.48 932.726 2282.11 923.344 2238.54 904.58C2195.56 885.247 2161.58 855.679 2136.61 815.877C2111.63 775.505 2099.14 724.046 2099.14 661.499C2099.14 601.227 2111.92 550.905 2137.48 510.534C2163.03 470.163 2197.01 439.742 2239.42 419.272C2282.4 398.802 2329.74 388.567 2381.43 388.567C2416.28 388.567 2446.49 392.263 2472.05 399.655C2498.18 407.047 2518.22 416.714 2532.16 428.654C2546.69 440.595 2553.95 453.673 2553.95 467.888C2553.95 478.692 2550.75 488.358 2544.36 496.887C2538.55 505.416 2531.87 511.955 2524.32 516.504C2508.64 506.838 2490.05 498.025 2468.56 490.064C2447.07 481.535 2420.64 477.27 2389.28 477.27C2355.59 477.27 2325.09 484.378 2297.79 498.593C2271.07 512.808 2250.16 533.847 2235.06 561.709C2219.96 589.002 2212.41 622.265 2212.41 661.499C2212.41 703.576 2219.96 738.262 2235.06 765.555C2250.16 792.279 2271.07 812.181 2297.79 825.259C2324.51 838.337 2354.71 844.876 2388.4 844.876C2405.25 844.876 2420.64 843.454 2434.58 840.611C2449.1 837.768 2460.43 834.356 2468.56 830.376V709.263H2355.3C2352.97 705.282 2350.36 699.596 2347.45 692.204C2345.13 684.244 2343.97 676.283 2343.97 668.323C2343.97 652.97 2347.45 641.882 2354.42 635.059C2361.39 627.667 2370.98 623.971 2383.18 623.971H2529.55C2542.91 623.971 2553.66 627.952 2561.79 635.912C2570.5 643.873 2574.86 654.676 2574.86 668.323ZM2791.22 612.883V729.732H2684.06V604.354C2684.06 590.139 2687.54 578.198 2694.51 568.532C2701.48 558.297 2711.36 548.915 2724.14 540.386C2741.56 530.151 2763.63 521.622 2790.35 514.798C2817.07 507.975 2845.82 504.564 2876.61 504.564C2931.21 504.564 2958.51 521.053 2958.51 554.032C2958.51 561.993 2957.35 569.385 2955.02 576.208C2952.7 582.463 2949.8 588.149 2946.31 593.266C2940.5 592.129 2933.24 591.276 2924.53 590.708C2915.82 589.57 2906.52 589.002 2896.65 589.002C2875.74 589.002 2855.99 591.276 2837.4 595.825C2819.4 599.805 2804 605.491 2791.22 612.883ZM2684.06 694.763L2791.22 699.881V918.226C2786.58 919.932 2779.9 921.353 2771.18 922.491C2762.47 924.197 2752.89 925.049 2742.43 925.049C2722.68 925.049 2707.87 921.638 2698 914.814C2688.7 907.423 2684.06 894.629 2684.06 876.433V694.763ZM3064.66 771.525L3060.3 698.175L3293.8 664.058C3292.06 642.451 3283.64 623.687 3268.54 607.766C3253.44 591.845 3231.36 583.884 3202.32 583.884C3172.7 583.884 3148.01 594.119 3128.26 614.589C3108.51 634.491 3098.35 663.205 3097.77 700.733L3100.38 745.085C3105.61 781.476 3119.84 808.2 3143.07 825.259C3166.89 842.317 3196.8 850.846 3232.82 850.846C3257.21 850.846 3279.86 847.434 3300.77 840.611C3321.69 833.219 3338.24 825.259 3350.44 816.73C3358.57 821.847 3364.96 828.386 3369.61 836.347C3374.83 843.738 3377.45 851.983 3377.45 861.081C3377.45 875.865 3370.77 888.659 3357.41 899.462C3344.05 909.697 3326.04 917.657 3303.39 923.344C3280.74 929.03 3254.89 931.873 3225.85 931.873C3181.12 931.873 3141.33 923.912 3106.48 907.991C3072.21 891.502 3045.2 867.051 3025.45 834.641C3006.28 802.23 2996.7 761.859 2996.7 713.527C2996.7 678.842 3002.22 648.421 3013.25 622.265C3024.29 596.109 3039.1 574.502 3057.69 557.444C3076.86 539.817 3098.93 526.739 3123.91 518.21C3148.88 509.112 3175.02 504.564 3202.32 504.564C3240.66 504.564 3274.06 512.24 3302.52 527.592C3331.56 542.376 3354.21 563.13 3370.48 589.855C3387.32 616.579 3395.74 647.284 3395.74 681.969C3395.74 697.89 3391.39 709.831 3382.67 717.792C3374.54 725.184 3362.93 729.732 3347.82 731.438L3064.66 771.525ZM3529.21 771.525L3524.86 698.175L3758.36 664.058C3756.62 642.451 3748.2 623.687 3733.09 607.766C3717.99 591.845 3695.92 583.884 3666.88 583.884C3637.25 583.884 3612.57 594.119 3592.82 614.589C3573.07 634.491 3562.9 663.205 3562.32 700.733L3564.94 745.085C3570.16 781.476 3584.4 808.2 3607.63 825.259C3631.44 842.317 3661.36 850.846 3697.37 850.846C3721.77 850.846 3744.42 847.434 3765.33 840.611C3786.24 833.219 3802.8 825.259 3814.99 816.73C3823.13 821.847 3829.51 828.386 3834.16 836.347C3839.39 843.738 3842 851.983 3842 861.081C3842 875.865 3835.32 888.659 3821.96 899.462C3808.6 909.697 3790.6 917.657 3767.94 923.344C3745.29 929.03 3719.44 931.873 3690.4 931.873C3645.68 931.873 3605.89 923.912 3571.04 907.991C3536.77 891.502 3509.76 867.051 3490.01 834.641C3470.84 802.23 3461.26 761.859 3461.26 713.527C3461.26 678.842 3466.77 648.421 3477.81 622.265C3488.85 596.109 3503.66 574.502 3522.24 557.444C3541.41 539.817 3563.48 526.739 3588.46 518.21C3613.44 509.112 3639.58 504.564 3666.88 504.564C3705.21 504.564 3738.61 512.24 3767.07 527.592C3796.12 542.376 3818.77 563.13 3835.03 589.855C3851.88 616.579 3860.3 647.284 3860.3 681.969C3860.3 697.89 3855.94 709.831 3847.23 717.792C3839.1 725.184 3827.48 729.732 3812.38 731.438L3529.21 771.525ZM4327.49 656.382V739.114H4220.32V660.647C4220.32 635.628 4213.06 617.432 4198.54 606.06C4184.02 594.119 4164.56 588.149 4140.17 588.149C4122.16 588.149 4105.9 590.423 4091.37 594.972C4077.43 598.953 4064.95 603.786 4053.91 609.472V739.114H3946.74V602.648C3946.74 589.002 3949.65 577.914 3955.46 569.385C3961.26 560.287 3969.98 552.042 3981.59 544.65C3999.02 533.278 4021.38 523.896 4048.68 516.504C4076.56 508.544 4107.35 504.564 4141.04 504.564C4199.7 504.564 4245.3 517.357 4277.83 542.945C4310.94 568.532 4327.49 606.344 4327.49 656.382ZM3946.74 697.322H4053.91V918.226C4049.26 919.932 4042.58 921.353 4033.87 922.491C4025.16 924.197 4015.57 925.049 4005.12 925.049C3985.37 925.049 3970.56 921.638 3960.68 914.814C3951.39 907.423 3946.74 894.629 3946.74 876.433V697.322ZM4220.32 697.322H4327.49V918.226C4323.42 919.932 4316.74 921.353 4307.45 922.491C4298.74 924.197 4289.44 925.049 4279.57 925.049C4259.24 925.049 4244.14 921.638 4234.26 914.814C4224.97 907.423 4220.32 894.629 4220.32 876.433V697.322ZM4451.56 581.326H4562.22V913.962L4510.81 920.785C4492.8 920.785 4478.28 915.667 4467.25 905.432C4456.79 894.629 4451.56 880.698 4451.56 863.64V581.326ZM4510.81 920.785V832.082H4787.88C4791.36 836.631 4794.27 842.601 4796.59 849.993C4799.49 857.385 4800.95 865.63 4800.95 874.728C4800.95 890.08 4797.17 901.736 4789.62 909.697C4782.65 917.089 4773.06 920.785 4760.87 920.785H4510.81ZM4562.22 702.439H4451.56V402.214C4456.79 401.077 4464.05 399.655 4473.35 397.949C4483.22 396.244 4493.09 395.391 4502.97 395.391C4523.88 395.391 4538.98 399.087 4548.28 406.479C4557.57 413.302 4562.22 426.38 4562.22 445.713V702.439ZM4920.37 771.525L4916.02 698.175L5149.52 664.058C5147.78 642.451 5139.35 623.687 5124.25 607.766C5109.15 591.845 5087.08 583.884 5058.03 583.884C5028.41 583.884 5003.72 594.119 4983.98 614.589C4964.23 634.491 4954.06 663.205 4953.48 700.733L4956.09 745.085C4961.32 781.476 4975.55 808.2 4998.79 825.259C5022.6 842.317 5052.52 850.846 5088.53 850.846C5112.92 850.846 5135.58 847.434 5156.49 840.611C5177.4 833.219 5193.95 825.259 5206.15 816.73C5214.28 821.847 5220.67 828.386 5225.32 836.347C5230.55 843.738 5233.16 851.983 5233.16 861.081C5233.16 875.865 5226.48 888.659 5213.12 899.462C5199.76 909.697 5181.75 917.657 5159.1 923.344C5136.45 929.03 5110.6 931.873 5081.56 931.873C5036.83 931.873 4997.04 923.912 4962.19 907.991C4927.92 891.502 4900.91 867.051 4881.16 834.641C4862 802.23 4852.41 761.859 4852.41 713.527C4852.41 678.842 4857.93 648.421 4868.97 622.265C4880 596.109 4894.81 574.502 4913.4 557.444C4932.57 539.817 4954.64 526.739 4979.62 518.21C5004.6 509.112 5030.73 504.564 5058.03 504.564C5096.37 504.564 5129.77 512.24 5158.23 527.592C5187.27 542.376 5209.93 563.13 5226.19 589.855C5243.03 616.579 5251.46 647.284 5251.46 681.969C5251.46 697.89 5247.1 709.831 5238.39 717.792C5230.26 725.184 5218.64 729.732 5203.54 731.438L4920.37 771.525ZM5499.94 852.552C5517.36 852.552 5533.04 850.846 5546.99 847.434C5560.93 844.023 5571.09 840.327 5577.48 836.347V739.114L5491.22 747.644C5467.41 749.349 5449.11 754.467 5436.33 762.996C5424.14 770.957 5418.04 782.897 5418.04 798.818C5418.04 815.308 5424.72 828.386 5438.08 838.052C5451.44 847.719 5472.06 852.552 5499.94 852.552ZM5495.58 504.564C5552.5 504.564 5597.81 516.504 5631.5 540.386C5665.19 563.699 5682.03 600.658 5682.03 651.264V847.434C5682.03 861.081 5678.55 871.885 5671.58 879.845C5665.19 887.806 5656.77 894.913 5646.31 901.168C5630.05 910.266 5609.43 917.657 5584.45 923.344C5559.47 929.598 5531.3 932.726 5499.94 932.726C5441.85 932.726 5396.25 921.922 5363.15 900.315C5330.04 878.139 5313.48 845.444 5313.48 802.23C5313.48 764.133 5325.68 735.134 5350.08 715.233C5375.05 694.763 5411.07 682.254 5458.12 677.705L5576.61 665.764V650.412C5576.61 627.667 5568.48 611.178 5552.21 600.943C5536.53 590.708 5514.17 585.59 5485.12 585.59C5462.47 585.59 5440.4 588.433 5418.91 594.119C5397.42 599.805 5378.25 606.629 5361.4 614.589C5355.6 610.04 5350.37 603.786 5345.72 595.825C5341.07 587.865 5338.75 579.62 5338.75 571.091C5338.75 550.621 5350.37 535.553 5373.6 525.886C5389.87 518.494 5408.74 513.093 5430.23 509.681C5452.31 506.269 5474.09 504.564 5495.58 504.564ZM5835.81 919.932H5793.12C5786.73 914.246 5781.5 907.423 5777.44 899.462C5773.37 891.502 5771.34 882.688 5771.34 873.022C5771.34 863.924 5773.37 855.395 5777.44 847.434C5782.08 838.905 5787.31 830.66 5793.12 822.7L6051.02 516.504H6089.35C6096.32 522.19 6101.84 529.014 6105.91 536.974C6109.97 544.935 6112.01 553.748 6112.01 563.414C6112.01 571.944 6109.97 580.473 6105.91 589.002C6101.84 597.531 6096.32 605.491 6089.35 612.883L5835.81 919.932ZM6069.31 516.504V599.237H5787.02C5784.12 594.688 5781.5 588.718 5779.18 581.326C5776.86 573.934 5775.69 566.258 5775.69 558.297C5775.69 543.513 5778.89 532.994 5785.28 526.739C5792.25 519.916 5801.54 516.504 5813.16 516.504H6069.31ZM5817.52 919.932V837.199H6109.39C6111.72 841.18 6114.04 846.866 6116.36 854.258C6118.69 861.65 6119.85 869.61 6119.85 878.139C6119.85 892.354 6116.36 902.874 6109.39 909.697C6103 916.52 6094 919.932 6082.38 919.932H5817.52ZM6244.3 771.525L6239.94 698.175L6473.44 664.058C6471.7 642.451 6463.28 623.687 6448.17 607.766C6433.07 591.845 6411 583.884 6381.96 583.884C6352.33 583.884 6327.65 594.119 6307.9 614.589C6288.15 634.491 6277.99 663.205 6277.4 700.733L6280.02 745.085C6285.25 781.476 6299.48 808.2 6322.71 825.259C6346.53 842.317 6376.44 850.846 6412.45 850.846C6436.85 850.846 6459.5 847.434 6480.41 840.611C6501.32 833.219 6517.88 825.259 6530.07 816.73C6538.21 821.847 6544.6 828.386 6549.24 836.347C6554.47 843.738 6557.08 851.983 6557.08 861.081C6557.08 875.865 6550.4 888.659 6537.04 899.462C6523.68 909.697 6505.68 917.657 6483.03 923.344C6460.37 929.03 6434.52 931.873 6405.48 931.873C6360.76 931.873 6320.97 923.912 6286.12 907.991C6251.85 891.502 6224.84 867.051 6205.09 834.641C6185.92 802.23 6176.34 761.859 6176.34 713.527C6176.34 678.842 6181.85 648.421 6192.89 622.265C6203.93 596.109 6218.74 574.502 6237.33 557.444C6256.49 539.817 6278.57 526.739 6303.54 518.21C6328.52 509.112 6354.66 504.564 6381.96 504.564C6420.29 504.564 6453.69 512.24 6482.15 527.592C6511.2 542.376 6533.85 563.13 6550.11 589.855C6566.96 616.579 6575.38 647.284 6575.38 681.969C6575.38 697.89 6571.02 709.831 6562.31 717.792C6554.18 725.184 6542.56 729.732 6527.46 731.438L6244.3 771.525Z" fill="#0D5537"></path>
<mask id="mask0_2698_491" style="mask-type:luminance" maskUnits="userSpaceOnUse" x="2095" y="385" width="4484" height="552">
<path d="M6578.18 385.855H2095.26V936.187H6578.18V385.855Z" fill="white"></path>
<path d="M2574.88 668.334V849.151C2574.88 862.798 2571.69 873.602 2565.3 881.562C2559.49 889.523 2549.9 896.915 2536.54 903.738C2521.44 911.698 2499.66 918.522 2471.2 924.208C2443.32 929.894 2415.15 932.737 2386.68 932.737C2331.5 932.737 2282.13 923.355 2238.57 904.591C2195.59 885.258 2161.61 855.69 2136.63 815.888C2111.65 775.517 2099.16 724.058 2099.16 661.511C2099.16 601.238 2111.94 550.916 2137.5 510.545C2163.06 470.174 2197.04 439.753 2239.44 419.283C2282.42 398.814 2329.76 388.579 2381.46 388.579C2416.31 388.579 2446.51 392.275 2472.07 399.666C2498.21 407.058 2518.25 416.725 2532.19 428.666C2546.71 440.606 2553.97 453.684 2553.97 467.899C2553.97 478.703 2550.78 488.369 2544.39 496.899C2538.58 505.428 2531.9 511.967 2524.35 516.516C2508.66 506.849 2490.08 498.036 2468.58 490.075C2447.09 481.546 2420.66 477.282 2389.3 477.282C2355.61 477.282 2325.11 484.389 2297.81 498.604C2271.1 512.82 2250.19 533.858 2235.08 561.72C2219.98 589.013 2212.43 622.277 2212.43 661.511C2212.43 703.588 2219.98 738.273 2235.08 765.566C2250.19 792.291 2271.1 812.192 2297.81 825.27C2324.53 838.348 2354.74 844.887 2388.43 844.887C2405.27 844.887 2420.66 843.465 2434.61 840.622C2449.13 837.779 2460.45 834.368 2468.58 830.387V709.274H2355.32C2353 705.294 2350.38 699.607 2347.48 692.215C2345.15 684.255 2343.99 676.294 2343.99 668.334C2343.99 652.982 2347.48 641.894 2354.45 635.07C2361.42 627.678 2371 623.983 2383.2 623.983H2529.57C2542.93 623.983 2553.68 627.963 2561.81 635.923C2570.52 643.884 2574.88 654.687 2574.88 668.334ZM2791.25 612.895V729.744H2684.08V604.366C2684.08 590.15 2687.57 578.21 2694.54 568.543C2701.51 558.308 2711.38 548.926 2724.16 540.397C2741.58 530.162 2763.66 521.633 2790.38 514.81C2817.09 507.986 2845.85 504.575 2876.63 504.575C2931.23 504.575 2958.53 521.064 2958.53 554.044C2958.53 562.004 2957.37 569.396 2955.05 576.219C2952.72 582.474 2949.82 588.16 2946.33 593.278C2940.53 592.14 2933.27 591.288 2924.55 590.719C2915.84 589.582 2906.55 589.013 2896.67 589.013C2875.76 589.013 2856.01 591.288 2837.42 595.836C2819.42 599.817 2804.03 605.503 2791.25 612.895ZM2684.08 694.774L2791.25 699.892V918.237C2786.6 919.943 2779.92 921.365 2771.21 922.502C2762.5 924.208 2752.91 925.061 2742.46 925.061C2722.71 925.061 2707.9 921.649 2698.02 914.826C2688.73 907.434 2684.08 894.64 2684.08 876.445V694.774ZM3064.68 771.536L3060.33 698.186L3293.83 664.069C3292.09 642.462 3283.66 623.698 3268.56 607.777C3253.46 591.856 3231.39 583.896 3202.34 583.896C3172.72 583.896 3148.03 594.131 3128.29 614.6C3108.54 634.502 3098.37 663.216 3097.79 700.745L3100.4 745.096C3105.63 781.487 3119.86 808.212 3143.1 825.27C3166.91 842.328 3196.83 850.857 3232.84 850.857C3257.23 850.857 3279.89 847.446 3300.8 840.622C3321.71 833.23 3338.26 825.27 3350.46 816.741C3358.59 821.858 3364.98 828.397 3369.63 836.358C3374.86 843.75 3377.47 851.994 3377.47 861.092C3377.47 875.876 3370.79 888.67 3357.43 899.473C3344.07 909.708 3326.07 917.669 3303.41 923.355C3280.76 929.041 3254.91 931.884 3225.87 931.884C3181.14 931.884 3141.35 923.923 3106.5 908.002C3072.23 891.513 3045.22 867.063 3025.48 834.652C3006.31 802.241 2996.72 761.87 2996.72 713.538C2996.72 678.853 3002.24 648.433 3013.28 622.277C3024.31 596.121 3039.13 574.514 3057.71 557.455C3076.88 539.828 3098.95 526.75 3123.93 518.221C3148.91 509.124 3175.04 504.575 3202.34 504.575C3240.68 504.575 3274.08 512.251 3302.54 527.603C3331.58 542.387 3354.24 563.141 3370.5 589.866C3387.34 616.591 3395.77 647.295 3395.77 681.981C3395.77 697.902 3391.41 709.842 3382.7 717.803C3374.57 725.195 3362.95 729.744 3347.85 731.449L3064.68 771.536ZM3529.24 771.536L3524.88 698.186L3758.38 664.069C3756.64 642.462 3748.22 623.698 3733.12 607.777C3718.01 591.856 3695.94 583.896 3666.9 583.896C3637.28 583.896 3612.59 594.131 3592.84 614.6C3573.09 634.502 3562.93 663.216 3562.35 700.745L3564.96 745.096C3570.19 781.487 3584.42 808.212 3607.65 825.27C3631.47 842.328 3661.38 850.857 3697.39 850.857C3721.79 850.857 3744.44 847.446 3765.35 840.622C3786.26 833.23 3802.82 825.27 3815.02 816.741C3823.15 821.858 3829.54 828.397 3834.18 836.358C3839.41 843.75 3842.03 851.994 3842.03 861.092C3842.03 875.876 3835.35 888.67 3821.99 899.473C3808.63 909.708 3790.62 917.669 3767.97 923.355C3745.31 929.041 3719.47 931.884 3690.42 931.884C3645.7 931.884 3605.91 923.923 3571.06 908.002C3536.79 891.513 3509.78 867.063 3490.03 834.652C3470.86 802.241 3461.28 761.87 3461.28 713.538C3461.28 678.853 3466.8 648.433 3477.83 622.277C3488.87 596.121 3503.68 574.514 3522.27 557.455C3541.44 539.828 3563.51 526.75 3588.48 518.221C3613.46 509.124 3639.6 504.575 3666.9 504.575C3705.24 504.575 3738.63 512.251 3767.1 527.603C3796.14 542.387 3818.79 563.141 3835.06 589.866C3851.9 616.591 3860.32 647.295 3860.32 681.981C3860.32 697.902 3855.97 709.842 3847.25 717.803C3839.12 725.195 3827.5 729.744 3812.4 731.449L3529.24 771.536ZM4327.51 656.393V739.126H4220.35V660.658C4220.35 635.639 4213.09 617.444 4198.56 606.071C4184.04 594.131 4164.58 588.16 4140.19 588.16C4122.18 588.16 4105.92 590.435 4091.4 594.983C4077.46 598.964 4064.97 603.797 4053.93 609.483V739.126H3946.77V602.66C3946.77 589.013 3949.67 577.925 3955.48 569.396C3961.29 560.298 3970 552.054 3981.62 544.662C3999.04 533.289 4021.41 523.907 4048.71 516.516C4076.59 508.555 4107.37 504.575 4141.06 504.575C4199.73 504.575 4245.32 517.368 4277.85 542.956C4310.96 568.543 4327.51 606.356 4327.51 656.393ZM3946.77 697.333H4053.93V918.237C4049.29 919.943 4042.61 921.365 4033.89 922.502C4025.18 924.208 4015.6 925.061 4005.14 925.061C3985.39 925.061 3970.58 921.649 3960.71 914.826C3951.41 907.434 3946.77 894.64 3946.77 876.445V697.333ZM4220.35 697.333H4327.51V918.237C4323.45 919.943 4316.77 921.365 4307.47 922.502C4298.76 924.208 4289.47 925.061 4279.59 925.061C4259.26 925.061 4244.16 921.649 4234.29 914.826C4224.99 907.434 4220.35 894.64 4220.35 876.445V697.333ZM4451.59 581.337H4562.24V913.973L4510.83 920.796C4492.83 920.796 4478.31 915.679 4467.27 905.444C4456.81 894.64 4451.59 880.709 4451.59 863.651V581.337ZM4510.83 920.796V832.093H4787.9C4791.38 836.642 4794.29 842.612 4796.61 850.004C4799.52 857.396 4800.97 865.641 4800.97 874.739C4800.97 890.091 4797.19 901.748 4789.64 909.708C4782.67 917.1 4773.09 920.796 4760.89 920.796H4510.83ZM4562.24 702.45H4451.59V402.225C4456.81 401.088 4464.08 399.666 4473.37 397.961C4483.24 396.255 4493.12 395.402 4502.99 395.402C4523.9 395.402 4539.01 399.098 4548.3 406.49C4557.59 413.313 4562.24 426.391 4562.24 445.724V702.45ZM4920.4 771.536L4916.04 698.186L5149.54 664.069C5147.8 642.462 5139.38 623.698 5124.27 607.777C5109.17 591.856 5087.1 583.896 5058.06 583.896C5028.43 583.896 5003.75 594.131 4984 614.6C4964.25 634.502 4954.09 663.216 4953.5 700.745L4956.12 745.096C4961.35 781.487 4975.58 808.212 4998.81 825.27C5022.63 842.328 5052.54 850.857 5088.55 850.857C5112.95 850.857 5135.6 847.446 5156.51 840.622C5177.42 833.23 5193.98 825.27 5206.17 816.741C5214.31 821.858 5220.7 828.397 5225.34 836.358C5230.57 843.75 5233.18 851.994 5233.18 861.092C5233.18 875.876 5226.5 888.67 5213.14 899.473C5199.78 909.708 5181.78 917.669 5159.13 923.355C5136.47 929.041 5110.62 931.884 5081.58 931.884C5036.86 931.884 4997.07 923.923 4962.22 908.002C4927.95 891.513 4900.94 867.063 4881.19 834.652C4862.02 802.241 4852.44 761.87 4852.44 713.538C4852.44 678.853 4857.95 648.433 4868.99 622.277C4880.03 596.121 4894.84 574.514 4913.43 557.455C4932.59 539.828 4954.67 526.75 4979.64 518.221C5004.62 509.124 5030.76 504.575 5058.06 504.575C5096.39 504.575 5129.79 512.251 5158.25 527.603C5187.3 542.387 5209.95 563.141 5226.21 589.866C5243.06 616.591 5251.48 647.295 5251.48 681.981C5251.48 697.902 5247.12 709.842 5238.41 717.803C5230.28 725.195 5218.66 729.744 5203.56 731.449L4920.4 771.536ZM5499.96 852.563C5517.39 852.563 5533.07 850.857 5547.01 847.446C5560.95 844.034 5571.11 840.338 5577.5 836.358V739.126L5491.25 747.655C5467.43 749.361 5449.14 754.478 5436.36 763.007C5424.16 770.968 5418.06 782.909 5418.06 798.83C5418.06 815.319 5424.74 828.397 5438.1 838.064C5451.46 847.73 5472.08 852.563 5499.96 852.563ZM5495.6 504.575C5552.53 504.575 5597.83 516.516 5631.52 540.397C5665.21 563.71 5682.06 600.67 5682.06 651.276V847.446C5682.06 861.092 5678.57 871.896 5671.6 879.856C5665.21 887.817 5656.79 894.924 5646.33 901.179C5630.07 910.277 5609.45 917.669 5584.47 923.355C5559.5 929.61 5531.33 932.737 5499.96 932.737C5441.87 932.737 5396.28 921.933 5363.17 900.326C5330.06 878.15 5313.51 845.455 5313.51 802.241C5313.51 764.144 5325.7 735.145 5350.1 715.244C5375.08 694.774 5411.09 682.265 5458.14 677.716L5576.63 665.775V650.423C5576.63 627.678 5568.5 611.189 5552.24 600.954C5536.55 590.719 5514.19 585.601 5485.15 585.601C5462.5 585.601 5440.42 588.444 5418.93 594.131C5397.44 599.817 5378.27 606.64 5361.43 614.6C5355.62 610.052 5350.39 603.797 5345.74 595.836C5341.1 587.876 5338.77 579.631 5338.77 571.102C5338.77 550.632 5350.39 535.564 5373.63 525.898C5389.89 518.506 5408.77 513.104 5430.26 509.692C5452.33 506.281 5474.11 504.575 5495.6 504.575ZM5835.84 919.943H5793.14C5786.75 914.257 5781.53 907.434 5777.46 899.473C5773.4 891.513 5771.36 882.699 5771.36 873.033C5771.36 863.935 5773.4 855.406 5777.46 847.446C5782.11 838.916 5787.34 830.672 5793.14 822.711L6051.04 516.516H6089.38C6096.35 522.202 6101.87 529.025 6105.93 536.985C6110 544.946 6112.03 553.759 6112.03 563.426C6112.03 571.955 6110 580.484 6105.93 589.013C6101.87 597.542 6096.35 605.503 6089.38 612.895L5835.84 919.943ZM6069.34 516.516V599.248H5787.04C5784.14 594.699 5781.53 588.729 5779.2 581.337C5776.88 573.945 5775.72 566.269 5775.72 558.308C5775.72 543.524 5778.91 533.005 5785.3 526.75C5792.27 519.927 5801.57 516.516 5813.18 516.516H6069.34ZM5817.54 919.943V837.211H6109.42C6111.74 841.191 6114.06 846.877 6116.39 854.269C6118.71 861.661 6119.87 869.621 6119.87 878.15C6119.87 892.366 6116.39 902.885 6109.42 909.708C6103.03 916.532 6094.02 919.943 6082.41 919.943H5817.54ZM6244.32 771.536L6239.96 698.186L6473.47 664.069C6471.72 642.462 6463.3 623.698 6448.2 607.777C6433.1 591.856 6411.02 583.896 6381.98 583.896C6352.36 583.896 6327.67 594.131 6307.92 614.6C6288.17 634.502 6278.01 663.216 6277.43 700.745L6280.04 745.096C6285.27 781.487 6299.5 808.212 6322.73 825.27C6346.55 842.328 6376.46 850.857 6412.48 850.857C6436.87 850.857 6459.52 847.446 6480.44 840.622C6501.35 833.23 6517.9 825.27 6530.1 816.741C6538.23 821.858 6544.62 828.397 6549.27 836.358C6554.49 843.75 6557.11 851.994 6557.11 861.092C6557.11 875.876 6550.43 888.67 6537.07 899.473C6523.71 909.708 6505.7 917.669 6483.05 923.355C6460.4 929.041 6434.55 931.884 6405.51 931.884C6360.78 931.884 6320.99 923.923 6286.14 908.002C6251.87 891.513 6224.86 867.063 6205.11 834.652C6185.94 802.241 6176.36 761.87 6176.36 713.538C6176.36 678.853 6181.88 648.433 6192.91 622.277C6203.95 596.121 6218.76 574.514 6237.35 557.455C6256.52 539.828 6278.59 526.75 6303.57 518.221C6328.54 509.124 6354.68 504.575 6381.98 504.575C6420.32 504.575 6453.72 512.251 6482.18 527.603C6511.22 542.387 6533.87 563.141 6550.14 589.866C6566.98 616.591 6575.4 647.295 6575.4 681.981C6575.4 697.902 6571.05 709.842 6562.34 717.803C6554.2 725.195 6542.59 729.744 6527.48 731.449L6244.32 771.536Z" fill="black"></path>
</mask>
<g mask="url(#mask0_2698_491)">
<path d="M2565.32 881.554L2563.68 880.299L2563.66 880.336L2563.64 880.374L2565.32 881.554ZM2536.56 903.73L2535.61 901.929L2535.59 901.943L2536.56 903.73ZM2471.22 924.2L2470.8 922.21V922.212L2471.22 924.2ZM2238.59 904.583L2237.72 906.429L2237.74 906.435L2237.76 906.441L2238.59 904.583ZM2136.65 815.88L2134.86 816.932L2134.89 816.942L2136.65 815.88ZM2239.46 419.276L2238.55 417.45V417.454L2239.46 419.276ZM2472.09 399.659L2471.51 401.606V401.61L2472.09 399.659ZM2532.21 428.658L2530.84 430.187L2530.86 430.199L2530.88 430.213L2532.21 428.658ZM2544.41 496.891L2542.73 495.691L2542.7 495.727L2542.68 495.764L2544.41 496.891ZM2524.37 516.508L2523.27 518.226L2524.35 518.9L2525.45 518.238L2524.37 516.508ZM2468.6 490.067L2467.82 491.95L2467.86 491.958L2467.88 491.966L2468.6 490.067ZM2297.83 498.597L2296.86 496.803L2296.84 496.812L2297.83 498.597ZM2235.1 561.712L2236.93 562.679V562.664L2235.1 561.712ZM2235.1 765.558L2233.28 766.525V766.541L2235.1 765.558ZM2434.62 840.614L2434.21 838.622V838.626L2434.62 840.614ZM2468.6 830.38L2469.54 832.195L2470.68 831.635V830.38H2468.6ZM2468.6 709.266H2470.68V707.235H2468.6V709.266ZM2355.34 709.266L2353.53 710.273L2354.14 711.297H2355.34V709.266ZM2347.5 692.208L2345.51 692.766L2345.53 692.851L2345.57 692.937L2347.5 692.208ZM2354.47 635.063L2355.94 636.498L2355.96 636.47L2355.98 636.439L2354.47 635.063ZM2561.83 635.915L2560.36 637.351L2560.4 637.376L2560.42 637.4L2561.83 635.915ZM2572.83 668.326V849.144H2576.97V668.326H2572.83ZM2572.83 849.144C2572.83 862.494 2569.69 872.804 2563.68 880.299L2566.96 882.809C2573.72 874.384 2576.97 863.089 2576.97 849.144H2572.83ZM2563.64 880.374C2558.08 887.976 2548.8 895.185 2535.61 901.929L2537.52 905.531C2551.04 898.629 2560.94 891.054 2567 882.734L2563.64 880.374ZM2535.59 901.943C2520.74 909.765 2499.18 916.54 2470.8 922.21L2471.63 926.19C2500.18 920.488 2522.19 913.616 2537.54 905.517L2535.59 901.943ZM2470.8 922.212C2443.05 927.869 2415.02 930.698 2386.7 930.698V934.76C2415.31 934.76 2443.63 931.905 2471.63 926.19L2470.8 922.212ZM2386.7 930.698C2331.77 930.698 2282.69 921.359 2239.42 902.725L2237.76 906.441C2281.61 925.335 2331.28 934.76 2386.7 934.76V930.698ZM2239.46 902.737C2196.85 883.575 2163.18 854.281 2138.41 814.818L2134.89 816.942C2160.07 857.084 2194.36 886.926 2237.72 906.429L2239.46 902.737ZM2138.43 814.828C2113.7 774.861 2101.26 723.796 2101.26 661.503H2097.11C2097.11 724.304 2109.64 776.157 2134.86 816.932L2138.43 814.828ZM2101.26 661.503C2101.26 601.509 2113.97 551.581 2139.28 511.608L2135.76 509.467C2109.95 550.236 2097.11 600.952 2097.11 661.503H2101.26ZM2139.28 511.608C2164.63 471.549 2198.32 441.395 2240.37 421.097L2238.55 417.454C2195.79 438.097 2161.52 468.783 2135.76 509.467L2139.28 511.608ZM2240.37 421.101C2283.04 400.778 2330.07 390.602 2381.48 390.602V386.54C2329.49 386.54 2281.84 396.834 2238.55 417.45L2240.37 421.101ZM2381.48 390.602C2416.18 390.602 2446.18 394.283 2471.51 401.606L2472.67 397.711C2446.88 390.25 2416.47 386.54 2381.48 386.54V390.602ZM2471.51 401.61C2497.48 408.955 2517.21 418.51 2530.84 430.187L2533.58 427.129C2519.33 414.924 2498.97 405.146 2472.67 397.707L2471.51 401.61ZM2530.88 430.213C2545.07 441.894 2551.92 454.448 2551.92 467.892H2556.06C2556.06 452.905 2548.39 439.303 2533.54 427.102L2530.88 430.213ZM2551.92 467.892C2551.92 478.273 2548.84 487.517 2542.73 495.691L2546.09 498.091C2552.74 489.206 2556.06 479.118 2556.06 467.892H2551.92ZM2542.68 495.764C2537 504.094 2530.53 510.407 2523.29 514.778L2525.45 518.238C2533.31 513.51 2540.19 506.746 2546.13 498.018L2542.68 495.764ZM2525.47 514.79C2509.64 505.036 2490.93 496.166 2469.33 488.169L2467.88 491.966C2489.27 499.89 2507.73 508.647 2523.27 518.226L2525.47 514.79ZM2469.39 488.185C2447.57 479.53 2420.87 475.243 2389.32 475.243V479.304C2420.5 479.304 2446.66 483.547 2467.82 491.95L2469.39 488.185ZM2389.32 475.243C2355.32 475.243 2324.49 482.418 2296.86 496.803L2298.81 500.39C2325.78 486.345 2355.94 479.304 2389.32 479.304V475.243ZM2296.84 496.812C2269.75 511.23 2248.55 532.569 2233.28 560.76L2236.93 562.664C2251.86 535.132 2272.48 514.394 2298.83 500.382L2296.84 496.812ZM2233.28 560.745C2217.97 588.404 2210.38 622.019 2210.38 661.503H2214.52C2214.52 622.519 2222.03 589.606 2236.93 562.679L2233.28 560.745ZM2210.38 661.503C2210.38 703.803 2217.97 738.848 2233.28 766.525L2236.93 764.592C2222.03 737.682 2214.52 703.356 2214.52 661.503H2210.38ZM2233.28 766.541C2248.59 793.609 2269.79 813.809 2296.9 827.078L2298.77 823.447C2272.44 810.559 2251.82 790.957 2236.93 764.575L2233.28 766.541ZM2296.9 827.078C2323.95 840.314 2354.47 846.91 2388.45 846.91V842.848C2355.05 842.848 2325.16 836.366 2298.77 823.447L2296.9 827.078ZM2388.45 846.91C2405.42 846.91 2420.95 845.478 2435.04 842.603L2434.21 838.626C2420.41 841.437 2405.17 842.848 2388.45 842.848V846.91ZM2435.04 842.607C2449.64 839.747 2461.16 836.291 2469.54 832.195L2467.67 828.564C2459.79 832.429 2448.65 835.796 2434.21 838.622L2435.04 842.607ZM2470.68 830.38V709.266H2466.53V830.38H2470.68ZM2468.6 707.235H2355.34V711.297H2468.6V707.235ZM2357.14 708.259C2354.9 704.408 2352.33 698.832 2349.43 691.479L2345.57 692.937C2348.47 700.367 2351.13 706.163 2353.53 710.273L2357.14 708.259ZM2349.49 691.649C2347.23 683.863 2346.09 676.09 2346.09 668.326H2341.94C2341.94 676.484 2343.12 684.631 2345.51 692.766L2349.49 691.649ZM2346.09 668.326C2346.09 653.205 2349.53 642.767 2355.94 636.498L2352.99 633.627C2345.46 641.002 2341.94 652.742 2341.94 668.326H2346.09ZM2355.98 636.439C2362.5 629.543 2371.48 626.005 2383.22 626.005V621.944C2370.57 621.944 2360.38 625.798 2352.95 633.686L2355.98 636.439ZM2383.22 626.005H2529.59V621.944H2383.22V626.005ZM2529.59 626.005C2542.5 626.005 2552.68 629.833 2560.36 637.351L2563.3 634.48C2554.72 626.077 2543.41 621.944 2529.59 621.944V626.005ZM2560.42 637.4C2568.64 644.912 2572.83 655.138 2572.83 668.326H2576.97C2576.97 654.221 2572.45 642.84 2563.24 634.431L2560.42 637.4ZM2791.27 612.887L2790.23 611.138L2789.19 611.727V612.887H2791.27ZM2791.27 729.736V731.767H2793.34V729.736H2791.27ZM2684.1 729.736H2682.03V731.767H2684.1V729.736ZM2694.56 568.535L2696.26 569.707L2696.28 569.685L2696.3 569.662L2694.56 568.535ZM2724.18 540.389L2723.12 538.647L2723.08 538.677L2723.02 538.712L2724.18 540.389ZM2955.07 576.212L2957.02 576.906L2957.04 576.88V576.853L2955.07 576.212ZM2946.35 593.27L2945.96 595.262L2947.31 595.528L2948.1 594.397L2946.35 593.27ZM2924.57 590.711L2924.3 592.724L2924.36 592.734L2924.45 592.738L2924.57 590.711ZM2837.44 595.829L2837.9 597.809L2837.94 597.804L2837.96 597.798L2837.44 595.829ZM2684.1 694.766L2684.2 692.738L2682.03 692.634V694.766H2684.1ZM2791.27 699.884H2793.34V697.951L2791.37 697.855L2791.27 699.884ZM2791.27 918.23L2792.01 920.13L2793.34 919.637V918.23H2791.27ZM2771.23 922.494L2770.96 920.482L2770.9 920.49L2770.83 920.502L2771.23 922.494ZM2698.04 914.818L2696.73 916.394L2696.8 916.436L2696.86 916.477L2698.04 914.818ZM2789.19 612.887V729.736H2793.34V612.887H2789.19ZM2791.27 727.705H2684.1V731.767H2791.27V727.705ZM2686.17 729.736V604.358H2682.03V729.736H2686.17ZM2686.17 604.358C2686.17 590.476 2689.58 578.965 2696.26 569.707L2692.88 567.364C2685.61 577.438 2682.03 589.809 2682.03 604.358H2686.17ZM2696.3 569.662C2703.08 559.687 2712.75 550.482 2725.36 542.067L2723.02 538.712C2710.07 547.355 2699.99 556.913 2692.83 567.408L2696.3 569.662ZM2725.26 542.13C2742.45 532.023 2764.34 523.558 2790.94 516.768L2789.88 512.836C2763.03 519.692 2740.75 528.286 2723.12 538.647L2725.26 542.13ZM2790.94 516.768C2817.47 509.991 2846.03 506.598 2876.65 506.598V502.536C2845.72 502.536 2816.78 505.966 2789.88 512.836L2790.94 516.768ZM2876.65 506.598C2903.81 506.598 2923.83 510.71 2937 518.662C2950.01 526.515 2956.48 538.208 2956.48 554.036H2960.63C2960.63 536.884 2953.47 523.843 2939.18 515.206C2925.05 506.669 2904.1 502.536 2876.65 502.536V506.598ZM2956.48 554.036C2956.48 561.801 2955.36 568.974 2953.12 575.57L2957.04 576.853C2959.44 569.803 2960.63 562.191 2960.63 554.036H2956.48ZM2953.12 575.517C2950.86 581.632 2948.01 587.171 2944.63 592.143L2948.1 594.397C2951.66 589.133 2954.65 583.301 2957.02 576.906L2953.12 575.517ZM2946.77 591.278C2940.84 590.118 2933.49 589.257 2924.72 588.684L2924.45 592.738C2933.1 593.302 2940.28 594.147 2945.96 595.262L2946.77 591.278ZM2924.86 588.699C2916.05 587.547 2906.65 586.975 2896.69 586.975V591.036C2906.5 591.036 2915.69 591.601 2924.3 592.724L2924.86 588.699ZM2896.69 586.975C2875.64 586.975 2855.72 589.265 2836.95 593.859L2837.96 597.798C2856.36 593.294 2875.95 591.036 2896.69 591.036V586.975ZM2836.99 593.849C2818.84 597.863 2803.22 603.616 2790.23 611.138L2792.33 614.635C2804.88 607.373 2820.06 601.754 2837.9 597.809L2836.99 593.849ZM2684.02 696.795L2791.18 701.913L2791.37 697.855L2684.2 692.738L2684.02 696.795ZM2789.19 699.884V918.23H2793.34V699.884H2789.19ZM2790.54 916.329C2786.12 917.953 2779.63 919.351 2770.96 920.482L2771.52 924.507C2780.27 923.363 2787.14 921.917 2792.01 920.13L2790.54 916.329ZM2770.83 920.502C2762.27 922.177 2752.83 923.022 2742.48 923.022V927.084C2753.06 927.084 2762.78 926.223 2771.64 924.486L2770.83 920.502ZM2742.48 923.022C2722.91 923.022 2708.62 919.631 2699.24 913.159L2696.86 916.477C2707.23 923.652 2722.56 927.084 2742.48 927.084V923.022ZM2699.35 913.242C2690.76 906.409 2686.17 894.36 2686.17 876.437H2682.03C2682.03 894.904 2686.76 908.443 2696.73 916.394L2699.35 913.242ZM2686.17 876.437V694.766H2682.03V876.437H2686.17ZM3064.7 771.529L3062.63 771.646L3062.75 773.856L3064.99 773.539L3064.7 771.529ZM3060.35 698.178L3060.03 696.17L3058.15 696.444L3058.27 698.296L3060.35 698.178ZM3293.85 664.062L3294.14 666.07L3296.07 665.79L3295.9 663.901L3293.85 664.062ZM3128.31 614.593L3129.78 616.008L3129.8 615.988L3128.31 614.593ZM3097.81 700.737L3095.74 700.706V700.779V700.855L3097.81 700.737ZM3100.42 745.088L3098.35 745.206V745.289L3098.37 745.371L3100.42 745.088ZM3143.12 825.262L3141.87 826.887L3141.89 826.901L3143.12 825.262ZM3300.82 840.614L3301.46 842.542L3301.48 842.534L3301.52 842.525L3300.82 840.614ZM3350.48 816.733L3351.6 815.025L3350.42 814.28L3349.26 815.08L3350.48 816.733ZM3369.65 836.35L3367.84 837.357L3367.89 837.434L3367.93 837.505L3369.65 836.35ZM3357.45 899.465L3358.72 901.066L3358.74 901.047L3358.76 901.031L3357.45 899.465ZM3106.52 907.995L3105.59 909.816L3105.61 909.826L3105.63 909.834L3106.52 907.995ZM3025.5 834.644L3023.69 835.662L3023.71 835.684L3025.5 834.644ZM3057.73 557.447L3059.14 558.93V558.928L3057.73 557.447ZM3123.95 518.213L3124.63 520.131V520.124L3124.65 520.116L3123.95 518.213ZM3302.56 527.596L3301.54 529.374L3301.56 529.387L3301.59 529.397L3302.56 527.596ZM3370.52 589.858L3368.74 590.898V590.91V590.924L3370.52 589.858ZM3382.72 717.795L3384.13 719.284V719.28L3382.72 717.795ZM3347.87 731.442L3347.62 729.425L3347.6 729.427L3347.56 729.431L3347.87 731.442ZM3066.76 771.411L3062.4 698.06L3058.27 698.296L3062.63 771.646L3066.76 771.411ZM3060.64 700.186L3294.14 666.07L3293.54 662.053L3060.03 696.17L3060.64 700.186ZM3295.9 663.901C3294.12 641.837 3285.51 622.643 3270.1 606.388L3267.05 609.15C3281.84 624.738 3290.07 643.072 3291.77 664.222L3295.9 663.901ZM3270.1 606.388C3254.5 589.935 3231.78 581.857 3202.36 581.857V585.919C3231.01 585.919 3252.46 593.761 3267.05 609.15L3270.1 606.388ZM3202.36 581.857C3172.18 581.857 3146.93 592.309 3126.79 613.198L3129.8 615.988C3149.15 595.936 3173.28 585.919 3202.36 585.919V581.857ZM3126.81 613.177C3106.59 633.566 3096.32 662.847 3095.74 700.706L3099.89 700.767C3100.45 663.57 3110.53 635.422 3129.78 616.008L3126.81 613.177ZM3095.74 700.855L3098.35 745.206L3102.48 744.971L3099.86 700.619L3095.74 700.855ZM3098.37 745.371C3103.64 782.133 3118.08 809.416 3141.87 826.887L3144.36 823.637C3121.69 806.991 3107.64 780.825 3102.48 744.806L3098.37 745.371ZM3141.89 826.901C3166.12 844.266 3196.49 852.88 3232.86 852.88V848.819C3197.18 848.819 3167.72 840.375 3144.34 823.623L3141.89 826.901ZM3232.86 852.88C3257.44 852.88 3280.32 849.44 3301.46 842.542L3300.15 838.687C3279.47 845.435 3257.05 848.819 3232.86 848.819V852.88ZM3301.52 842.525C3322.52 835.097 3339.28 827.061 3351.68 818.386L3349.26 815.08C3337.29 823.463 3320.92 831.348 3300.11 838.704L3301.52 842.525ZM3349.34 818.441C3357.2 823.388 3363.36 829.689 3367.84 837.357L3371.43 835.343C3366.62 827.09 3360 820.313 3351.6 815.025L3349.34 818.441ZM3367.93 837.505C3372.93 844.554 3375.42 852.395 3375.42 861.084H3379.56C3379.56 851.578 3376.83 842.93 3371.35 835.194L3367.93 837.505ZM3375.42 861.084C3375.42 875.17 3369.09 887.419 3356.12 897.9L3358.76 901.031C3372.51 889.905 3379.56 876.567 3379.56 861.084H3375.42ZM3356.16 897.867C3343.1 907.877 3325.38 915.738 3302.91 921.379L3303.93 925.315C3326.77 919.584 3345.07 911.524 3358.72 901.066L3356.16 897.867ZM3302.91 921.379C3280.47 927.015 3254.79 929.845 3225.89 929.845V933.907C3255.06 933.907 3281.09 931.052 3303.93 925.315L3302.91 921.379ZM3225.89 929.845C3181.41 929.845 3141.93 921.932 3107.39 906.155L3105.63 909.834C3140.81 925.9 3180.89 933.907 3225.89 933.907V929.845ZM3107.44 906.173C3073.52 889.858 3046.82 865.68 3027.26 833.604L3023.71 835.684C3043.65 868.43 3070.97 893.152 3105.59 909.816L3107.44 906.173ZM3027.28 833.627C3008.34 801.602 2998.82 761.606 2998.82 713.53H2994.67C2994.67 762.118 3004.29 802.865 3023.69 835.662L3027.28 833.627ZM2998.82 713.53C2998.82 679.052 3004.29 648.906 3015.21 623.045L3011.37 621.493C3000.21 647.944 2994.67 678.638 2994.67 713.53H2998.82ZM3015.21 623.045C3026.14 597.12 3040.8 575.765 3059.14 558.93L3056.3 555.965C3037.46 573.247 3022.51 595.106 3011.37 621.493L3015.21 623.045ZM3059.14 558.928C3078.1 541.496 3099.93 528.566 3124.63 520.131L3123.26 516.296C3098 524.919 3075.68 538.145 3056.3 555.967L3059.14 558.928ZM3124.65 520.116C3149.4 511.106 3175.29 506.598 3202.36 506.598V502.536C3174.81 502.536 3148.43 507.126 3123.22 516.311L3124.65 520.116ZM3202.36 506.598C3240.41 506.598 3273.46 514.215 3301.54 529.374L3303.56 525.817C3274.74 510.271 3240.97 502.536 3202.36 502.536V506.598ZM3301.59 529.397C3330.3 544.012 3352.66 564.506 3368.74 590.898L3372.28 588.818C3355.83 561.761 3332.89 540.747 3303.51 525.794L3301.59 529.397ZM3368.74 590.924C3385.37 617.296 3393.71 647.623 3393.71 681.973H3397.86C3397.86 646.953 3389.34 615.87 3372.28 588.792L3368.74 590.924ZM3393.71 681.973C3393.71 697.542 3389.46 708.858 3381.29 716.311L3384.13 719.28C3393.4 710.811 3397.86 698.243 3397.86 681.973H3393.71ZM3381.31 716.307C3373.59 723.313 3362.45 727.75 3347.62 729.425L3348.1 733.458C3363.49 731.722 3375.56 727.061 3384.13 719.284L3381.31 716.307ZM3347.56 729.431L3064.39 769.518L3064.99 773.539L3348.16 733.452L3347.56 729.431ZM3529.26 771.529L3527.18 771.646L3527.33 773.856L3529.55 773.539L3529.26 771.529ZM3524.9 698.178L3524.59 696.17L3522.72 696.444L3522.83 698.296L3524.9 698.178ZM3758.4 664.062L3758.71 666.07L3760.62 665.79L3760.48 663.901L3758.4 664.062ZM3592.86 614.593L3594.36 616.008L3594.38 615.988L3592.86 614.593ZM3562.37 700.737L3560.29 700.706V700.779V700.855L3562.37 700.737ZM3564.98 745.088L3562.91 745.206V745.289L3562.93 745.371L3564.98 745.088ZM3607.67 825.262L3606.43 826.887L3606.45 826.901L3607.67 825.262ZM3765.37 840.614L3766.04 842.542L3766.06 842.534L3766.08 842.525L3765.37 840.614ZM3815.04 816.733L3816.16 815.025L3814.97 814.28L3813.83 815.08L3815.04 816.733ZM3834.2 836.35L3832.4 837.357L3832.44 837.434L3832.5 837.505L3834.2 836.35ZM3822.01 899.465L3823.29 901.066L3823.31 901.047L3823.33 901.031L3822.01 899.465ZM3571.08 907.995L3570.17 909.816L3570.19 909.826L3570.21 909.834L3571.08 907.995ZM3490.05 834.644L3488.27 835.662V835.684L3490.05 834.644ZM3522.29 557.447L3523.7 558.93L3523.72 558.928L3522.29 557.447ZM3588.5 518.213L3589.19 520.131L3589.21 520.124L3589.23 520.116L3588.5 518.213ZM3767.12 527.596L3766.12 529.374L3766.14 529.387L3766.16 529.397L3767.12 527.596ZM3835.08 589.858L3833.29 590.898L3833.31 590.91V590.924L3835.08 589.858ZM3847.27 717.795L3848.68 719.284V719.28L3847.27 717.795ZM3812.42 731.442L3812.19 729.425L3812.15 729.427L3812.13 729.431L3812.42 731.442ZM3531.33 771.411L3526.98 698.06L3522.83 698.296L3527.18 771.646L3531.33 771.411ZM3525.21 700.186L3758.71 666.07L3758.09 662.053L3524.59 696.17L3525.21 700.186ZM3760.48 663.901C3758.69 641.837 3750.09 622.643 3734.65 606.388L3731.62 609.15C3746.41 624.738 3754.63 643.072 3756.33 664.222L3760.48 663.901ZM3734.65 606.388C3719.05 589.935 3696.36 581.857 3666.92 581.857V585.919C3695.57 585.919 3717.02 593.761 3731.62 609.15L3734.65 606.388ZM3666.92 581.857C3636.76 581.857 3611.51 592.309 3591.35 613.198L3594.38 615.988C3613.71 595.936 3637.86 585.919 3666.92 585.919V581.857ZM3591.37 613.177C3571.14 633.566 3560.87 662.847 3560.29 700.706L3564.44 700.767C3565.02 663.57 3575.08 635.422 3594.36 616.008L3591.37 613.177ZM3560.29 700.855L3562.91 745.206L3567.05 744.971L3564.44 700.619L3560.29 700.855ZM3562.93 745.371C3568.22 782.133 3582.63 809.416 3606.43 826.887L3608.92 823.637C3586.24 806.991 3572.22 780.825 3567.03 744.806L3562.93 745.371ZM3606.45 826.901C3630.7 844.266 3661.07 852.88 3697.41 852.88V848.819C3661.75 848.819 3632.3 840.375 3608.9 823.623L3606.45 826.901ZM3697.41 852.88C3722.02 852.88 3744.88 849.44 3766.04 842.542L3764.71 838.687C3744.05 845.435 3721.6 848.819 3697.41 848.819V852.88ZM3766.08 842.525C3787.09 835.097 3803.83 827.061 3816.24 818.386L3813.83 815.08C3801.84 823.463 3785.48 831.348 3764.67 838.704L3766.08 842.525ZM3813.92 818.441C3821.78 823.388 3827.94 829.689 3832.4 837.357L3836.01 835.343C3831.2 827.09 3824.56 820.313 3816.16 815.025L3813.92 818.441ZM3832.5 837.505C3837.48 844.554 3839.97 852.395 3839.97 861.084H3844.12C3844.12 851.578 3841.38 842.93 3835.91 835.194L3832.5 837.505ZM3839.97 861.084C3839.97 875.17 3833.64 887.419 3820.68 897.9L3823.33 901.031C3837.09 889.905 3844.12 876.567 3844.12 861.084H3839.97ZM3820.72 897.867C3807.67 907.877 3789.96 915.738 3767.47 921.379L3768.51 925.315C3791.35 919.584 3809.64 911.524 3823.29 901.066L3820.72 897.867ZM3767.47 921.379C3745.02 927.015 3719.36 929.845 3690.44 929.845V933.907C3719.63 933.907 3745.65 931.052 3768.51 925.315L3767.47 921.379ZM3690.44 929.845C3645.97 929.845 3606.49 921.932 3571.95 906.155L3570.21 909.834C3605.37 925.9 3645.47 933.907 3690.44 933.907V929.845ZM3571.99 906.173C3538.1 889.858 3511.38 865.68 3491.83 833.604L3488.27 835.684C3508.22 868.43 3535.52 893.152 3570.17 909.816L3571.99 906.173ZM3491.86 833.627C3472.92 801.602 3463.37 761.606 3463.37 713.53H3459.22C3459.22 762.118 3468.87 802.865 3488.27 835.662L3491.86 833.627ZM3463.37 713.53C3463.37 679.052 3468.87 648.906 3479.78 623.045L3475.94 621.493C3464.78 647.944 3459.22 678.638 3459.22 713.53H3463.37ZM3479.78 623.045C3490.71 597.12 3505.36 575.765 3523.7 558.93L3520.88 555.965C3502.04 573.247 3487.06 595.106 3475.94 621.493L3479.78 623.045ZM3523.72 558.928C3542.66 541.496 3564.48 528.566 3589.19 520.131L3587.82 516.296C3562.57 524.919 3540.25 538.145 3520.88 555.967L3523.72 558.928ZM3589.23 520.116C3613.98 511.106 3639.87 506.598 3666.92 506.598V502.536C3639.37 502.536 3613 507.126 3587.78 516.311L3589.23 520.116ZM3666.92 506.598C3704.97 506.598 3738.01 514.215 3766.12 529.374L3768.11 525.817C3739.3 510.271 3705.55 502.536 3666.92 502.536V506.598ZM3766.16 529.397C3794.87 544.012 3817.24 564.506 3833.29 590.898L3836.86 588.818C3820.39 561.761 3797.45 540.747 3768.07 525.794L3766.16 529.397ZM3833.31 590.924C3849.93 617.296 3858.27 647.623 3858.27 681.973H3862.42C3862.42 646.953 3853.91 615.87 3836.84 588.792L3833.31 590.924ZM3858.27 681.973C3858.27 697.542 3854.02 708.858 3845.86 716.311L3848.68 719.28C3857.96 710.811 3862.42 698.243 3862.42 681.973H3858.27ZM3845.86 716.307C3838.15 723.313 3827.01 727.75 3812.19 729.425L3812.67 733.458C3828.04 731.722 3840.14 727.061 3848.68 719.284L3845.86 716.307ZM3812.13 729.431L3528.97 769.518L3529.55 773.539L3812.71 733.452L3812.13 729.431ZM4327.53 739.118V741.149H4329.61V739.118H4327.53ZM4220.37 739.118H4218.29V741.149H4220.37V739.118ZM4198.58 606.064L4197.24 607.619L4197.26 607.633L4197.28 607.65L4198.58 606.064ZM4091.42 594.976L4092 596.925L4092.02 596.917L4092.04 596.909L4091.42 594.976ZM4053.95 609.475L4052.98 607.678L4051.88 608.249V609.475H4053.95ZM4053.95 739.118V741.149H4056.03V739.118H4053.95ZM3946.79 739.118H3944.71V741.149H3946.79V739.118ZM3955.5 569.388L3957.22 570.515L3957.24 570.489V570.465L3955.5 569.388ZM3981.64 544.654L3982.76 546.356L3982.78 546.343L3981.64 544.654ZM4048.73 516.508L4049.26 518.465L4049.31 518.457L4048.73 516.508ZM4277.87 542.948L4276.56 544.532L4276.58 544.542L4277.87 542.948ZM3946.79 697.325V695.294H3944.71V697.325H3946.79ZM4053.95 697.325H4056.03V695.294H4053.95V697.325ZM4053.95 918.23L4054.68 920.13L4056.03 919.637V918.23H4053.95ZM4033.91 922.494L4033.62 920.482L4033.56 920.49L4033.5 920.502L4033.91 922.494ZM3960.73 914.818L3959.42 916.394L3959.46 916.436L3959.52 916.477L3960.73 914.818ZM4220.37 697.325V695.294H4218.29V697.325H4220.37ZM4327.53 697.325H4329.61V695.294H4327.53V697.325ZM4327.53 918.23L4328.34 920.096L4329.61 919.568V918.23H4327.53ZM4307.49 922.494L4307.22 920.48L4307.16 920.488L4307.08 920.502L4307.49 922.494ZM4234.31 914.818L4233 916.394L4233.04 916.436L4233.1 916.477L4234.31 914.818ZM4325.46 656.385V739.118H4329.61V656.385H4325.46ZM4327.53 737.087H4220.37V741.149H4327.53V737.087ZM4222.44 739.118V660.65H4218.29V739.118H4222.44ZM4222.44 660.65C4222.44 635.26 4215.06 616.365 4199.87 604.477L4197.28 607.65C4211.14 618.506 4218.29 636.003 4218.29 660.65H4222.44ZM4199.91 604.508C4184.91 592.181 4164.94 586.122 4140.21 586.122V590.183C4164.25 590.183 4183.19 596.064 4197.24 607.619L4199.91 604.508ZM4140.21 586.122C4122.02 586.122 4105.54 588.418 4090.77 593.042L4092.04 596.909C4106.33 592.435 4122.37 590.183 4140.21 590.183V586.122ZM4090.84 593.026C4076.77 597.039 4064.16 601.919 4052.98 607.678L4054.91 611.272C4065.8 605.659 4078.16 600.873 4092 596.925L4090.84 593.026ZM4051.88 609.475V739.118H4056.03V609.475H4051.88ZM4053.95 737.087H3946.79V741.149H4053.95V737.087ZM3948.86 739.118V602.652H3944.71V739.118H3948.86ZM3948.86 602.652C3948.86 589.275 3951.7 578.616 3957.22 570.515L3953.76 568.261C3947.66 577.219 3944.71 588.735 3944.71 602.652H3948.86ZM3957.24 570.465C3962.86 561.676 3971.33 553.628 3982.76 546.356L3980.5 542.952C3968.69 550.464 3959.73 558.906 3953.74 568.312L3957.24 570.465ZM3982.78 546.343C3999.98 535.126 4022.11 525.819 4049.26 518.465L4048.17 514.55C4020.72 521.981 3998.13 531.438 3980.48 542.964L3982.78 546.343ZM4049.31 518.457C4076.96 510.558 4107.56 506.598 4141.08 506.598V502.536C4107.23 502.536 4076.23 506.537 4048.14 514.558L4049.31 518.457ZM4141.08 506.598C4199.46 506.598 4244.53 519.33 4276.56 544.53L4279.16 541.364C4246.15 515.391 4200.02 502.536 4141.08 502.536V506.598ZM4276.58 544.542C4309.09 569.662 4325.46 606.823 4325.46 656.385H4329.61C4329.61 605.873 4312.87 567.408 4279.16 541.354L4276.58 544.542ZM3946.79 699.356H4053.95V695.294H3946.79V699.356ZM4051.88 697.325V918.23H4056.03V697.325H4051.88ZM4053.23 916.329C4048.79 917.953 4042.29 919.351 4033.62 920.482L4034.18 924.507C4042.96 923.363 4049.8 921.917 4054.68 920.13L4053.23 916.329ZM4033.5 920.502C4024.93 922.177 4015.49 923.022 4005.16 923.022V927.084C4015.72 927.084 4025.45 926.223 4034.31 924.486L4033.5 920.502ZM4005.16 923.022C3985.58 923.022 3971.29 919.631 3961.91 913.159L3959.52 916.477C3969.9 923.652 3985.23 927.084 4005.16 927.084V923.022ZM3962.03 913.242C3953.45 906.409 3948.86 894.36 3948.86 876.437H3944.71C3944.71 894.904 3949.42 908.443 3959.42 916.394L3962.03 913.242ZM3948.86 876.437V697.325H3944.71V876.437H3948.86ZM4220.37 699.356H4327.53V695.294H4220.37V699.356ZM4325.46 697.325V918.23H4329.61V697.325H4325.46ZM4326.7 916.363C4322.93 917.949 4316.5 919.344 4307.22 920.48L4307.74 924.509C4317.06 923.369 4323.99 921.921 4328.34 920.096L4326.7 916.363ZM4307.08 920.502C4298.51 922.179 4289.36 923.022 4279.61 923.022V927.084C4289.59 927.084 4299.03 926.22 4307.89 924.486L4307.08 920.502ZM4279.61 923.022C4259.45 923.022 4244.85 919.625 4235.49 913.159L4233.1 916.477C4243.5 923.658 4259.12 927.084 4279.61 927.084V923.022ZM4235.61 913.242C4227.03 906.409 4222.44 894.36 4222.44 876.437H4218.29C4218.29 894.904 4223 908.443 4233 916.394L4235.61 913.242ZM4222.44 876.437V697.325H4218.29V876.437H4222.44ZM4451.61 581.329V579.298H4449.53V581.329H4451.61ZM4562.26 581.329H4564.33V579.298H4562.26V581.329ZM4562.26 913.965L4562.53 915.977L4564.33 915.74V913.965H4562.26ZM4510.85 920.788V922.819H4510.98L4511.12 922.801L4510.85 920.788ZM4467.29 905.436L4465.78 906.833L4465.82 906.872L4465.86 906.91L4467.29 905.436ZM4510.85 920.788H4508.78V922.819H4510.85V920.788ZM4510.85 832.085V830.055H4508.78V832.085H4510.85ZM4787.92 832.085L4789.58 830.867L4788.96 830.055H4787.92V832.085ZM4796.63 849.997L4794.64 850.594L4794.66 850.661L4794.68 850.726L4796.63 849.997ZM4789.66 909.7L4788.13 908.319V908.324L4789.66 909.7ZM4562.26 702.443V704.473H4564.33V702.443H4562.26ZM4451.61 702.443H4449.53V704.473H4451.61V702.443ZM4451.61 402.217L4451.15 400.235L4449.53 400.589V402.217H4451.61ZM4473.39 397.953L4473.02 395.953L4472.99 395.957L4473.39 397.953ZM4548.32 406.482L4547.01 408.058L4547.03 408.082L4547.07 408.107L4548.32 406.482ZM4451.61 583.36H4562.26V579.298H4451.61V583.36ZM4560.18 581.329V913.965H4564.33V581.329H4560.18ZM4561.97 911.952L4510.56 918.776L4511.12 922.801L4562.53 915.977L4561.97 911.952ZM4510.85 918.758C4493.26 918.758 4479.3 913.774 4468.7 903.962L4465.86 906.91C4477.35 917.567 4492.41 922.819 4510.85 922.819V918.758ZM4468.78 904.039C4458.74 893.668 4453.68 880.263 4453.68 863.643H4449.53C4449.53 881.14 4454.91 895.597 4465.78 906.833L4468.78 904.039ZM4453.68 863.643V581.329H4449.53V863.643H4453.68ZM4512.93 920.788V832.085H4508.78V920.788H4512.93ZM4510.85 834.116H4787.92V830.055H4510.85V834.116ZM4786.26 833.304C4789.56 837.611 4792.36 843.35 4794.64 850.594L4798.6 849.399C4796.24 841.859 4793.25 835.657 4789.58 830.867L4786.26 833.304ZM4794.68 850.726C4797.48 857.853 4798.91 865.846 4798.91 874.731H4803.06C4803.06 865.42 4801.57 856.923 4798.56 849.267L4794.68 850.726ZM4798.91 874.731C4798.91 889.783 4795.2 900.865 4788.13 908.319L4791.18 911.081C4799.2 902.615 4803.06 890.384 4803.06 874.731H4798.91ZM4788.13 908.324C4781.63 915.22 4772.63 918.758 4760.91 918.758V922.819C4773.56 922.819 4783.75 918.965 4791.18 911.077L4788.13 908.324ZM4760.91 918.758H4510.85V922.819H4760.91V918.758ZM4562.26 700.412H4451.61V704.473H4562.26V700.412ZM4453.68 702.443V402.217H4449.53V702.443H4453.68ZM4452.04 404.199C4457.25 403.07 4464.49 401.653 4473.76 399.949L4472.99 395.957C4463.7 397.664 4456.42 399.09 4451.15 400.235L4452.04 404.199ZM4473.74 399.953C4483.49 398.268 4493.26 397.425 4503.01 397.425V393.363C4493.01 393.363 4483.01 394.226 4473.02 395.953L4473.74 399.953ZM4503.01 397.425C4523.76 397.425 4538.28 401.111 4547.01 408.058L4549.63 404.906C4539.77 397.069 4524.07 393.363 4503.01 393.363V397.425ZM4547.07 408.107C4555.56 414.343 4560.18 426.582 4560.18 445.716H4564.33C4564.33 426.184 4559.65 412.268 4549.56 404.857L4547.07 408.107ZM4560.18 445.716V702.443H4564.33V445.716H4560.18ZM4920.42 771.529L4918.34 771.646L4918.47 773.856L4920.71 773.539L4920.42 771.529ZM4916.06 698.178L4915.75 696.17L4913.88 696.444L4913.98 698.296L4916.06 698.178ZM5149.56 664.062L5149.85 666.07L5151.78 665.79L5151.62 663.901L5149.56 664.062ZM4984.02 614.593L4985.49 616.008L4985.51 615.988L4984.02 614.593ZM4953.52 700.737L4951.45 700.706V700.779V700.855L4953.52 700.737ZM4956.14 745.088L4954.06 745.206V745.289L4954.08 745.371L4956.14 745.088ZM4998.83 825.262L4997.59 826.887L4997.61 826.901L4998.83 825.262ZM5156.53 840.614L5157.17 842.542L5157.2 842.534L5157.24 842.525L5156.53 840.614ZM5206.19 816.733L5207.31 815.025L5206.13 814.28L5204.99 815.08L5206.19 816.733ZM5225.36 836.35L5223.56 837.357L5223.6 837.434L5223.64 837.505L5225.36 836.35ZM5213.16 899.465L5214.43 901.066L5214.45 901.047L5214.47 901.031L5213.16 899.465ZM4962.24 907.995L4961.32 909.816V909.826L4961.35 909.834L4962.24 907.995ZM4881.21 834.644L4879.4 835.662L4879.42 835.684L4881.21 834.644ZM4913.45 557.447L4914.86 558.93V558.928L4913.45 557.447ZM4979.66 518.213L4980.35 520.131L4980.37 520.124L4980.39 520.116L4979.66 518.213ZM5158.27 527.596L5157.26 529.374L5157.28 529.387L5157.32 529.397L5158.27 527.596ZM5226.23 589.858L5224.45 590.898V590.91L5224.47 590.924L5226.23 589.858ZM5238.43 717.795L5239.84 719.284V719.28L5238.43 717.795ZM5203.58 731.442L5203.33 729.425L5203.31 729.427L5203.27 729.431L5203.58 731.442ZM4922.47 771.411L4918.11 698.06L4913.98 698.296L4918.34 771.646L4922.47 771.411ZM4916.35 700.186L5149.85 666.07L5149.25 662.053L4915.75 696.17L4916.35 700.186ZM5151.62 663.901C5149.85 641.837 5141.22 622.643 5125.81 606.388L5122.76 609.15C5137.55 624.738 5145.79 643.072 5147.49 664.222L5151.62 663.901ZM5125.81 606.388C5110.21 589.935 5087.49 581.857 5058.08 581.857V585.919C5086.73 585.919 5108.18 593.761 5122.76 609.15L5125.81 606.388ZM5058.08 581.857C5027.89 581.857 5002.65 592.309 4982.5 613.198L4985.51 615.988C5004.87 595.936 5028.99 585.919 5058.08 585.919V581.857ZM4982.53 613.177C4962.3 633.566 4952.03 662.847 4951.45 700.706L4955.6 700.767C4956.16 663.57 4966.24 635.422 4985.49 616.008L4982.53 613.177ZM4951.45 700.855L4954.06 745.206L4958.19 744.971L4955.58 700.619L4951.45 700.855ZM4954.08 745.371C4959.35 782.133 4973.79 809.416 4997.59 826.887L5000.08 823.637C4977.4 806.991 4963.36 780.825 4958.19 744.806L4954.08 745.371ZM4997.61 826.901C5021.84 844.266 5052.21 852.88 5088.57 852.88V848.819C5052.89 848.819 5023.43 840.375 5000.05 823.623L4997.61 826.901ZM5088.57 852.88C5113.15 852.88 5136.04 849.44 5157.17 842.542L5155.87 838.687C5135.18 845.435 5112.76 848.819 5088.57 848.819V852.88ZM5157.24 842.525C5178.23 835.097 5194.99 827.061 5207.4 818.386L5204.99 815.08C5193 823.463 5176.63 831.348 5155.83 838.704L5157.24 842.525ZM5205.07 818.441C5212.92 823.388 5219.08 829.689 5223.56 837.357L5227.15 835.343C5222.33 827.09 5215.72 820.313 5207.31 815.025L5205.07 818.441ZM5223.64 837.505C5228.64 844.554 5231.13 852.395 5231.13 861.084H5235.28C5235.28 851.578 5232.54 842.93 5227.06 835.194L5223.64 837.505ZM5231.13 861.084C5231.13 875.17 5224.8 887.419 5211.84 897.9L5214.47 901.031C5228.25 889.905 5235.28 876.567 5235.28 861.084H5231.13ZM5211.88 897.867C5198.81 907.877 5181.09 915.738 5158.63 921.379L5159.64 925.315C5182.48 919.584 5200.78 911.524 5214.43 901.066L5211.88 897.867ZM5158.63 921.379C5136.18 927.015 5110.5 929.845 5081.6 929.845V933.907C5110.77 933.907 5136.8 931.052 5159.64 925.315L5158.63 921.379ZM5081.6 929.845C5037.13 929.845 4997.65 921.932 4963.11 906.155L4961.35 909.834C4996.53 925.9 5036.61 933.907 5081.6 933.907V929.845ZM4963.15 906.173C4929.23 889.858 4902.53 865.68 4882.99 833.604L4879.42 835.684C4899.38 868.43 4926.68 893.152 4961.32 909.816L4963.15 906.173ZM4882.99 833.627C4864.05 801.602 4854.53 761.606 4854.53 713.53H4850.38C4850.38 762.118 4860.01 802.865 4879.4 835.662L4882.99 833.627ZM4854.53 713.53C4854.53 679.052 4860.01 648.906 4870.92 623.045L4867.08 621.493C4855.92 647.944 4850.38 678.638 4850.38 713.53H4854.53ZM4870.92 623.045C4881.85 597.12 4896.52 575.765 4914.86 558.93L4912.01 555.965C4893.2 573.247 4878.22 595.106 4867.08 621.493L4870.92 623.045ZM4914.86 558.928C4933.82 541.496 4955.64 528.566 4980.35 520.131L4978.98 516.296C4953.73 524.919 4931.39 538.145 4912.01 555.967L4914.86 558.928ZM4980.39 520.116C5005.12 511.106 5031.01 506.598 5058.08 506.598V502.536C5030.53 502.536 5004.14 507.126 4978.94 516.311L4980.39 520.116ZM5058.08 506.598C5096.12 506.598 5129.17 514.215 5157.26 529.374L5159.27 525.817C5130.46 510.271 5096.68 502.536 5058.08 502.536V506.598ZM5157.32 529.397C5186.03 544.012 5208.39 564.506 5224.45 590.898L5228.02 588.818C5211.55 561.761 5188.6 540.747 5159.23 525.794L5157.32 529.397ZM5224.47 590.924C5241.09 617.296 5249.43 647.623 5249.43 681.973H5253.57C5253.57 646.953 5245.05 615.87 5228 588.792L5224.47 590.924ZM5249.43 681.973C5249.43 697.542 5245.17 708.858 5237 716.311L5239.84 719.28C5249.12 710.811 5253.57 698.243 5253.57 681.973H5249.43ZM5237.02 716.307C5229.3 723.313 5218.16 727.75 5203.33 729.425L5203.81 733.458C5219.2 731.722 5231.27 727.061 5239.84 719.284L5237.02 716.307ZM5203.27 729.431L4920.1 769.518L4920.71 773.539L5203.87 733.452L5203.27 729.431ZM5577.52 836.35L5578.64 838.064L5579.6 837.465V836.35H5577.52ZM5577.52 739.118H5579.6V736.872L5577.32 737.097L5577.52 739.118ZM5491.27 747.647L5491.41 749.672L5491.45 749.67L5491.47 749.668L5491.27 747.647ZM5436.38 762.999L5437.54 764.689L5437.56 764.677L5436.38 762.999ZM5631.54 540.389L5630.34 542.034V542.048L5631.54 540.389ZM5671.62 879.848L5670.04 878.526L5670.02 878.559L5670 878.593L5671.62 879.848ZM5646.35 901.171L5647.39 902.934L5647.41 902.92L5647.43 902.904L5646.35 901.171ZM5584.49 923.347L5584.04 921.369L5584 921.373L5583.98 921.379L5584.49 923.347ZM5363.19 900.318L5362.03 901.994L5362.05 902.008L5363.19 900.318ZM5576.65 665.767L5576.86 667.788L5578.73 667.599V665.767H5576.65ZM5552.26 600.946L5551.12 602.636V602.646L5551.14 602.654L5552.26 600.946ZM5361.45 614.593L5360.16 616.179L5361.18 616.977L5362.36 616.422L5361.45 614.593ZM5373.65 525.89L5374.45 527.758L5374.5 527.746L5374.52 527.732L5373.65 525.89ZM5430.28 509.684L5429.97 507.678L5429.95 507.68L5430.28 509.684ZM5499.98 854.586C5517.55 854.586 5533.4 852.868 5547.53 849.408L5546.53 845.468C5532.78 848.831 5517.28 850.525 5499.98 850.525V854.586ZM5547.53 849.408C5561.53 845.982 5571.96 842.223 5578.64 838.064L5576.4 834.636C5570.3 838.438 5560.41 842.07 5546.53 845.468L5547.53 849.408ZM5579.6 836.35V739.118H5575.45V836.35H5579.6ZM5577.32 737.097L5491.06 745.626L5491.47 749.668L5577.73 741.138L5577.32 737.097ZM5491.12 745.622C5467.12 747.34 5448.41 752.511 5435.22 761.322L5437.56 764.677C5449.9 756.43 5467.78 751.365 5491.41 749.672L5491.12 745.622ZM5435.24 761.31C5422.37 769.693 5416.01 782.31 5416.01 798.822H5420.15C5420.15 783.492 5425.98 772.227 5437.54 764.689L5435.24 761.31ZM5416.01 798.822C5416.01 815.945 5423 829.634 5436.9 839.688L5439.36 836.423C5426.54 827.145 5420.15 814.678 5420.15 798.822H5416.01ZM5436.9 839.688C5450.77 849.737 5471.93 854.586 5499.98 854.586V850.525C5472.27 850.525 5452.18 845.708 5439.36 836.423L5436.9 839.688ZM5495.62 506.598C5552.28 506.598 5597.11 518.482 5630.34 542.034L5632.77 538.744C5598.6 514.534 5552.84 502.536 5495.62 502.536V506.598ZM5630.34 542.048C5663.34 564.884 5680 601.135 5680 651.268H5684.15C5684.15 600.189 5667.12 562.52 5632.75 538.73L5630.34 542.048ZM5680 651.268V847.438H5684.15V651.268H5680ZM5680 847.438C5680 860.749 5676.62 871.033 5670.04 878.526L5673.2 881.17C5680.58 872.743 5684.15 861.419 5684.15 847.438H5680ZM5670 878.593C5663.78 886.333 5655.56 893.288 5645.28 899.439L5647.43 902.904C5658.08 896.545 5666.68 889.285 5673.26 881.103L5670 878.593ZM5645.34 899.409C5629.28 908.38 5608.87 915.711 5584.04 921.369L5584.97 925.325C5610.07 919.61 5630.9 912.158 5647.39 902.934L5645.34 899.409ZM5583.98 921.379C5559.21 927.585 5531.22 930.698 5499.98 930.698V934.76C5531.49 934.76 5559.83 931.618 5585.01 925.315L5583.98 921.379ZM5499.98 930.698C5442.12 930.698 5396.98 919.933 5364.35 898.629L5362.05 902.008C5395.61 923.918 5441.67 934.76 5499.98 934.76V930.698ZM5364.37 898.643C5331.89 876.888 5315.6 844.857 5315.6 802.233H5311.45C5311.45 846.039 5328.28 879.398 5362.03 901.994L5364.37 898.643ZM5315.6 802.233C5315.6 764.59 5327.63 736.226 5351.45 716.796L5348.79 713.677C5323.82 734.049 5311.45 763.684 5311.45 802.233H5315.6ZM5351.45 716.796C5375.99 696.681 5411.55 684.255 5458.37 679.729L5457.95 675.688C5410.67 680.259 5374.2 692.853 5348.79 713.679L5351.45 716.796ZM5458.37 679.729L5576.86 667.788L5576.45 663.747L5457.95 675.688L5458.37 679.729ZM5578.73 665.767V650.415H5574.58V665.767H5578.73ZM5578.73 650.415C5578.73 627.141 5570.37 609.926 5553.38 599.238L5551.14 602.654C5566.67 612.436 5574.58 628.201 5574.58 650.415H5578.73ZM5553.42 599.256C5537.26 588.709 5514.42 583.563 5485.17 583.563V587.624C5514 587.624 5535.91 592.713 5551.12 602.636L5553.42 599.256ZM5485.17 583.563C5462.35 583.563 5440.09 586.428 5418.41 592.163L5419.49 596.082C5440.82 590.445 5462.7 587.624 5485.17 587.624V583.563ZM5418.41 592.163C5396.82 597.876 5377.52 604.739 5360.56 612.763L5362.36 616.422C5379.06 608.525 5398.1 601.742 5419.49 596.082L5418.41 592.163ZM5362.75 613.007C5357.19 608.653 5352.11 602.615 5347.57 594.821L5343.96 596.836C5348.71 604.963 5354.1 611.435 5360.16 616.179L5362.75 613.007ZM5347.57 594.821C5343.09 587.143 5340.87 579.243 5340.87 571.094H5336.72C5336.72 580.003 5339.15 588.593 5343.96 596.836L5347.57 594.821ZM5340.87 571.094C5340.87 561.261 5343.65 552.815 5349.17 545.663C5354.71 538.488 5363.09 532.494 5374.45 527.758L5372.84 524.021C5360.99 528.952 5351.95 535.325 5345.85 543.218C5339.75 551.134 5336.72 560.457 5336.72 571.094H5340.87ZM5374.52 527.732C5390.57 520.433 5409.26 515.076 5430.61 511.689L5429.95 507.68C5408.31 511.116 5389.24 516.563 5372.77 524.048L5374.52 527.732ZM5430.61 511.691C5452.58 508.295 5474.26 506.598 5495.62 506.598V502.536C5474.03 502.536 5452.14 504.25 5429.97 507.678L5430.61 511.691ZM5835.86 919.935V921.966H5836.83L5837.45 921.213L5835.86 919.935ZM5793.16 919.935L5791.75 921.438L5792.36 921.966H5793.16V919.935ZM5777.48 847.438L5775.63 846.481V846.506L5775.61 846.53L5777.48 847.438ZM5793.16 822.703L5791.55 821.412L5791.5 821.467L5791.46 821.523L5793.16 822.703ZM6051.06 516.508V514.477H6050.07L6049.44 515.216L6051.06 516.508ZM6089.4 516.508L6090.73 514.948L6090.14 514.477H6089.4V516.508ZM6089.4 612.887L6087.86 611.51L6087.82 611.559L6087.78 611.609L6089.4 612.887ZM6069.36 516.508H6071.43V514.477H6069.36V516.508ZM6069.36 599.24V601.271H6071.43V599.24H6069.36ZM5787.07 599.24L5785.3 600.316L5785.9 601.271H5787.07V599.24ZM5817.56 919.935H5815.49V921.966H5817.56V919.935ZM5817.56 837.203V835.172H5815.49V837.203H5817.56ZM6109.44 837.203L6111.22 836.196L6110.64 835.172H6109.44V837.203ZM6109.44 909.7L6107.96 908.265L6107.92 908.295L6107.9 908.328L6109.44 909.7ZM5835.86 917.905H5793.16V921.966H5835.86V917.905ZM5794.55 918.433C5788.35 912.923 5783.29 906.305 5779.33 898.558L5775.61 900.373C5779.78 908.547 5785.18 915.575 5791.75 921.438L5794.55 918.433ZM5779.33 898.558C5775.41 890.902 5773.46 882.403 5773.46 873.025H5769.31C5769.31 882.98 5771.4 892.108 5775.61 900.373L5779.33 898.558ZM5773.46 873.025C5773.46 864.236 5775.41 856.018 5779.33 848.346L5775.61 846.53C5771.4 854.779 5769.31 863.619 5769.31 873.025H5773.46ZM5779.31 848.394C5783.91 839.942 5789.08 831.773 5794.84 823.883L5791.46 821.523C5785.61 829.555 5780.32 837.875 5775.63 846.481L5779.31 848.394ZM5794.76 823.995L6052.66 517.799L6049.44 515.216L5791.55 821.412L5794.76 823.995ZM6051.06 518.538H6089.4V514.477H6051.06V518.538ZM6088.05 518.067C6094.81 523.575 6100.14 530.175 6104.09 537.885L6107.8 536.07C6103.61 527.86 6097.9 520.813 6090.73 514.948L6088.05 518.067ZM6104.09 537.885C6108.01 545.541 6109.98 554.04 6109.98 563.418H6114.13C6114.13 553.463 6112.01 544.335 6107.8 536.07L6104.09 537.885ZM6109.98 563.418C6109.98 571.62 6108.01 579.859 6104.06 588.146L6107.82 589.864C6112.01 581.094 6114.13 572.274 6114.13 563.418H6109.98ZM6104.06 588.146C6100.1 596.472 6094.71 604.26 6087.86 611.51L6090.91 614.264C6098.03 606.73 6103.65 598.596 6107.82 589.864L6104.06 588.146ZM6087.78 611.609L5834.24 918.658L5837.45 921.213L6091 614.164L6087.78 611.609ZM6067.28 516.508V599.24H6071.43V516.508H6067.28ZM6069.36 597.209H5787.07V601.271H6069.36V597.209ZM5788.81 598.164C5786.03 593.814 5783.5 588.022 5781.19 580.732L5777.23 581.926C5779.58 589.419 5782.27 595.569 5785.3 600.316L5788.81 598.164ZM5781.19 580.732C5778.93 573.539 5777.81 566.064 5777.81 558.3H5773.66C5773.66 566.458 5774.85 574.335 5777.23 581.926L5781.19 580.732ZM5777.81 558.3C5777.81 543.714 5780.97 533.864 5786.77 528.178L5783.85 525.307C5776.88 532.13 5773.66 543.32 5773.66 558.3H5777.81ZM5786.77 528.178C5793.29 521.804 5802.02 518.538 5813.2 518.538V514.477C5801.13 514.477 5791.28 518.035 5783.85 525.307L5786.77 528.178ZM5813.2 518.538H6069.36V514.477H5813.2V518.538ZM5819.63 919.935V837.203H5815.49V919.935H5819.63ZM5817.56 839.234H6109.44V835.172H5817.56V839.234ZM6107.63 838.21C6109.83 842.001 6112.11 847.527 6114.42 854.858L6118.38 853.664C6116.03 846.211 6113.67 840.365 6111.22 836.196L6107.63 838.21ZM6114.42 854.858C6116.68 862.039 6117.82 869.796 6117.82 878.143H6121.97C6121.97 869.431 6120.76 861.267 6118.38 853.664L6114.42 854.858ZM6117.82 878.143C6117.82 892.074 6114.4 901.969 6107.96 908.265L6110.89 911.136C6118.4 903.785 6121.97 892.642 6121.97 878.143H6117.82ZM6107.9 908.328C6101.99 914.639 6093.59 917.905 6082.43 917.905V921.966C6094.48 921.966 6104.09 918.408 6110.95 911.073L6107.9 908.328ZM6082.43 917.905H5817.56V921.966H6082.43V917.905ZM6244.34 771.529L6242.27 771.646L6242.39 773.856L6244.63 773.539L6244.34 771.529ZM6239.98 698.178L6239.67 696.17L6237.81 696.444L6237.91 698.296L6239.98 698.178ZM6473.49 664.062L6473.8 666.07L6475.7 665.79L6475.56 663.901L6473.49 664.062ZM6307.94 614.593L6309.44 616.008L6309.46 615.988L6307.94 614.593ZM6277.45 700.737L6275.37 700.706V700.779V700.855L6277.45 700.737ZM6280.06 745.088L6277.99 745.206V745.289L6278.01 745.371L6280.06 745.088ZM6322.75 825.262L6321.51 826.887L6321.53 826.901L6322.75 825.262ZM6480.46 840.614L6481.12 842.542L6481.14 842.534L6481.16 842.525L6480.46 840.614ZM6530.12 816.733L6531.24 815.025L6530.06 814.28L6528.91 815.08L6530.12 816.733ZM6549.29 836.35L6547.48 837.357L6547.52 837.434L6547.58 837.505L6549.29 836.35ZM6537.09 899.465L6538.37 901.066L6538.4 901.047L6538.42 901.031L6537.09 899.465ZM6286.16 907.995L6285.25 909.816L6285.27 909.826L6285.29 909.834L6286.16 907.995ZM6205.13 834.644L6203.33 835.662L6203.35 835.684L6205.13 834.644ZM6237.37 557.447L6238.78 558.93V558.928L6237.37 557.447ZM6303.59 518.213L6304.27 520.131L6304.29 520.124L6304.31 520.116L6303.59 518.213ZM6482.2 527.596L6481.2 529.374L6481.22 529.387L6481.24 529.397L6482.2 527.596ZM6550.16 589.858L6548.37 590.898V590.91L6548.39 590.924L6550.16 589.858ZM6562.36 717.795L6563.77 719.284V719.28L6562.36 717.795ZM6527.5 731.442L6527.26 729.425L6527.23 729.427L6527.21 729.431L6527.5 731.442ZM6246.41 771.411L6242.06 698.06L6237.91 698.296L6242.27 771.646L6246.41 771.411ZM6240.29 700.186L6473.8 666.07L6473.17 662.053L6239.67 696.17L6240.29 700.186ZM6475.56 663.901C6473.78 641.837 6465.17 622.643 6449.73 606.388L6446.7 609.15C6461.47 624.738 6469.71 643.072 6471.41 664.222L6475.56 663.901ZM6449.73 606.388C6434.13 589.935 6411.44 581.857 6382 581.857V585.919C6410.65 585.919 6432.1 593.761 6446.7 609.15L6449.73 606.388ZM6382 581.857C6351.82 581.857 6326.59 592.309 6306.43 613.198L6309.46 615.988C6328.79 595.936 6352.94 585.919 6382 585.919V581.857ZM6306.45 613.177C6286.22 633.566 6275.95 662.847 6275.37 700.706L6279.52 700.767C6280.1 663.57 6290.16 635.422 6309.44 616.008L6306.45 613.177ZM6275.37 700.855L6277.99 745.206L6282.14 744.971L6279.52 700.619L6275.37 700.855ZM6278.01 745.371C6283.28 782.133 6297.72 809.416 6321.51 826.887L6324 823.637C6301.33 806.991 6287.28 780.825 6282.12 744.806L6278.01 745.371ZM6321.53 826.901C6345.78 844.266 6376.13 852.88 6412.5 852.88V848.819C6376.81 848.819 6347.36 840.375 6323.98 823.623L6321.53 826.901ZM6412.5 852.88C6437.1 852.88 6459.96 849.44 6481.12 842.542L6479.79 838.687C6459.13 845.435 6436.68 848.819 6412.5 848.819V852.88ZM6481.16 842.525C6502.17 835.097 6518.92 827.061 6531.32 818.386L6528.91 815.08C6516.92 823.463 6500.56 831.348 6479.75 838.704L6481.16 842.525ZM6529 818.441C6536.86 823.388 6543 829.689 6547.48 837.357L6551.09 835.343C6546.28 827.09 6539.64 820.313 6531.24 815.025L6529 818.441ZM6547.58 837.505C6552.56 844.554 6555.05 852.395 6555.05 861.084H6559.2C6559.2 851.578 6556.46 842.93 6550.99 835.194L6547.58 837.505ZM6555.05 861.084C6555.05 875.17 6548.73 887.419 6535.76 897.9L6538.42 901.031C6552.17 889.905 6559.2 876.567 6559.2 861.084H6555.05ZM6535.8 897.867C6522.73 907.877 6505.02 915.738 6482.55 921.379L6483.59 925.315C6506.41 919.584 6524.7 911.524 6538.37 901.066L6535.8 897.867ZM6482.55 921.379C6460.1 927.015 6434.44 929.845 6405.53 929.845V933.907C6434.69 933.907 6460.73 931.052 6483.59 925.315L6482.55 921.379ZM6405.53 929.845C6361.05 929.845 6321.57 921.932 6287.03 906.155L6285.29 909.834C6320.45 925.9 6360.55 933.907 6405.53 933.907V929.845ZM6287.07 906.173C6253.18 889.858 6226.46 865.68 6206.92 833.604L6203.35 835.684C6223.3 868.43 6250.6 893.152 6285.25 909.816L6287.07 906.173ZM6206.92 833.627C6188 801.602 6178.45 761.606 6178.45 713.53H6174.31C6174.31 762.118 6183.93 802.865 6203.33 835.662L6206.92 833.627ZM6178.45 713.53C6178.45 679.052 6183.93 648.906 6194.84 623.045L6191.03 621.493C6179.87 647.944 6174.31 678.638 6174.31 713.53H6178.45ZM6194.84 623.045C6205.8 597.12 6220.44 575.765 6238.78 558.93L6235.96 555.965C6217.12 573.247 6202.14 595.106 6191.03 621.493L6194.84 623.045ZM6238.78 558.928C6257.74 541.496 6279.56 528.566 6304.27 520.131L6302.9 516.296C6277.66 524.919 6255.33 538.145 6235.94 555.967L6238.78 558.928ZM6304.31 520.116C6329.04 511.106 6354.95 506.598 6382 506.598V502.536C6354.45 502.536 6328.09 507.126 6302.86 516.311L6304.31 520.116ZM6382 506.598C6420.05 506.598 6453.09 514.215 6481.2 529.374L6483.19 525.817C6454.38 510.271 6420.63 502.536 6382 502.536V506.598ZM6481.24 529.397C6509.95 544.012 6532.32 564.506 6548.37 590.898L6551.94 588.818C6535.47 561.761 6512.53 540.747 6483.15 525.794L6481.24 529.397ZM6548.39 590.924C6565.01 617.296 6573.35 647.623 6573.35 681.973H6577.5C6577.5 646.953 6568.99 615.87 6551.92 588.792L6548.39 590.924ZM6573.35 681.973C6573.35 697.542 6569.1 708.858 6560.94 716.311L6563.77 719.28C6573.04 710.811 6577.5 698.243 6577.5 681.973H6573.35ZM6560.94 716.307C6553.23 723.313 6542.09 727.75 6527.26 729.425L6527.73 733.458C6543.13 731.722 6555.22 727.061 6563.77 719.284L6560.94 716.307ZM6527.21 729.431L6244.05 769.518L6244.63 773.539L6527.79 733.452L6527.21 729.431Z" fill="#0D5537"></path>
</g>
<path d="M540.398 1159.55C838.852 1159.55 1080.8 922.703 1080.8 630.54C1080.8 338.376 838.852 101.531 540.398 101.531C241.945 101.531 0 338.376 0 630.54C0 922.703 241.945 1159.55 540.398 1159.55Z" fill="#0D5537"></path>
<path d="M1779.91 627.5C1779.91 974.059 1492.92 1255 1138.9 1255C784.88 1255 497.891 974.059 497.891 627.5C497.891 280.941 784.88 0 1138.9 0C1492.92 0 1779.91 280.941 1779.91 627.5ZM603.79 627.5C603.79 916.804 843.368 1151.33 1138.9 1151.33C1434.43 1151.33 1674.01 916.804 1674.01 627.5C1674.01 338.196 1434.43 103.668 1138.9 103.668C843.368 103.668 603.79 338.196 603.79 627.5Z" fill="white"></path>
<path d="M1676.11 630.54C1676.11 922.703 1434.63 1159.55 1136.75 1159.55C838.871 1159.55 597.391 922.703 597.391 630.54C597.391 338.376 838.871 101.531 1136.75 101.531C1434.63 101.531 1676.11 338.376 1676.11 630.54ZM686.497 630.54C686.497 874.436 888.083 1072.15 1136.75 1072.15C1385.42 1072.15 1587.01 874.436 1587.01 630.54C1587.01 386.643 1385.42 188.927 1136.75 188.927C888.083 188.927 686.497 386.643 686.497 630.54Z" fill="#0D5537"></path>
</svg>
