<svg width="32" height="190" viewBox="0 0 32 190" fill="none" xmlns="http://www.w3.org/2000/svg">
<circle cx="16.5" cy="40.5" r="1.5" transform="rotate(-90 16.5 40.5)" fill="#B3B3B3"></circle>
<circle cx="16.5" cy="119.5" r="1.5" transform="rotate(-90 16.5 119.5)" fill="#B3B3B3"></circle>
<circle cx="16.5" cy="46.5" r="1.5" transform="rotate(-90 16.5 46.5)" fill="#B3B3B3"></circle>
<circle cx="16.5" cy="125.5" r="1.5" transform="rotate(-90 16.5 125.5)" fill="#B3B3B3"></circle>
<circle cx="16.5" cy="52.5" r="1.5" transform="rotate(-90 16.5 52.5)" fill="#B3B3B3"></circle>
<circle cx="16.5" cy="131.5" r="1.5" transform="rotate(-90 16.5 131.5)" fill="#B3B3B3"></circle>
<circle cx="16.5" cy="58.5" r="1.5" transform="rotate(-90 16.5 58.5)" fill="#B3B3B3"></circle>
<circle cx="16.5" cy="137.5" r="1.5" transform="rotate(-90 16.5 137.5)" fill="#B3B3B3"></circle>
<circle cx="16.5" cy="64.5" r="1.5" transform="rotate(-90 16.5 64.5)" fill="#B3B3B3"></circle>
<circle cx="16.5" cy="143.5" r="1.5" transform="rotate(-90 16.5 143.5)" fill="#B3B3B3"></circle>
<circle cx="16.5" cy="70.5" r="1.5" transform="rotate(-90 16.5 70.5)" fill="#B3B3B3"></circle>
<circle cx="16.5" cy="149.5" r="1.5" transform="rotate(-90 16.5 149.5)" fill="#B3B3B3"></circle>
<circle cx="16" cy="16" r="15" fill="white" stroke="#0D5537" stroke-width="2"></circle>
<circle cx="16" cy="16" r="5.5" fill="#0D5537"></circle>
<circle cx="16" cy="95" r="15" fill="white" stroke="#B3B3B3" stroke-width="2"></circle>
<circle cx="16" cy="95" r="5.5" fill="#B3B3B3"></circle>
<circle cx="16" cy="174" r="15" fill="white" stroke="#B3B3B3" stroke-width="2"></circle>
<circle cx="16" cy="174" r="5.5" fill="#B3B3B3"></circle>
</svg>
